<svg xmlns="http://www.w3.org/2000/svg" xmlns:xlink="http://www.w3.org/1999/xlink" width="1080" zoomAndPan="magnify" viewBox="0 0 810 809.999993" height="1080" preserveAspectRatio="xMidYMid meet" version="1.0"><defs><filter x="0%" y="0%" width="100%" height="100%" id="75c3c8c894"><feColorMatrix values="0 0 0 0 1 0 0 0 0 1 0 0 0 0 1 0 0 0 1 0" color-interpolation-filters="sRGB"/></filter><mask id="97c611ef06"><g filter="url(#75c3c8c894)"><rect x="-81" width="972" fill="#000000" y="-80.999999" height="971.999992" fill-opacity="0.098"/></g></mask><clipPath id="f5abe56076"><path d="M 0.078125 1 L 682.398438 1 L 682.398438 673.320312 L 0.078125 673.320312 Z M 0.078125 1 " clip-rule="nonzero"/></clipPath><clipPath id="cedd84e177"><rect x="0" width="683" y="0" height="674"/></clipPath><clipPath id="66f0795bf1"><path d="M 326 543 L 464 543 L 464 606.71875 L 326 606.71875 Z M 326 543 " clip-rule="nonzero"/></clipPath><clipPath id="83eaaed4ca"><path d="M 144 203.21875 L 647 203.21875 L 647 506 L 144 506 Z M 144 203.21875 " clip-rule="nonzero"/></clipPath><clipPath id="cb69fe5d1e"><path d="M 269 604 L 774.75 604 L 774.75 606.71875 L 269 606.71875 Z M 269 604 " clip-rule="nonzero"/></clipPath><clipPath id="83408256aa"><path d="M 35.25 604 L 206 604 L 206 606.71875 L 35.25 606.71875 Z M 35.25 604 " clip-rule="nonzero"/></clipPath></defs><g mask="url(#97c611ef06)"><g transform="matrix(1, 0, 0, 1, 34, 63)"><g clip-path="url(#cedd84e177)"><g clip-path="url(#f5abe56076)"><path fill="#0048ff" d="M 517.6875 577.160156 C 563.695312 542.421875 603.46875 499.664062 636.15625 452.164062 C 668.609375 405.011719 694.808594 345.796875 676.050781 291.714844 C 664.707031 259.046875 638.628906 233.746094 622.964844 202.929688 C 598.9375 155.660156 599.484375 95.898438 564.019531 56.492188 C 538.195312 27.792969 498.605469 16.34375 460.777344 8.640625 C 409.328125 -1.835938 350.421875 -6.109375 309.644531 26.960938 C 271.851562 57.613281 261.992188 110.128906 240.15625 153.632812 C 213.226562 207.28125 172.140625 211.34375 121.527344 225.292969 C -163.109375 303.6875 87.230469 902.113281 517.6875 577.160156 " fill-opacity="1" fill-rule="nonzero"/></g></g></g></g><path fill="#e4e4e4" d="M 677.183594 604.046875 C 677.253906 603.835938 684.109375 582.636719 671.980469 563.722656 L 670.742188 564.515625 C 682.480469 582.824219 675.859375 603.378906 675.789062 603.582031 Z M 677.183594 604.046875 " fill-opacity="1" fill-rule="nonzero"/><path fill="#e4e4e4" d="M 663.308594 566.441406 C 663.4375 567.0625 663.628906 567.664062 663.875 568.246094 C 664.125 568.828125 664.429688 569.378906 664.785156 569.902344 C 665.144531 570.425781 665.550781 570.910156 666 571.351562 C 666.453125 571.792969 666.945312 572.1875 667.476562 572.535156 C 668.007812 572.882812 668.566406 573.171875 669.15625 573.40625 C 669.742188 573.644531 670.347656 573.820312 670.972656 573.9375 C 671.59375 574.054688 672.222656 574.105469 672.855469 574.101562 C 673.488281 574.09375 674.117188 574.023438 674.734375 573.894531 C 675.355469 573.761719 675.957031 573.574219 676.539062 573.324219 C 677.121094 573.074219 677.671875 572.769531 678.195312 572.414062 C 678.71875 572.054688 679.203125 571.648438 679.644531 571.195312 C 680.085938 570.742188 680.480469 570.25 680.828125 569.71875 C 681.171875 569.1875 681.460938 568.628906 681.699219 568.042969 C 681.933594 567.453125 682.109375 566.847656 682.226562 566.226562 C 682.339844 565.601562 682.394531 564.976562 682.386719 564.339844 C 682.378906 563.707031 682.3125 563.082031 682.179688 562.460938 C 681.082031 557.25 671.761719 544.285156 666.550781 545.382812 C 661.339844 546.480469 662.207031 561.230469 663.308594 566.441406 Z M 663.308594 566.441406 " fill-opacity="1" fill-rule="nonzero"/><path fill="#e4e4e4" d="M 665.066406 590.8125 C 669.714844 595.835938 678.035156 595.699219 678.035156 595.699219 C 678.035156 595.699219 678.816406 587.417969 674.164062 582.390625 C 669.515625 577.367188 661.195312 577.503906 661.195312 577.503906 C 661.195312 577.503906 660.414062 585.785156 665.066406 590.8125 Z M 665.066406 590.8125 " fill-opacity="1" fill-rule="nonzero"/><path fill="#e4e4e4" d="M 735.558594 605.519531 C 735.726562 605.019531 751.894531 554.992188 723.277344 510.351562 L 720.355469 512.222656 C 748.058594 555.4375 732.425781 603.9375 732.265625 604.421875 Z M 735.558594 605.519531 " fill-opacity="1" fill-rule="nonzero"/><path fill="#e4e4e4" d="M 702.808594 516.769531 C 702.964844 517.5 703.152344 518.21875 703.378906 518.929688 C 703.601562 519.640625 703.863281 520.335938 704.15625 521.019531 C 704.449219 521.707031 704.773438 522.375 705.132812 523.027344 C 705.492188 523.679688 705.882812 524.3125 706.304688 524.929688 C 706.726562 525.542969 707.175781 526.136719 707.65625 526.707031 C 708.136719 527.277344 708.640625 527.820312 709.175781 528.34375 C 709.707031 528.863281 710.265625 529.355469 710.847656 529.820312 C 711.429688 530.289062 712.03125 530.722656 712.65625 531.128906 C 713.28125 531.535156 713.921875 531.910156 714.582031 532.253906 C 715.246094 532.597656 715.921875 532.910156 716.613281 533.1875 C 717.304688 533.464844 718.007812 533.707031 718.722656 533.914062 C 719.4375 534.121094 720.164062 534.292969 720.894531 534.429688 C 721.628906 534.566406 722.367188 534.667969 723.109375 534.734375 C 723.851562 534.796875 724.59375 534.824219 725.339844 534.816406 C 726.082031 534.808594 726.828125 534.761719 727.566406 534.679688 C 728.308594 534.597656 729.042969 534.480469 729.773438 534.328125 C 730.5 534.175781 731.222656 533.984375 731.929688 533.761719 C 732.640625 533.535156 733.339844 533.277344 734.023438 532.984375 C 734.710938 532.691406 735.378906 532.367188 736.03125 532.007812 C 736.683594 531.648438 737.320312 531.257812 737.933594 530.839844 C 738.546875 530.417969 739.140625 529.96875 739.710938 529.488281 C 740.28125 529.007812 740.828125 528.503906 741.347656 527.96875 C 741.871094 527.4375 742.363281 526.878906 742.828125 526.300781 C 743.296875 525.71875 743.734375 525.117188 744.140625 524.492188 C 744.546875 523.867188 744.921875 523.226562 745.265625 522.5625 C 745.609375 521.902344 745.921875 521.226562 746.199219 520.535156 C 746.476562 519.84375 746.71875 519.140625 746.925781 518.425781 C 747.132812 517.710938 747.308594 516.988281 747.445312 516.253906 C 747.582031 515.523438 747.683594 514.785156 747.746094 514.042969 C 747.8125 513.300781 747.839844 512.558594 747.832031 511.8125 C 747.824219 511.066406 747.78125 510.324219 747.699219 509.582031 C 747.617188 508.84375 747.5 508.109375 747.347656 507.378906 C 744.753906 495.082031 722.765625 464.480469 710.464844 467.074219 C 698.167969 469.667969 700.214844 504.472656 702.808594 516.769531 Z M 702.808594 516.769531 " fill-opacity="1" fill-rule="nonzero"/><path fill="#e4e4e4" d="M 706.957031 574.28125 C 717.933594 586.140625 737.566406 585.816406 737.566406 585.816406 C 737.566406 585.816406 739.40625 566.269531 728.433594 554.410156 C 717.457031 542.550781 697.820312 542.875 697.820312 542.875 C 697.820312 542.875 695.980469 562.421875 706.957031 574.28125 Z M 706.957031 574.28125 " fill-opacity="1" fill-rule="nonzero"/><g clip-path="url(#66f0795bf1)"><path fill="#e6e6e6" d="M 461.859375 601.75 L 451.128906 597.234375 L 443.765625 543.445312 L 345.730469 543.445312 L 337.753906 597.015625 L 328.152344 601.8125 C 327.921875 601.929688 327.71875 602.078125 327.539062 602.261719 C 327.359375 602.445312 327.214844 602.652344 327.105469 602.886719 C 326.996094 603.117188 326.929688 603.363281 326.902344 603.617188 C 326.878906 603.875 326.894531 604.125 326.953125 604.375 C 327.011719 604.625 327.109375 604.859375 327.246094 605.074219 C 327.386719 605.292969 327.554688 605.480469 327.757812 605.640625 C 327.957031 605.800781 328.179688 605.921875 328.421875 606.003906 C 328.664062 606.089844 328.914062 606.132812 329.171875 606.132812 L 460.972656 606.132812 C 461.238281 606.132812 461.492188 606.085938 461.742188 606 C 461.988281 605.910156 462.214844 605.785156 462.417969 605.617188 C 462.621094 605.449219 462.792969 605.253906 462.925781 605.027344 C 463.0625 604.804688 463.15625 604.5625 463.207031 604.304688 C 463.261719 604.046875 463.269531 603.785156 463.230469 603.527344 C 463.191406 603.265625 463.113281 603.019531 462.988281 602.785156 C 462.867188 602.554688 462.707031 602.347656 462.511719 602.171875 C 462.320312 601.992188 462.101562 601.855469 461.859375 601.75 Z M 461.859375 601.75 " fill-opacity="1" fill-rule="nonzero"/></g><path fill="#cccccc" d="M 636.070312 550.601562 L 154.503906 550.601562 C 153.878906 550.601562 153.257812 550.539062 152.644531 550.414062 C 152.03125 550.292969 151.4375 550.109375 150.859375 549.871094 C 150.28125 549.628906 149.734375 549.335938 149.210938 548.988281 C 148.691406 548.640625 148.210938 548.242188 147.769531 547.800781 C 147.328125 547.359375 146.933594 546.875 146.585938 546.355469 C 146.238281 545.835938 145.945312 545.285156 145.707031 544.707031 C 145.46875 544.128906 145.289062 543.535156 145.167969 542.921875 C 145.042969 542.308594 144.984375 541.6875 144.984375 541.0625 L 144.984375 473.167969 L 645.589844 473.167969 L 645.589844 541.0625 C 645.589844 541.6875 645.527344 542.308594 645.40625 542.921875 C 645.285156 543.535156 645.105469 544.128906 644.867188 544.707031 C 644.625 545.285156 644.332031 545.835938 643.984375 546.355469 C 643.640625 546.875 643.246094 547.359375 642.804688 547.800781 C 642.359375 548.242188 641.878906 548.640625 641.359375 548.988281 C 640.839844 549.335938 640.292969 549.628906 639.714844 549.871094 C 639.136719 550.109375 638.542969 550.292969 637.929688 550.414062 C 637.316406 550.539062 636.695312 550.601562 636.070312 550.601562 Z M 636.070312 550.601562 " fill-opacity="1" fill-rule="nonzero"/><g clip-path="url(#83eaaed4ca)"><path fill="#3f3d56" d="M 646.09375 505.257812 L 144.542969 505.257812 L 144.542969 214.742188 C 144.546875 213.988281 144.621094 213.238281 144.765625 212.5 C 144.914062 211.757812 145.132812 211.039062 145.421875 210.34375 C 145.710938 209.644531 146.066406 208.984375 146.488281 208.355469 C 146.90625 207.730469 147.382812 207.148438 147.917969 206.613281 C 148.449219 206.082031 149.03125 205.605469 149.660156 205.183594 C 150.285156 204.765625 150.949219 204.410156 151.644531 204.121094 C 152.34375 203.832031 153.0625 203.613281 153.804688 203.464844 C 154.542969 203.316406 155.289062 203.242188 156.046875 203.242188 L 634.589844 203.242188 C 635.347656 203.242188 636.09375 203.316406 636.835938 203.464844 C 637.574219 203.613281 638.292969 203.832031 638.992188 204.121094 C 639.6875 204.410156 640.351562 204.765625 640.976562 205.183594 C 641.605469 205.605469 642.1875 206.082031 642.71875 206.613281 C 643.253906 207.148438 643.730469 207.730469 644.152344 208.355469 C 644.570312 208.984375 644.925781 209.644531 645.214844 210.34375 C 645.503906 211.039062 645.722656 211.757812 645.871094 212.5 C 646.019531 213.238281 646.09375 213.988281 646.09375 214.742188 Z M 646.09375 505.257812 " fill-opacity="1" fill-rule="nonzero"/></g><path fill="#ffffff" d="M 616.140625 224.328125 L 174.5 224.328125 C 173.917969 224.328125 173.339844 224.386719 172.769531 224.5 C 172.199219 224.613281 171.644531 224.78125 171.105469 225.003906 C 170.570312 225.230469 170.058594 225.503906 169.574219 225.824219 C 169.089844 226.148438 168.644531 226.515625 168.234375 226.929688 C 167.820312 227.339844 167.453125 227.789062 167.128906 228.273438 C 166.808594 228.753906 166.535156 229.265625 166.3125 229.804688 C 166.089844 230.339844 165.921875 230.894531 165.808594 231.464844 C 165.695312 232.039062 165.636719 232.613281 165.636719 233.195312 L 165.636719 475.304688 C 165.636719 475.886719 165.695312 476.460938 165.808594 477.035156 C 165.921875 477.605469 166.089844 478.15625 166.3125 478.695312 C 166.535156 479.234375 166.808594 479.742188 167.128906 480.226562 C 167.453125 480.710938 167.820312 481.160156 168.234375 481.570312 C 168.644531 481.984375 169.089844 482.351562 169.574219 482.675781 C 170.058594 482.996094 170.570312 483.269531 171.105469 483.492188 C 171.644531 483.71875 172.199219 483.886719 172.769531 484 C 173.339844 484.113281 173.917969 484.171875 174.5 484.171875 L 616.140625 484.171875 C 616.722656 484.171875 617.296875 484.113281 617.871094 484 C 618.441406 483.882812 618.992188 483.714844 619.53125 483.492188 C 620.070312 483.269531 620.578125 482.996094 621.0625 482.671875 C 621.546875 482.347656 621.992188 481.980469 622.40625 481.570312 C 622.816406 481.15625 623.183594 480.710938 623.507812 480.226562 C 623.828125 479.742188 624.101562 479.230469 624.324219 478.695312 C 624.546875 478.15625 624.71875 477.601562 624.832031 477.03125 C 624.945312 476.460938 625 475.886719 625.003906 475.304688 L 625.003906 233.195312 C 625 232.613281 624.945312 232.039062 624.832031 231.464844 C 624.71875 230.894531 624.546875 230.34375 624.324219 229.804688 C 624.101562 229.265625 623.828125 228.757812 623.507812 228.273438 C 623.183594 227.789062 622.816406 227.339844 622.40625 226.929688 C 621.992188 226.519531 621.546875 226.152344 621.0625 225.828125 C 620.578125 225.503906 620.070312 225.230469 619.53125 225.007812 C 618.992188 224.785156 618.441406 224.613281 617.867188 224.5 C 617.296875 224.386719 616.722656 224.328125 616.140625 224.328125 Z M 616.140625 224.328125 " fill-opacity="1" fill-rule="nonzero"/><path fill="#f0f0f0" d="M 252.78125 224.328125 L 252.78125 484.171875 L 174.5 484.171875 C 173.917969 484.171875 173.339844 484.113281 172.769531 484 C 172.199219 483.886719 171.644531 483.71875 171.105469 483.492188 C 170.570312 483.269531 170.058594 482.996094 169.574219 482.675781 C 169.089844 482.351562 168.644531 481.984375 168.234375 481.570312 C 167.820312 481.160156 167.453125 480.710938 167.128906 480.226562 C 166.808594 479.742188 166.535156 479.234375 166.3125 478.695312 C 166.089844 478.15625 165.921875 477.605469 165.808594 477.035156 C 165.695312 476.460938 165.636719 475.886719 165.636719 475.304688 L 165.636719 233.195312 C 165.636719 232.613281 165.695312 232.039062 165.808594 231.464844 C 165.921875 230.894531 166.089844 230.339844 166.3125 229.804688 C 166.535156 229.265625 166.808594 228.753906 167.128906 228.273438 C 167.453125 227.789062 167.820312 227.339844 168.234375 226.929688 C 168.644531 226.515625 169.089844 226.148438 169.574219 225.824219 C 170.058594 225.503906 170.570312 225.230469 171.105469 225.007812 C 171.644531 224.78125 172.199219 224.613281 172.769531 224.5 C 173.339844 224.386719 173.917969 224.328125 174.5 224.328125 Z M 252.78125 224.328125 " fill-opacity="1" fill-rule="nonzero"/><path fill="#ffb6b6" d="M 188.199219 355.59375 C 187.757812 355.492188 187.3125 355.441406 186.859375 355.4375 C 186.410156 355.4375 185.960938 355.484375 185.519531 355.578125 C 185.078125 355.671875 184.652344 355.816406 184.242188 356.003906 C 183.832031 356.195312 183.445312 356.425781 183.085938 356.699219 C 182.726562 356.972656 182.402344 357.28125 182.109375 357.625 C 181.816406 357.96875 181.566406 358.34375 181.355469 358.742188 C 181.144531 359.140625 180.980469 359.558594 180.863281 359.996094 C 180.742188 360.433594 180.671875 360.875 180.652344 361.328125 L 159.578125 367.539062 L 168.304688 374.902344 L 186.976562 367.875 C 187.351562 367.867188 187.726562 367.824219 188.097656 367.75 C 188.464844 367.675781 188.824219 367.566406 189.175781 367.425781 C 189.527344 367.285156 189.859375 367.117188 190.179688 366.914062 C 190.5 366.710938 190.796875 366.484375 191.074219 366.226562 C 191.351562 365.972656 191.601562 365.695312 191.828125 365.390625 C 192.054688 365.089844 192.253906 364.769531 192.421875 364.433594 C 192.589844 364.09375 192.726562 363.746094 192.832031 363.382812 C 192.933594 363.019531 193.007812 362.652344 193.042969 362.277344 C 193.082031 361.902344 193.085938 361.527344 193.054688 361.148438 C 193.023438 360.773438 192.957031 360.402344 192.859375 360.039062 C 192.761719 359.675781 192.628906 359.324219 192.46875 358.984375 C 192.304688 358.640625 192.113281 358.320312 191.890625 358.015625 C 191.671875 357.707031 191.421875 357.425781 191.148438 357.164062 C 190.878906 356.90625 190.582031 356.671875 190.269531 356.464844 C 189.953125 356.257812 189.621094 356.082031 189.273438 355.933594 C 188.925781 355.789062 188.566406 355.675781 188.199219 355.59375 Z M 188.199219 355.59375 " fill-opacity="1" fill-rule="nonzero"/><path fill="#0048ff" d="M 103.058594 402.339844 C 102.542969 402.335938 102.03125 402.292969 101.519531 402.199219 C 101.011719 402.109375 100.515625 401.976562 100.03125 401.796875 C 99.546875 401.617188 99.082031 401.398438 98.632812 401.136719 C 98.1875 400.875 97.769531 400.578125 97.375 400.242188 C 96.980469 399.910156 96.621094 399.542969 96.289062 399.144531 C 95.960938 398.746094 95.671875 398.320312 95.417969 397.871094 C 95.164062 397.421875 94.949219 396.953125 94.777344 396.464844 C 94.605469 395.976562 94.480469 395.480469 94.394531 394.96875 C 94.3125 394.460938 94.273438 393.945312 94.28125 393.429688 C 94.289062 392.914062 94.339844 392.402344 94.4375 391.894531 C 94.535156 391.386719 94.675781 390.890625 94.863281 390.410156 C 95.046875 389.925781 95.273438 389.464844 95.539062 389.019531 C 95.804688 388.578125 96.109375 388.160156 96.445312 387.773438 C 96.785156 387.382812 97.15625 387.027344 97.5625 386.703125 C 97.964844 386.378906 98.390625 386.09375 98.84375 385.84375 C 99.296875 385.597656 99.769531 385.390625 100.257812 385.222656 L 142.960938 370.8125 L 176.269531 358.679688 L 180.355469 372.984375 L 150.949219 392.359375 L 104.898438 402.144531 C 104.289062 402.273438 103.679688 402.339844 103.058594 402.339844 Z M 103.058594 402.339844 " fill-opacity="1" fill-rule="nonzero"/><path fill="#ffb6b6" d="M 129.78125 599.410156 L 135.777344 599.410156 L 138.628906 576.289062 L 129.78125 576.289062 Z M 129.78125 599.410156 " fill-opacity="1" fill-rule="nonzero"/><path fill="#2f2e41" d="M 128.25 597.453125 L 140.058594 597.453125 C 140.554688 597.453125 141.042969 597.503906 141.527344 597.597656 C 142.011719 597.695312 142.480469 597.839844 142.9375 598.027344 C 143.394531 598.214844 143.828125 598.449219 144.238281 598.722656 C 144.648438 598.996094 145.03125 599.308594 145.378906 599.65625 C 145.726562 600.007812 146.039062 600.386719 146.316406 600.796875 C 146.589844 601.207031 146.820312 601.640625 147.011719 602.097656 C 147.199219 602.554688 147.34375 603.023438 147.4375 603.507812 C 147.535156 603.992188 147.582031 604.484375 147.582031 604.976562 L 147.582031 605.222656 L 128.25 605.222656 Z M 128.25 597.453125 " fill-opacity="1" fill-rule="nonzero"/><path fill="#ffb6b6" d="M 83.8125 599.410156 L 89.808594 599.410156 L 92.660156 576.289062 L 83.8125 576.289062 Z M 83.8125 599.410156 " fill-opacity="1" fill-rule="nonzero"/><path fill="#2f2e41" d="M 82.28125 597.453125 L 94.089844 597.453125 C 94.585938 597.453125 95.074219 597.503906 95.558594 597.597656 C 96.042969 597.695312 96.511719 597.835938 96.96875 598.027344 C 97.425781 598.214844 97.859375 598.449219 98.269531 598.722656 C 98.679688 598.996094 99.0625 599.308594 99.410156 599.65625 C 99.757812 600.007812 100.070312 600.386719 100.347656 600.796875 C 100.621094 601.207031 100.851562 601.640625 101.042969 602.097656 C 101.230469 602.554688 101.375 603.023438 101.46875 603.507812 C 101.566406 603.992188 101.613281 604.484375 101.613281 604.976562 L 101.613281 605.222656 L 82.28125 605.222656 Z M 82.28125 597.453125 " fill-opacity="1" fill-rule="nonzero"/><path fill="#2f2e41" d="M 83.753906 460.722656 C 82.378906 463.917969 81.546875 467.25 81.253906 470.714844 C 80.960938 474.179688 81.222656 477.601562 82.039062 480.980469 L 80.328125 595.675781 L 93.496094 595.675781 L 100.867188 532.601562 L 113.09375 491.039062 L 126.296875 523.308594 L 126.296875 590.566406 L 139.011719 589.808594 L 145.859375 518.421875 L 138.035156 467.570312 Z M 83.753906 460.722656 " fill-opacity="1" fill-rule="nonzero"/><path fill="#0048ff" d="M 131.921875 371.492188 L 120.675781 368.066406 L 117.738281 362.199219 L 103.292969 362.199219 L 99.644531 368.558594 C 99.644531 368.558594 84.976562 373.9375 84.484375 399.851562 C 83.996094 425.765625 82.039062 467.324219 82.039062 467.324219 L 139.886719 475.570312 Z M 131.921875 371.492188 " fill-opacity="1" fill-rule="nonzero"/><path fill="#ffb6b6" d="M 148.527344 470.929688 C 148.71875 470.519531 148.863281 470.09375 148.957031 469.652344 C 149.054688 469.210938 149.101562 468.765625 149.101562 468.3125 C 149.097656 467.859375 149.046875 467.414062 148.949219 466.972656 C 148.847656 466.535156 148.703125 466.109375 148.511719 465.699219 C 148.316406 465.292969 148.082031 464.910156 147.808594 464.550781 C 147.53125 464.195312 147.21875 463.871094 146.871094 463.582031 C 146.523438 463.292969 146.148438 463.046875 145.746094 462.839844 C 145.34375 462.632812 144.925781 462.472656 144.488281 462.355469 L 142.792969 440.457031 L 133.777344 447.457031 L 136.769531 467.179688 C 136.695312 467.550781 136.660156 467.925781 136.65625 468.300781 C 136.652344 468.679688 136.683594 469.054688 136.75 469.425781 C 136.8125 469.796875 136.910156 470.160156 137.042969 470.511719 C 137.171875 470.867188 137.335938 471.207031 137.527344 471.53125 C 137.71875 471.855469 137.941406 472.160156 138.1875 472.441406 C 138.4375 472.726562 138.707031 472.988281 139.003906 473.222656 C 139.296875 473.457031 139.613281 473.664062 139.945312 473.839844 C 140.277344 474.015625 140.625 474.164062 140.984375 474.277344 C 141.34375 474.394531 141.710938 474.472656 142.082031 474.523438 C 142.457031 474.570312 142.832031 474.582031 143.210938 474.5625 C 143.585938 474.542969 143.957031 474.488281 144.324219 474.398438 C 144.691406 474.3125 145.046875 474.191406 145.390625 474.039062 C 145.738281 473.886719 146.066406 473.703125 146.378906 473.488281 C 146.6875 473.277344 146.976562 473.039062 147.246094 472.773438 C 147.515625 472.507812 147.757812 472.21875 147.972656 471.910156 C 148.1875 471.601562 148.375 471.273438 148.527344 470.929688 Z M 148.527344 470.929688 " fill-opacity="1" fill-rule="nonzero"/><path fill="#0048ff" d="M 133.144531 459.644531 L 120.304688 426.859375 L 120.304688 379.78125 C 120.304688 379.226562 120.359375 378.675781 120.460938 378.128906 C 120.566406 377.585938 120.722656 377.054688 120.925781 376.539062 C 121.132812 376.023438 121.382812 375.527344 121.683594 375.0625 C 121.980469 374.59375 122.320312 374.15625 122.703125 373.75 C 123.082031 373.347656 123.5 372.984375 123.949219 372.65625 C 124.402344 372.332031 124.878906 372.054688 125.382812 371.816406 C 125.886719 371.582031 126.40625 371.398438 126.945312 371.261719 C 127.484375 371.125 128.03125 371.042969 128.585938 371.011719 C 129.140625 370.976562 129.691406 370.996094 130.242188 371.070312 C 130.792969 371.144531 131.332031 371.265625 131.859375 371.441406 C 132.386719 371.617188 132.894531 371.839844 133.378906 372.109375 C 133.863281 372.378906 134.320312 372.695312 134.746094 373.050781 C 135.171875 373.410156 135.558594 373.804688 135.910156 374.234375 C 136.261719 374.664062 136.566406 375.125 136.832031 375.613281 C 137.09375 376.101562 137.308594 376.613281 137.476562 377.140625 C 137.644531 377.671875 137.761719 378.210938 137.824219 378.765625 L 143.046875 423.523438 L 147.988281 458.617188 Z M 133.144531 459.644531 " fill-opacity="1" fill-rule="nonzero"/><path fill="#ffb9b9" d="M 127.726562 340.152344 C 127.726562 341.101562 127.632812 342.039062 127.449219 342.96875 C 127.261719 343.898438 126.988281 344.800781 126.625 345.679688 C 126.261719 346.554688 125.820312 347.386719 125.292969 348.175781 C 124.765625 348.960938 124.167969 349.691406 123.496094 350.363281 C 122.828125 351.03125 122.097656 351.628906 121.308594 352.15625 C 120.519531 352.683594 119.6875 353.128906 118.8125 353.492188 C 117.9375 353.851562 117.035156 354.128906 116.105469 354.3125 C 115.175781 354.496094 114.234375 354.589844 113.289062 354.589844 C 112.339844 354.589844 111.402344 354.496094 110.472656 354.3125 C 109.542969 354.128906 108.636719 353.851562 107.761719 353.492188 C 106.886719 353.128906 106.054688 352.683594 105.265625 352.15625 C 104.480469 351.628906 103.75 351.03125 103.078125 350.363281 C 102.410156 349.691406 101.808594 348.960938 101.285156 348.175781 C 100.757812 347.386719 100.3125 346.554688 99.949219 345.679688 C 99.585938 344.800781 99.3125 343.898438 99.128906 342.96875 C 98.941406 342.039062 98.851562 341.101562 98.851562 340.152344 C 98.851562 339.207031 98.941406 338.269531 99.128906 337.339844 C 99.3125 336.410156 99.585938 335.503906 99.949219 334.628906 C 100.3125 333.753906 100.757812 332.921875 101.285156 332.132812 C 101.808594 331.347656 102.410156 330.617188 103.078125 329.945312 C 103.75 329.277344 104.480469 328.679688 105.265625 328.152344 C 106.054688 327.625 106.886719 327.179688 107.761719 326.816406 C 108.636719 326.457031 109.542969 326.179688 110.472656 325.996094 C 111.402344 325.8125 112.339844 325.71875 113.289062 325.71875 C 114.234375 325.71875 115.175781 325.8125 116.105469 325.996094 C 117.035156 326.179688 117.9375 326.457031 118.8125 326.816406 C 119.6875 327.179688 120.519531 327.625 121.308594 328.152344 C 122.097656 328.679688 122.828125 329.277344 123.496094 329.945312 C 124.167969 330.617188 124.765625 331.347656 125.292969 332.132812 C 125.820312 332.921875 126.261719 333.753906 126.625 334.628906 C 126.988281 335.503906 127.261719 336.410156 127.449219 337.339844 C 127.632812 338.269531 127.726562 339.207031 127.726562 340.152344 Z M 127.726562 340.152344 " fill-opacity="1" fill-rule="nonzero"/><path fill="#2f2e41" d="M 114.234375 335.765625 C 113.558594 336.632812 112.632812 337.414062 112.484375 338.503906 C 112.371094 339.3125 112.726562 340.109375 112.757812 340.921875 C 112.761719 341.332031 112.6875 341.730469 112.535156 342.113281 C 112.386719 342.492188 112.171875 342.835938 111.890625 343.136719 C 111.609375 343.433594 111.285156 343.671875 110.914062 343.847656 C 110.542969 344.023438 110.152344 344.125 109.742188 344.152344 C 109.148438 343.40625 108.382812 342.96875 107.4375 342.835938 C 106.972656 342.78125 106.539062 342.875 106.132812 343.105469 C 105.730469 343.339844 105.433594 343.671875 105.25 344.097656 C 104.820312 345.3125 105.8125 346.539062 105.972656 347.816406 C 105.992188 348.765625 105.84375 349.6875 105.523438 350.585938 C 105.15625 352.046875 105.058594 353.59375 104.417969 354.957031 C 103.773438 356.324219 102.347656 357.496094 100.871094 357.195312 C 99.628906 356.941406 98.789062 355.738281 98.441406 354.519531 C 98.09375 353.300781 98.109375 352.007812 97.855469 350.765625 C 97.039062 346.726562 93.5625 343.734375 92.199219 339.847656 C 90.453125 334.867188 92.550781 329.171875 96.167969 325.328125 C 97.660156 323.609375 99.496094 322.421875 101.675781 321.761719 C 103.929688 321.1875 106.316406 321.601562 108.628906 321.355469 C 111.101562 321.09375 113.425781 320.089844 115.832031 319.449219 C 118.234375 318.8125 120.921875 318.570312 123.105469 319.757812 C 124.632812 320.585938 125.734375 322.015625 127.15625 323.015625 C 127.96875 323.582031 128.855469 323.992188 129.8125 324.25 C 130.773438 324.503906 131.746094 324.589844 132.734375 324.507812 L 130.375 325.539062 C 131.289062 326.378906 132.351562 326.960938 133.554688 327.28125 C 132.5625 328.066406 131.433594 328.464844 130.164062 328.46875 C 130.707031 329.445312 131.519531 330.070312 132.605469 330.34375 C 130.8125 331.1875 128.90625 332.046875 126.9375 331.859375 C 125.972656 331.765625 125.046875 331.421875 124.09375 331.246094 C 122.0625 330.871094 119.972656 331.257812 117.941406 331.648438 C 116.875 331.855469 115.566406 332.050781 115.027344 333.074219 C 114.582031 333.929688 114.921875 334.878906 114.234375 335.765625 Z M 114.234375 335.765625 " fill-opacity="1" fill-rule="nonzero"/><path fill="#0048ff" d="M 232.242188 354.25 C 232.242188 355.003906 232.207031 355.757812 232.132812 356.507812 C 232.058594 357.257812 231.945312 358.003906 231.800781 358.742188 C 231.652344 359.484375 231.46875 360.214844 231.25 360.9375 C 231.03125 361.65625 230.777344 362.367188 230.488281 363.0625 C 230.199219 363.761719 229.878906 364.441406 229.523438 365.105469 C 229.167969 365.773438 228.78125 366.417969 228.359375 367.042969 C 227.941406 367.671875 227.492188 368.277344 227.015625 368.859375 C 226.535156 369.441406 226.03125 370 225.496094 370.535156 C 224.960938 371.066406 224.40625 371.574219 223.820312 372.050781 C 223.238281 372.53125 222.632812 372.980469 222.003906 373.398438 C 221.378906 373.816406 220.730469 374.203125 220.066406 374.5625 C 219.402344 374.917969 218.722656 375.238281 218.023438 375.527344 C 217.328125 375.816406 216.617188 376.070312 215.894531 376.289062 C 215.171875 376.507812 214.441406 376.691406 213.703125 376.835938 C 212.964844 376.984375 212.21875 377.09375 211.46875 377.167969 C 210.714844 377.242188 209.964844 377.28125 209.210938 377.28125 C 208.453125 377.28125 207.703125 377.242188 206.953125 377.167969 C 206.199219 377.09375 205.457031 376.984375 204.714844 376.835938 C 203.976562 376.691406 203.246094 376.507812 202.523438 376.289062 C 201.800781 376.070312 201.09375 375.816406 200.394531 375.527344 C 199.699219 375.238281 199.015625 374.917969 198.351562 374.5625 C 197.6875 374.203125 197.039062 373.816406 196.414062 373.398438 C 195.785156 372.980469 195.179688 372.53125 194.597656 372.050781 C 194.015625 371.574219 193.457031 371.066406 192.921875 370.535156 C 192.390625 370 191.882812 369.441406 191.40625 368.859375 C 190.925781 368.277344 190.476562 367.671875 190.058594 367.042969 C 189.640625 366.417969 189.25 365.773438 188.894531 365.105469 C 188.539062 364.441406 188.21875 363.761719 187.929688 363.0625 C 187.640625 362.367188 187.386719 361.65625 187.167969 360.9375 C 186.949219 360.214844 186.765625 359.484375 186.617188 358.742188 C 186.472656 358.003906 186.359375 357.257812 186.289062 356.507812 C 186.214844 355.757812 186.175781 355.003906 186.175781 354.25 C 186.175781 353.496094 186.214844 352.742188 186.289062 351.992188 C 186.359375 351.242188 186.472656 350.496094 186.617188 349.757812 C 186.765625 349.019531 186.949219 348.289062 187.167969 347.566406 C 187.386719 346.84375 187.640625 346.132812 187.929688 345.4375 C 188.21875 344.742188 188.539062 344.058594 188.894531 343.394531 C 189.25 342.730469 189.640625 342.082031 190.058594 341.457031 C 190.476562 340.828125 190.925781 340.222656 191.40625 339.640625 C 191.882812 339.058594 192.390625 338.5 192.921875 337.964844 C 193.457031 337.433594 194.015625 336.925781 194.597656 336.449219 C 195.179688 335.96875 195.785156 335.519531 196.414062 335.101562 C 197.039062 334.683594 197.6875 334.296875 198.351562 333.941406 C 199.015625 333.585938 199.699219 333.261719 200.394531 332.972656 C 201.09375 332.6875 201.800781 332.433594 202.523438 332.210938 C 203.246094 331.992188 203.976562 331.8125 204.714844 331.664062 C 205.457031 331.515625 206.199219 331.40625 206.953125 331.332031 C 207.703125 331.257812 208.453125 331.222656 209.210938 331.222656 C 209.964844 331.222656 210.714844 331.257812 211.46875 331.332031 C 212.21875 331.40625 212.964844 331.515625 213.703125 331.664062 C 214.441406 331.8125 215.171875 331.992188 215.894531 332.210938 C 216.617188 332.433594 217.328125 332.6875 218.023438 332.972656 C 218.722656 333.261719 219.402344 333.585938 220.066406 333.941406 C 220.730469 334.296875 221.378906 334.683594 222.003906 335.101562 C 222.632812 335.519531 223.238281 335.96875 223.820312 336.449219 C 224.40625 336.925781 224.960938 337.433594 225.496094 337.964844 C 226.03125 338.5 226.535156 339.058594 227.015625 339.640625 C 227.492188 340.222656 227.941406 340.828125 228.359375 341.457031 C 228.78125 342.082031 229.167969 342.730469 229.523438 343.394531 C 229.878906 344.058594 230.199219 344.742188 230.488281 345.4375 C 230.777344 346.132812 231.03125 346.84375 231.25 347.566406 C 231.46875 348.289062 231.652344 349.019531 231.800781 349.757812 C 231.945312 350.496094 232.058594 351.242188 232.132812 351.992188 C 232.207031 352.742188 232.242188 353.496094 232.242188 354.25 Z M 232.242188 354.25 " fill-opacity="1" fill-rule="nonzero"/><path fill="#ffffff" d="M 223.027344 354.25 L 210.59375 354.25 L 210.59375 341.816406 L 207.828125 341.816406 L 207.828125 354.25 L 195.390625 354.25 L 195.390625 357.015625 L 207.828125 357.015625 L 207.828125 369.449219 L 210.59375 369.449219 L 210.59375 357.015625 L 223.027344 357.015625 Z M 223.027344 354.25 " fill-opacity="1" fill-rule="nonzero"/><path fill="#ffffff" d="M 405.347656 254.71875 C 404.992188 254.71875 404.652344 254.789062 404.324219 254.925781 C 403.996094 255.058594 403.707031 255.253906 403.457031 255.503906 C 403.203125 255.757812 403.011719 256.046875 402.875 256.375 C 402.738281 256.703125 402.671875 257.042969 402.671875 257.398438 L 402.671875 302.25 C 402.671875 302.605469 402.738281 302.945312 402.875 303.273438 C 403.011719 303.601562 403.203125 303.890625 403.457031 304.144531 C 403.707031 304.394531 403.996094 304.585938 404.324219 304.722656 C 404.652344 304.859375 404.992188 304.929688 405.347656 304.929688 L 586.1875 304.929688 C 586.542969 304.929688 586.886719 304.859375 587.214844 304.722656 C 587.539062 304.585938 587.832031 304.394531 588.082031 304.144531 C 588.332031 303.890625 588.527344 303.601562 588.664062 303.273438 C 588.796875 302.945312 588.867188 302.605469 588.867188 302.25 L 588.867188 257.398438 C 588.867188 257.042969 588.796875 256.703125 588.664062 256.375 C 588.527344 256.046875 588.332031 255.753906 588.082031 255.503906 C 587.832031 255.253906 587.539062 255.058594 587.210938 254.925781 C 586.882812 254.789062 586.542969 254.71875 586.1875 254.71875 Z M 405.347656 254.71875 " fill-opacity="1" fill-rule="nonzero"/><path fill="#e6e6e6" d="M 405.347656 254.71875 C 404.992188 254.71875 404.652344 254.789062 404.324219 254.925781 C 403.996094 255.058594 403.707031 255.253906 403.457031 255.503906 C 403.203125 255.757812 403.011719 256.046875 402.875 256.375 C 402.738281 256.703125 402.671875 257.042969 402.671875 257.398438 L 402.671875 302.25 C 402.671875 302.605469 402.738281 302.945312 402.875 303.273438 C 403.011719 303.601562 403.203125 303.890625 403.457031 304.144531 C 403.707031 304.394531 403.996094 304.585938 404.324219 304.722656 C 404.652344 304.859375 404.992188 304.929688 405.347656 304.929688 L 586.1875 304.929688 C 586.542969 304.929688 586.886719 304.859375 587.214844 304.722656 C 587.539062 304.585938 587.832031 304.394531 588.082031 304.144531 C 588.332031 303.890625 588.527344 303.601562 588.664062 303.273438 C 588.796875 302.945312 588.867188 302.605469 588.867188 302.25 L 588.867188 257.398438 C 588.867188 257.042969 588.796875 256.703125 588.664062 256.375 C 588.527344 256.046875 588.332031 255.753906 588.082031 255.503906 C 587.832031 255.253906 587.539062 255.058594 587.210938 254.925781 C 586.882812 254.789062 586.542969 254.71875 586.1875 254.71875 Z M 405.347656 254.71875 " fill-opacity="1" fill-rule="nonzero"/><path fill="#ffffff" d="M 405.683594 301.914062 L 585.851562 301.914062 L 585.851562 257.734375 L 405.683594 257.734375 Z M 405.683594 301.914062 " fill-opacity="1" fill-rule="nonzero"/><path fill="#e4e4e4" d="M 426.167969 270.449219 C 425.859375 270.449219 425.558594 270.507812 425.269531 270.625 C 424.984375 270.746094 424.730469 270.914062 424.511719 271.136719 C 424.292969 271.355469 424.121094 271.609375 424.003906 271.894531 C 423.882812 272.183594 423.824219 272.480469 423.824219 272.792969 C 423.824219 273.101562 423.882812 273.402344 424.003906 273.6875 C 424.121094 273.976562 424.292969 274.230469 424.511719 274.449219 C 424.730469 274.667969 424.984375 274.839844 425.269531 274.957031 C 425.558594 275.078125 425.859375 275.136719 426.167969 275.136719 L 565.363281 275.136719 C 565.671875 275.136719 565.972656 275.078125 566.257812 274.957031 C 566.546875 274.839844 566.800781 274.671875 567.019531 274.449219 C 567.238281 274.230469 567.410156 273.976562 567.527344 273.691406 C 567.648438 273.402344 567.707031 273.105469 567.707031 272.792969 C 567.707031 272.484375 567.648438 272.183594 567.527344 271.894531 C 567.410156 271.609375 567.242188 271.355469 567.019531 271.136719 C 566.800781 270.914062 566.546875 270.746094 566.261719 270.628906 C 565.972656 270.507812 565.675781 270.449219 565.363281 270.449219 Z M 426.167969 270.449219 " fill-opacity="1" fill-rule="nonzero"/><path fill="#e4e4e4" d="M 426.167969 284.511719 C 425.859375 284.511719 425.558594 284.570312 425.269531 284.691406 C 424.984375 284.808594 424.730469 284.976562 424.511719 285.199219 C 424.292969 285.417969 424.121094 285.671875 424.003906 285.957031 C 423.882812 286.246094 423.824219 286.542969 423.824219 286.855469 C 423.824219 287.167969 423.882812 287.464844 424.003906 287.753906 C 424.121094 288.039062 424.292969 288.292969 424.511719 288.511719 C 424.730469 288.730469 424.984375 288.902344 425.269531 289.019531 C 425.558594 289.140625 425.859375 289.199219 426.167969 289.199219 L 565.363281 289.199219 C 565.671875 289.199219 565.972656 289.140625 566.257812 289.023438 C 566.546875 288.90625 566.800781 288.734375 567.019531 288.515625 C 567.242188 288.296875 567.410156 288.042969 567.53125 287.757812 C 567.652344 287.46875 567.710938 287.171875 567.710938 286.859375 C 567.710938 286.550781 567.652344 286.25 567.535156 285.964844 C 567.417969 285.675781 567.246094 285.421875 567.027344 285.203125 C 566.808594 284.980469 566.554688 284.8125 566.269531 284.691406 C 565.980469 284.574219 565.683594 284.511719 565.371094 284.511719 Z M 426.167969 284.511719 " fill-opacity="1" fill-rule="nonzero"/><path fill="#ffffff" d="M 279.59375 330.820312 C 279.238281 330.824219 278.898438 330.890625 278.570312 331.027344 C 278.242188 331.164062 277.953125 331.355469 277.699219 331.605469 C 277.449219 331.859375 277.257812 332.148438 277.121094 332.476562 C 276.984375 332.804688 276.914062 333.144531 276.914062 333.5 L 276.914062 378.351562 C 276.914062 378.707031 276.984375 379.046875 277.121094 379.375 C 277.253906 379.703125 277.449219 379.996094 277.699219 380.246094 C 277.953125 380.496094 278.242188 380.691406 278.570312 380.824219 C 278.898438 380.960938 279.238281 381.03125 279.59375 381.03125 L 460.433594 381.03125 C 460.789062 381.03125 461.128906 380.960938 461.457031 380.824219 C 461.785156 380.691406 462.074219 380.496094 462.328125 380.246094 C 462.578125 379.992188 462.769531 379.703125 462.90625 379.375 C 463.042969 379.046875 463.113281 378.707031 463.113281 378.351562 L 463.113281 333.5 C 463.113281 333.144531 463.042969 332.804688 462.90625 332.476562 C 462.769531 332.148438 462.578125 331.859375 462.328125 331.605469 C 462.074219 331.355469 461.785156 331.164062 461.457031 331.027344 C 461.128906 330.890625 460.789062 330.824219 460.433594 330.820312 Z M 279.59375 330.820312 " fill-opacity="1" fill-rule="nonzero"/><path fill="#e6e6e6" d="M 279.59375 330.820312 C 279.238281 330.824219 278.898438 330.890625 278.570312 331.027344 C 278.242188 331.164062 277.953125 331.355469 277.699219 331.605469 C 277.449219 331.859375 277.257812 332.148438 277.121094 332.476562 C 276.984375 332.804688 276.914062 333.144531 276.914062 333.5 L 276.914062 378.351562 C 276.914062 378.707031 276.984375 379.046875 277.121094 379.375 C 277.253906 379.703125 277.449219 379.996094 277.699219 380.246094 C 277.953125 380.496094 278.242188 380.691406 278.570312 380.824219 C 278.898438 380.960938 279.238281 381.03125 279.59375 381.03125 L 460.433594 381.03125 C 460.789062 381.03125 461.128906 380.960938 461.457031 380.824219 C 461.785156 380.691406 462.074219 380.496094 462.328125 380.246094 C 462.578125 379.992188 462.769531 379.703125 462.90625 379.375 C 463.042969 379.046875 463.113281 378.707031 463.113281 378.351562 L 463.113281 333.5 C 463.113281 333.144531 463.042969 332.804688 462.90625 332.476562 C 462.769531 332.148438 462.578125 331.859375 462.328125 331.605469 C 462.074219 331.355469 461.785156 331.164062 461.457031 331.027344 C 461.128906 330.890625 460.789062 330.824219 460.433594 330.820312 Z M 279.59375 330.820312 " fill-opacity="1" fill-rule="nonzero"/><path fill="#ffffff" d="M 279.929688 378.015625 L 460.097656 378.015625 L 460.097656 333.835938 L 279.929688 333.835938 Z M 279.929688 378.015625 " fill-opacity="1" fill-rule="nonzero"/><path fill="#e4e4e4" d="M 300.414062 346.550781 C 300.101562 346.550781 299.804688 346.609375 299.515625 346.730469 C 299.230469 346.847656 298.976562 347.019531 298.757812 347.238281 C 298.535156 347.457031 298.367188 347.710938 298.246094 347.996094 C 298.128906 348.285156 298.070312 348.585938 298.070312 348.894531 C 298.070312 349.207031 298.128906 349.503906 298.246094 349.792969 C 298.367188 350.078125 298.535156 350.332031 298.757812 350.550781 C 298.976562 350.773438 299.230469 350.941406 299.515625 351.058594 C 299.804688 351.179688 300.101562 351.238281 300.414062 351.238281 L 439.605469 351.238281 C 439.917969 351.238281 440.21875 351.179688 440.503906 351.0625 C 440.792969 350.941406 441.046875 350.773438 441.265625 350.554688 C 441.484375 350.332031 441.65625 350.078125 441.773438 349.792969 C 441.894531 349.503906 441.953125 349.207031 441.953125 348.894531 C 441.953125 348.585938 441.894531 348.285156 441.773438 348 C 441.65625 347.710938 441.484375 347.457031 441.265625 347.238281 C 441.046875 347.019531 440.792969 346.847656 440.507812 346.730469 C 440.21875 346.609375 439.921875 346.550781 439.609375 346.550781 Z M 300.414062 346.550781 " fill-opacity="1" fill-rule="nonzero"/><path fill="#e4e4e4" d="M 300.414062 360.613281 C 300.101562 360.613281 299.804688 360.675781 299.519531 360.792969 C 299.230469 360.914062 298.980469 361.082031 298.761719 361.304688 C 298.542969 361.523438 298.371094 361.777344 298.253906 362.0625 C 298.136719 362.347656 298.074219 362.648438 298.074219 362.957031 C 298.074219 363.269531 298.136719 363.566406 298.253906 363.851562 C 298.371094 364.140625 298.542969 364.394531 298.761719 364.613281 C 298.980469 364.832031 299.230469 365.003906 299.519531 365.121094 C 299.804688 365.242188 300.101562 365.300781 300.414062 365.300781 L 439.605469 365.300781 C 439.917969 365.300781 440.214844 365.242188 440.503906 365.125 C 440.789062 365.003906 441.042969 364.835938 441.265625 364.617188 C 441.484375 364.398438 441.652344 364.144531 441.773438 363.859375 C 441.890625 363.570312 441.953125 363.273438 441.953125 362.964844 C 441.953125 362.652344 441.894531 362.355469 441.777344 362.066406 C 441.660156 361.78125 441.488281 361.527344 441.269531 361.304688 C 441.050781 361.085938 440.800781 360.914062 440.511719 360.796875 C 440.226562 360.675781 439.929688 360.617188 439.617188 360.613281 Z M 300.414062 360.613281 " fill-opacity="1" fill-rule="nonzero"/><path fill="#ffb7b7" d="M 500.023438 451.199219 C 500.425781 451.152344 500.820312 451.066406 501.203125 450.9375 C 501.585938 450.804688 501.949219 450.636719 502.296875 450.425781 C 502.644531 450.214844 502.960938 449.96875 503.253906 449.6875 C 503.546875 449.40625 503.804688 449.097656 504.03125 448.761719 C 504.253906 448.425781 504.441406 448.066406 504.585938 447.6875 C 504.730469 447.3125 504.835938 446.921875 504.894531 446.523438 C 504.957031 446.121094 504.972656 445.71875 504.945312 445.316406 C 504.917969 444.910156 504.847656 444.515625 504.734375 444.125 L 520.761719 432.679688 L 511.207031 429.003906 L 497.453125 440.4375 C 496.8125 440.671875 496.234375 441.011719 495.722656 441.460938 C 495.207031 441.90625 494.789062 442.429688 494.464844 443.03125 C 494.144531 443.632812 493.9375 444.273438 493.851562 444.949219 C 493.761719 445.625 493.800781 446.292969 493.957031 446.957031 C 494.117188 447.621094 494.386719 448.234375 494.769531 448.800781 C 495.152344 449.363281 495.625 449.839844 496.183594 450.230469 C 496.742188 450.621094 497.355469 450.898438 498.015625 451.066406 C 498.675781 451.234375 499.347656 451.277344 500.023438 451.199219 Z M 500.023438 451.199219 " fill-opacity="1" fill-rule="nonzero"/><path fill="#3f3d56" d="M 508.921875 443.660156 L 503.605469 434.582031 L 503.71875 434.453125 L 525.167969 410.035156 L 541.824219 381.636719 L 556.289062 383.476562 L 556.5 387.847656 L 556.457031 387.914062 L 533.480469 422.449219 L 533.453125 422.472656 Z M 508.921875 443.660156 " fill-opacity="1" fill-rule="nonzero"/><path fill="#ffb7b7" d="M 579.796875 597.296875 L 571.617188 597.296875 L 567.726562 565.75 L 579.796875 565.753906 Z M 579.796875 597.296875 " fill-opacity="1" fill-rule="nonzero"/><path fill="#2f2e41" d="M 581.882812 605.222656 L 555.507812 605.222656 L 555.507812 604.886719 C 555.507812 604.214844 555.574219 603.546875 555.707031 602.886719 C 555.839844 602.226562 556.03125 601.582031 556.292969 600.960938 C 556.550781 600.335938 556.867188 599.746094 557.238281 599.1875 C 557.613281 598.625 558.039062 598.105469 558.515625 597.628906 C 558.992188 597.152344 559.511719 596.730469 560.070312 596.355469 C 560.632812 595.980469 561.222656 595.664062 561.847656 595.40625 C 562.46875 595.148438 563.109375 594.953125 563.773438 594.820312 C 564.433594 594.691406 565.101562 594.625 565.773438 594.625 L 581.882812 594.625 Z M 581.882812 605.222656 " fill-opacity="1" fill-rule="nonzero"/><path fill="#ffb7b7" d="M 509.402344 597.027344 L 501.449219 595.128906 L 504.988281 563.542969 L 516.730469 566.347656 Z M 509.402344 597.027344 " fill-opacity="1" fill-rule="nonzero"/><path fill="#2f2e41" d="M 509.589844 605.222656 L 483.941406 599.097656 L 484.015625 598.773438 C 484.171875 598.117188 484.394531 597.484375 484.675781 596.871094 C 484.957031 596.261719 485.292969 595.679688 485.691406 595.136719 C 486.085938 594.589844 486.53125 594.085938 487.023438 593.628906 C 487.519531 593.171875 488.054688 592.765625 488.628906 592.414062 C 489.203125 592.058594 489.804688 591.765625 490.4375 591.53125 C 491.070312 591.296875 491.71875 591.128906 492.382812 591.023438 C 493.046875 590.917969 493.71875 590.875 494.390625 590.902344 C 495.066406 590.925781 495.730469 591.019531 496.386719 591.175781 L 512.054688 594.914062 Z M 509.589844 605.222656 " fill-opacity="1" fill-rule="nonzero"/><path fill="#2f2e41" d="M 541.191406 367.214844 L 541.191406 353.449219 C 541.191406 352.84375 541.222656 352.242188 541.28125 351.640625 C 541.34375 351.042969 541.433594 350.445312 541.550781 349.851562 C 541.667969 349.261719 541.816406 348.675781 541.992188 348.097656 C 542.167969 347.523438 542.371094 346.953125 542.601562 346.398438 C 542.835938 345.839844 543.09375 345.296875 543.378906 344.761719 C 543.664062 344.230469 543.972656 343.714844 544.308594 343.210938 C 544.644531 342.710938 545.003906 342.226562 545.386719 341.761719 C 545.773438 341.292969 546.175781 340.847656 546.605469 340.421875 C 547.03125 339.996094 547.476562 339.589844 547.945312 339.207031 C 548.410156 338.824219 548.894531 338.464844 549.398438 338.132812 C 549.902344 337.796875 550.417969 337.488281 550.949219 337.203125 C 551.484375 336.917969 552.027344 336.660156 552.585938 336.429688 C 553.144531 336.199219 553.710938 335.996094 554.289062 335.820312 C 554.867188 335.644531 555.453125 335.5 556.042969 335.382812 C 556.636719 335.265625 557.234375 335.175781 557.832031 335.117188 C 558.433594 335.058594 559.035156 335.027344 559.640625 335.027344 C 560.242188 335.027344 560.847656 335.058594 561.445312 335.117188 C 562.046875 335.175781 562.644531 335.265625 563.234375 335.382812 C 563.828125 335.5 564.414062 335.644531 564.992188 335.820312 C 565.570312 335.996094 566.136719 336.199219 566.695312 336.429688 C 567.253906 336.660156 567.796875 336.917969 568.328125 337.203125 C 568.863281 337.488281 569.378906 337.796875 569.882812 338.132812 C 570.382812 338.464844 570.867188 338.824219 571.335938 339.207031 C 571.800781 339.589844 572.25 339.996094 572.675781 340.421875 C 573.105469 340.847656 573.507812 341.292969 573.890625 341.761719 C 574.277344 342.226562 574.636719 342.710938 574.972656 343.210938 C 575.308594 343.714844 575.617188 344.230469 575.902344 344.761719 C 576.1875 345.296875 576.445312 345.839844 576.675781 346.398438 C 576.910156 346.953125 577.113281 347.523438 577.289062 348.097656 C 577.464844 348.675781 577.613281 349.261719 577.730469 349.851562 C 577.847656 350.445312 577.9375 351.042969 577.996094 351.640625 C 578.058594 352.242188 578.089844 352.84375 578.089844 353.449219 L 578.089844 367.214844 C 578.089844 367.542969 578.027344 367.859375 577.898438 368.160156 C 577.773438 368.464844 577.59375 368.734375 577.363281 368.964844 C 577.128906 369.199219 576.863281 369.375 576.558594 369.503906 C 576.253906 369.628906 575.9375 369.691406 575.609375 369.691406 L 543.667969 369.691406 C 543.339844 369.691406 543.023438 369.628906 542.722656 369.503906 C 542.417969 369.375 542.152344 369.199219 541.917969 368.964844 C 541.6875 368.734375 541.507812 368.464844 541.382812 368.160156 C 541.253906 367.859375 541.191406 367.542969 541.191406 367.214844 Z M 541.191406 367.214844 " fill-opacity="1" fill-rule="nonzero"/><path fill="#ffb7b7" d="M 568.613281 355.960938 C 568.613281 356.847656 568.527344 357.726562 568.351562 358.597656 C 568.179688 359.46875 567.921875 360.3125 567.582031 361.132812 C 567.242188 361.953125 566.828125 362.734375 566.332031 363.472656 C 565.839844 364.210938 565.28125 364.894531 564.652344 365.523438 C 564.023438 366.148438 563.339844 366.710938 562.601562 367.203125 C 561.863281 367.695312 561.085938 368.113281 560.261719 368.453125 C 559.441406 368.792969 558.597656 369.050781 557.726562 369.222656 C 556.855469 369.394531 555.976562 369.484375 555.085938 369.484375 C 554.199219 369.484375 553.320312 369.394531 552.449219 369.222656 C 551.578125 369.050781 550.730469 368.792969 549.910156 368.453125 C 549.089844 368.113281 548.3125 367.695312 547.574219 367.203125 C 546.835938 366.710938 546.152344 366.148438 545.523438 365.523438 C 544.894531 364.894531 544.335938 364.210938 543.839844 363.472656 C 543.347656 362.734375 542.929688 361.953125 542.589844 361.132812 C 542.25 360.3125 541.996094 359.46875 541.820312 358.597656 C 541.648438 357.726562 541.5625 356.847656 541.5625 355.960938 C 541.5625 355.070312 541.648438 354.191406 541.820312 353.320312 C 541.996094 352.449219 542.25 351.605469 542.589844 350.785156 C 542.929688 349.964844 543.347656 349.183594 543.839844 348.445312 C 544.335938 347.707031 544.894531 347.023438 545.523438 346.398438 C 546.152344 345.769531 546.835938 345.207031 547.574219 344.714844 C 548.3125 344.222656 549.089844 343.804688 549.910156 343.464844 C 550.730469 343.125 551.578125 342.867188 552.449219 342.695312 C 553.320312 342.523438 554.199219 342.4375 555.085938 342.4375 C 555.976562 342.4375 556.855469 342.523438 557.726562 342.695312 C 558.597656 342.867188 559.441406 343.125 560.261719 343.464844 C 561.085938 343.804688 561.863281 344.222656 562.601562 344.714844 C 563.339844 345.207031 564.023438 345.769531 564.652344 346.398438 C 565.28125 347.023438 565.839844 347.707031 566.332031 348.445312 C 566.828125 349.183594 567.242188 349.964844 567.582031 350.785156 C 567.921875 351.605469 568.179688 352.449219 568.351562 353.320312 C 568.527344 354.191406 568.613281 355.070312 568.613281 355.960938 Z M 568.613281 355.960938 " fill-opacity="1" fill-rule="nonzero"/><path fill="#2f2e41" d="M 536.828125 354.550781 C 536.828125 353.59375 536.921875 352.644531 537.109375 351.703125 C 537.296875 350.765625 537.574219 349.851562 537.941406 348.96875 C 538.308594 348.082031 538.757812 347.242188 539.292969 346.445312 C 539.824219 345.652344 540.429688 344.914062 541.105469 344.238281 C 541.785156 343.558594 542.519531 342.953125 543.316406 342.421875 C 544.113281 341.890625 544.953125 341.441406 545.839844 341.074219 C 546.722656 340.707031 547.636719 340.429688 548.574219 340.242188 C 549.515625 340.054688 550.464844 339.960938 551.421875 339.957031 L 554.175781 339.957031 C 555.132812 339.960938 556.082031 340.054688 557.019531 340.242188 C 557.960938 340.429688 558.871094 340.707031 559.757812 341.074219 C 560.640625 341.441406 561.480469 341.890625 562.277344 342.421875 C 563.074219 342.953125 563.8125 343.558594 564.488281 344.238281 C 565.167969 344.914062 565.769531 345.652344 566.304688 346.445312 C 566.835938 347.242188 567.285156 348.082031 567.652344 348.96875 C 568.019531 349.851562 568.296875 350.765625 568.484375 351.703125 C 568.671875 352.644531 568.765625 353.59375 568.769531 354.550781 L 568.769531 354.824219 L 562.949219 354.824219 L 560.964844 349.269531 L 560.566406 354.824219 L 557.558594 354.824219 L 556.558594 352.019531 L 556.359375 354.824219 L 536.828125 354.824219 Z M 536.828125 354.550781 " fill-opacity="1" fill-rule="nonzero"/><path fill="#3f3d56" d="M 562.976562 427.335938 L 528.539062 426.027344 L 526.613281 403.5 C 525.128906 399.375 525.105469 395.835938 526.542969 392.976562 C 527.160156 391.800781 527.96875 390.78125 528.972656 389.914062 C 529.976562 389.046875 531.105469 388.390625 532.355469 387.949219 L 539.894531 378.851562 C 540.875 377.664062 542.0625 376.75 543.457031 376.097656 C 544.851562 375.449219 546.320312 375.128906 547.855469 375.136719 L 567.4375 375.273438 C 567.90625 374.988281 570.769531 373.535156 576.417969 375.980469 C 582.539062 378.636719 581.117188 387.855469 581.101562 387.945312 L 581.089844 388.03125 L 581.023438 388.089844 L 567.996094 399.054688 Z M 562.976562 427.335938 " fill-opacity="1" fill-rule="nonzero"/><path fill="#2f2e41" d="M 528.8125 423.605469 L 512.523438 453.300781 L 500.171875 588.402344 L 514.125 592.660156 L 538.828125 486.980469 L 567.492188 589.664062 L 584.21875 590.082031 L 572.832031 471.582031 L 562.878906 425.703125 Z M 528.8125 423.605469 " fill-opacity="1" fill-rule="nonzero"/><path fill="#ffffff" d="M 423.382812 401.59375 C 423.042969 401.484375 422.699219 401.445312 422.34375 401.472656 C 421.988281 401.5 421.652344 401.59375 421.339844 401.757812 C 421.023438 401.917969 420.75 402.132812 420.515625 402.402344 C 420.285156 402.671875 420.117188 402.976562 420.007812 403.316406 L 406.171875 445.980469 C 406.066406 446.320312 406.023438 446.664062 406.050781 447.019531 C 406.082031 447.371094 406.175781 447.707031 406.335938 448.023438 C 406.5 448.339844 406.714844 448.613281 406.984375 448.84375 C 407.253906 449.074219 407.558594 449.246094 407.894531 449.355469 L 579.921875 505.113281 C 580.261719 505.21875 580.605469 505.261719 580.960938 505.234375 C 581.3125 505.203125 581.648438 505.109375 581.964844 504.949219 C 582.28125 504.785156 582.554688 504.570312 582.785156 504.300781 C 583.015625 504.03125 583.1875 503.726562 583.296875 503.390625 L 597.128906 460.722656 C 597.238281 460.386719 597.28125 460.039062 597.25 459.6875 C 597.222656 459.332031 597.128906 458.996094 596.964844 458.679688 C 596.804688 458.363281 596.589844 458.089844 596.320312 457.859375 C 596.050781 457.628906 595.746094 457.460938 595.40625 457.347656 Z M 423.382812 401.59375 " fill-opacity="1" fill-rule="nonzero"/><path fill="#e6e6e6" d="M 423.382812 401.59375 C 423.042969 401.484375 422.699219 401.445312 422.34375 401.472656 C 421.988281 401.5 421.652344 401.59375 421.339844 401.757812 C 421.023438 401.917969 420.75 402.132812 420.515625 402.402344 C 420.285156 402.671875 420.117188 402.976562 420.007812 403.316406 L 406.171875 445.980469 C 406.066406 446.320312 406.023438 446.664062 406.050781 447.019531 C 406.082031 447.371094 406.175781 447.707031 406.335938 448.023438 C 406.5 448.339844 406.714844 448.613281 406.984375 448.84375 C 407.253906 449.074219 407.558594 449.246094 407.894531 449.355469 L 579.921875 505.113281 C 580.261719 505.21875 580.605469 505.261719 580.960938 505.234375 C 581.3125 505.203125 581.648438 505.109375 581.964844 504.949219 C 582.28125 504.785156 582.554688 504.570312 582.785156 504.300781 C 583.015625 504.03125 583.1875 503.726562 583.296875 503.390625 L 597.128906 460.722656 C 597.238281 460.386719 597.28125 460.039062 597.25 459.6875 C 597.222656 459.332031 597.128906 458.996094 596.964844 458.679688 C 596.804688 458.363281 596.589844 458.089844 596.320312 457.859375 C 596.050781 457.628906 595.746094 457.460938 595.40625 457.347656 Z M 423.382812 401.59375 " fill-opacity="1" fill-rule="nonzero"/><path fill="#ffffff" d="M 409.144531 446.589844 L 580.53125 502.140625 L 594.160156 460.113281 L 422.769531 404.5625 Z M 409.144531 446.589844 " fill-opacity="1" fill-rule="nonzero"/><path fill="#0048ff" d="M 438.335938 422.976562 C 438.039062 422.878906 437.738281 422.84375 437.425781 422.867188 C 437.117188 422.894531 436.824219 422.976562 436.546875 423.117188 C 436.269531 423.257812 436.03125 423.445312 435.828125 423.683594 C 435.628906 423.921875 435.476562 424.1875 435.382812 424.480469 C 435.285156 424.777344 435.25 425.082031 435.277344 425.390625 C 435.300781 425.699219 435.382812 425.992188 435.523438 426.269531 C 435.664062 426.546875 435.855469 426.785156 436.089844 426.988281 C 436.328125 427.191406 436.59375 427.339844 436.890625 427.433594 L 569.300781 470.351562 C 569.59375 470.445312 569.898438 470.484375 570.207031 470.457031 C 570.519531 470.433594 570.8125 470.351562 571.089844 470.210938 C 571.367188 470.070312 571.605469 469.878906 571.808594 469.644531 C 572.011719 469.40625 572.160156 469.140625 572.253906 468.84375 C 572.351562 468.550781 572.386719 468.246094 572.363281 467.9375 C 572.339844 467.625 572.253906 467.332031 572.113281 467.054688 C 571.972656 466.777344 571.785156 466.539062 571.546875 466.335938 C 571.308594 466.136719 571.042969 465.988281 570.746094 465.890625 Z M 438.335938 422.976562 " fill-opacity="1" fill-rule="nonzero"/><path fill="#0048ff" d="M 433.996094 436.351562 C 433.703125 436.257812 433.398438 436.222656 433.089844 436.25 C 432.78125 436.273438 432.488281 436.355469 432.214844 436.5 C 431.9375 436.640625 431.699219 436.828125 431.496094 437.066406 C 431.296875 437.300781 431.148438 437.566406 431.050781 437.863281 C 430.957031 438.15625 430.921875 438.457031 430.945312 438.769531 C 430.96875 439.078125 431.050781 439.371094 431.191406 439.648438 C 431.332031 439.921875 431.519531 440.164062 431.757812 440.363281 C 431.992188 440.566406 432.257812 440.714844 432.550781 440.8125 L 564.960938 483.726562 C 565.257812 483.824219 565.5625 483.859375 565.871094 483.835938 C 566.179688 483.8125 566.472656 483.730469 566.75 483.589844 C 567.027344 483.449219 567.269531 483.261719 567.46875 483.023438 C 567.671875 482.789062 567.820312 482.523438 567.917969 482.226562 C 568.015625 481.933594 568.050781 481.628906 568.027344 481.320312 C 568.003906 481.007812 567.921875 480.714844 567.78125 480.4375 C 567.640625 480.160156 567.453125 479.921875 567.214844 479.71875 C 566.980469 479.519531 566.714844 479.367188 566.417969 479.273438 L 566.40625 479.269531 Z M 433.996094 436.351562 " fill-opacity="1" fill-rule="nonzero"/><path fill="#ffb7b7" d="M 572.335938 471.679688 C 572.636719 471.410156 572.902344 471.109375 573.140625 470.78125 C 573.375 470.449219 573.574219 470.097656 573.730469 469.726562 C 573.890625 469.351562 574.007812 468.96875 574.082031 468.570312 C 574.15625 468.171875 574.183594 467.769531 574.171875 467.367188 C 574.15625 466.960938 574.101562 466.5625 574 466.167969 C 573.898438 465.777344 573.753906 465.402344 573.570312 465.039062 C 573.386719 464.679688 573.164062 464.34375 572.90625 464.03125 C 572.648438 463.71875 572.363281 463.4375 572.042969 463.1875 L 578.402344 444.550781 L 568.496094 447.125 L 563.976562 464.425781 C 563.59375 464.992188 563.320312 465.605469 563.164062 466.269531 C 563.007812 466.933594 562.972656 467.601562 563.058594 468.277344 C 563.148438 468.953125 563.355469 469.59375 563.675781 470.195312 C 564 470.792969 564.417969 471.316406 564.933594 471.765625 C 565.449219 472.210938 566.027344 472.554688 566.667969 472.789062 C 567.308594 473.023438 567.96875 473.136719 568.648438 473.128906 C 569.332031 473.121094 569.992188 472.992188 570.625 472.742188 C 571.261719 472.492188 571.828125 472.136719 572.335938 471.679688 Z M 572.335938 471.679688 " fill-opacity="1" fill-rule="nonzero"/><path fill="#3f3d56" d="M 575.175781 460.371094 L 565.5625 456.085938 L 568.792969 423.574219 L 565.789062 390.792969 L 578.617188 383.867188 L 581.339844 387.292969 L 581.339844 387.371094 L 582.78125 428.828125 L 582.773438 428.859375 Z M 575.175781 460.371094 " fill-opacity="1" fill-rule="nonzero"/><g clip-path="url(#cb69fe5d1e)"><path fill="#cccccc" d="M 773.628906 606.691406 L 271.015625 606.691406 C 270.753906 606.699219 270.515625 606.625 270.304688 606.46875 C 270.09375 606.3125 269.953125 606.109375 269.882812 605.859375 C 269.835938 605.691406 269.832031 605.519531 269.867188 605.351562 C 269.902344 605.179688 269.972656 605.023438 270.078125 604.886719 C 270.183594 604.75 270.316406 604.640625 270.472656 604.5625 C 270.628906 604.488281 270.792969 604.449219 270.96875 604.449219 L 773.535156 604.449219 C 773.8125 604.4375 774.0625 604.515625 774.28125 604.679688 C 774.503906 604.84375 774.652344 605.058594 774.722656 605.328125 C 774.761719 605.492188 774.761719 605.660156 774.722656 605.824219 C 774.683594 605.992188 774.609375 606.140625 774.503906 606.273438 C 774.398438 606.40625 774.265625 606.507812 774.113281 606.582031 C 773.960938 606.65625 773.796875 606.691406 773.628906 606.691406 Z M 773.628906 606.691406 " fill-opacity="1" fill-rule="nonzero"/></g><g clip-path="url(#83408256aa)"><path fill="#cccccc" d="M 204.421875 606.691406 L 36.417969 606.691406 C 36.15625 606.699219 35.921875 606.625 35.710938 606.46875 C 35.5 606.3125 35.359375 606.109375 35.285156 605.859375 C 35.242188 605.691406 35.238281 605.519531 35.273438 605.351562 C 35.304688 605.179688 35.375 605.023438 35.484375 604.886719 C 35.589844 604.75 35.71875 604.640625 35.875 604.5625 C 36.035156 604.488281 36.199219 604.449219 36.371094 604.449219 L 204.328125 604.449219 C 204.605469 604.4375 204.855469 604.515625 205.078125 604.679688 C 205.296875 604.84375 205.445312 605.058594 205.519531 605.328125 C 205.554688 605.492188 205.554688 605.660156 205.515625 605.824219 C 205.476562 605.992188 205.402344 606.140625 205.296875 606.273438 C 205.191406 606.40625 205.058594 606.507812 204.90625 606.582031 C 204.753906 606.65625 204.589844 606.691406 204.421875 606.691406 Z M 204.421875 606.691406 " fill-opacity="1" fill-rule="nonzero"/></g></svg>