<svg xmlns="http://www.w3.org/2000/svg" xmlns:xlink="http://www.w3.org/1999/xlink" width="1080" zoomAndPan="magnify" viewBox="0 0 810 809.999993" height="1080" preserveAspectRatio="xMidYMid meet" version="1.0"><defs><filter x="0%" y="0%" width="100%" height="100%" id="7769e9fddc"><feColorMatrix values="0 0 0 0 1 0 0 0 0 1 0 0 0 0 1 0 0 0 1 0" color-interpolation-filters="sRGB"/></filter><mask id="667b7a5b5f"><g filter="url(#7769e9fddc)"><rect x="-81" width="972" fill="#000000" y="-80.999999" height="971.999992" fill-opacity="0.098"/></g></mask><clipPath id="a669bee66f"><path d="M 0.503906 0.320312 L 666.800781 0.320312 L 666.800781 410 L 0.503906 410 Z M 0.503906 0.320312 " clip-rule="nonzero"/></clipPath><clipPath id="6b50e6c266"><rect x="0" width="667" y="0" height="410"/></clipPath><clipPath id="a93cd40e81"><path d="M 86.171875 296 L 110 296 L 110 320 L 86.171875 320 Z M 86.171875 296 " clip-rule="nonzero"/></clipPath><clipPath id="a60e52bd78"><path d="M 543 597 L 574 597 L 574 611.726562 L 543 611.726562 Z M 543 597 " clip-rule="nonzero"/></clipPath><clipPath id="21691b41d9"><path d="M 637 598 L 666 598 L 666 611.726562 L 637 611.726562 Z M 637 598 " clip-rule="nonzero"/></clipPath><clipPath id="a85b3bee0a"><path d="M 587 234.476562 L 641 234.476562 L 641 291 L 587 291 Z M 587 234.476562 " clip-rule="nonzero"/></clipPath><clipPath id="56c0158f2b"><path d="M 473 610 L 751.421875 610 L 751.421875 611.726562 L 473 611.726562 Z M 473 610 " clip-rule="nonzero"/></clipPath></defs><g mask="url(#667b7a5b5f)"><g transform="matrix(1, 0, 0, 1, 58, 208)"><g clip-path="url(#6b50e6c266)"><g clip-path="url(#a669bee66f)"><path fill="#0048ff" d="M 0.691406 169.234375 C 0.773438 209.144531 9.085938 250.574219 33.554688 282.113281 C 69.410156 328.335938 132.097656 344.324219 190.519531 347.949219 C 248.941406 351.570312 308.734375 345.957031 365.136719 361.59375 C 401.546875 371.6875 435.125 390.304688 471.472656 400.621094 C 480.09375 403.0625 488.828125 405.023438 497.667969 406.507812 C 506.507812 407.988281 515.402344 408.984375 524.351562 409.496094 C 533.300781 410.003906 542.25 410.023438 551.199219 409.554688 C 560.152344 409.082031 569.050781 408.125 577.894531 406.679688 C 595.664062 403.757812 613.816406 398.492188 627.132812 386.375 C 640.839844 373.898438 647.738281 355.738281 653.066406 338 C 666.996094 291.617188 673.195312 240.765625 656.523438 195.296875 C 642.972656 158.328125 615.585938 128.210938 587.113281 100.992188 C 556.292969 71.53125 522.253906 43.578125 481.59375 30.683594 C 426.195312 13.097656 366.257812 25.570312 308.167969 23.230469 C 240.226562 20.496094 145.953125 -18.777344 81.535156 12.507812 C 24.257812 40.316406 0.566406 109.867188 0.691406 169.234375 Z M 0.691406 169.234375 " fill-opacity="1" fill-rule="nonzero"/></g></g></g></g><path fill="#f0f0f0" d="M 735.746094 552.5625 C 733.34375 533.246094 721.363281 514.210938 702.925781 507.925781 C 704.726562 512.859375 706.089844 517.910156 707.003906 523.082031 C 707.917969 528.253906 708.378906 533.464844 708.375 538.714844 C 708.375 543.964844 707.917969 549.175781 707 554.347656 C 706.085938 559.519531 704.726562 564.570312 702.921875 569.503906 C 700.085938 577.160156 696.136719 585.382812 698.804688 593.101562 C 700.460938 597.902344 704.515625 601.578125 709.050781 603.875 C 713.585938 606.171875 718.617188 607.265625 723.585938 608.339844 L 724.566406 609.148438 C 732.453125 591.347656 738.152344 571.878906 735.746094 552.5625 Z M 735.746094 552.5625 " fill-opacity="1" fill-rule="nonzero"/><path fill="#ffffff" d="M 702.742188 508.292969 C 705.410156 511.277344 707.828125 514.453125 709.996094 517.820312 C 712.167969 521.183594 714.0625 524.699219 715.679688 528.359375 C 717.300781 532.023438 718.625 535.789062 719.652344 539.65625 C 720.679688 543.527344 721.402344 547.453125 721.8125 551.433594 C 722.234375 554.902344 722.109375 558.347656 721.4375 561.773438 C 720.667969 565.128906 719.09375 568.054688 716.726562 570.554688 C 714.601562 572.886719 712.15625 575.023438 710.636719 577.832031 C 709.875 579.296875 709.441406 580.855469 709.34375 582.503906 C 709.242188 584.152344 709.488281 585.75 710.070312 587.296875 C 711.414062 591.140625 714.058594 594.277344 716.75 597.253906 C 719.742188 600.554688 722.898438 603.941406 724.171875 608.320312 C 724.324219 608.851562 725.140625 608.582031 724.984375 608.050781 C 722.773438 600.429688 715.371094 596.101562 711.839844 589.238281 C 710.191406 586.035156 709.5 582.320312 711.046875 578.9375 C 712.398438 575.980469 714.914062 573.773438 717.085938 571.429688 C 719.425781 569.035156 721.070312 566.226562 722.011719 563.015625 C 722.859375 559.632812 723.117188 556.203125 722.785156 552.730469 C 722.167969 544.910156 720.355469 537.378906 717.347656 530.128906 C 713.960938 521.828125 709.28125 514.335938 703.308594 507.648438 C 702.941406 507.238281 702.375 507.882812 702.742188 508.292969 Z M 702.742188 508.292969 " fill-opacity="1" fill-rule="nonzero"/><path fill="#ffffff" d="M 721.582031 546.242188 C 722.242188 546.082031 722.878906 545.867188 723.5 545.59375 C 724.121094 545.324219 724.710938 545 725.273438 544.621094 C 725.835938 544.246094 726.363281 543.820312 726.851562 543.351562 C 727.335938 542.882812 727.78125 542.375 728.179688 541.828125 C 728.578125 541.28125 728.925781 540.703125 729.21875 540.09375 C 729.515625 539.484375 729.757812 538.855469 729.941406 538.203125 C 730.125 537.554688 730.253906 536.890625 730.320312 536.21875 C 730.386719 535.542969 730.394531 534.871094 730.34375 534.195312 C 730.300781 533.644531 729.441406 533.6875 729.488281 534.238281 C 729.535156 534.867188 729.527344 535.492188 729.464844 536.121094 C 729.402344 536.746094 729.285156 537.363281 729.113281 537.96875 C 728.941406 538.578125 728.71875 539.164062 728.441406 539.730469 C 728.164062 540.296875 727.84375 540.832031 727.46875 541.34375 C 727.097656 541.851562 726.683594 542.324219 726.230469 542.757812 C 725.773438 543.195312 725.28125 543.585938 724.757812 543.9375 C 724.234375 544.285156 723.679688 544.585938 723.101562 544.835938 C 722.523438 545.085938 721.925781 545.285156 721.3125 545.429688 C 720.777344 545.554688 721.046875 546.371094 721.582031 546.242188 Z M 721.582031 546.242188 " fill-opacity="1" fill-rule="nonzero"/><path fill="#ffffff" d="M 717.957031 569.511719 C 715.5625 568.082031 713.507812 566.265625 711.800781 564.0625 C 710.089844 561.859375 708.839844 559.421875 708.050781 556.746094 C 707.894531 556.214844 707.082031 556.484375 707.234375 557.015625 C 708.0625 559.796875 709.367188 562.332031 711.152344 564.621094 C 712.933594 566.910156 715.074219 568.796875 717.570312 570.277344 C 718.046875 570.5625 718.433594 569.792969 717.957031 569.511719 Z M 717.957031 569.511719 " fill-opacity="1" fill-rule="nonzero"/><path fill="#ffffff" d="M 713.191406 522.703125 C 712.199219 523.171875 711.15625 523.378906 710.0625 523.324219 C 708.96875 523.269531 707.953125 522.957031 707.015625 522.390625 C 706.542969 522.101562 706.160156 522.871094 706.628906 523.15625 C 707.667969 523.777344 708.789062 524.121094 710 524.1875 C 711.207031 524.25 712.363281 524.027344 713.460938 523.519531 C 713.570312 523.476562 713.652344 523.40625 713.703125 523.300781 C 713.757812 523.195312 713.765625 523.089844 713.734375 522.976562 C 713.695312 522.863281 713.625 522.78125 713.519531 522.730469 C 713.410156 522.675781 713.304688 522.667969 713.191406 522.703125 Z M 713.191406 522.703125 " fill-opacity="1" fill-rule="nonzero"/><path fill="#f0f0f0" d="M 646.722656 542.429688 C 647.015625 542.617188 647.304688 542.804688 647.59375 543 C 651.484375 545.558594 655.140625 548.410156 658.566406 551.558594 C 658.832031 551.800781 659.101562 552.046875 659.363281 552.292969 C 667.589844 560.023438 674.136719 568.980469 679.007812 579.164062 C 680.929688 583.1875 682.53125 587.332031 683.820312 591.601562 C 685.59375 597.488281 687.050781 604.011719 690.566406 608.828125 C 690.929688 609.335938 691.320312 609.816406 691.742188 610.277344 L 723.503906 610.277344 C 723.574219 610.242188 723.648438 610.210938 723.71875 610.175781 L 724.988281 610.234375 C 724.9375 610.007812 724.878906 609.777344 724.828125 609.550781 C 724.800781 609.421875 724.761719 609.292969 724.734375 609.160156 C 724.710938 609.074219 724.691406 608.988281 724.675781 608.90625 C 724.667969 608.878906 724.660156 608.851562 724.65625 608.828125 C 724.640625 608.75 724.617188 608.675781 724.605469 608.605469 C 724.285156 607.308594 723.957031 606.011719 723.617188 604.714844 C 723.617188 604.707031 723.617188 604.707031 723.609375 604.699219 C 721.007812 594.832031 717.558594 585.09375 712.742188 576.1875 C 712.597656 575.917969 712.453125 575.644531 712.292969 575.375 C 710.09375 571.367188 707.585938 567.5625 704.761719 563.964844 C 703.210938 562 701.566406 560.121094 699.828125 558.324219 C 695.296875 553.664062 690.15625 549.816406 684.40625 546.78125 C 673.015625 540.769531 659.828125 538.46875 647.652344 542.140625 C 647.339844 542.234375 647.035156 542.328125 646.722656 542.429688 Z M 646.722656 542.429688 " fill-opacity="1" fill-rule="nonzero"/><path fill="#ffffff" d="M 646.796875 542.832031 C 650.726562 543.613281 654.570312 544.691406 658.332031 546.074219 C 662.089844 547.457031 665.722656 549.121094 669.21875 551.074219 C 672.71875 553.023438 676.046875 555.234375 679.199219 557.703125 C 682.351562 560.175781 685.292969 562.875 688.019531 565.804688 C 690.445312 568.320312 692.421875 571.144531 693.949219 574.285156 C 695.355469 577.429688 695.863281 580.710938 695.476562 584.132812 C 695.1875 587.273438 694.523438 590.449219 695.003906 593.605469 C 695.273438 595.234375 695.867188 596.738281 696.78125 598.117188 C 697.699219 599.492188 698.855469 600.621094 700.253906 601.503906 C 703.640625 603.765625 707.640625 604.679688 711.585938 605.433594 C 715.964844 606.273438 720.523438 607.074219 724.175781 609.808594 C 724.621094 610.140625 725.109375 609.433594 724.667969 609.101562 C 718.308594 604.347656 709.789062 605.347656 702.835938 601.992188 C 699.589844 600.425781 696.796875 597.871094 695.992188 594.242188 C 695.292969 591.070312 695.96875 587.792969 696.292969 584.617188 C 696.71875 581.292969 696.339844 578.066406 695.15625 574.933594 C 693.792969 571.722656 691.933594 568.828125 689.578125 566.257812 C 684.371094 560.386719 678.382812 555.460938 671.617188 551.480469 C 663.914062 546.890625 655.660156 543.722656 646.863281 541.976562 C 646.320312 541.871094 646.257812 542.726562 646.796875 542.832031 Z M 646.796875 542.832031 " fill-opacity="1" fill-rule="nonzero"/><path fill="#ffffff" d="M 684.707031 561.800781 C 685.136719 561.277344 685.515625 560.71875 685.847656 560.128906 C 686.179688 559.539062 686.453125 558.921875 686.675781 558.285156 C 686.898438 557.644531 687.0625 556.992188 687.171875 556.324219 C 687.277344 555.65625 687.324219 554.984375 687.3125 554.304688 C 687.300781 553.628906 687.230469 552.960938 687.097656 552.296875 C 686.96875 551.632812 686.78125 550.984375 686.535156 550.351562 C 686.292969 549.722656 685.992188 549.117188 685.640625 548.539062 C 685.289062 547.960938 684.890625 547.417969 684.445312 546.910156 C 684.078125 546.496094 683.417969 547.046875 683.785156 547.460938 C 684.203125 547.929688 684.574219 548.4375 684.902344 548.976562 C 685.230469 549.511719 685.507812 550.074219 685.734375 550.664062 C 685.964844 551.25 686.136719 551.855469 686.257812 552.472656 C 686.378906 553.089844 686.445312 553.714844 686.453125 554.34375 C 686.464844 554.976562 686.417969 555.601562 686.316406 556.222656 C 686.214844 556.84375 686.0625 557.453125 685.851562 558.046875 C 685.640625 558.640625 685.382812 559.214844 685.070312 559.761719 C 684.761719 560.308594 684.402344 560.828125 684 561.3125 C 683.648438 561.738281 684.355469 562.222656 684.707031 561.800781 Z M 684.707031 561.800781 " fill-opacity="1" fill-rule="nonzero"/><path fill="#ffffff" d="M 695.835938 582.558594 C 693.058594 582.859375 690.324219 582.644531 687.632812 581.914062 C 684.941406 581.183594 682.472656 579.988281 680.230469 578.324219 C 679.789062 577.996094 679.300781 578.703125 679.742188 579.03125 C 682.078125 580.753906 684.648438 581.996094 687.453125 582.75 C 690.257812 583.503906 693.101562 583.722656 695.988281 583.402344 C 696.539062 583.34375 696.382812 582.5 695.835938 582.558594 Z M 695.835938 582.558594 " fill-opacity="1" fill-rule="nonzero"/><path fill="#ffffff" d="M 663.824219 548.054688 C 663.316406 549.023438 662.609375 549.816406 661.699219 550.429688 C 660.792969 551.046875 659.792969 551.40625 658.703125 551.519531 C 658.152344 551.570312 658.308594 552.414062 658.855469 552.363281 C 660.0625 552.234375 661.164062 551.832031 662.167969 551.15625 C 663.171875 550.480469 663.957031 549.609375 664.527344 548.542969 C 664.589844 548.445312 664.613281 548.335938 664.59375 548.222656 C 664.570312 548.105469 664.515625 548.015625 664.417969 547.945312 C 664.320312 547.878906 664.214844 547.855469 664.097656 547.875 C 663.980469 547.898438 663.890625 547.957031 663.824219 548.054688 Z M 663.824219 548.054688 " fill-opacity="1" fill-rule="nonzero"/><g clip-path="url(#a93cd40e81)"><path fill="#000000" d="M 109.398438 308.332031 C 109.398438 309.09375 109.324219 309.847656 109.175781 310.59375 C 109.027344 311.339844 108.808594 312.0625 108.515625 312.765625 C 108.222656 313.46875 107.867188 314.136719 107.445312 314.769531 C 107.019531 315.402344 106.539062 315.984375 106.003906 316.523438 C 105.464844 317.0625 104.878906 317.542969 104.246094 317.964844 C 103.613281 318.386719 102.945312 318.742188 102.242188 319.035156 C 101.539062 319.328125 100.8125 319.546875 100.066406 319.695312 C 99.320312 319.84375 98.566406 319.917969 97.804688 319.917969 C 97.042969 319.917969 96.289062 319.84375 95.542969 319.695312 C 94.796875 319.546875 94.070312 319.328125 93.367188 319.035156 C 92.664062 318.742188 91.996094 318.386719 91.363281 317.964844 C 90.730469 317.542969 90.144531 317.0625 89.605469 316.523438 C 89.066406 315.984375 88.585938 315.402344 88.164062 314.769531 C 87.738281 314.136719 87.382812 313.46875 87.089844 312.765625 C 86.800781 312.0625 86.582031 311.339844 86.433594 310.59375 C 86.285156 309.847656 86.210938 309.09375 86.210938 308.332031 C 86.210938 307.570312 86.285156 306.816406 86.433594 306.070312 C 86.582031 305.324219 86.800781 304.601562 87.089844 303.898438 C 87.382812 303.195312 87.738281 302.527344 88.164062 301.894531 C 88.585938 301.261719 89.066406 300.675781 89.605469 300.140625 C 90.144531 299.601562 90.730469 299.121094 91.363281 298.699219 C 91.996094 298.277344 92.664062 297.917969 93.367188 297.628906 C 94.070312 297.335938 94.796875 297.117188 95.542969 296.96875 C 96.289062 296.820312 97.042969 296.746094 97.804688 296.746094 C 98.566406 296.746094 99.320312 296.820312 100.066406 296.96875 C 100.8125 297.117188 101.539062 297.335938 102.242188 297.628906 C 102.945312 297.917969 103.613281 298.277344 104.246094 298.699219 C 104.878906 299.121094 105.464844 299.601562 106.003906 300.140625 C 106.539062 300.675781 107.019531 301.261719 107.445312 301.894531 C 107.867188 302.527344 108.222656 303.195312 108.515625 303.898438 C 108.808594 304.601562 109.027344 305.324219 109.175781 306.070312 C 109.324219 306.816406 109.398438 307.570312 109.398438 308.332031 Z M 109.398438 308.332031 " fill-opacity="0.3137" fill-rule="nonzero"/></g><path fill="#000000" d="M 691.304688 308.332031 C 691.304688 309.09375 691.230469 309.847656 691.082031 310.59375 C 690.933594 311.339844 690.710938 312.0625 690.421875 312.765625 C 690.128906 313.46875 689.773438 314.136719 689.347656 314.769531 C 688.925781 315.402344 688.445312 315.984375 687.90625 316.523438 C 687.367188 317.0625 686.785156 317.542969 686.152344 317.964844 C 685.515625 318.386719 684.847656 318.742188 684.144531 319.035156 C 683.441406 319.328125 682.71875 319.546875 681.972656 319.695312 C 681.222656 319.84375 680.46875 319.917969 679.707031 319.917969 C 678.949219 319.917969 678.195312 319.84375 677.445312 319.695312 C 676.699219 319.546875 675.976562 319.328125 675.273438 319.035156 C 674.570312 318.742188 673.898438 318.386719 673.265625 317.964844 C 672.632812 317.542969 672.046875 317.0625 671.511719 316.523438 C 670.972656 315.984375 670.492188 315.402344 670.066406 314.769531 C 669.644531 314.136719 669.289062 313.46875 668.996094 312.765625 C 668.707031 312.0625 668.484375 311.339844 668.335938 310.59375 C 668.1875 309.847656 668.113281 309.09375 668.113281 308.332031 C 668.113281 307.570312 668.1875 306.816406 668.335938 306.070312 C 668.484375 305.324219 668.707031 304.601562 668.996094 303.898438 C 669.289062 303.195312 669.644531 302.527344 670.066406 301.894531 C 670.492188 301.261719 670.972656 300.675781 671.511719 300.140625 C 672.046875 299.601562 672.632812 299.121094 673.265625 298.699219 C 673.898438 298.277344 674.570312 297.917969 675.273438 297.628906 C 675.976562 297.335938 676.699219 297.117188 677.445312 296.96875 C 678.195312 296.820312 678.949219 296.746094 679.707031 296.746094 C 680.46875 296.746094 681.222656 296.820312 681.972656 296.96875 C 682.71875 297.117188 683.441406 297.335938 684.144531 297.628906 C 684.847656 297.917969 685.515625 298.277344 686.152344 298.699219 C 686.785156 299.121094 687.367188 299.601562 687.90625 300.140625 C 688.445312 300.675781 688.925781 301.261719 689.347656 301.894531 C 689.773438 302.527344 690.128906 303.195312 690.421875 303.898438 C 690.710938 304.601562 690.933594 305.324219 691.082031 306.070312 C 691.230469 306.816406 691.304688 307.570312 691.304688 308.332031 Z M 691.304688 308.332031 " fill-opacity="0.3137" fill-rule="nonzero"/><path fill="#000000" d="M 560.777344 307.609375 L 683.332031 307.609375 L 683.332031 309.054688 L 560.777344 309.054688 Z M 560.777344 307.609375 " fill-opacity="0.3137" fill-rule="nonzero"/><path fill="#000000" d="M 415.273438 307.609375 L 528.527344 307.609375 L 528.527344 309.054688 L 415.273438 309.054688 Z M 415.273438 307.609375 " fill-opacity="0.3137" fill-rule="nonzero"/><path fill="#000000" d="M 268.8125 307.609375 L 383.023438 307.609375 L 383.023438 309.054688 L 268.8125 309.054688 Z M 268.8125 307.609375 " fill-opacity="0.3137" fill-rule="nonzero"/><path fill="#000000" d="M 97.804688 307.609375 L 236.699219 307.609375 L 236.699219 309.054688 L 97.804688 309.054688 Z M 97.804688 307.609375 " fill-opacity="0.3137" fill-rule="nonzero"/><path fill="#0048ff" d="M 256.503906 328.242188 C 255.972656 328.242188 255.4375 328.21875 254.90625 328.164062 C 254.375 328.113281 253.847656 328.035156 253.324219 327.929688 C 252.800781 327.828125 252.285156 327.699219 251.773438 327.542969 C 251.261719 327.386719 250.757812 327.207031 250.265625 327.003906 C 249.773438 326.800781 249.289062 326.570312 248.820312 326.320312 C 248.347656 326.070312 247.890625 325.792969 247.445312 325.5 C 247.003906 325.203125 246.574219 324.882812 246.160156 324.546875 C 245.75 324.207031 245.355469 323.847656 244.976562 323.472656 C 244.597656 323.09375 244.242188 322.699219 243.902344 322.289062 C 243.5625 321.875 243.246094 321.445312 242.949219 321.003906 C 242.652344 320.558594 242.378906 320.101562 242.125 319.632812 C 241.875 319.160156 241.644531 318.679688 241.441406 318.1875 C 241.238281 317.695312 241.058594 317.191406 240.902344 316.679688 C 240.746094 316.171875 240.617188 315.652344 240.515625 315.128906 C 240.410156 314.605469 240.332031 314.078125 240.277344 313.550781 C 240.226562 313.019531 240.199219 312.484375 240.199219 311.953125 C 240.199219 311.417969 240.226562 310.886719 240.277344 310.355469 C 240.332031 309.824219 240.410156 309.296875 240.515625 308.773438 C 240.617188 308.25 240.746094 307.734375 240.902344 307.222656 C 241.058594 306.710938 241.238281 306.210938 241.441406 305.71875 C 241.644531 305.222656 241.875 304.742188 242.125 304.273438 C 242.378906 303.800781 242.652344 303.34375 242.949219 302.902344 C 243.246094 302.457031 243.5625 302.027344 243.902344 301.617188 C 244.242188 301.203125 244.597656 300.808594 244.976562 300.433594 C 245.355469 300.054688 245.75 299.695312 246.160156 299.359375 C 246.574219 299.019531 247.003906 298.703125 247.445312 298.40625 C 247.890625 298.109375 248.347656 297.835938 248.820312 297.582031 C 249.289062 297.332031 249.773438 297.105469 250.265625 296.898438 C 250.757812 296.695312 251.261719 296.515625 251.773438 296.363281 C 252.285156 296.207031 252.800781 296.078125 253.324219 295.972656 C 253.847656 295.867188 254.375 295.789062 254.90625 295.738281 C 255.4375 295.6875 255.972656 295.660156 256.503906 295.660156 C 257.039062 295.660156 257.570312 295.6875 258.105469 295.738281 C 258.636719 295.789062 259.164062 295.867188 259.6875 295.972656 C 260.210938 296.078125 260.726562 296.207031 261.238281 296.363281 C 261.75 296.515625 262.25 296.695312 262.746094 296.898438 C 263.238281 297.105469 263.71875 297.332031 264.191406 297.582031 C 264.664062 297.835938 265.121094 298.109375 265.5625 298.40625 C 266.007812 298.703125 266.4375 299.019531 266.847656 299.359375 C 267.261719 299.695312 267.65625 300.054688 268.035156 300.433594 C 268.414062 300.808594 268.769531 301.203125 269.109375 301.617188 C 269.449219 302.027344 269.765625 302.457031 270.0625 302.902344 C 270.359375 303.34375 270.632812 303.800781 270.886719 304.273438 C 271.136719 304.742188 271.363281 305.222656 271.570312 305.71875 C 271.773438 306.210938 271.953125 306.710938 272.109375 307.222656 C 272.261719 307.734375 272.394531 308.25 272.496094 308.773438 C 272.601562 309.296875 272.679688 309.824219 272.730469 310.355469 C 272.785156 310.886719 272.808594 311.417969 272.808594 311.953125 C 272.808594 312.484375 272.78125 313.019531 272.730469 313.546875 C 272.675781 314.078125 272.597656 314.605469 272.492188 315.128906 C 272.390625 315.652344 272.257812 316.167969 272.105469 316.679688 C 271.949219 317.191406 271.769531 317.691406 271.5625 318.183594 C 271.359375 318.675781 271.132812 319.15625 270.878906 319.628906 C 270.628906 320.097656 270.351562 320.554688 270.058594 321 C 269.761719 321.441406 269.441406 321.871094 269.105469 322.28125 C 268.765625 322.695312 268.40625 323.089844 268.027344 323.46875 C 267.652344 323.84375 267.257812 324.203125 266.84375 324.539062 C 266.429688 324.878906 266.003906 325.195312 265.558594 325.492188 C 265.117188 325.789062 264.660156 326.0625 264.1875 326.316406 C 263.71875 326.566406 263.234375 326.792969 262.742188 327 C 262.25 327.203125 261.746094 327.382812 261.238281 327.539062 C 260.726562 327.695312 260.207031 327.824219 259.683594 327.929688 C 259.160156 328.03125 258.632812 328.109375 258.101562 328.164062 C 257.570312 328.214844 257.039062 328.242188 256.503906 328.242188 Z M 256.503906 328.242188 " fill-opacity="1" fill-rule="nonzero"/><path fill="#000000" d="M 252.882812 324.984375 C 252.335938 324.984375 251.792969 324.957031 251.25 324.90625 C 250.707031 324.851562 250.164062 324.773438 249.628906 324.664062 C 249.09375 324.558594 248.566406 324.425781 248.042969 324.269531 C 247.519531 324.109375 247.007812 323.925781 246.503906 323.71875 C 246 323.507812 245.507812 323.277344 245.023438 323.019531 C 244.542969 322.761719 244.074219 322.480469 243.621094 322.179688 C 243.167969 321.875 242.730469 321.550781 242.308594 321.207031 C 241.886719 320.859375 241.484375 320.492188 241.097656 320.109375 C 240.710938 319.722656 240.34375 319.320312 239.996094 318.898438 C 239.652344 318.476562 239.328125 318.039062 239.023438 317.585938 C 238.71875 317.128906 238.441406 316.664062 238.183594 316.183594 C 237.925781 315.703125 237.691406 315.207031 237.484375 314.703125 C 237.273438 314.199219 237.089844 313.6875 236.933594 313.167969 C 236.773438 312.644531 236.640625 312.117188 236.535156 311.582031 C 236.429688 311.046875 236.347656 310.507812 236.296875 309.964844 C 236.242188 309.421875 236.214844 308.878906 236.214844 308.332031 C 236.214844 307.785156 236.242188 307.242188 236.296875 306.699219 C 236.347656 306.15625 236.429688 305.617188 236.535156 305.082031 C 236.640625 304.546875 236.773438 304.019531 236.933594 303.496094 C 237.089844 302.976562 237.273438 302.460938 237.484375 301.957031 C 237.691406 301.453125 237.925781 300.960938 238.183594 300.480469 C 238.441406 300 238.71875 299.53125 239.023438 299.078125 C 239.328125 298.625 239.652344 298.1875 239.996094 297.765625 C 240.34375 297.34375 240.710938 296.941406 241.097656 296.554688 C 241.484375 296.167969 241.886719 295.804688 242.308594 295.457031 C 242.730469 295.113281 243.167969 294.789062 243.621094 294.484375 C 244.074219 294.179688 244.542969 293.902344 245.023438 293.644531 C 245.507812 293.386719 246 293.152344 246.503906 292.945312 C 247.007812 292.738281 247.519531 292.554688 248.042969 292.394531 C 248.566406 292.238281 249.09375 292.105469 249.628906 291.996094 C 250.164062 291.890625 250.703125 291.8125 251.25 291.757812 C 251.792969 291.703125 252.335938 291.675781 252.882812 291.675781 C 253.429688 291.675781 253.972656 291.703125 254.515625 291.757812 C 255.058594 291.8125 255.597656 291.890625 256.132812 291.996094 C 256.667969 292.105469 257.199219 292.238281 257.71875 292.394531 C 258.242188 292.554688 258.757812 292.738281 259.261719 292.945312 C 259.765625 293.152344 260.257812 293.386719 260.738281 293.644531 C 261.21875 293.902344 261.6875 294.179688 262.140625 294.484375 C 262.597656 294.789062 263.035156 295.113281 263.457031 295.457031 C 263.878906 295.804688 264.28125 296.167969 264.667969 296.554688 C 265.054688 296.941406 265.417969 297.34375 265.765625 297.765625 C 266.113281 298.1875 266.4375 298.625 266.742188 299.078125 C 267.042969 299.53125 267.324219 300 267.582031 300.480469 C 267.839844 300.960938 268.070312 301.453125 268.28125 301.957031 C 268.488281 302.460938 268.671875 302.976562 268.832031 303.496094 C 268.988281 304.019531 269.121094 304.546875 269.230469 305.082031 C 269.335938 305.617188 269.414062 306.15625 269.46875 306.699219 C 269.523438 307.242188 269.550781 307.785156 269.550781 308.332031 C 269.546875 308.875 269.519531 309.421875 269.46875 309.964844 C 269.414062 310.507812 269.332031 311.042969 269.226562 311.578125 C 269.117188 312.113281 268.984375 312.640625 268.828125 313.164062 C 268.667969 313.6875 268.484375 314.199219 268.277344 314.703125 C 268.066406 315.207031 267.832031 315.699219 267.574219 316.179688 C 267.316406 316.660156 267.039062 317.125 266.734375 317.578125 C 266.429688 318.03125 266.105469 318.46875 265.761719 318.890625 C 265.414062 319.3125 265.046875 319.714844 264.660156 320.101562 C 264.277344 320.488281 263.871094 320.855469 263.449219 321.199219 C 263.027344 321.546875 262.589844 321.871094 262.136719 322.171875 C 261.683594 322.476562 261.214844 322.757812 260.734375 323.011719 C 260.253906 323.269531 259.761719 323.503906 259.257812 323.714844 C 258.753906 323.921875 258.242188 324.105469 257.71875 324.265625 C 257.195312 324.421875 256.667969 324.554688 256.132812 324.664062 C 255.597656 324.769531 255.058594 324.851562 254.515625 324.902344 C 253.972656 324.957031 253.425781 324.984375 252.882812 324.984375 Z M 252.882812 293.125 C 251.882812 293.125 250.894531 293.222656 249.914062 293.417969 C 248.933594 293.613281 247.980469 293.902344 247.058594 294.285156 C 246.136719 294.664062 245.257812 295.132812 244.425781 295.6875 C 243.597656 296.242188 242.828125 296.875 242.121094 297.578125 C 241.414062 298.285156 240.785156 299.054688 240.230469 299.882812 C 239.671875 300.714844 239.203125 301.589844 238.824219 302.511719 C 238.441406 303.433594 238.152344 304.386719 237.957031 305.363281 C 237.761719 306.34375 237.664062 307.332031 237.664062 308.332031 C 237.664062 309.332031 237.761719 310.320312 237.957031 311.296875 C 238.152344 312.277344 238.441406 313.226562 238.824219 314.152344 C 239.203125 315.074219 239.671875 315.949219 240.230469 316.78125 C 240.785156 317.609375 241.414062 318.378906 242.121094 319.082031 C 242.828125 319.789062 243.597656 320.421875 244.425781 320.976562 C 245.257812 321.53125 246.136719 321.996094 247.058594 322.378906 C 247.980469 322.761719 248.933594 323.050781 249.914062 323.246094 C 250.894531 323.441406 251.882812 323.539062 252.882812 323.539062 C 253.882812 323.539062 254.871094 323.441406 255.851562 323.246094 C 256.832031 323.050781 257.78125 322.761719 258.707031 322.378906 C 259.628906 321.996094 260.503906 321.53125 261.335938 320.976562 C 262.167969 320.421875 262.9375 319.789062 263.644531 319.082031 C 264.347656 318.378906 264.980469 317.609375 265.535156 316.78125 C 266.089844 315.949219 266.558594 315.074219 266.941406 314.152344 C 267.324219 313.226562 267.613281 312.277344 267.808594 311.296875 C 268.003906 310.320312 268.101562 309.332031 268.101562 308.332031 C 268.097656 307.332031 268 306.34375 267.804688 305.367188 C 267.609375 304.386719 267.320312 303.4375 266.9375 302.515625 C 266.554688 301.59375 266.085938 300.71875 265.53125 299.886719 C 264.976562 299.058594 264.34375 298.289062 263.636719 297.585938 C 262.929688 296.878906 262.164062 296.25 261.332031 295.695312 C 260.503906 295.140625 259.625 294.671875 258.703125 294.289062 C 257.78125 293.90625 256.828125 293.617188 255.851562 293.421875 C 254.871094 293.226562 253.882812 293.128906 252.882812 293.125 Z M 252.882812 293.125 " fill-opacity="0.3137" fill-rule="nonzero"/><path fill="#ffffff" d="M 252.519531 313.398438 C 252.21875 313.398438 251.964844 313.292969 251.75 313.082031 L 245.589844 306.925781 C 245.488281 306.824219 245.410156 306.707031 245.355469 306.574219 C 245.300781 306.441406 245.269531 306.304688 245.269531 306.160156 C 245.269531 306.015625 245.296875 305.875 245.351562 305.742188 C 245.410156 305.609375 245.488281 305.492188 245.589844 305.390625 C 245.691406 305.285156 245.808594 305.207031 245.941406 305.152344 C 246.074219 305.097656 246.214844 305.070312 246.359375 305.070312 C 246.503906 305.070312 246.644531 305.097656 246.777344 305.15625 C 246.910156 305.210938 247.027344 305.289062 247.128906 305.390625 L 252.519531 310.777344 L 263.238281 300.066406 C 263.34375 299.964844 263.460938 299.886719 263.59375 299.832031 C 263.726562 299.777344 263.863281 299.75 264.007812 299.75 C 264.152344 299.75 264.289062 299.777344 264.421875 299.832031 C 264.554688 299.886719 264.671875 299.96875 264.773438 300.070312 C 264.875 300.171875 264.957031 300.289062 265.011719 300.421875 C 265.066406 300.554688 265.09375 300.691406 265.09375 300.835938 C 265.09375 300.980469 265.066406 301.117188 265.011719 301.25 C 264.957031 301.382812 264.878906 301.5 264.777344 301.601562 L 253.289062 313.082031 C 253.074219 313.292969 252.820312 313.398438 252.519531 313.398438 Z M 252.519531 313.398438 " fill-opacity="1" fill-rule="nonzero"/><path fill="#0048ff" d="M 402.886719 328.242188 C 402.351562 328.242188 401.820312 328.21875 401.289062 328.164062 C 400.757812 328.113281 400.230469 328.035156 399.707031 327.929688 C 399.183594 327.828125 398.664062 327.699219 398.15625 327.542969 C 397.644531 327.386719 397.140625 327.207031 396.648438 327.003906 C 396.15625 326.800781 395.671875 326.570312 395.203125 326.320312 C 394.730469 326.070312 394.273438 325.792969 393.828125 325.5 C 393.386719 325.203125 392.957031 324.882812 392.542969 324.546875 C 392.132812 324.207031 391.734375 323.847656 391.359375 323.472656 C 390.980469 323.09375 390.621094 322.699219 390.285156 322.289062 C 389.945312 321.875 389.628906 321.445312 389.332031 321.003906 C 389.035156 320.558594 388.757812 320.101562 388.507812 319.632812 C 388.257812 319.160156 388.027344 318.679688 387.824219 318.1875 C 387.621094 317.695312 387.441406 317.191406 387.285156 316.679688 C 387.128906 316.171875 387 315.652344 386.894531 315.128906 C 386.792969 314.605469 386.714844 314.078125 386.660156 313.550781 C 386.609375 313.019531 386.582031 312.484375 386.582031 311.953125 C 386.582031 311.417969 386.609375 310.886719 386.660156 310.355469 C 386.714844 309.824219 386.792969 309.296875 386.894531 308.773438 C 387 308.25 387.128906 307.734375 387.285156 307.222656 C 387.441406 306.710938 387.621094 306.210938 387.824219 305.71875 C 388.027344 305.222656 388.257812 304.742188 388.507812 304.273438 C 388.757812 303.800781 389.035156 303.34375 389.332031 302.902344 C 389.628906 302.457031 389.945312 302.027344 390.285156 301.617188 C 390.621094 301.203125 390.980469 300.808594 391.359375 300.433594 C 391.734375 300.054688 392.132812 299.695312 392.542969 299.359375 C 392.957031 299.019531 393.386719 298.703125 393.828125 298.40625 C 394.273438 298.109375 394.730469 297.835938 395.203125 297.582031 C 395.671875 297.332031 396.15625 297.105469 396.648438 296.898438 C 397.140625 296.695312 397.644531 296.515625 398.15625 296.363281 C 398.664062 296.207031 399.183594 296.078125 399.707031 295.972656 C 400.230469 295.867188 400.757812 295.789062 401.289062 295.738281 C 401.820312 295.6875 402.351562 295.660156 402.886719 295.660156 C 403.421875 295.660156 403.953125 295.6875 404.484375 295.738281 C 405.015625 295.789062 405.542969 295.867188 406.066406 295.972656 C 406.59375 296.078125 407.109375 296.207031 407.621094 296.363281 C 408.132812 296.515625 408.632812 296.695312 409.128906 296.898438 C 409.621094 297.105469 410.101562 297.332031 410.574219 297.582031 C 411.042969 297.835938 411.5 298.109375 411.945312 298.40625 C 412.390625 298.703125 412.820312 299.019531 413.230469 299.359375 C 413.644531 299.695312 414.039062 300.054688 414.417969 300.433594 C 414.792969 300.808594 415.152344 301.203125 415.492188 301.617188 C 415.832031 302.027344 416.148438 302.457031 416.445312 302.902344 C 416.742188 303.34375 417.015625 303.800781 417.265625 304.273438 C 417.519531 304.742188 417.746094 305.222656 417.953125 305.71875 C 418.15625 306.210938 418.335938 306.710938 418.492188 307.222656 C 418.644531 307.734375 418.773438 308.25 418.878906 308.773438 C 418.984375 309.296875 419.0625 309.824219 419.113281 310.355469 C 419.167969 310.886719 419.191406 311.417969 419.191406 311.953125 C 419.191406 312.484375 419.164062 313.019531 419.113281 313.546875 C 419.058594 314.078125 418.980469 314.605469 418.875 315.128906 C 418.769531 315.652344 418.640625 316.167969 418.484375 316.679688 C 418.332031 317.191406 418.152344 317.691406 417.945312 318.183594 C 417.742188 318.675781 417.511719 319.15625 417.261719 319.628906 C 417.011719 320.097656 416.734375 320.554688 416.4375 321 C 416.140625 321.441406 415.824219 321.871094 415.484375 322.28125 C 415.148438 322.695312 414.789062 323.089844 414.410156 323.46875 C 414.035156 323.84375 413.640625 324.203125 413.226562 324.539062 C 412.8125 324.878906 412.386719 325.195312 411.941406 325.492188 C 411.496094 325.789062 411.039062 326.0625 410.570312 326.316406 C 410.097656 326.566406 409.617188 326.792969 409.125 327 C 408.632812 327.203125 408.128906 327.382812 407.617188 327.539062 C 407.109375 327.695312 406.589844 327.824219 406.066406 327.929688 C 405.542969 328.03125 405.015625 328.109375 404.484375 328.164062 C 403.953125 328.214844 403.421875 328.242188 402.886719 328.242188 Z M 402.886719 328.242188 " fill-opacity="1" fill-rule="nonzero"/><path fill="#000000" d="M 399.265625 324.984375 C 398.71875 324.984375 398.171875 324.957031 397.628906 324.90625 C 397.085938 324.851562 396.546875 324.773438 396.011719 324.664062 C 395.476562 324.558594 394.949219 324.425781 394.425781 324.269531 C 393.902344 324.109375 393.390625 323.925781 392.886719 323.71875 C 392.382812 323.507812 391.886719 323.277344 391.40625 323.019531 C 390.925781 322.761719 390.457031 322.480469 390.003906 322.179688 C 389.550781 321.875 389.113281 321.550781 388.691406 321.207031 C 388.269531 320.859375 387.863281 320.492188 387.480469 320.109375 C 387.09375 319.722656 386.726562 319.320312 386.378906 318.898438 C 386.035156 318.476562 385.710938 318.039062 385.40625 317.585938 C 385.101562 317.128906 384.820312 316.664062 384.566406 316.183594 C 384.308594 315.703125 384.074219 315.207031 383.867188 314.703125 C 383.65625 314.199219 383.472656 313.6875 383.316406 313.167969 C 383.15625 312.644531 383.023438 312.117188 382.917969 311.582031 C 382.8125 311.046875 382.730469 310.507812 382.675781 309.964844 C 382.625 309.421875 382.597656 308.878906 382.597656 308.332031 C 382.597656 307.785156 382.625 307.242188 382.675781 306.699219 C 382.730469 306.15625 382.8125 305.617188 382.917969 305.082031 C 383.023438 304.546875 383.15625 304.019531 383.316406 303.496094 C 383.472656 302.976562 383.65625 302.460938 383.867188 301.957031 C 384.074219 301.453125 384.308594 300.960938 384.566406 300.480469 C 384.820312 300 385.101562 299.53125 385.40625 299.078125 C 385.710938 298.625 386.035156 298.1875 386.378906 297.765625 C 386.726562 297.34375 387.09375 296.941406 387.480469 296.554688 C 387.863281 296.167969 388.269531 295.804688 388.691406 295.457031 C 389.113281 295.113281 389.550781 294.789062 390.003906 294.484375 C 390.457031 294.179688 390.925781 293.902344 391.40625 293.644531 C 391.886719 293.386719 392.382812 293.152344 392.886719 292.945312 C 393.390625 292.738281 393.902344 292.554688 394.425781 292.394531 C 394.949219 292.238281 395.476562 292.105469 396.011719 291.996094 C 396.546875 291.890625 397.085938 291.8125 397.628906 291.757812 C 398.171875 291.703125 398.71875 291.675781 399.265625 291.675781 C 399.808594 291.675781 400.355469 291.703125 400.898438 291.757812 C 401.441406 291.8125 401.980469 291.890625 402.515625 291.996094 C 403.050781 292.105469 403.578125 292.238281 404.101562 292.394531 C 404.625 292.554688 405.136719 292.738281 405.640625 292.945312 C 406.148438 293.152344 406.640625 293.386719 407.121094 293.644531 C 407.601562 293.902344 408.070312 294.179688 408.523438 294.484375 C 408.976562 294.789062 409.414062 295.113281 409.835938 295.457031 C 410.257812 295.804688 410.664062 296.167969 411.050781 296.554688 C 411.4375 296.941406 411.800781 297.34375 412.148438 297.765625 C 412.496094 298.1875 412.820312 298.625 413.121094 299.078125 C 413.425781 299.53125 413.707031 300 413.964844 300.480469 C 414.21875 300.960938 414.453125 301.453125 414.664062 301.957031 C 414.871094 302.460938 415.054688 302.976562 415.214844 303.496094 C 415.371094 304.019531 415.503906 304.546875 415.609375 305.082031 C 415.71875 305.617188 415.796875 306.15625 415.851562 306.699219 C 415.90625 307.242188 415.929688 307.785156 415.929688 308.332031 C 415.929688 308.875 415.902344 309.421875 415.847656 309.964844 C 415.796875 310.507812 415.714844 311.042969 415.609375 311.578125 C 415.5 312.113281 415.367188 312.640625 415.210938 313.164062 C 415.050781 313.6875 414.867188 314.199219 414.65625 314.703125 C 414.449219 315.207031 414.214844 315.699219 413.957031 316.179688 C 413.699219 316.660156 413.421875 317.125 413.117188 317.578125 C 412.8125 318.03125 412.488281 318.46875 412.140625 318.890625 C 411.796875 319.3125 411.429688 319.714844 411.042969 320.101562 C 410.660156 320.488281 410.253906 320.855469 409.832031 321.199219 C 409.410156 321.546875 408.972656 321.871094 408.519531 322.171875 C 408.066406 322.476562 407.597656 322.757812 407.117188 323.011719 C 406.636719 323.269531 406.144531 323.503906 405.640625 323.714844 C 405.136719 323.921875 404.621094 324.105469 404.101562 324.265625 C 403.578125 324.421875 403.050781 324.554688 402.515625 324.664062 C 401.980469 324.769531 401.441406 324.851562 400.898438 324.902344 C 400.355469 324.957031 399.808594 324.984375 399.265625 324.984375 Z M 399.265625 293.125 C 398.265625 293.125 397.273438 293.222656 396.296875 293.417969 C 395.316406 293.613281 394.363281 293.902344 393.441406 294.285156 C 392.515625 294.664062 391.640625 295.132812 390.808594 295.6875 C 389.980469 296.242188 389.210938 296.875 388.503906 297.578125 C 387.796875 298.285156 387.164062 299.054688 386.609375 299.882812 C 386.054688 300.714844 385.585938 301.589844 385.203125 302.511719 C 384.820312 303.433594 384.535156 304.386719 384.339844 305.363281 C 384.144531 306.34375 384.046875 307.332031 384.046875 308.332031 C 384.046875 309.332031 384.144531 310.320312 384.339844 311.296875 C 384.535156 312.277344 384.820312 313.226562 385.203125 314.152344 C 385.585938 315.074219 386.054688 315.949219 386.609375 316.78125 C 387.164062 317.609375 387.796875 318.378906 388.503906 319.082031 C 389.210938 319.789062 389.980469 320.421875 390.808594 320.976562 C 391.640625 321.53125 392.515625 321.996094 393.441406 322.378906 C 394.363281 322.761719 395.316406 323.050781 396.296875 323.246094 C 397.273438 323.441406 398.265625 323.539062 399.265625 323.539062 C 400.261719 323.539062 401.253906 323.441406 402.234375 323.246094 C 403.214844 323.050781 404.164062 322.761719 405.085938 322.378906 C 406.011719 321.996094 406.886719 321.53125 407.71875 320.976562 C 408.550781 320.421875 409.316406 319.789062 410.023438 319.082031 C 410.730469 318.378906 411.363281 317.609375 411.917969 316.78125 C 412.472656 315.949219 412.941406 315.074219 413.324219 314.152344 C 413.707031 313.226562 413.996094 312.277344 414.191406 311.296875 C 414.382812 310.320312 414.480469 309.332031 414.480469 308.332031 C 414.480469 307.332031 414.382812 306.34375 414.1875 305.367188 C 413.992188 304.386719 413.703125 303.4375 413.320312 302.515625 C 412.9375 301.59375 412.46875 300.71875 411.914062 299.886719 C 411.355469 299.058594 410.726562 298.289062 410.019531 297.585938 C 409.3125 296.878906 408.546875 296.25 407.714844 295.695312 C 406.882812 295.140625 406.007812 294.671875 405.085938 294.289062 C 404.164062 293.90625 403.210938 293.617188 402.230469 293.421875 C 401.253906 293.226562 400.261719 293.128906 399.265625 293.125 Z M 399.265625 293.125 " fill-opacity="0.3137" fill-rule="nonzero"/><path fill="#ffffff" d="M 398.902344 313.398438 C 398.601562 313.398438 398.34375 313.292969 398.132812 313.082031 L 391.972656 306.925781 C 391.871094 306.824219 391.792969 306.707031 391.734375 306.574219 C 391.679688 306.441406 391.652344 306.304688 391.652344 306.160156 C 391.652344 306.015625 391.679688 305.875 391.734375 305.742188 C 391.789062 305.609375 391.867188 305.488281 391.96875 305.386719 C 392.074219 305.285156 392.191406 305.207031 392.324219 305.152344 C 392.457031 305.097656 392.597656 305.070312 392.742188 305.070312 C 392.886719 305.070312 393.023438 305.097656 393.15625 305.152344 C 393.292969 305.210938 393.410156 305.289062 393.511719 305.390625 L 398.902344 310.777344 L 409.621094 300.066406 C 409.722656 299.964844 409.839844 299.886719 409.976562 299.828125 C 410.109375 299.773438 410.246094 299.746094 410.390625 299.746094 C 410.535156 299.746094 410.675781 299.773438 410.808594 299.828125 C 410.941406 299.882812 411.058594 299.960938 411.160156 300.0625 C 411.265625 300.164062 411.34375 300.285156 411.398438 300.417969 C 411.453125 300.550781 411.480469 300.6875 411.480469 300.832031 C 411.480469 300.976562 411.453125 301.117188 411.394531 301.25 C 411.339844 301.382812 411.261719 301.5 411.160156 301.601562 L 399.671875 313.082031 C 399.457031 313.292969 399.203125 313.398438 398.902344 313.398438 Z M 398.902344 313.398438 " fill-opacity="1" fill-rule="nonzero"/><path fill="#f0f0f0" d="M 548.542969 328.242188 C 548.011719 328.242188 547.476562 328.21875 546.945312 328.164062 C 546.414062 328.113281 545.886719 328.035156 545.363281 327.929688 C 544.839844 327.828125 544.324219 327.699219 543.8125 327.542969 C 543.300781 327.386719 542.796875 327.207031 542.304688 327.003906 C 541.8125 326.800781 541.328125 326.570312 540.859375 326.320312 C 540.386719 326.070312 539.929688 325.792969 539.484375 325.5 C 539.042969 325.203125 538.613281 324.882812 538.199219 324.546875 C 537.789062 324.207031 537.394531 323.847656 537.015625 323.472656 C 536.636719 323.09375 536.28125 322.699219 535.941406 322.289062 C 535.601562 321.875 535.285156 321.445312 534.988281 321.003906 C 534.691406 320.558594 534.417969 320.101562 534.164062 319.632812 C 533.914062 319.160156 533.683594 318.679688 533.480469 318.1875 C 533.277344 317.695312 533.097656 317.191406 532.941406 316.679688 C 532.785156 316.171875 532.65625 315.652344 532.554688 315.128906 C 532.449219 314.605469 532.371094 314.078125 532.320312 313.550781 C 532.265625 313.019531 532.238281 312.484375 532.238281 311.953125 C 532.238281 311.417969 532.265625 310.886719 532.320312 310.355469 C 532.371094 309.824219 532.449219 309.296875 532.554688 308.773438 C 532.65625 308.25 532.785156 307.734375 532.941406 307.222656 C 533.097656 306.710938 533.277344 306.210938 533.480469 305.71875 C 533.683594 305.222656 533.914062 304.742188 534.164062 304.273438 C 534.417969 303.800781 534.691406 303.34375 534.988281 302.902344 C 535.285156 302.457031 535.601562 302.027344 535.941406 301.617188 C 536.28125 301.203125 536.636719 300.808594 537.015625 300.433594 C 537.394531 300.054688 537.789062 299.695312 538.203125 299.359375 C 538.613281 299.019531 539.042969 298.703125 539.484375 298.40625 C 539.929688 298.109375 540.386719 297.835938 540.859375 297.582031 C 541.328125 297.332031 541.8125 297.105469 542.304688 296.898438 C 542.796875 296.695312 543.300781 296.515625 543.8125 296.363281 C 544.324219 296.207031 544.839844 296.078125 545.363281 295.972656 C 545.886719 295.867188 546.414062 295.789062 546.945312 295.738281 C 547.476562 295.6875 548.011719 295.660156 548.546875 295.660156 C 549.078125 295.660156 549.613281 295.6875 550.144531 295.738281 C 550.675781 295.789062 551.203125 295.867188 551.726562 295.972656 C 552.25 296.078125 552.765625 296.207031 553.277344 296.363281 C 553.789062 296.515625 554.292969 296.695312 554.785156 296.898438 C 555.277344 297.105469 555.761719 297.332031 556.230469 297.582031 C 556.703125 297.835938 557.160156 298.109375 557.601562 298.40625 C 558.046875 298.703125 558.476562 299.019531 558.890625 299.359375 C 559.300781 299.695312 559.695312 300.054688 560.074219 300.433594 C 560.453125 300.808594 560.808594 301.203125 561.148438 301.617188 C 561.488281 302.027344 561.804688 302.457031 562.101562 302.902344 C 562.398438 303.34375 562.671875 303.800781 562.925781 304.273438 C 563.175781 304.742188 563.40625 305.222656 563.609375 305.71875 C 563.8125 306.210938 563.992188 306.710938 564.148438 307.222656 C 564.304688 307.734375 564.433594 308.25 564.535156 308.773438 C 564.640625 309.296875 564.71875 309.824219 564.769531 310.355469 C 564.824219 310.886719 564.851562 311.417969 564.851562 311.953125 C 564.847656 312.484375 564.824219 313.019531 564.769531 313.546875 C 564.71875 314.078125 564.636719 314.605469 564.535156 315.128906 C 564.429688 315.652344 564.300781 316.167969 564.144531 316.679688 C 563.988281 317.191406 563.808594 317.691406 563.605469 318.183594 C 563.398438 318.675781 563.171875 319.15625 562.917969 319.628906 C 562.667969 320.097656 562.394531 320.554688 562.097656 321 C 561.800781 321.441406 561.480469 321.871094 561.144531 322.28125 C 560.804688 322.695312 560.445312 323.089844 560.070312 323.46875 C 559.691406 323.84375 559.296875 324.203125 558.882812 324.539062 C 558.472656 324.878906 558.042969 325.195312 557.597656 325.492188 C 557.15625 325.789062 556.699219 326.0625 556.226562 326.316406 C 555.757812 326.566406 555.273438 326.792969 554.78125 327 C 554.289062 327.203125 553.785156 327.382812 553.277344 327.539062 C 552.765625 327.695312 552.25 327.824219 551.722656 327.929688 C 551.199219 328.03125 550.671875 328.109375 550.140625 328.164062 C 549.609375 328.214844 549.078125 328.242188 548.542969 328.242188 Z M 548.542969 328.242188 " fill-opacity="1" fill-rule="nonzero"/><path fill="#cacaca" d="M 544.921875 324.984375 C 544.375 324.984375 543.832031 324.957031 543.289062 324.90625 C 542.746094 324.851562 542.207031 324.773438 541.671875 324.664062 C 541.132812 324.558594 540.605469 324.425781 540.082031 324.269531 C 539.5625 324.109375 539.046875 323.925781 538.542969 323.71875 C 538.039062 323.507812 537.546875 323.277344 537.066406 323.019531 C 536.582031 322.761719 536.117188 322.480469 535.660156 322.179688 C 535.207031 321.875 534.769531 321.550781 534.347656 321.207031 C 533.925781 320.859375 533.523438 320.492188 533.136719 320.109375 C 532.75 319.722656 532.382812 319.320312 532.039062 318.898438 C 531.691406 318.476562 531.367188 318.039062 531.0625 317.585938 C 530.761719 317.128906 530.480469 316.664062 530.222656 316.183594 C 529.964844 315.703125 529.730469 315.207031 529.523438 314.703125 C 529.3125 314.199219 529.128906 313.6875 528.972656 313.167969 C 528.8125 312.644531 528.679688 312.117188 528.574219 311.582031 C 528.46875 311.046875 528.386719 310.507812 528.335938 309.964844 C 528.28125 309.421875 528.253906 308.878906 528.253906 308.332031 C 528.253906 307.785156 528.28125 307.242188 528.335938 306.699219 C 528.386719 306.15625 528.46875 305.617188 528.574219 305.082031 C 528.679688 304.546875 528.8125 304.019531 528.972656 303.496094 C 529.128906 302.976562 529.3125 302.460938 529.523438 301.957031 C 529.730469 301.453125 529.964844 300.960938 530.222656 300.480469 C 530.480469 300 530.761719 299.53125 531.0625 299.078125 C 531.367188 298.625 531.691406 298.1875 532.039062 297.765625 C 532.382812 297.34375 532.75 296.941406 533.136719 296.554688 C 533.523438 296.167969 533.925781 295.804688 534.347656 295.457031 C 534.769531 295.113281 535.207031 294.789062 535.660156 294.484375 C 536.117188 294.179688 536.582031 293.902344 537.066406 293.644531 C 537.546875 293.386719 538.039062 293.152344 538.542969 292.945312 C 539.046875 292.738281 539.5625 292.554688 540.082031 292.394531 C 540.605469 292.238281 541.132812 292.105469 541.667969 291.996094 C 542.207031 291.890625 542.746094 291.8125 543.289062 291.757812 C 543.832031 291.703125 544.375 291.675781 544.921875 291.675781 C 545.46875 291.675781 546.011719 291.703125 546.554688 291.757812 C 547.097656 291.8125 547.636719 291.890625 548.171875 291.996094 C 548.707031 292.105469 549.238281 292.238281 549.761719 292.394531 C 550.28125 292.554688 550.796875 292.738281 551.300781 292.945312 C 551.804688 293.152344 552.296875 293.386719 552.777344 293.644531 C 553.261719 293.902344 553.726562 294.179688 554.179688 294.484375 C 554.636719 294.789062 555.074219 295.113281 555.496094 295.457031 C 555.917969 295.804688 556.320312 296.167969 556.707031 296.554688 C 557.09375 296.941406 557.460938 297.34375 557.804688 297.765625 C 558.152344 298.1875 558.476562 298.625 558.78125 299.078125 C 559.082031 299.53125 559.363281 300 559.621094 300.480469 C 559.878906 300.960938 560.109375 301.453125 560.320312 301.957031 C 560.527344 302.460938 560.710938 302.976562 560.871094 303.496094 C 561.03125 304.019531 561.164062 304.546875 561.269531 305.082031 C 561.375 305.617188 561.457031 306.15625 561.507812 306.699219 C 561.5625 307.242188 561.589844 307.785156 561.589844 308.332031 C 561.589844 308.875 561.5625 309.421875 561.507812 309.964844 C 561.453125 310.507812 561.371094 311.042969 561.265625 311.578125 C 561.160156 312.113281 561.027344 312.640625 560.867188 313.164062 C 560.707031 313.6875 560.523438 314.199219 560.316406 314.703125 C 560.105469 315.207031 559.871094 315.699219 559.617188 316.179688 C 559.359375 316.660156 559.078125 317.125 558.773438 317.578125 C 558.472656 318.03125 558.144531 318.46875 557.800781 318.890625 C 557.453125 319.3125 557.085938 319.714844 556.703125 320.101562 C 556.316406 320.488281 555.910156 320.855469 555.488281 321.199219 C 555.066406 321.546875 554.628906 321.871094 554.175781 322.171875 C 553.722656 322.476562 553.257812 322.757812 552.773438 323.011719 C 552.292969 323.269531 551.800781 323.503906 551.296875 323.714844 C 550.792969 323.921875 550.28125 324.105469 549.757812 324.265625 C 549.234375 324.421875 548.707031 324.554688 548.171875 324.664062 C 547.636719 324.769531 547.097656 324.851562 546.554688 324.902344 C 546.011719 324.957031 545.46875 324.984375 544.921875 324.984375 Z M 544.921875 293.125 C 543.921875 293.125 542.933594 293.222656 541.953125 293.417969 C 540.972656 293.613281 540.019531 293.902344 539.097656 294.285156 C 538.175781 294.664062 537.296875 295.132812 536.46875 295.6875 C 535.636719 296.242188 534.867188 296.875 534.160156 297.578125 C 533.453125 298.285156 532.824219 299.054688 532.269531 299.882812 C 531.714844 300.714844 531.246094 301.589844 530.863281 302.511719 C 530.480469 303.433594 530.191406 304.386719 529.996094 305.363281 C 529.800781 306.34375 529.703125 307.332031 529.703125 308.332031 C 529.703125 309.332031 529.800781 310.320312 529.996094 311.296875 C 530.191406 312.277344 530.480469 313.226562 530.863281 314.152344 C 531.246094 315.074219 531.714844 315.949219 532.269531 316.78125 C 532.824219 317.609375 533.453125 318.378906 534.160156 319.082031 C 534.867188 319.789062 535.636719 320.421875 536.46875 320.976562 C 537.296875 321.53125 538.175781 321.996094 539.097656 322.378906 C 540.019531 322.761719 540.972656 323.050781 541.953125 323.246094 C 542.933594 323.441406 543.921875 323.539062 544.921875 323.539062 C 545.921875 323.539062 546.910156 323.441406 547.890625 323.246094 C 548.871094 323.050781 549.820312 322.761719 550.746094 322.378906 C 551.667969 321.996094 552.546875 321.53125 553.375 320.976562 C 554.207031 320.421875 554.976562 319.789062 555.683594 319.082031 C 556.390625 318.378906 557.019531 317.609375 557.574219 316.78125 C 558.128906 315.949219 558.597656 315.074219 558.980469 314.152344 C 559.363281 313.226562 559.652344 312.277344 559.847656 311.296875 C 560.042969 310.320312 560.140625 309.332031 560.140625 308.332031 C 560.136719 307.332031 560.039062 306.34375 559.84375 305.367188 C 559.648438 304.386719 559.359375 303.4375 558.976562 302.515625 C 558.59375 301.59375 558.125 300.71875 557.570312 299.886719 C 557.015625 299.058594 556.382812 298.289062 555.675781 297.585938 C 554.972656 296.878906 554.203125 296.25 553.371094 295.695312 C 552.542969 295.140625 551.664062 294.671875 550.742188 294.289062 C 549.820312 293.90625 548.867188 293.617188 547.890625 293.421875 C 546.910156 293.226562 545.921875 293.128906 544.921875 293.125 Z M 544.921875 293.125 " fill-opacity="1" fill-rule="nonzero"/><path fill="#0048ff" d="M 534.460938 392.699219 C 533.929688 392.699219 533.394531 392.671875 532.863281 392.621094 C 532.332031 392.570312 531.804688 392.492188 531.28125 392.386719 C 530.757812 392.28125 530.242188 392.152344 529.730469 391.996094 C 529.21875 391.84375 528.714844 391.664062 528.222656 391.460938 C 527.730469 391.253906 527.246094 391.027344 526.777344 390.777344 C 526.304688 390.523438 525.847656 390.25 525.402344 389.953125 C 524.960938 389.65625 524.53125 389.339844 524.117188 389 C 523.707031 388.664062 523.3125 388.304688 522.933594 387.925781 C 522.554688 387.550781 522.199219 387.15625 521.859375 386.742188 C 521.519531 386.332031 521.203125 385.902344 520.90625 385.457031 C 520.609375 385.015625 520.335938 384.558594 520.082031 384.085938 C 519.832031 383.617188 519.601562 383.136719 519.398438 382.640625 C 519.195312 382.148438 519.015625 381.648438 518.859375 381.136719 C 518.703125 380.625 518.574219 380.109375 518.472656 379.585938 C 518.367188 379.0625 518.289062 378.535156 518.234375 378.003906 C 518.183594 377.472656 518.15625 376.941406 518.15625 376.40625 C 518.15625 375.875 518.183594 375.339844 518.234375 374.808594 C 518.289062 374.28125 518.367188 373.753906 518.472656 373.230469 C 518.574219 372.707031 518.703125 372.1875 518.859375 371.679688 C 519.015625 371.167969 519.195312 370.664062 519.398438 370.171875 C 519.601562 369.679688 519.832031 369.199219 520.082031 368.726562 C 520.335938 368.257812 520.609375 367.800781 520.90625 367.355469 C 521.203125 366.914062 521.519531 366.484375 521.859375 366.070312 C 522.199219 365.660156 522.554688 365.265625 522.933594 364.886719 C 523.3125 364.511719 523.707031 364.152344 524.117188 363.8125 C 524.53125 363.476562 524.960938 363.15625 525.402344 362.859375 C 525.847656 362.566406 526.304688 362.289062 526.777344 362.039062 C 527.246094 361.789062 527.730469 361.558594 528.222656 361.355469 C 528.714844 361.152344 529.21875 360.972656 529.730469 360.816406 C 530.242188 360.660156 530.757812 360.53125 531.28125 360.429688 C 531.804688 360.324219 532.332031 360.246094 532.863281 360.195312 C 533.394531 360.140625 533.929688 360.117188 534.460938 360.117188 C 534.996094 360.117188 535.527344 360.140625 536.0625 360.195312 C 536.59375 360.246094 537.121094 360.324219 537.644531 360.429688 C 538.167969 360.53125 538.683594 360.660156 539.195312 360.816406 C 539.707031 360.972656 540.207031 361.152344 540.703125 361.355469 C 541.195312 361.558594 541.675781 361.789062 542.148438 362.039062 C 542.621094 362.289062 543.078125 362.566406 543.519531 362.859375 C 543.964844 363.15625 544.394531 363.476562 544.804688 363.8125 C 545.21875 364.152344 545.613281 364.511719 545.992188 364.886719 C 546.371094 365.265625 546.726562 365.660156 547.066406 366.070312 C 547.40625 366.484375 547.722656 366.914062 548.019531 367.355469 C 548.316406 367.800781 548.589844 368.257812 548.84375 368.726562 C 549.09375 369.199219 549.320312 369.679688 549.527344 370.171875 C 549.730469 370.664062 549.910156 371.167969 550.066406 371.679688 C 550.21875 372.1875 550.351562 372.707031 550.453125 373.230469 C 550.558594 373.753906 550.636719 374.28125 550.6875 374.808594 C 550.742188 375.339844 550.765625 375.875 550.765625 376.40625 C 550.765625 376.941406 550.738281 377.472656 550.6875 378.003906 C 550.632812 378.535156 550.554688 379.0625 550.449219 379.585938 C 550.347656 380.109375 550.214844 380.625 550.0625 381.132812 C 549.90625 381.644531 549.726562 382.144531 549.519531 382.640625 C 549.316406 383.132812 549.089844 383.613281 548.835938 384.082031 C 548.585938 384.554688 548.3125 385.011719 548.015625 385.453125 C 547.71875 385.898438 547.398438 386.324219 547.0625 386.738281 C 546.722656 387.148438 546.363281 387.546875 545.988281 387.921875 C 545.609375 388.300781 545.214844 388.65625 544.800781 388.996094 C 544.386719 389.335938 543.960938 389.652344 543.515625 389.949219 C 543.074219 390.246094 542.617188 390.519531 542.144531 390.769531 C 541.675781 391.023438 541.191406 391.25 540.699219 391.453125 C 540.207031 391.660156 539.703125 391.839844 539.195312 391.992188 C 538.683594 392.148438 538.164062 392.277344 537.640625 392.382812 C 537.117188 392.488281 536.589844 392.566406 536.058594 392.621094 C 535.527344 392.671875 534.996094 392.699219 534.460938 392.699219 Z M 534.460938 392.699219 " fill-opacity="1" fill-rule="nonzero"/><path fill="#ffffff" d="M 533.375 381.476562 C 533.074219 381.476562 532.820312 381.371094 532.605469 381.15625 L 526.445312 375.003906 C 526.34375 374.902344 526.265625 374.785156 526.210938 374.652344 C 526.15625 374.519531 526.128906 374.378906 526.128906 374.234375 C 526.128906 374.089844 526.15625 373.953125 526.210938 373.820312 C 526.265625 373.6875 526.34375 373.570312 526.445312 373.46875 C 526.550781 373.367188 526.667969 373.285156 526.800781 373.230469 C 526.933594 373.175781 527.070312 373.148438 527.214844 373.148438 C 527.359375 373.148438 527.5 373.175781 527.632812 373.230469 C 527.765625 373.285156 527.882812 373.367188 527.984375 373.46875 L 533.375 378.855469 L 544.097656 368.140625 C 544.199219 368.039062 544.316406 367.960938 544.449219 367.90625 C 544.582031 367.851562 544.71875 367.824219 544.863281 367.824219 C 545.007812 367.824219 545.148438 367.851562 545.28125 367.90625 C 545.414062 367.960938 545.53125 368.039062 545.632812 368.140625 C 545.734375 368.242188 545.8125 368.359375 545.867188 368.496094 C 545.921875 368.628906 545.953125 368.765625 545.953125 368.910156 C 545.953125 369.054688 545.921875 369.191406 545.867188 369.324219 C 545.8125 369.457031 545.734375 369.574219 545.632812 369.679688 L 534.144531 381.15625 C 533.933594 381.371094 533.675781 381.476562 533.375 381.476562 Z M 533.375 381.476562 " fill-opacity="1" fill-rule="nonzero"/><path fill="#9e616a" d="M 570.871094 602.800781 L 562.089844 601.441406 L 563.148438 566.960938 L 576.109375 568.960938 Z M 570.871094 602.800781 " fill-opacity="1" fill-rule="nonzero"/><g clip-path="url(#a60e52bd78)"><path fill="#2f2e41" d="M 571.792969 611.648438 L 543.484375 607.273438 L 543.539062 606.917969 C 543.652344 606.195312 543.832031 605.488281 544.085938 604.800781 C 544.335938 604.113281 544.652344 603.460938 545.03125 602.832031 C 545.410156 602.207031 545.847656 601.625 546.34375 601.085938 C 546.839844 600.546875 547.382812 600.0625 547.972656 599.632812 C 548.5625 599.199219 549.191406 598.828125 549.855469 598.519531 C 550.519531 598.210938 551.207031 597.96875 551.917969 597.796875 C 552.628906 597.625 553.347656 597.519531 554.082031 597.488281 C 554.8125 597.457031 555.539062 597.496094 556.261719 597.609375 L 573.554688 600.28125 Z M 571.792969 611.648438 " fill-opacity="1" fill-rule="nonzero"/></g><path fill="#9e616a" d="M 663.148438 601.929688 L 654.273438 602.308594 L 648.589844 568.277344 L 661.6875 567.722656 Z M 663.148438 601.929688 " fill-opacity="1" fill-rule="nonzero"/><g clip-path="url(#21691b41d9)"><path fill="#2f2e41" d="M 665.777344 610.429688 L 637.15625 611.648438 L 637.140625 611.289062 C 637.109375 610.558594 637.152344 609.832031 637.265625 609.105469 C 637.375 608.382812 637.558594 607.679688 637.808594 606.992188 C 638.058594 606.304688 638.375 605.648438 638.757812 605.023438 C 639.136719 604.398438 639.574219 603.816406 640.070312 603.277344 C 640.566406 602.738281 641.109375 602.253906 641.699219 601.820312 C 642.289062 601.390625 642.917969 601.019531 643.582031 600.710938 C 644.246094 600.402344 644.933594 600.164062 645.644531 599.988281 C 646.355469 599.816406 647.074219 599.714844 647.808594 599.683594 L 665.289062 598.9375 Z M 665.777344 610.429688 " fill-opacity="1" fill-rule="nonzero"/></g><path fill="#9e616a" d="M 645.671875 399.054688 C 646.089844 398.9375 646.519531 398.859375 646.953125 398.816406 L 641.417969 353.5625 L 622.644531 313.832031 C 622.351562 313.210938 622.117188 312.570312 621.945312 311.910156 C 621.773438 311.246094 621.667969 310.574219 621.621094 309.890625 C 621.574219 309.207031 621.59375 308.523438 621.679688 307.84375 C 621.761719 307.164062 621.90625 306.5 622.117188 305.847656 C 622.324219 305.195312 622.59375 304.566406 622.917969 303.964844 C 623.246094 303.363281 623.625 302.796875 624.058594 302.265625 C 624.492188 301.734375 624.972656 301.25 625.496094 300.808594 C 626.019531 300.367188 626.582031 299.980469 627.179688 299.644531 C 627.777344 299.308594 628.402344 299.035156 629.050781 298.816406 C 629.699219 298.597656 630.367188 298.441406 631.042969 298.351562 C 631.722656 298.257812 632.40625 298.230469 633.089844 298.265625 C 633.773438 298.300781 634.449219 298.398438 635.117188 298.5625 C 635.78125 298.722656 636.425781 298.945312 637.050781 299.230469 C 637.675781 299.511719 638.265625 299.851562 638.824219 300.246094 C 639.386719 300.640625 639.902344 301.085938 640.378906 301.578125 C 640.855469 302.070312 641.285156 302.601562 641.660156 303.175781 C 646.609375 310.707031 650.289062 318.816406 652.691406 327.5 L 660.582031 356 L 654.8125 404.871094 C 654.886719 405.328125 654.914062 405.789062 654.902344 406.25 C 654.886719 406.714844 654.828125 407.171875 654.722656 407.621094 C 654.621094 408.074219 654.476562 408.511719 654.289062 408.9375 C 654.101562 409.359375 653.875 409.761719 653.613281 410.144531 C 653.347656 410.523438 653.050781 410.875 652.71875 411.199219 C 652.386719 411.523438 652.027344 411.8125 651.640625 412.066406 C 651.25 412.320312 650.84375 412.535156 650.414062 412.710938 C 649.984375 412.886719 649.542969 413.019531 649.089844 413.113281 C 648.636719 413.203125 648.175781 413.25 647.710938 413.253906 C 647.25 413.257812 646.789062 413.21875 646.332031 413.132812 C 645.878906 413.046875 645.433594 412.921875 645.003906 412.75 C 644.570312 412.582031 644.160156 412.371094 643.769531 412.125 C 643.378906 411.875 643.015625 411.589844 642.679688 411.273438 C 642.339844 410.953125 642.039062 410.605469 641.769531 410.230469 C 641.5 409.851562 641.265625 409.453125 641.074219 409.03125 C 640.878906 408.613281 640.730469 408.175781 640.621094 407.726562 C 640.511719 407.277344 640.445312 406.820312 640.421875 406.355469 C 640.402344 405.894531 640.425781 405.433594 640.492188 404.972656 C 640.558594 404.515625 640.667969 404.066406 640.820312 403.632812 C 640.972656 403.195312 641.164062 402.773438 641.398438 402.375 C 641.632812 401.972656 641.902344 401.597656 642.207031 401.25 C 642.511719 400.902344 642.847656 400.585938 643.214844 400.300781 C 643.578125 400.015625 643.96875 399.769531 644.382812 399.5625 C 644.796875 399.351562 645.226562 399.183594 645.671875 399.054688 Z M 645.671875 399.054688 " fill-opacity="1" fill-rule="nonzero"/><path fill="#2f2e41" d="M 618.21875 313.746094 C 617.882812 312.835938 617.640625 311.898438 617.484375 310.9375 C 617.332031 309.976562 617.269531 309.007812 617.304688 308.035156 C 617.335938 307.0625 617.464844 306.101562 617.683594 305.15625 C 617.902344 304.207031 618.210938 303.289062 618.609375 302.398438 C 619.007812 301.511719 619.488281 300.667969 620.046875 299.875 C 620.609375 299.078125 621.242188 298.34375 621.945312 297.671875 C 622.648438 297 623.410156 296.398438 624.230469 295.875 C 625.050781 295.347656 625.914062 294.90625 626.820312 294.546875 C 627.722656 294.191406 628.65625 293.921875 629.613281 293.742188 C 630.570312 293.566406 631.535156 293.480469 632.511719 293.492188 C 633.484375 293.5 634.449219 293.601562 635.402344 293.796875 C 636.355469 293.992188 637.285156 294.28125 638.183594 294.65625 C 639.082031 295.03125 639.933594 295.488281 640.746094 296.027344 C 641.554688 296.570312 642.304688 297.183594 642.996094 297.867188 C 643.6875 298.554688 644.304688 299.300781 644.851562 300.105469 C 645.398438 300.914062 645.859375 301.761719 646.242188 302.660156 L 657.992188 330.277344 L 634.273438 357.390625 Z M 618.21875 313.746094 " fill-opacity="1" fill-rule="nonzero"/><path fill="#2f2e41" d="M 599.996094 318.46875 L 615.9375 291.675781 C 626.953125 284.484375 636.011719 289.1875 640.84375 301.417969 C 645.050781 312.074219 648.316406 325.554688 646.375 339.46875 C 642.023438 370.636719 638.402344 374.222656 638.402344 374.222656 C 638.402344 374.222656 665.578125 404.273438 659.78125 442.648438 L 664.128906 587.46875 L 651.085938 586.742188 L 632.96875 503.472656 L 619.199219 451.339844 L 595.285156 515.058594 L 574.269531 588.914062 L 559.777344 586.019531 L 568.472656 504.199219 L 580.792969 410.066406 L 594.921875 374.222656 L 588.039062 349.242188 C 588.039062 349.242188 580.066406 331.863281 599.996094 318.46875 Z M 599.996094 318.46875 " fill-opacity="1" fill-rule="nonzero"/><path fill="#9e616a" d="M 547.019531 356.734375 C 547.3125 357.054688 547.574219 357.402344 547.804688 357.769531 L 585.851562 332.605469 L 613.035156 298.070312 C 613.457031 297.53125 613.925781 297.035156 614.445312 296.585938 C 614.960938 296.136719 615.515625 295.738281 616.105469 295.394531 C 616.699219 295.046875 617.316406 294.757812 617.964844 294.53125 C 618.609375 294.300781 619.269531 294.132812 619.949219 294.027344 C 620.625 293.921875 621.304688 293.882812 621.992188 293.90625 C 622.675781 293.929688 623.351562 294.015625 624.023438 294.164062 C 624.691406 294.316406 625.339844 294.527344 625.96875 294.800781 C 626.597656 295.070312 627.195312 295.398438 627.761719 295.785156 C 628.328125 296.167969 628.855469 296.605469 629.339844 297.085938 C 629.824219 297.570312 630.261719 298.09375 630.648438 298.660156 C 631.035156 299.226562 631.363281 299.824219 631.640625 300.449219 C 631.914062 301.078125 632.125 301.726562 632.277344 302.394531 C 632.429688 303.0625 632.519531 303.738281 632.542969 304.421875 C 632.570312 305.105469 632.53125 305.789062 632.425781 306.464844 C 632.324219 307.140625 632.15625 307.804688 631.929688 308.449219 C 631.703125 309.09375 631.414062 309.714844 631.070312 310.304688 C 626.539062 318.097656 620.921875 325.007812 614.222656 331.039062 L 592.230469 350.820312 L 545.898438 367.5 C 545.519531 367.769531 545.121094 368.003906 544.699219 368.195312 C 544.277344 368.390625 543.84375 368.542969 543.394531 368.652344 C 542.941406 368.761719 542.484375 368.828125 542.023438 368.851562 C 541.558594 368.871094 541.097656 368.851562 540.640625 368.785156 C 540.179688 368.71875 539.730469 368.609375 539.292969 368.457031 C 538.855469 368.304688 538.4375 368.113281 538.035156 367.878906 C 537.636719 367.648438 537.261719 367.378906 536.910156 367.074219 C 536.5625 366.769531 536.246094 366.433594 535.960938 366.070312 C 535.675781 365.703125 535.425781 365.3125 535.214844 364.902344 C 535.007812 364.488281 534.835938 364.058594 534.710938 363.613281 C 534.582031 363.167969 534.496094 362.714844 534.457031 362.253906 C 534.417969 361.792969 534.421875 361.332031 534.46875 360.871094 C 534.515625 360.410156 534.609375 359.957031 534.742188 359.515625 C 534.878906 359.070312 535.054688 358.644531 535.269531 358.234375 C 535.488281 357.824219 535.742188 357.441406 536.03125 357.078125 C 536.320312 356.71875 536.644531 356.390625 537 356.089844 C 537.351562 355.792969 537.730469 355.527344 538.136719 355.300781 C 538.542969 355.078125 538.964844 354.890625 539.402344 354.746094 C 539.84375 354.601562 540.292969 354.5 540.753906 354.4375 C 541.214844 354.378906 541.675781 354.367188 542.136719 354.394531 C 542.601562 354.425781 543.054688 354.5 543.503906 354.617188 C 543.953125 354.734375 544.386719 354.890625 544.804688 355.089844 C 545.222656 355.292969 545.617188 355.53125 545.992188 355.804688 C 546.363281 356.082031 546.707031 356.390625 547.019531 356.734375 Z M 547.019531 356.734375 " fill-opacity="1" fill-rule="nonzero"/><path fill="#2f2e41" d="M 611.132812 294.078125 C 611.800781 293.367188 612.53125 292.730469 613.320312 292.164062 C 614.113281 291.597656 614.953125 291.109375 615.835938 290.707031 C 616.722656 290.300781 617.640625 289.984375 618.585938 289.757812 C 619.535156 289.53125 620.492188 289.394531 621.46875 289.355469 C 622.441406 289.3125 623.40625 289.367188 624.371094 289.511719 C 625.335938 289.65625 626.273438 289.894531 627.191406 290.222656 C 628.109375 290.550781 628.984375 290.964844 629.820312 291.460938 C 630.660156 291.960938 631.441406 292.535156 632.164062 293.183594 C 632.890625 293.832031 633.546875 294.546875 634.132812 295.324219 C 634.722656 296.097656 635.226562 296.925781 635.65625 297.800781 C 636.082031 298.675781 636.421875 299.582031 636.671875 300.523438 C 636.921875 301.464844 637.082031 302.417969 637.148438 303.390625 C 637.210938 304.359375 637.183594 305.328125 637.0625 306.292969 C 636.9375 307.261719 636.726562 308.207031 636.417969 309.128906 C 636.113281 310.054688 635.722656 310.941406 635.246094 311.789062 C 634.765625 312.636719 634.210938 313.429688 633.582031 314.171875 L 614.105469 337.015625 L 579.226562 327.925781 Z M 611.132812 294.078125 " fill-opacity="1" fill-rule="nonzero"/><path fill="#9e616a" d="M 632.648438 250.304688 C 632.984375 250.921875 633.292969 251.554688 633.570312 252.203125 C 633.847656 252.851562 634.089844 253.515625 634.300781 254.1875 C 634.511719 254.859375 634.6875 255.539062 634.832031 256.230469 C 634.976562 256.921875 635.085938 257.617188 635.164062 258.316406 C 635.238281 259.019531 635.28125 259.722656 635.285156 260.425781 C 635.292969 261.132812 635.265625 261.835938 635.203125 262.535156 C 635.140625 263.238281 635.042969 263.9375 634.914062 264.628906 C 634.78125 265.320312 634.617188 266.007812 634.417969 266.683594 C 634.21875 267.359375 633.988281 268.023438 633.722656 268.679688 C 633.460938 269.332031 633.164062 269.972656 632.839844 270.597656 C 632.511719 271.222656 632.15625 271.828125 631.769531 272.417969 C 631.382812 273.007812 630.96875 273.578125 630.523438 274.128906 C 630.082031 274.675781 629.613281 275.203125 629.121094 275.707031 C 628.625 276.210938 628.109375 276.6875 627.566406 277.140625 C 627.027344 277.59375 626.464844 278.015625 625.882812 278.414062 C 625.296875 278.8125 624.695312 279.179688 624.078125 279.515625 C 623.457031 279.855469 622.824219 280.160156 622.175781 280.4375 C 621.527344 280.714844 620.863281 280.957031 620.191406 281.167969 C 619.519531 281.378906 618.835938 281.558594 618.144531 281.699219 C 617.453125 281.84375 616.757812 281.953125 616.058594 282.03125 C 615.355469 282.105469 614.652344 282.148438 613.945312 282.152344 C 613.242188 282.160156 612.535156 282.132812 611.832031 282.070312 C 611.132812 282.007812 610.433594 281.910156 609.738281 281.78125 C 609.046875 281.648438 608.363281 281.484375 607.683594 281.285156 C 607.007812 281.085938 606.339844 280.855469 605.6875 280.59375 C 605.03125 280.328125 604.394531 280.035156 603.765625 279.707031 C 603.140625 279.382812 602.535156 279.023438 601.945312 278.636719 C 601.355469 278.253906 600.785156 277.839844 600.234375 277.394531 C 599.683594 276.953125 599.15625 276.484375 598.65625 275.992188 C 598.152344 275.5 597.671875 274.980469 597.21875 274.441406 C 596.765625 273.898438 596.34375 273.335938 595.945312 272.753906 C 595.546875 272.171875 595.179688 271.574219 594.839844 270.953125 C 594.503906 270.335938 594.195312 269.703125 593.917969 269.050781 C 593.644531 268.402344 593.398438 267.742188 593.1875 267.070312 C 592.976562 266.398438 592.800781 265.714844 592.65625 265.027344 C 592.511719 264.335938 592.402344 263.640625 592.324219 262.9375 C 592.25 262.238281 592.207031 261.535156 592.203125 260.832031 C 592.195312 260.125 592.222656 259.421875 592.285156 258.71875 C 592.347656 258.015625 592.445312 257.320312 592.574219 256.628906 C 592.707031 255.933594 592.871094 255.25 593.070312 254.574219 C 593.269531 253.898438 593.5 253.230469 593.765625 252.578125 C 594.027344 251.921875 594.324219 251.285156 594.648438 250.660156 C 594.976562 250.035156 595.332031 249.425781 595.71875 248.835938 C 596.105469 248.246094 596.519531 247.679688 596.964844 247.128906 C 597.40625 246.578125 597.875 246.054688 598.367188 245.550781 C 598.863281 245.046875 599.378906 244.570312 599.921875 244.117188 C 600.460938 243.664062 601.023438 243.238281 601.609375 242.84375 C 602.191406 242.445312 602.792969 242.078125 603.410156 241.738281 C 604.03125 241.402344 604.664062 241.09375 605.3125 240.820312 C 605.960938 240.542969 606.625 240.300781 607.296875 240.089844 C 607.96875 239.878906 608.652344 239.699219 609.34375 239.554688 C 610.035156 239.410156 610.730469 239.300781 611.429688 239.226562 C 612.132812 239.152344 612.835938 239.109375 613.542969 239.101562 C 614.246094 239.097656 614.953125 239.125 615.65625 239.1875 C 616.355469 239.25 617.054688 239.347656 617.75 239.476562 C 618.441406 239.609375 619.128906 239.773438 619.804688 239.972656 C 620.480469 240.167969 621.148438 240.402344 621.800781 240.664062 C 622.457031 240.929688 623.09375 241.222656 623.722656 241.550781 C 624.347656 241.875 624.953125 242.230469 625.542969 242.617188 C 626.136719 243.003906 626.703125 243.417969 627.253906 243.859375 C 627.804688 244.304688 628.332031 244.769531 628.835938 245.265625 C 629.335938 245.757812 629.816406 246.277344 630.269531 246.816406 C 630.722656 247.355469 631.144531 247.917969 631.542969 248.5 C 631.941406 249.082031 632.308594 249.683594 632.648438 250.304688 Z M 632.648438 250.304688 " fill-opacity="1" fill-rule="nonzero"/><g clip-path="url(#a85b3bee0a)"><path fill="#2f2e41" d="M 610.140625 234.476562 L 624.058594 234.476562 C 633.179688 234.476562 640.578125 242.789062 640.578125 253.042969 L 639.933594 277.921875 C 630.027344 279.152344 620.476562 281.703125 611.277344 285.578125 L 609.980469 280.035156 L 607.417969 287.335938 C 605.140625 288.4375 602.878906 289.644531 600.640625 290.953125 C 603.253906 278.679688 604.332031 266.433594 602.535156 256.921875 L 597.820312 256.921875 L 597.820312 251.765625 L 596.222656 256.921875 L 587.675781 256.921875 C 587.675781 256.1875 587.710938 255.453125 587.785156 254.722656 C 587.855469 253.988281 587.964844 253.261719 588.109375 252.542969 C 588.25 251.820312 588.429688 251.109375 588.644531 250.40625 C 588.859375 249.703125 589.105469 249.011719 589.386719 248.332031 C 589.667969 247.652344 589.984375 246.988281 590.328125 246.339844 C 590.675781 245.691406 591.054688 245.0625 591.460938 244.449219 C 591.871094 243.839844 592.308594 243.25 592.777344 242.679688 C 593.242188 242.113281 593.734375 241.570312 594.257812 241.050781 C 594.777344 240.53125 595.320312 240.035156 595.890625 239.570312 C 596.457031 239.101562 597.046875 238.667969 597.660156 238.257812 C 598.273438 237.847656 598.902344 237.472656 599.550781 237.125 C 600.199219 236.777344 600.863281 236.464844 601.542969 236.183594 C 602.222656 235.902344 602.917969 235.65625 603.621094 235.441406 C 604.324219 235.226562 605.035156 235.050781 605.757812 234.90625 C 606.480469 234.761719 607.207031 234.65625 607.9375 234.582031 C 608.671875 234.511719 609.40625 234.476562 610.140625 234.476562 Z M 610.140625 234.476562 " fill-opacity="1" fill-rule="nonzero"/></g><g clip-path="url(#56c0158f2b)"><path fill="#cacaca" d="M 750.660156 611.726562 L 474.5625 611.726562 C 474.363281 611.726562 474.191406 611.652344 474.050781 611.511719 C 473.910156 611.371094 473.839844 611.199219 473.839844 611 C 473.839844 610.800781 473.910156 610.628906 474.050781 610.488281 C 474.191406 610.347656 474.363281 610.277344 474.5625 610.277344 L 750.660156 610.277344 C 750.859375 610.277344 751.03125 610.347656 751.171875 610.488281 C 751.3125 610.628906 751.386719 610.800781 751.386719 611 C 751.386719 611.199219 751.3125 611.371094 751.171875 611.511719 C 751.03125 611.652344 750.859375 611.726562 750.660156 611.726562 Z M 750.660156 611.726562 " fill-opacity="1" fill-rule="nonzero"/></g><path fill="#000000" d="M 252.882812 406.808594 C 252.683594 406.808594 252.511719 406.738281 252.371094 406.59375 C 252.226562 406.453125 252.15625 406.285156 252.15625 406.082031 L 252.15625 324.984375 C 252.15625 324.785156 252.226562 324.613281 252.371094 324.472656 C 252.511719 324.332031 252.683594 324.261719 252.882812 324.261719 C 253.082031 324.261719 253.253906 324.332031 253.394531 324.472656 C 253.535156 324.613281 253.605469 324.785156 253.605469 324.984375 L 253.605469 406.082031 C 253.605469 406.285156 253.535156 406.453125 253.394531 406.59375 C 253.253906 406.738281 253.082031 406.808594 252.882812 406.808594 Z M 252.882812 406.808594 " fill-opacity="0.3137" fill-rule="nonzero"/><path fill="#000000" d="M 201.765625 419.390625 C 201.464844 419.390625 201.164062 419.421875 200.871094 419.480469 C 200.574219 419.539062 200.285156 419.625 200.007812 419.742188 C 199.726562 419.859375 199.464844 420 199.210938 420.167969 C 198.960938 420.335938 198.730469 420.523438 198.515625 420.738281 C 198.300781 420.953125 198.109375 421.183594 197.941406 421.433594 C 197.777344 421.683594 197.632812 421.949219 197.519531 422.230469 C 197.402344 422.507812 197.316406 422.792969 197.257812 423.089844 C 197.199219 423.386719 197.167969 423.683594 197.167969 423.988281 C 197.167969 424.289062 197.199219 424.585938 197.257812 424.882812 C 197.316406 425.179688 197.402344 425.464844 197.519531 425.746094 C 197.632812 426.023438 197.777344 426.289062 197.941406 426.539062 C 198.109375 426.789062 198.300781 427.023438 198.515625 427.234375 C 198.730469 427.449219 198.960938 427.640625 199.210938 427.808594 C 199.464844 427.976562 199.726562 428.117188 200.007812 428.230469 C 200.285156 428.347656 200.574219 428.433594 200.871094 428.492188 C 201.164062 428.550781 201.464844 428.582031 201.765625 428.582031 L 304.015625 428.582031 C 304.316406 428.582031 304.617188 428.550781 304.910156 428.492188 C 305.207031 428.433594 305.496094 428.34375 305.773438 428.230469 C 306.050781 428.113281 306.316406 427.972656 306.566406 427.804688 C 306.816406 427.636719 307.046875 427.445312 307.261719 427.230469 C 307.472656 427.019531 307.664062 426.785156 307.828125 426.535156 C 307.996094 426.285156 308.136719 426.019531 308.253906 425.742188 C 308.367188 425.464844 308.457031 425.175781 308.515625 424.882812 C 308.574219 424.585938 308.601562 424.289062 308.601562 423.988281 C 308.601562 423.6875 308.574219 423.386719 308.515625 423.09375 C 308.457031 422.796875 308.367188 422.511719 308.253906 422.230469 C 308.136719 421.953125 307.996094 421.6875 307.828125 421.4375 C 307.664062 421.1875 307.472656 420.957031 307.261719 420.742188 C 307.046875 420.53125 306.816406 420.339844 306.566406 420.171875 C 306.316406 420.003906 306.050781 419.863281 305.773438 419.746094 C 305.496094 419.628906 305.207031 419.542969 304.910156 419.484375 C 304.617188 419.421875 304.316406 419.394531 304.015625 419.390625 Z M 201.765625 419.390625 " fill-opacity="0.3137" fill-rule="nonzero"/><path fill="#000000" d="M 229.183594 441.167969 C 228.882812 441.167969 228.582031 441.195312 228.285156 441.253906 C 227.988281 441.3125 227.703125 441.398438 227.421875 441.515625 C 227.144531 441.628906 226.878906 441.769531 226.628906 441.9375 C 226.375 442.105469 226.144531 442.292969 225.929688 442.507812 C 225.714844 442.71875 225.523438 442.953125 225.355469 443.203125 C 225.1875 443.453125 225.046875 443.71875 224.929688 443.996094 C 224.8125 444.273438 224.726562 444.5625 224.664062 444.859375 C 224.605469 445.152344 224.578125 445.453125 224.574219 445.753906 C 224.574219 446.054688 224.605469 446.355469 224.660156 446.648438 C 224.71875 446.945312 224.808594 447.234375 224.921875 447.511719 C 225.035156 447.792969 225.179688 448.058594 225.34375 448.308594 C 225.511719 448.558594 225.703125 448.792969 225.914062 449.003906 C 226.128906 449.21875 226.359375 449.410156 226.609375 449.578125 C 226.863281 449.746094 227.125 449.886719 227.40625 450.003906 C 227.683594 450.121094 227.972656 450.207031 228.265625 450.269531 C 228.5625 450.328125 228.863281 450.359375 229.164062 450.359375 L 276.601562 450.359375 C 276.902344 450.359375 277.199219 450.328125 277.496094 450.269531 C 277.792969 450.210938 278.082031 450.125 278.359375 450.007812 C 278.636719 449.894531 278.902344 449.75 279.15625 449.582031 C 279.40625 449.417969 279.636719 449.226562 279.851562 449.011719 C 280.066406 448.800781 280.253906 448.566406 280.421875 448.316406 C 280.589844 448.066406 280.734375 447.800781 280.847656 447.523438 C 280.964844 447.242188 281.050781 446.957031 281.109375 446.660156 C 281.167969 446.363281 281.199219 446.066406 281.199219 445.761719 C 281.199219 445.460938 281.167969 445.164062 281.109375 444.867188 C 281.050781 444.570312 280.964844 444.285156 280.847656 444.003906 C 280.734375 443.726562 280.589844 443.460938 280.421875 443.210938 C 280.253906 442.960938 280.066406 442.726562 279.851562 442.515625 C 279.636719 442.300781 279.40625 442.109375 279.15625 441.941406 C 278.902344 441.773438 278.636719 441.632812 278.359375 441.519531 C 278.082031 441.402344 277.792969 441.316406 277.496094 441.257812 C 277.199219 441.199219 276.902344 441.167969 276.601562 441.167969 Z M 229.183594 441.167969 " fill-opacity="0.3137" fill-rule="nonzero"/><path fill="#000000" d="M 350.324219 419.390625 C 350.019531 419.390625 349.722656 419.421875 349.425781 419.480469 C 349.128906 419.539062 348.84375 419.625 348.5625 419.742188 C 348.285156 419.859375 348.019531 420 347.769531 420.167969 C 347.515625 420.335938 347.285156 420.523438 347.070312 420.738281 C 346.859375 420.953125 346.667969 421.183594 346.5 421.433594 C 346.332031 421.683594 346.191406 421.949219 346.074219 422.230469 C 345.957031 422.507812 345.871094 422.792969 345.8125 423.089844 C 345.753906 423.386719 345.722656 423.683594 345.722656 423.988281 C 345.722656 424.289062 345.753906 424.585938 345.8125 424.882812 C 345.871094 425.179688 345.957031 425.464844 346.074219 425.746094 C 346.191406 426.023438 346.332031 426.289062 346.5 426.539062 C 346.667969 426.789062 346.859375 427.023438 347.070312 427.234375 C 347.285156 427.449219 347.515625 427.640625 347.769531 427.808594 C 348.019531 427.976562 348.285156 428.117188 348.5625 428.230469 C 348.84375 428.347656 349.128906 428.433594 349.425781 428.492188 C 349.722656 428.550781 350.019531 428.582031 350.324219 428.582031 L 452.574219 428.582031 C 452.875 428.582031 453.171875 428.550781 453.46875 428.492188 C 453.761719 428.433594 454.050781 428.34375 454.328125 428.230469 C 454.605469 428.113281 454.871094 427.972656 455.121094 427.804688 C 455.371094 427.636719 455.601562 427.445312 455.816406 427.230469 C 456.027344 427.019531 456.21875 426.785156 456.386719 426.535156 C 456.554688 426.285156 456.695312 426.019531 456.808594 425.742188 C 456.925781 425.464844 457.011719 425.175781 457.070312 424.882812 C 457.128906 424.585938 457.160156 424.289062 457.160156 423.988281 C 457.160156 423.6875 457.128906 423.386719 457.070312 423.09375 C 457.011719 422.796875 456.925781 422.511719 456.808594 422.230469 C 456.695312 421.953125 456.554688 421.6875 456.386719 421.4375 C 456.21875 421.1875 456.027344 420.957031 455.816406 420.742188 C 455.601562 420.53125 455.371094 420.339844 455.121094 420.171875 C 454.871094 420.003906 454.605469 419.863281 454.328125 419.746094 C 454.050781 419.628906 453.761719 419.542969 453.46875 419.484375 C 453.171875 419.421875 452.875 419.394531 452.574219 419.390625 Z M 350.324219 419.390625 " fill-opacity="0.3137" fill-rule="nonzero"/><path fill="#000000" d="M 377.738281 441.167969 C 377.4375 441.167969 377.140625 441.195312 376.84375 441.253906 C 376.546875 441.3125 376.257812 441.398438 375.980469 441.515625 C 375.699219 441.628906 375.433594 441.769531 375.183594 441.9375 C 374.933594 442.105469 374.699219 442.292969 374.484375 442.507812 C 374.273438 442.71875 374.082031 442.953125 373.914062 443.203125 C 373.742188 443.453125 373.601562 443.71875 373.484375 443.996094 C 373.371094 444.273438 373.28125 444.5625 373.222656 444.859375 C 373.164062 445.152344 373.132812 445.453125 373.132812 445.753906 C 373.132812 446.054688 373.160156 446.355469 373.21875 446.648438 C 373.277344 446.945312 373.363281 447.234375 373.476562 447.511719 C 373.59375 447.792969 373.734375 448.058594 373.902344 448.308594 C 374.070312 448.558594 374.257812 448.792969 374.472656 449.003906 C 374.683594 449.21875 374.917969 449.410156 375.167969 449.578125 C 375.417969 449.746094 375.683594 449.890625 375.960938 450.003906 C 376.238281 450.121094 376.527344 450.207031 376.824219 450.269531 C 377.121094 450.328125 377.417969 450.359375 377.71875 450.359375 L 425.15625 450.359375 C 425.457031 450.359375 425.757812 450.328125 426.054688 450.269531 C 426.347656 450.210938 426.636719 450.125 426.914062 450.007812 C 427.195312 449.894531 427.460938 449.75 427.710938 449.582031 C 427.960938 449.417969 428.195312 449.226562 428.40625 449.011719 C 428.621094 448.800781 428.8125 448.566406 428.980469 448.316406 C 429.148438 448.066406 429.289062 447.800781 429.402344 447.523438 C 429.519531 447.242188 429.605469 446.957031 429.664062 446.660156 C 429.726562 446.363281 429.753906 446.066406 429.753906 445.761719 C 429.753906 445.460938 429.726562 445.164062 429.664062 444.867188 C 429.605469 444.570312 429.519531 444.285156 429.402344 444.003906 C 429.289062 443.726562 429.148438 443.460938 428.980469 443.210938 C 428.8125 442.960938 428.621094 442.726562 428.40625 442.515625 C 428.195312 442.300781 427.960938 442.109375 427.710938 441.941406 C 427.460938 441.773438 427.195312 441.632812 426.914062 441.519531 C 426.636719 441.402344 426.347656 441.316406 426.054688 441.257812 C 425.757812 441.199219 425.457031 441.167969 425.15625 441.167969 Z M 377.738281 441.167969 " fill-opacity="0.3137" fill-rule="nonzero"/><path fill="#000000" d="M 401.4375 406.808594 C 401.238281 406.808594 401.066406 406.738281 400.925781 406.59375 C 400.785156 406.453125 400.714844 406.285156 400.714844 406.082031 L 400.714844 324.984375 C 400.714844 324.785156 400.785156 324.613281 400.925781 324.472656 C 401.066406 324.332031 401.238281 324.261719 401.4375 324.261719 C 401.636719 324.261719 401.808594 324.332031 401.949219 324.472656 C 402.09375 324.613281 402.164062 324.785156 402.164062 324.984375 L 402.164062 406.082031 C 402.164062 406.285156 402.09375 406.453125 401.949219 406.59375 C 401.808594 406.738281 401.636719 406.808594 401.4375 406.808594 Z M 401.4375 406.808594 " fill-opacity="0.3137" fill-rule="nonzero"/></svg>