<svg xmlns="http://www.w3.org/2000/svg" xmlns:xlink="http://www.w3.org/1999/xlink" width="1080" zoomAndPan="magnify" viewBox="0 0 810 809.999993" height="1080" preserveAspectRatio="xMidYMid meet" version="1.0"><defs><filter x="0%" y="0%" width="100%" height="100%" id="4b7bf76ce9"><feColorMatrix values="0 0 0 0 1 0 0 0 0 1 0 0 0 0 1 0 0 0 1 0" color-interpolation-filters="sRGB"/></filter><mask id="a8914cc6a5"><g filter="url(#4b7bf76ce9)"><rect x="-81" width="972" fill="#000000" y="-80.999999" height="971.999992" fill-opacity="0.098"/></g></mask><clipPath id="36847f58c7"><path d="M 0 0.640625 L 682.320312 0.640625 L 682.320312 672.878906 L 0 672.878906 Z M 0 0.640625 " clip-rule="nonzero"/></clipPath><clipPath id="e383d7b836"><rect x="0" width="683" y="0" height="673"/></clipPath><clipPath id="43ad95d9d6"><path d="M 385 184.328125 L 455 184.328125 L 455 274 L 385 274 Z M 385 184.328125 " clip-rule="nonzero"/></clipPath><clipPath id="d4296537c8"><path d="M 434 494 L 562 494 L 562 625.328125 L 434 625.328125 Z M 434 494 " clip-rule="nonzero"/></clipPath><clipPath id="bff9cabc37"><path d="M 485 526 L 630.9375 526 L 630.9375 528 L 485 528 Z M 485 526 " clip-rule="nonzero"/></clipPath></defs><g mask="url(#a8914cc6a5)"><g transform="matrix(1, 0, 0, 1, 60, 80)"><g clip-path="url(#e383d7b836)"><g clip-path="url(#36847f58c7)"><path fill="#0048ff" d="M 164.710938 96.621094 C 118.703125 131.359375 78.929688 174.117188 46.242188 221.617188 C 13.789062 268.769531 -12.410156 327.984375 6.347656 382.066406 C 17.691406 414.734375 43.769531 440.035156 59.433594 470.851562 C 83.460938 518.121094 82.914062 577.882812 118.378906 617.289062 C 144.203125 645.988281 183.792969 657.4375 221.625 665.140625 C 273.070312 675.617188 331.976562 679.890625 372.753906 646.820312 C 410.546875 616.167969 420.40625 563.652344 442.242188 520.152344 C 469.171875 466.5 510.257812 462.4375 560.871094 448.492188 C 845.507812 370.09375 595.167969 -228.332031 164.710938 96.621094 " fill-opacity="1" fill-rule="nonzero"/></g></g></g></g><path fill="#0048ff" d="M 318.464844 507.835938 L 261.890625 507.835938 C 260.464844 507.835938 259.304688 506.675781 259.304688 505.25 C 259.304688 503.824219 260.464844 502.664062 261.890625 502.664062 L 318.464844 502.664062 C 319.890625 502.664062 321.050781 503.824219 321.050781 505.25 C 321.050781 506.675781 319.890625 507.835938 318.464844 507.835938 Z M 318.464844 507.835938 " fill-opacity="1" fill-rule="nonzero"/><path fill="#3f3d56" d="M 217.429688 521.683594 C 217.429688 522.148438 217.800781 522.519531 218.265625 522.519531 L 362.089844 522.519531 C 362.554688 522.519531 362.925781 522.148438 362.925781 521.683594 C 362.925781 521.21875 362.554688 520.84375 362.089844 520.84375 L 218.265625 520.84375 C 217.800781 520.84375 217.429688 521.21875 217.429688 521.683594 Z M 217.429688 521.683594 " fill-opacity="1" fill-rule="nonzero"/><path fill="#0048ff" d="M 566.632812 307.113281 C 566.632812 308.613281 566.558594 310.109375 566.410156 311.601562 C 566.265625 313.09375 566.042969 314.574219 565.75 316.042969 C 565.460938 317.511719 565.097656 318.964844 564.660156 320.398438 C 564.226562 321.832031 563.722656 323.242188 563.148438 324.628906 C 562.574219 326.011719 561.933594 327.363281 561.226562 328.6875 C 560.519531 330.007812 559.75 331.292969 558.917969 332.539062 C 558.085938 333.785156 557.195312 334.988281 556.242188 336.144531 C 555.292969 337.304688 554.289062 338.414062 553.226562 339.472656 C 552.167969 340.535156 551.058594 341.539062 549.902344 342.488281 C 548.742188 343.441406 547.539062 344.332031 546.292969 345.164062 C 545.046875 345.996094 543.765625 346.765625 542.441406 347.472656 C 541.121094 348.179688 539.765625 348.820312 538.382812 349.394531 C 536.996094 349.96875 535.589844 350.472656 534.152344 350.90625 C 532.71875 351.339844 531.269531 351.707031 529.796875 351.996094 C 528.328125 352.289062 526.847656 352.507812 525.355469 352.65625 C 523.863281 352.804688 522.371094 352.878906 520.871094 352.878906 C 519.371094 352.878906 517.875 352.804688 516.386719 352.65625 C 514.894531 352.507812 513.414062 352.289062 511.941406 351.996094 C 510.472656 351.707031 509.019531 351.339844 507.585938 350.90625 C 506.152344 350.472656 504.742188 349.96875 503.359375 349.394531 C 501.972656 348.820312 500.621094 348.179688 499.300781 347.472656 C 497.976562 346.765625 496.695312 345.996094 495.449219 345.164062 C 494.199219 344.332031 493 343.441406 491.839844 342.488281 C 490.683594 341.539062 489.574219 340.535156 488.511719 339.472656 C 487.453125 338.414062 486.449219 337.304688 485.496094 336.144531 C 484.546875 334.988281 483.65625 333.785156 482.820312 332.539062 C 481.988281 331.292969 481.21875 330.007812 480.511719 328.6875 C 479.808594 327.363281 479.167969 326.011719 478.59375 324.628906 C 478.019531 323.242188 477.515625 321.832031 477.082031 320.398438 C 476.644531 318.964844 476.28125 317.511719 475.988281 316.042969 C 475.695312 314.574219 475.476562 313.09375 475.332031 311.601562 C 475.183594 310.109375 475.109375 308.613281 475.109375 307.113281 C 475.109375 305.617188 475.183594 304.121094 475.332031 302.628906 C 475.476562 301.136719 475.695312 299.65625 475.988281 298.1875 C 476.28125 296.71875 476.644531 295.265625 477.082031 293.832031 C 477.515625 292.398438 478.019531 290.988281 478.59375 289.601562 C 479.167969 288.21875 479.808594 286.863281 480.511719 285.542969 C 481.21875 284.222656 481.988281 282.9375 482.820312 281.691406 C 483.65625 280.445312 484.546875 279.242188 485.496094 278.082031 C 486.449219 276.925781 487.453125 275.816406 488.511719 274.757812 C 489.574219 273.695312 490.683594 272.691406 491.839844 271.742188 C 493 270.789062 494.199219 269.898438 495.449219 269.066406 C 496.695312 268.234375 497.976562 267.460938 499.300781 266.757812 C 500.621094 266.050781 501.972656 265.410156 503.359375 264.835938 C 504.742188 264.261719 506.152344 263.757812 507.585938 263.324219 C 509.019531 262.886719 510.472656 262.523438 511.941406 262.230469 C 513.414062 261.941406 514.894531 261.71875 516.386719 261.574219 C 517.875 261.425781 519.371094 261.351562 520.871094 261.351562 C 522.371094 261.351562 523.863281 261.425781 525.355469 261.574219 C 526.847656 261.71875 528.328125 261.941406 529.796875 262.230469 C 531.269531 262.523438 532.71875 262.886719 534.152344 263.324219 C 535.589844 263.757812 536.996094 264.261719 538.382812 264.835938 C 539.765625 265.410156 541.121094 266.050781 542.441406 266.757812 C 543.765625 267.460938 545.046875 268.234375 546.292969 269.066406 C 547.539062 269.898438 548.742188 270.789062 549.902344 271.742188 C 551.058594 272.691406 552.167969 273.695312 553.226562 274.757812 C 554.289062 275.816406 555.292969 276.925781 556.242188 278.082031 C 557.195312 279.242188 558.085938 280.445312 558.917969 281.691406 C 559.75 282.9375 560.519531 284.222656 561.226562 285.542969 C 561.933594 286.863281 562.574219 288.21875 563.148438 289.601562 C 563.722656 290.988281 564.226562 292.398438 564.660156 293.832031 C 565.097656 295.265625 565.460938 296.71875 565.75 298.1875 C 566.042969 299.65625 566.265625 301.136719 566.410156 302.628906 C 566.558594 304.121094 566.632812 305.617188 566.632812 307.113281 Z M 566.632812 307.113281 " fill-opacity="1" fill-rule="nonzero"/><path fill="#3f3d56" d="M 179 579.507812 C 179 579.972656 179.371094 580.347656 179.835938 580.347656 L 547.535156 580.347656 C 548 580.347656 548.371094 579.972656 548.371094 579.507812 C 548.371094 579.042969 548 578.671875 547.535156 578.671875 L 179.835938 578.671875 C 179.371094 578.671875 179 579.042969 179 579.507812 Z M 179 579.507812 " fill-opacity="1" fill-rule="nonzero"/><path fill="#3f3d56" d="M 184.316406 522.929688 L 183.140625 521.644531 L 297.941406 416.886719 L 339.300781 435.425781 L 383.960938 358.832031 L 420.65625 341.144531 L 454.65625 397.808594 C 473.011719 350.289062 519.042969 300.570312 574.203125 250.128906 L 575.558594 251.226562 C 523.824219 300.757812 479.5625 350.515625 454.441406 400.847656 L 422.996094 348.28125 C 421.507812 345.796875 418.386719 344.835938 415.761719 346.058594 C 395.707031 355.390625 378.976562 370.625 367.808594 389.722656 L 339.832031 437.578125 L 333.445312 434.714844 C 312.089844 425.140625 287.085938 429.152344 269.796875 444.929688 Z M 184.316406 522.929688 " fill-opacity="1" fill-rule="nonzero"/><path fill="#3f3d56" d="M 576.789062 259.664062 L 575.046875 259.785156 L 572.234375 253.691406 L 565.9375 252.414062 L 565.695312 250.683594 L 576.074219 249.207031 Z M 576.789062 259.664062 " fill-opacity="1" fill-rule="nonzero"/><path fill="#ffb6b6" d="M 397.722656 296.960938 L 403.894531 273.238281 L 427.933594 272.082031 L 435.125 304.78125 Z M 397.722656 296.960938 " fill-opacity="1" fill-rule="nonzero"/><path fill="#000000" d="M 397.722656 296.960938 L 403.894531 273.238281 L 427.933594 272.082031 L 435.125 304.78125 Z M 397.722656 296.960938 " fill-opacity="0.098" fill-rule="nonzero"/><path fill="#ffb6b6" d="M 442.558594 257.496094 C 442.558594 258.445312 442.511719 259.394531 442.417969 260.339844 C 442.324219 261.285156 442.1875 262.222656 442 263.15625 C 441.816406 264.089844 441.585938 265.007812 441.308594 265.917969 C 441.035156 266.828125 440.714844 267.722656 440.351562 268.601562 C 439.984375 269.476562 439.582031 270.335938 439.132812 271.175781 C 438.683594 272.011719 438.195312 272.828125 437.667969 273.617188 C 437.140625 274.40625 436.574219 275.167969 435.972656 275.902344 C 435.371094 276.636719 434.730469 277.34375 434.058594 278.015625 C 433.386719 278.6875 432.683594 279.324219 431.949219 279.925781 C 431.214844 280.527344 430.453125 281.09375 429.664062 281.621094 C 428.871094 282.152344 428.058594 282.636719 427.21875 283.085938 C 426.382812 283.535156 425.523438 283.941406 424.644531 284.304688 C 423.769531 284.667969 422.875 284.988281 421.964844 285.261719 C 421.054688 285.539062 420.136719 285.769531 419.203125 285.957031 C 418.269531 286.140625 417.332031 286.28125 416.386719 286.375 C 415.441406 286.464844 414.492188 286.511719 413.542969 286.511719 C 412.59375 286.511719 411.644531 286.464844 410.699219 286.375 C 409.753906 286.28125 408.8125 286.140625 407.882812 285.957031 C 406.949219 285.769531 406.027344 285.539062 405.121094 285.261719 C 404.210938 284.988281 403.316406 284.667969 402.4375 284.304688 C 401.558594 283.941406 400.703125 283.535156 399.863281 283.085938 C 399.027344 282.636719 398.210938 282.152344 397.421875 281.621094 C 396.632812 281.09375 395.867188 280.527344 395.132812 279.925781 C 394.398438 279.324219 393.695312 278.6875 393.023438 278.015625 C 392.351562 277.34375 391.714844 276.636719 391.113281 275.902344 C 390.507812 275.167969 389.945312 274.40625 389.414062 273.617188 C 388.886719 272.828125 388.398438 272.011719 387.953125 271.175781 C 387.503906 270.335938 387.097656 269.476562 386.734375 268.601562 C 386.371094 267.722656 386.050781 266.828125 385.773438 265.917969 C 385.5 265.007812 385.269531 264.089844 385.082031 263.15625 C 384.898438 262.222656 384.757812 261.285156 384.664062 260.339844 C 384.574219 259.394531 384.527344 258.445312 384.527344 257.496094 C 384.527344 256.546875 384.574219 255.597656 384.664062 254.652344 C 384.757812 253.707031 384.898438 252.765625 385.082031 251.835938 C 385.269531 250.902344 385.5 249.980469 385.773438 249.070312 C 386.050781 248.164062 386.371094 247.269531 386.734375 246.390625 C 387.097656 245.511719 387.503906 244.65625 387.953125 243.816406 C 388.398438 242.980469 388.886719 242.164062 389.414062 241.375 C 389.945312 240.585938 390.507812 239.820312 391.113281 239.085938 C 391.714844 238.351562 392.351562 237.648438 393.023438 236.976562 C 393.695312 236.304688 394.398438 235.667969 395.132812 235.066406 C 395.867188 234.460938 396.632812 233.894531 397.421875 233.367188 C 398.210938 232.839844 399.027344 232.351562 399.863281 231.90625 C 400.703125 231.457031 401.558594 231.050781 402.4375 230.6875 C 403.316406 230.324219 404.210938 230.003906 405.121094 229.726562 C 406.027344 229.453125 406.949219 229.222656 407.882812 229.035156 C 408.8125 228.851562 409.753906 228.710938 410.699219 228.617188 C 411.644531 228.523438 412.59375 228.476562 413.542969 228.476562 C 414.492188 228.476562 415.441406 228.523438 416.386719 228.617188 C 417.332031 228.710938 418.269531 228.851562 419.203125 229.035156 C 420.136719 229.222656 421.054688 229.453125 421.964844 229.726562 C 422.875 230.003906 423.769531 230.324219 424.644531 230.6875 C 425.523438 231.050781 426.382812 231.457031 427.21875 231.90625 C 428.058594 232.351562 428.871094 232.839844 429.664062 233.367188 C 430.453125 233.894531 431.214844 234.460938 431.949219 235.066406 C 432.683594 235.667969 433.386719 236.304688 434.058594 236.976562 C 434.730469 237.648438 435.371094 238.351562 435.972656 239.085938 C 436.574219 239.820312 437.140625 240.585938 437.667969 241.375 C 438.195312 242.164062 438.683594 242.980469 439.132812 243.816406 C 439.582031 244.65625 439.984375 245.511719 440.351562 246.390625 C 440.714844 247.269531 441.035156 248.164062 441.308594 249.070312 C 441.585938 249.980469 441.816406 250.902344 442 251.835938 C 442.1875 252.765625 442.324219 253.707031 442.417969 254.652344 C 442.511719 255.597656 442.558594 256.546875 442.558594 257.496094 Z M 442.558594 257.496094 " fill-opacity="1" fill-rule="nonzero"/><g clip-path="url(#43ad95d9d6)"><path fill="#2f2e41" d="M 429.550781 263.636719 C 429.550781 263.636719 418.527344 241.796875 405.613281 243.058594 C 392.699219 244.320312 385.894531 245.851562 385.894531 245.851562 C 385.894531 245.851562 382.058594 228.84375 400.109375 222.296875 C 400.109375 222.296875 377.160156 199.675781 404.484375 188.578125 C 431.808594 177.480469 447.097656 191.632812 447.097656 191.632812 C 447.097656 191.632812 467.320312 211.824219 441.847656 226.917969 C 441.847656 226.917969 460.761719 252.359375 437.863281 273.328125 C 437.863281 273.328125 442.984375 256.359375 437.640625 259.488281 C 432.296875 262.617188 429.550781 263.636719 429.550781 263.636719 Z M 429.550781 263.636719 " fill-opacity="1" fill-rule="nonzero"/></g><path fill="#2f2e41" d="M 381.527344 416.949219 L 377.667969 420.648438 L 349.785156 480.4375 L 346.730469 579.335938 L 393.578125 579.335938 L 415.554688 530.359375 L 430.363281 578.863281 L 472.488281 578.863281 L 482.253906 490.816406 L 456.003906 428.550781 Z M 381.527344 416.949219 " fill-opacity="1" fill-rule="nonzero"/><path fill="#ffffff" d="M 430.058594 294.550781 L 398.769531 294.550781 L 364.738281 312.863281 L 372.675781 348.273438 C 372.675781 348.273438 370.84375 369.636719 375.117188 385.511719 C 379.390625 401.382812 377.558594 422.140625 377.558594 422.140625 L 456.003906 428.550781 L 458.445312 356.511719 L 457.222656 308.285156 Z M 430.058594 294.550781 " fill-opacity="1" fill-rule="nonzero"/><path fill="#ffffff" d="M 369.929688 313.167969 C 369.929688 313.167969 351.003906 313.78125 347.953125 325.988281 C 344.898438 338.199219 342.457031 401.078125 342.457031 401.078125 C 342.457031 401.078125 344.289062 438.386719 364.738281 420.648438 C 385.191406 402.910156 383.359375 349.1875 383.359375 349.1875 Z M 369.929688 313.167969 " fill-opacity="1" fill-rule="nonzero"/><path fill="#ffffff" d="M 553.480469 624.625 L 441.960938 624.625 C 438.183594 624.625 435.109375 621.550781 435.109375 617.773438 L 435.109375 502.484375 C 435.109375 498.707031 438.183594 495.632812 441.960938 495.632812 L 553.480469 495.632812 C 557.257812 495.632812 560.328125 498.707031 560.328125 502.484375 L 560.328125 617.773438 C 560.328125 621.550781 557.257812 624.625 553.480469 624.625 Z M 553.480469 624.625 " fill-opacity="1" fill-rule="nonzero"/><g clip-path="url(#d4296537c8)"><path fill="#3f3d56" d="M 553.480469 625.328125 L 441.957031 625.328125 C 437.792969 625.328125 434.40625 621.941406 434.40625 617.773438 L 434.40625 502.484375 C 434.40625 498.320312 437.792969 494.929688 441.957031 494.929688 L 553.480469 494.929688 C 557.644531 494.929688 561.035156 498.320312 561.035156 502.484375 L 561.035156 617.773438 C 561.035156 621.941406 557.644531 625.328125 553.480469 625.328125 Z M 441.957031 496.339844 C 438.570312 496.339844 435.8125 499.09375 435.8125 502.484375 L 435.8125 617.773438 C 435.8125 621.164062 438.570312 623.921875 441.957031 623.921875 L 553.480469 623.921875 C 556.867188 623.921875 559.625 621.164062 559.625 617.773438 L 559.625 502.484375 C 559.625 499.09375 556.867188 496.339844 553.480469 496.339844 Z M 441.957031 496.339844 " fill-opacity="1" fill-rule="nonzero"/></g><path fill="#0048ff" d="M 502.121094 594.335938 L 492.929688 594.335938 C 491.808594 594.335938 490.898438 593.632812 490.898438 592.769531 L 490.898438 553.195312 C 490.898438 552.332031 491.808594 551.628906 492.929688 551.628906 L 502.121094 551.628906 C 503.238281 551.628906 504.148438 552.332031 504.148438 553.195312 L 504.148438 592.769531 C 504.148438 593.632812 503.238281 594.335938 502.121094 594.335938 Z M 502.121094 594.335938 " fill-opacity="1" fill-rule="nonzero"/><path fill="#0048ff" d="M 471.734375 571.015625 C 470.828125 571.015625 470.09375 571.582031 470.09375 572.28125 L 470.09375 592.726562 C 470.09375 593.425781 470.828125 593.992188 471.734375 593.992188 L 480.925781 593.992188 C 481.828125 593.992188 482.5625 593.425781 482.5625 592.726562 L 482.5625 572.28125 C 482.5625 571.582031 481.828125 571.015625 480.925781 571.015625 Z M 471.734375 571.015625 " fill-opacity="1" fill-rule="nonzero"/><path fill="#0048ff" d="M 523.316406 594.335938 L 514.125 594.335938 C 513.007812 594.335938 512.097656 593.632812 512.097656 592.769531 L 512.097656 527.914062 C 512.097656 527.050781 513.007812 526.347656 514.125 526.347656 L 523.316406 526.347656 C 524.4375 526.347656 525.347656 527.050781 525.347656 527.914062 L 525.347656 592.769531 C 525.347656 593.632812 524.4375 594.335938 523.316406 594.335938 Z M 523.316406 594.335938 " fill-opacity="1" fill-rule="nonzero"/><path fill="#0048ff" d="M 325.519531 310.050781 L 315.019531 310.050781 C 313.742188 310.050781 312.703125 309.246094 312.703125 308.261719 L 312.703125 263.054688 C 312.703125 262.066406 313.742188 261.265625 315.019531 261.265625 L 325.519531 261.265625 C 326.800781 261.265625 327.839844 262.066406 327.839844 263.054688 L 327.839844 308.261719 C 327.839844 309.246094 326.800781 310.050781 325.519531 310.050781 Z M 325.519531 310.050781 " fill-opacity="1" fill-rule="nonzero"/><path fill="#0048ff" d="M 290.808594 283.410156 C 289.777344 283.410156 288.933594 284.058594 288.933594 284.855469 L 288.933594 308.210938 C 288.933594 309.007812 289.777344 309.65625 290.808594 309.65625 L 301.308594 309.65625 C 302.339844 309.65625 303.179688 309.007812 303.179688 308.210938 L 303.179688 284.855469 C 303.179688 284.058594 302.339844 283.410156 301.308594 283.410156 Z M 290.808594 283.410156 " fill-opacity="1" fill-rule="nonzero"/><path fill="#0048ff" d="M 349.734375 310.050781 L 339.234375 310.050781 C 337.957031 310.050781 336.914062 309.246094 336.914062 308.261719 L 336.914062 234.175781 C 336.914062 233.191406 337.957031 232.386719 339.234375 232.386719 L 349.734375 232.386719 C 351.011719 232.386719 352.050781 233.191406 352.050781 234.175781 L 352.050781 308.261719 C 352.050781 309.246094 351.011719 310.050781 349.734375 310.050781 Z M 349.734375 310.050781 " fill-opacity="1" fill-rule="nonzero"/><path fill="#ffb6b6" d="M 480.621094 512.410156 C 486.0625 511.886719 489.804688 504.539062 488.988281 495.992188 C 488.707031 492.570312 487.613281 489.269531 485.792969 486.359375 L 484.746094 476.683594 L 484.90625 476.636719 L 487.542969 430.761719 C 488.15625 420.097656 483.933594 409.617188 475.796875 402.691406 C 470.960938 398.570312 465.796875 396.484375 462.476562 401.691406 C 456.96875 410.328125 464.105469 445.9375 468.789062 466.179688 L 470.605469 487.8125 C 469.371094 491.015625 468.921875 494.46875 469.296875 497.878906 C 470.113281 506.425781 475.183594 512.929688 480.621094 512.410156 Z M 480.621094 512.410156 " fill-opacity="1" fill-rule="nonzero"/><path fill="#ffffff" d="M 450.507812 309.507812 C 450.507812 309.507812 466.378906 303.402344 473.707031 321.714844 C 481.03125 340.03125 488.96875 430.378906 488.96875 430.378906 L 451.730469 423.664062 Z M 450.507812 309.507812 " fill-opacity="1" fill-rule="nonzero"/><path fill="#e6e6e6" d="M 232.566406 300.546875 L 211.195312 300.546875 C 209.769531 300.546875 208.609375 299.386719 208.609375 297.960938 C 208.609375 296.535156 209.769531 295.375 211.195312 295.375 L 232.566406 295.375 C 233.996094 295.375 235.15625 296.535156 235.15625 297.960938 C 235.15625 299.386719 233.996094 300.546875 232.566406 300.546875 Z M 232.566406 300.546875 " fill-opacity="1" fill-rule="nonzero"/><path fill="#e6e6e6" d="M 232.566406 263.882812 L 211.195312 263.882812 C 209.769531 263.882812 208.609375 262.722656 208.609375 261.296875 C 208.609375 259.871094 209.769531 258.710938 211.195312 258.710938 L 232.566406 258.710938 C 233.996094 258.710938 235.15625 259.871094 235.15625 261.296875 C 235.15625 262.722656 233.996094 263.882812 232.566406 263.882812 Z M 232.566406 263.882812 " fill-opacity="1" fill-rule="nonzero"/><path fill="#e6e6e6" d="M 232.566406 237.441406 L 211.195312 237.441406 C 209.769531 237.441406 208.609375 236.28125 208.609375 234.855469 C 208.609375 233.429688 209.769531 232.269531 211.195312 232.269531 L 232.566406 232.269531 C 233.996094 232.269531 235.15625 233.429688 235.15625 234.855469 C 235.15625 236.28125 233.996094 237.441406 232.566406 237.441406 Z M 232.566406 237.441406 " fill-opacity="1" fill-rule="nonzero"/><path fill="#3f3d56" d="M 207.753906 310.179688 C 207.753906 310.644531 208.125 311.015625 208.589844 311.015625 L 352.414062 311.015625 C 352.875 311.015625 353.25 310.644531 353.25 310.179688 C 353.25 309.714844 352.875 309.339844 352.414062 309.339844 L 208.589844 309.339844 C 208.125 309.339844 207.753906 309.714844 207.753906 310.179688 Z M 207.753906 310.179688 " fill-opacity="1" fill-rule="nonzero"/><g clip-path="url(#bff9cabc37)"><path fill="#3f3d56" d="M 485.132812 527.019531 C 485.132812 527.484375 485.503906 527.859375 485.96875 527.859375 L 629.792969 527.859375 C 630.257812 527.859375 630.628906 527.484375 630.628906 527.019531 C 630.628906 526.554688 630.257812 526.183594 629.792969 526.183594 L 485.96875 526.183594 C 485.503906 526.183594 485.132812 526.554688 485.132812 527.019531 Z M 485.132812 527.019531 " fill-opacity="1" fill-rule="nonzero"/></g><path fill="#3f3d56" d="M 442.890625 595.3125 C 442.890625 595.777344 443.265625 596.148438 443.730469 596.148438 L 587.550781 596.148438 C 588.015625 596.148438 588.390625 595.777344 588.390625 595.3125 C 588.390625 594.847656 588.015625 594.472656 587.550781 594.472656 L 443.730469 594.472656 C 443.265625 594.472656 442.890625 594.847656 442.890625 595.3125 Z M 442.890625 595.3125 " fill-opacity="1" fill-rule="nonzero"/><path fill="#ffb6b6" d="M 346.179688 305.941406 C 340.738281 306.464844 336.996094 313.8125 337.8125 322.359375 C 338.09375 325.78125 339.1875 329.082031 341.003906 331.992188 L 342.054688 341.667969 L 341.894531 341.714844 L 339.257812 387.589844 C 338.644531 398.253906 342.867188 408.734375 351.003906 415.660156 C 355.839844 419.78125 361.003906 421.867188 364.324219 416.660156 C 369.832031 408.023438 362.695312 372.414062 358.011719 352.171875 L 356.195312 330.539062 C 357.429688 327.335938 357.878906 323.882812 357.503906 320.472656 C 356.6875 311.925781 351.617188 305.421875 346.179688 305.941406 Z M 346.179688 305.941406 " fill-opacity="1" fill-rule="nonzero"/></svg>