<svg xmlns="http://www.w3.org/2000/svg" xmlns:xlink="http://www.w3.org/1999/xlink" width="1080" zoomAndPan="magnify" viewBox="0 0 810 809.999993" height="1080" preserveAspectRatio="xMidYMid meet" version="1.0"><defs><filter x="0%" y="0%" width="100%" height="100%" id="7a72c04a30"><feColorMatrix values="0 0 0 0 1 0 0 0 0 1 0 0 0 0 1 0 0 0 1 0" color-interpolation-filters="sRGB"/></filter><mask id="d4f6189bb4"><g filter="url(#7a72c04a30)"><rect x="-81" width="972" fill="#000000" y="-80.999999" height="971.999992" fill-opacity="0.098"/></g></mask><clipPath id="c63de41bc9"><rect x="0" width="693" y="0" height="654"/></clipPath><clipPath id="1c773a0c00"><path d="M 184 619 L 220 619 L 220 634.632812 L 184 634.632812 Z M 184 619 " clip-rule="nonzero"/></clipPath><clipPath id="81a38c6b92"><path d="M 239 619 L 275 619 L 275 634.632812 L 239 634.632812 Z M 239 619 " clip-rule="nonzero"/></clipPath><clipPath id="52d63230ef"><path d="M 375 175.632812 L 548 175.632812 L 548 285 L 375 285 Z M 375 175.632812 " clip-rule="nonzero"/></clipPath><clipPath id="0439531817"><path d="M 37 632 L 373 632 L 373 634.632812 L 37 634.632812 Z M 37 632 " clip-rule="nonzero"/></clipPath></defs><g mask="url(#d4f6189bb4)"><g transform="matrix(1, 0, 0, 1, 69, 78)"><g clip-path="url(#c63de41bc9)"><path fill="#0048ff" d="M 640.8125 198.933594 C 598.21875 185.035156 554.394531 204.386719 511.277344 197.699219 C 492.265625 194.710938 472.378906 186.265625 461.292969 169.726562 C 449.675781 152.488281 450.90625 131.023438 452.492188 111.144531 C 453.898438 93.375 455.660156 74.550781 449.5 57.484375 C 444.746094 44.113281 435.242188 33.207031 423.449219 25.289062 C 394.410156 5.410156 355.164062 2.066406 321.019531 1.1875 C 316.617188 1.011719 312.21875 1.011719 307.816406 1.011719 C 178.105469 2.417969 66.695312 82.820312 22.871094 204.210938 C 0.519531 266.3125 -19.722656 353.222656 52.085938 390.871094 C 81.304688 406.175781 114.746094 410.75 144.3125 425.175781 C 160.503906 433.09375 174.761719 443.824219 184.792969 459.132812 C 195.175781 475.140625 200.632812 493.613281 205.210938 511.910156 C 213.832031 546.21875 221.050781 580.171875 243.753906 608.671875 C 264.523438 634.710938 295.144531 653.007812 328.9375 652.300781 C 360.96875 651.597656 391.242188 635.0625 404.617188 605.503906 C 412.539062 587.914062 414.828125 568.734375 419.578125 550.261719 C 424.507812 530.382812 433.308594 512.261719 446.332031 496.253906 C 496.492188 434.5 579.742188 417.789062 639.054688 367.648438 C 666.859375 344.074219 690.796875 311 691.5 273.351562 C 692.027344 239.570312 673.019531 209.3125 640.8125 198.933594 Z M 640.8125 198.933594 " fill-opacity="1" fill-rule="nonzero"/></g></g></g><path fill="#f0f0f0" d="M 106.394531 620.050781 C 109.675781 624.480469 113.644531 628.171875 118.300781 631.125 C 119.28125 631.746094 120.289062 632.335938 121.3125 632.878906 L 145.429688 632.878906 C 145.140625 632.300781 144.859375 631.710938 144.589844 631.125 C 143.660156 629.164062 142.8125 627.171875 142.039062 625.148438 C 141.265625 623.121094 140.570312 621.070312 139.957031 618.988281 C 139.34375 616.910156 138.8125 614.808594 138.363281 612.6875 C 137.914062 610.566406 137.546875 608.433594 137.261719 606.28125 C 136.980469 604.132812 136.777344 601.976562 136.660156 599.8125 C 136.546875 597.644531 136.511719 595.480469 136.566406 593.3125 C 136.617188 591.144531 136.753906 588.980469 136.972656 586.824219 C 137.195312 584.667969 137.496094 582.523438 137.882812 580.390625 C 138.269531 578.253906 138.738281 576.140625 139.289062 574.042969 C 139.839844 571.945312 140.472656 569.875 141.183594 567.828125 C 141.898438 565.777344 142.6875 563.761719 143.558594 561.777344 C 144.425781 559.789062 145.371094 557.839844 146.390625 555.925781 C 147.410156 554.015625 148.503906 552.144531 149.671875 550.316406 C 150.835938 548.488281 152.070312 546.710938 153.375 544.980469 C 154.679688 543.246094 156.046875 541.570312 157.484375 539.945312 C 158.917969 538.320312 160.414062 536.753906 161.96875 535.246094 C 147.390625 539.753906 133.917969 548.539062 125.105469 561 C 120.78125 567.128906 117.792969 573.851562 116.144531 581.167969 C 115.414062 573.921875 115.621094 566.703125 116.757812 559.507812 C 117.898438 552.316406 119.933594 545.382812 122.863281 538.71875 C 111.027344 548.355469 101.8125 561.550781 98.300781 576.40625 C 94.785156 591.269531 97.335938 607.765625 106.394531 620.050781 Z M 106.394531 620.050781 " fill-opacity="1" fill-rule="nonzero"/><path fill="#ffffff" d="M 768.890625 422.027344 L 604.921875 422.027344 C 604.417969 422.027344 603.933594 421.929688 603.464844 421.734375 C 603 421.542969 602.585938 421.265625 602.230469 420.90625 C 601.871094 420.550781 601.597656 420.136719 601.402344 419.671875 C 601.207031 419.203125 601.109375 418.714844 601.109375 418.210938 L 601.109375 316.679688 C 601.109375 316.175781 601.207031 315.6875 601.402344 315.222656 C 601.597656 314.753906 601.871094 314.339844 602.230469 313.984375 C 602.585938 313.625 603 313.351562 603.464844 313.15625 C 603.933594 312.960938 604.417969 312.863281 604.921875 312.863281 L 768.890625 312.863281 C 769.394531 312.863281 769.882812 312.960938 770.347656 313.15625 C 770.816406 313.351562 771.226562 313.625 771.585938 313.984375 C 771.941406 314.339844 772.21875 314.753906 772.410156 315.222656 C 772.605469 315.6875 772.703125 316.175781 772.703125 316.679688 L 772.703125 418.210938 C 772.703125 418.714844 772.605469 419.203125 772.410156 419.671875 C 772.21875 420.136719 771.941406 420.550781 771.585938 420.90625 C 771.226562 421.265625 770.816406 421.542969 770.347656 421.734375 C 769.882812 421.929688 769.394531 422.027344 768.890625 422.027344 Z M 768.890625 422.027344 " fill-opacity="1" fill-rule="nonzero"/><path fill="#3f3d56" d="M 768.890625 422.027344 L 604.921875 422.027344 C 604.417969 422.027344 603.933594 421.929688 603.464844 421.734375 C 603 421.542969 602.585938 421.265625 602.230469 420.90625 C 601.871094 420.550781 601.597656 420.136719 601.402344 419.671875 C 601.207031 419.203125 601.109375 418.714844 601.109375 418.210938 L 601.109375 316.679688 C 601.109375 316.175781 601.207031 315.6875 601.402344 315.222656 C 601.597656 314.753906 601.871094 314.339844 602.230469 313.984375 C 602.585938 313.625 603 313.351562 603.464844 313.15625 C 603.933594 312.960938 604.417969 312.863281 604.921875 312.863281 L 768.890625 312.863281 C 769.394531 312.863281 769.882812 312.960938 770.347656 313.15625 C 770.816406 313.351562 771.226562 313.625 771.585938 313.984375 C 771.941406 314.339844 772.21875 314.753906 772.410156 315.222656 C 772.605469 315.6875 772.703125 316.175781 772.703125 316.679688 L 772.703125 418.210938 C 772.703125 418.714844 772.605469 419.203125 772.410156 419.671875 C 772.21875 420.136719 771.941406 420.550781 771.585938 420.90625 C 771.226562 421.265625 770.816406 421.542969 770.347656 421.734375 C 769.882812 421.929688 769.394531 422.027344 768.890625 422.027344 Z M 604.921875 314.390625 C 604.621094 314.390625 604.328125 314.449219 604.046875 314.566406 C 603.769531 314.683594 603.519531 314.847656 603.308594 315.0625 C 603.09375 315.277344 602.925781 315.523438 602.8125 315.804688 C 602.695312 316.085938 602.636719 316.378906 602.636719 316.679688 L 602.636719 418.210938 C 602.636719 418.511719 602.695312 418.804688 602.8125 419.085938 C 602.925781 419.367188 603.09375 419.613281 603.308594 419.828125 C 603.519531 420.042969 603.769531 420.207031 604.046875 420.324219 C 604.328125 420.441406 604.621094 420.5 604.921875 420.5 L 768.890625 420.5 C 769.195312 420.5 769.484375 420.441406 769.765625 420.324219 C 770.046875 420.207031 770.292969 420.042969 770.507812 419.828125 C 770.722656 419.613281 770.886719 419.367188 771.003906 419.085938 C 771.121094 418.804688 771.175781 418.511719 771.179688 418.210938 L 771.179688 316.679688 C 771.175781 316.378906 771.121094 316.085938 771.003906 315.804688 C 770.886719 315.523438 770.722656 315.277344 770.507812 315.0625 C 770.292969 314.847656 770.046875 314.683594 769.765625 314.566406 C 769.484375 314.449219 769.191406 314.390625 768.890625 314.390625 Z M 604.921875 314.390625 " fill-opacity="1" fill-rule="nonzero"/><path fill="#cccccc" d="M 736.476562 346.773438 L 637.335938 346.773438 C 636.878906 346.773438 636.441406 346.683594 636.023438 346.511719 C 635.601562 346.335938 635.230469 346.089844 634.910156 345.765625 C 634.585938 345.445312 634.339844 345.074219 634.164062 344.652344 C 633.992188 344.230469 633.902344 343.792969 633.902344 343.335938 C 633.902344 342.882812 633.992188 342.441406 634.164062 342.023438 C 634.339844 341.601562 634.585938 341.230469 634.910156 340.90625 C 635.230469 340.585938 635.601562 340.335938 636.023438 340.164062 C 636.441406 339.988281 636.878906 339.902344 637.335938 339.902344 L 736.476562 339.902344 C 736.933594 339.902344 737.371094 339.988281 737.792969 340.164062 C 738.210938 340.335938 738.582031 340.585938 738.90625 340.90625 C 739.226562 341.230469 739.472656 341.601562 739.648438 342.023438 C 739.824219 342.441406 739.910156 342.882812 739.910156 343.335938 C 739.910156 343.792969 739.824219 344.230469 739.648438 344.652344 C 739.472656 345.074219 739.226562 345.445312 738.90625 345.765625 C 738.582031 346.089844 738.210938 346.335938 737.792969 346.511719 C 737.371094 346.683594 736.933594 346.773438 736.476562 346.773438 Z M 736.476562 346.773438 " fill-opacity="1" fill-rule="nonzero"/><path fill="#cccccc" d="M 736.476562 370.4375 L 637.335938 370.4375 C 636.878906 370.4375 636.441406 370.347656 636.023438 370.175781 C 635.601562 370 635.230469 369.753906 634.910156 369.429688 C 634.585938 369.109375 634.339844 368.738281 634.164062 368.316406 C 633.992188 367.894531 633.902344 367.457031 633.902344 367 C 633.902344 366.546875 633.992188 366.109375 634.164062 365.6875 C 634.339844 365.265625 634.585938 364.894531 634.910156 364.574219 C 635.230469 364.25 635.601562 364.003906 636.023438 363.828125 C 636.441406 363.652344 636.878906 363.566406 637.335938 363.566406 L 736.476562 363.566406 C 736.933594 363.566406 737.371094 363.652344 737.792969 363.828125 C 738.210938 364.003906 738.582031 364.25 738.90625 364.574219 C 739.226562 364.894531 739.472656 365.265625 739.648438 365.6875 C 739.824219 366.109375 739.910156 366.546875 739.910156 367 C 739.910156 367.457031 739.824219 367.894531 739.648438 368.316406 C 739.472656 368.738281 739.226562 369.109375 738.90625 369.429688 C 738.582031 369.753906 738.210938 370 737.792969 370.175781 C 737.371094 370.347656 736.933594 370.4375 736.476562 370.4375 Z M 736.476562 370.4375 " fill-opacity="1" fill-rule="nonzero"/><path fill="#0048ff" d="M 739.910156 395.679688 C 739.910156 396.488281 739.832031 397.285156 739.675781 398.074219 C 739.515625 398.867188 739.285156 399.632812 738.976562 400.378906 C 738.667969 401.125 738.289062 401.832031 737.84375 402.5 C 737.394531 403.171875 736.886719 403.792969 736.316406 404.363281 C 735.75 404.929688 735.128906 405.441406 734.460938 405.886719 C 733.789062 406.335938 733.082031 406.714844 732.339844 407.023438 C 731.59375 407.332031 730.828125 407.5625 730.039062 407.722656 C 729.25 407.878906 728.449219 407.957031 727.644531 407.957031 C 726.839844 407.957031 726.042969 407.878906 725.253906 407.722656 C 724.464844 407.5625 723.695312 407.332031 722.953125 407.023438 C 722.207031 406.714844 721.5 406.335938 720.832031 405.886719 C 720.164062 405.441406 719.542969 404.929688 718.972656 404.363281 C 718.402344 403.792969 717.894531 403.171875 717.449219 402.5 C 717 401.832031 716.621094 401.125 716.316406 400.378906 C 716.007812 399.632812 715.773438 398.867188 715.617188 398.074219 C 715.460938 397.285156 715.382812 396.488281 715.382812 395.679688 C 715.382812 394.875 715.460938 394.078125 715.617188 393.285156 C 715.773438 392.496094 716.007812 391.726562 716.316406 390.984375 C 716.621094 390.238281 717 389.53125 717.449219 388.859375 C 717.894531 388.191406 718.402344 387.570312 718.972656 387 C 719.542969 386.429688 720.164062 385.921875 720.832031 385.472656 C 721.5 385.027344 722.207031 384.648438 722.953125 384.339844 C 723.695312 384.03125 724.464844 383.796875 725.253906 383.640625 C 726.042969 383.484375 726.839844 383.40625 727.644531 383.40625 C 728.449219 383.40625 729.25 383.484375 730.039062 383.640625 C 730.828125 383.796875 731.59375 384.03125 732.339844 384.339844 C 733.082031 384.648438 733.789062 385.027344 734.460938 385.472656 C 735.128906 385.921875 735.75 386.429688 736.316406 387 C 736.886719 387.570312 737.394531 388.191406 737.84375 388.859375 C 738.289062 389.53125 738.667969 390.238281 738.976562 390.984375 C 739.285156 391.726562 739.515625 392.496094 739.675781 393.285156 C 739.832031 394.078125 739.910156 394.875 739.910156 395.679688 Z M 739.910156 395.679688 " fill-opacity="1" fill-rule="nonzero"/><path fill="#ffffff" d="M 727.980469 389.898438 L 727.980469 388.726562 L 728.328125 388.726562 L 728.328125 389.898438 C 728.824219 389.917969 729.292969 390.035156 729.742188 390.242188 C 730.070312 390.398438 730.339844 390.621094 730.550781 390.917969 C 730.746094 391.191406 730.84375 391.5 730.84375 391.835938 C 730.847656 392.085938 730.773438 392.304688 730.617188 392.5 C 730.472656 392.679688 730.289062 392.769531 730.058594 392.769531 C 729.890625 392.769531 729.746094 392.710938 729.628906 392.589844 C 729.503906 392.46875 729.445312 392.324219 729.449219 392.152344 C 729.449219 392.039062 729.472656 391.925781 729.519531 391.820312 L 729.660156 391.527344 C 729.707031 391.40625 729.730469 391.277344 729.726562 391.144531 C 729.730469 390.933594 729.667969 390.746094 729.542969 390.578125 C 729.40625 390.40625 729.230469 390.28125 729.019531 390.214844 C 728.796875 390.140625 728.566406 390.09375 728.328125 390.074219 L 728.328125 394.285156 L 728.40625 394.328125 C 729.132812 394.714844 729.78125 395.207031 730.351562 395.800781 C 730.601562 396.097656 730.796875 396.429688 730.9375 396.796875 C 731.078125 397.152344 731.148438 397.519531 731.148438 397.898438 C 731.15625 398.398438 731.03125 398.863281 730.78125 399.292969 C 730.535156 399.714844 730.191406 400.035156 729.757812 400.253906 C 729.304688 400.476562 728.828125 400.617188 728.328125 400.671875 L 728.328125 401.925781 L 727.980469 401.925781 L 727.980469 400.695312 C 727.476562 400.691406 726.988281 400.589844 726.523438 400.394531 C 726.050781 400.21875 725.660156 399.9375 725.339844 399.546875 C 725.058594 399.195312 724.921875 398.792969 724.921875 398.339844 C 724.914062 398.023438 725.003906 397.734375 725.191406 397.480469 C 725.347656 397.25 725.566406 397.132812 725.84375 397.128906 C 726.007812 397.125 726.148438 397.179688 726.265625 397.296875 C 726.378906 397.410156 726.433594 397.550781 726.429688 397.714844 C 726.402344 397.957031 726.308594 398.167969 726.144531 398.351562 C 726.0625 398.460938 725.992188 398.578125 725.933594 398.703125 C 725.894531 398.804688 725.875 398.90625 725.875 399.011719 C 725.878906 399.300781 725.96875 399.558594 726.148438 399.785156 C 726.34375 400.03125 726.589844 400.214844 726.882812 400.332031 C 727.214844 400.460938 727.5625 400.523438 727.921875 400.515625 L 727.980469 400.515625 L 727.980469 395.492188 L 727.542969 395.238281 C 727.128906 394.996094 726.8125 394.796875 726.59375 394.636719 C 726.382812 394.484375 726.183594 394.308594 726.007812 394.113281 C 725.546875 393.625 725.320312 393.046875 725.324219 392.375 C 725.320312 391.964844 725.417969 391.582031 725.613281 391.226562 C 725.808594 390.867188 726.078125 390.582031 726.421875 390.367188 C 726.902344 390.078125 727.421875 389.921875 727.980469 389.898438 Z M 727.980469 390.066406 C 727.683594 390.078125 727.394531 390.140625 727.117188 390.257812 C 726.835938 390.398438 726.621094 390.605469 726.472656 390.882812 C 726.308594 391.179688 726.226562 391.5 726.230469 391.839844 C 726.226562 392.261719 726.347656 392.644531 726.589844 392.984375 C 726.714844 393.167969 726.863281 393.328125 727.035156 393.46875 C 727.316406 393.675781 727.605469 393.867188 727.90625 394.039062 L 727.980469 394.082031 Z M 728.328125 400.5 C 728.527344 400.484375 728.722656 400.445312 728.910156 400.378906 C 729.0625 400.320312 729.203125 400.238281 729.332031 400.132812 C 729.570312 399.925781 729.75 399.675781 729.867188 399.382812 C 730 399.058594 730.066406 398.71875 730.066406 398.371094 C 730.035156 397.800781 729.863281 397.28125 729.554688 396.804688 C 729.242188 396.328125 728.835938 395.964844 728.328125 395.707031 Z M 728.328125 400.5 " fill-opacity="1" fill-rule="nonzero"/><path fill="#ffffff" d="M 657.195312 354.066406 L 493.230469 354.066406 C 492.722656 354.066406 492.238281 353.96875 491.769531 353.777344 C 491.304688 353.582031 490.890625 353.308594 490.535156 352.949219 C 490.175781 352.589844 489.902344 352.179688 489.707031 351.710938 C 489.515625 351.242188 489.417969 350.757812 489.417969 350.25 L 489.417969 248.722656 C 489.417969 248.214844 489.515625 247.730469 489.707031 247.261719 C 489.902344 246.796875 490.175781 246.382812 490.535156 246.023438 C 490.890625 245.667969 491.304688 245.390625 491.769531 245.199219 C 492.238281 245.003906 492.722656 244.90625 493.230469 244.90625 L 657.195312 244.90625 C 657.699219 244.90625 658.1875 245.003906 658.652344 245.199219 C 659.121094 245.390625 659.53125 245.667969 659.890625 246.023438 C 660.246094 246.382812 660.523438 246.796875 660.71875 247.261719 C 660.910156 247.730469 661.007812 248.214844 661.007812 248.722656 L 661.007812 350.25 C 661.007812 350.757812 660.910156 351.242188 660.71875 351.710938 C 660.523438 352.179688 660.246094 352.589844 659.890625 352.949219 C 659.53125 353.308594 659.121094 353.582031 658.652344 353.777344 C 658.1875 353.96875 657.699219 354.066406 657.195312 354.066406 Z M 657.195312 354.066406 " fill-opacity="1" fill-rule="nonzero"/><path fill="#3f3d56" d="M 657.195312 354.066406 L 493.230469 354.066406 C 492.722656 354.066406 492.238281 353.96875 491.769531 353.777344 C 491.304688 353.582031 490.890625 353.308594 490.535156 352.949219 C 490.175781 352.589844 489.902344 352.179688 489.707031 351.710938 C 489.515625 351.242188 489.417969 350.757812 489.417969 350.25 L 489.417969 248.722656 C 489.417969 248.214844 489.515625 247.730469 489.707031 247.261719 C 489.902344 246.796875 490.175781 246.382812 490.535156 246.023438 C 490.890625 245.667969 491.304688 245.390625 491.769531 245.199219 C 492.238281 245.003906 492.722656 244.90625 493.230469 244.90625 L 657.195312 244.90625 C 657.699219 244.90625 658.1875 245.003906 658.652344 245.199219 C 659.121094 245.390625 659.53125 245.667969 659.890625 246.023438 C 660.246094 246.382812 660.523438 246.796875 660.71875 247.261719 C 660.910156 247.730469 661.007812 248.214844 661.007812 248.722656 L 661.007812 350.25 C 661.007812 350.757812 660.910156 351.242188 660.71875 351.710938 C 660.523438 352.179688 660.246094 352.589844 659.890625 352.949219 C 659.53125 353.308594 659.121094 353.582031 658.652344 353.777344 C 658.1875 353.96875 657.699219 354.066406 657.195312 354.066406 Z M 493.230469 246.433594 C 492.925781 246.433594 492.632812 246.492188 492.355469 246.609375 C 492.074219 246.722656 491.828125 246.890625 491.613281 247.105469 C 491.398438 247.320312 491.230469 247.566406 491.117188 247.847656 C 491 248.128906 490.941406 248.417969 490.941406 248.722656 L 490.941406 350.25 C 490.941406 350.554688 491 350.847656 491.117188 351.128906 C 491.230469 351.40625 491.398438 351.65625 491.613281 351.871094 C 491.828125 352.085938 492.074219 352.25 492.355469 352.367188 C 492.632812 352.484375 492.925781 352.542969 493.230469 352.542969 L 657.195312 352.542969 C 657.5 352.542969 657.789062 352.484375 658.070312 352.367188 C 658.351562 352.25 658.597656 352.085938 658.8125 351.871094 C 659.027344 351.65625 659.191406 351.40625 659.308594 351.128906 C 659.425781 350.847656 659.484375 350.554688 659.484375 350.25 L 659.484375 248.722656 C 659.484375 248.417969 659.425781 248.128906 659.308594 247.847656 C 659.191406 247.566406 659.027344 247.320312 658.8125 247.105469 C 658.597656 246.890625 658.351562 246.722656 658.070312 246.609375 C 657.789062 246.492188 657.5 246.433594 657.195312 246.433594 Z M 493.230469 246.433594 " fill-opacity="1" fill-rule="nonzero"/><path fill="#cccccc" d="M 624.785156 278.8125 L 525.640625 278.8125 C 525.1875 278.8125 524.75 278.726562 524.328125 278.550781 C 523.90625 278.378906 523.535156 278.128906 523.214844 277.808594 C 522.890625 277.484375 522.644531 277.113281 522.46875 276.691406 C 522.296875 276.273438 522.210938 275.832031 522.210938 275.378906 C 522.210938 274.921875 522.296875 274.484375 522.46875 274.0625 C 522.644531 273.644531 522.890625 273.269531 523.214844 272.949219 C 523.535156 272.628906 523.90625 272.378906 524.328125 272.203125 C 524.75 272.03125 525.1875 271.941406 525.640625 271.941406 L 624.785156 271.941406 C 625.238281 271.941406 625.675781 272.03125 626.097656 272.203125 C 626.515625 272.378906 626.886719 272.628906 627.210938 272.949219 C 627.53125 273.269531 627.78125 273.644531 627.953125 274.0625 C 628.128906 274.484375 628.214844 274.921875 628.214844 275.378906 C 628.214844 275.832031 628.128906 276.273438 627.953125 276.691406 C 627.78125 277.113281 627.53125 277.484375 627.210938 277.808594 C 626.886719 278.128906 626.515625 278.378906 626.097656 278.550781 C 625.675781 278.726562 625.238281 278.8125 624.785156 278.8125 Z M 624.785156 278.8125 " fill-opacity="1" fill-rule="nonzero"/><path fill="#cccccc" d="M 624.785156 302.476562 L 525.640625 302.476562 C 525.1875 302.476562 524.75 302.390625 524.328125 302.214844 C 523.90625 302.042969 523.535156 301.792969 523.214844 301.472656 C 522.890625 301.148438 522.644531 300.777344 522.46875 300.359375 C 522.296875 299.9375 522.210938 299.5 522.210938 299.042969 C 522.210938 298.585938 522.296875 298.148438 522.46875 297.726562 C 522.644531 297.308594 522.890625 296.9375 523.214844 296.613281 C 523.535156 296.292969 523.90625 296.042969 524.328125 295.871094 C 524.75 295.695312 525.1875 295.609375 525.640625 295.609375 L 624.785156 295.609375 C 625.238281 295.609375 625.675781 295.695312 626.097656 295.871094 C 626.515625 296.042969 626.886719 296.292969 627.210938 296.613281 C 627.53125 296.9375 627.78125 297.308594 627.953125 297.726562 C 628.128906 298.148438 628.214844 298.585938 628.214844 299.042969 C 628.214844 299.5 628.128906 299.9375 627.953125 300.359375 C 627.78125 300.777344 627.53125 301.148438 627.210938 301.472656 C 626.886719 301.792969 626.515625 302.042969 626.097656 302.214844 C 625.675781 302.390625 625.238281 302.476562 624.785156 302.476562 Z M 624.785156 302.476562 " fill-opacity="1" fill-rule="nonzero"/><path fill="#0048ff" d="M 628.214844 327.722656 C 628.214844 328.527344 628.136719 329.328125 627.980469 330.117188 C 627.824219 330.90625 627.589844 331.675781 627.28125 332.421875 C 626.972656 333.164062 626.597656 333.871094 626.148438 334.542969 C 625.703125 335.214844 625.191406 335.832031 624.625 336.402344 C 624.054688 336.972656 623.433594 337.480469 622.765625 337.929688 C 622.09375 338.378906 621.386719 338.753906 620.644531 339.0625 C 619.902344 339.371094 619.132812 339.605469 618.34375 339.761719 C 617.554688 339.921875 616.757812 340 615.949219 340 C 615.144531 340 614.347656 339.921875 613.558594 339.761719 C 612.769531 339.605469 612 339.371094 611.257812 339.0625 C 610.511719 338.753906 609.808594 338.378906 609.136719 337.929688 C 608.46875 337.480469 607.847656 336.972656 607.277344 336.402344 C 606.710938 335.832031 606.199219 335.214844 605.753906 334.542969 C 605.304688 333.871094 604.929688 333.164062 604.621094 332.421875 C 604.3125 331.675781 604.078125 330.90625 603.921875 330.117188 C 603.765625 329.328125 603.6875 328.527344 603.6875 327.722656 C 603.6875 326.917969 603.765625 326.117188 603.921875 325.328125 C 604.078125 324.535156 604.3125 323.769531 604.621094 323.023438 C 604.929688 322.28125 605.304688 321.570312 605.753906 320.902344 C 606.199219 320.230469 606.710938 319.613281 607.277344 319.042969 C 607.847656 318.472656 608.46875 317.960938 609.136719 317.515625 C 609.808594 317.066406 610.511719 316.6875 611.257812 316.378906 C 612 316.070312 612.769531 315.839844 613.558594 315.683594 C 614.347656 315.523438 615.144531 315.445312 615.949219 315.445312 C 616.757812 315.445312 617.554688 315.523438 618.34375 315.683594 C 619.132812 315.839844 619.902344 316.070312 620.644531 316.378906 C 621.386719 316.6875 622.09375 317.066406 622.765625 317.515625 C 623.433594 317.960938 624.054688 318.472656 624.625 319.042969 C 625.191406 319.613281 625.703125 320.230469 626.148438 320.902344 C 626.597656 321.570312 626.972656 322.28125 627.28125 323.023438 C 627.589844 323.769531 627.824219 324.535156 627.980469 325.328125 C 628.136719 326.117188 628.214844 326.917969 628.214844 327.722656 Z M 628.214844 327.722656 " fill-opacity="1" fill-rule="nonzero"/><path fill="#ffffff" d="M 616.289062 321.9375 L 616.289062 320.769531 L 616.632812 320.769531 L 616.632812 321.9375 C 617.128906 321.960938 617.601562 322.074219 618.046875 322.285156 C 618.375 322.441406 618.644531 322.664062 618.855469 322.957031 C 619.050781 323.234375 619.148438 323.539062 619.148438 323.878906 C 619.15625 324.128906 619.078125 324.347656 618.921875 324.539062 C 618.777344 324.722656 618.59375 324.8125 618.363281 324.808594 C 618.195312 324.8125 618.050781 324.753906 617.933594 324.632812 C 617.8125 324.511719 617.75 324.367188 617.757812 324.195312 C 617.757812 324.078125 617.78125 323.96875 617.824219 323.863281 L 617.964844 323.570312 C 618.011719 323.445312 618.035156 323.320312 618.03125 323.1875 C 618.035156 322.976562 617.976562 322.789062 617.847656 322.621094 C 617.710938 322.445312 617.535156 322.324219 617.324219 322.253906 C 617.101562 322.179688 616.871094 322.132812 616.632812 322.117188 L 616.632812 326.324219 L 616.710938 326.371094 C 617.4375 326.757812 618.085938 327.246094 618.65625 327.839844 C 618.90625 328.140625 619.105469 328.472656 619.242188 328.835938 C 619.382812 329.191406 619.453125 329.558594 619.457031 329.941406 C 619.460938 330.441406 619.339844 330.90625 619.085938 331.335938 C 618.839844 331.753906 618.5 332.074219 618.0625 332.296875 C 617.609375 332.519531 617.132812 332.65625 616.632812 332.710938 L 616.632812 333.964844 L 616.289062 333.964844 L 616.289062 332.734375 C 615.78125 332.730469 615.292969 332.632812 614.828125 332.433594 C 614.355469 332.261719 613.964844 331.976562 613.648438 331.589844 C 613.367188 331.234375 613.226562 330.832031 613.226562 330.378906 C 613.21875 330.0625 613.308594 329.777344 613.496094 329.523438 C 613.65625 329.292969 613.871094 329.175781 614.152344 329.171875 C 614.3125 329.167969 614.453125 329.222656 614.570312 329.335938 C 614.683594 329.453125 614.742188 329.59375 614.734375 329.757812 C 614.707031 330 614.613281 330.210938 614.449219 330.394531 C 614.367188 330.503906 614.296875 330.621094 614.238281 330.746094 C 614.199219 330.84375 614.179688 330.945312 614.179688 331.054688 C 614.183594 331.34375 614.273438 331.597656 614.453125 331.824219 C 614.648438 332.074219 614.894531 332.257812 615.1875 332.375 C 615.523438 332.503906 615.867188 332.566406 616.226562 332.558594 L 616.289062 332.558594 L 616.289062 327.535156 L 615.851562 327.28125 C 615.433594 327.039062 615.117188 326.839844 614.898438 326.679688 C 614.6875 326.523438 614.492188 326.351562 614.3125 326.15625 C 613.855469 325.667969 613.625 325.085938 613.628906 324.417969 C 613.625 324.007812 613.722656 323.625 613.921875 323.265625 C 614.113281 322.910156 614.382812 322.625 614.726562 322.410156 C 615.207031 322.117188 615.726562 321.960938 616.289062 321.9375 Z M 616.289062 322.109375 C 615.988281 322.117188 615.699219 322.183594 615.421875 322.300781 C 615.144531 322.441406 614.929688 322.648438 614.78125 322.921875 C 614.613281 323.21875 614.53125 323.539062 614.535156 323.882812 C 614.53125 324.300781 614.652344 324.683594 614.894531 325.027344 C 615.019531 325.210938 615.171875 325.371094 615.34375 325.511719 C 615.621094 325.71875 615.910156 325.90625 616.210938 326.078125 L 616.289062 326.125 Z M 616.632812 332.542969 C 616.832031 332.527344 617.027344 332.484375 617.214844 332.417969 C 617.367188 332.359375 617.507812 332.277344 617.636719 332.171875 C 617.878906 331.96875 618.054688 331.71875 618.171875 331.421875 C 618.308594 331.097656 618.375 330.761719 618.371094 330.410156 C 618.339844 329.84375 618.167969 329.324219 617.859375 328.847656 C 617.546875 328.371094 617.140625 328.003906 616.632812 327.75 Z M 616.632812 332.542969 " fill-opacity="1" fill-rule="nonzero"/><path fill="#ffb6b6" d="M 317.296875 338.917969 C 316.9375 338.894531 316.582031 338.886719 316.226562 338.898438 C 315.871094 338.914062 315.515625 338.945312 315.160156 338.996094 C 314.808594 339.050781 314.457031 339.121094 314.113281 339.210938 C 313.769531 339.300781 313.429688 339.410156 313.09375 339.539062 C 312.761719 339.664062 312.4375 339.8125 312.117188 339.972656 C 311.800781 340.136719 311.492188 340.316406 311.195312 340.511719 C 310.898438 340.710938 310.609375 340.921875 310.335938 341.152344 C 310.0625 341.378906 309.800781 341.621094 309.550781 341.878906 C 309.300781 342.136719 309.070312 342.402344 308.851562 342.6875 C 308.632812 342.96875 308.429688 343.261719 308.242188 343.566406 C 308.054688 343.871094 307.886719 344.183594 307.730469 344.507812 C 307.578125 344.832031 307.445312 345.160156 307.328125 345.5 C 307.210938 345.835938 307.113281 346.179688 307.035156 346.527344 C 306.957031 346.875 306.894531 347.230469 306.855469 347.582031 C 306.816406 347.9375 306.792969 348.292969 306.792969 348.652344 C 306.789062 349.007812 306.808594 349.367188 306.84375 349.722656 L 275.324219 364.511719 L 290.753906 373.96875 L 318.320312 358.472656 C 318.910156 358.371094 319.484375 358.21875 320.046875 358.011719 C 320.605469 357.804688 321.144531 357.550781 321.660156 357.246094 C 322.175781 356.941406 322.65625 356.59375 323.109375 356.199219 C 323.558594 355.808594 323.972656 355.375 324.34375 354.910156 C 324.71875 354.441406 325.046875 353.945312 325.328125 353.417969 C 325.613281 352.890625 325.84375 352.339844 326.027344 351.769531 C 326.210938 351.203125 326.339844 350.621094 326.417969 350.027344 C 326.492188 349.433594 326.515625 348.835938 326.484375 348.238281 C 326.453125 347.640625 326.367188 347.050781 326.230469 346.46875 C 326.089844 345.886719 325.902344 345.324219 325.660156 344.777344 C 325.417969 344.230469 325.128906 343.707031 324.792969 343.210938 C 324.457031 342.71875 324.078125 342.257812 323.660156 341.832031 C 323.238281 341.40625 322.785156 341.019531 322.292969 340.679688 C 321.804688 340.335938 321.289062 340.039062 320.746094 339.789062 C 320.199219 339.542969 319.640625 339.34375 319.058594 339.199219 C 318.480469 339.050781 317.890625 338.957031 317.296875 338.917969 Z M 317.296875 338.917969 " fill-opacity="1" fill-rule="nonzero"/><path fill="#ffb6b6" d="M 186.855469 623.519531 L 197.742188 623.515625 L 202.921875 581.488281 L 186.855469 581.488281 Z M 186.855469 623.519531 " fill-opacity="1" fill-rule="nonzero"/><g clip-path="url(#1c773a0c00)"><path fill="#2f2e41" d="M 184.078125 619.960938 L 205.519531 619.960938 C 206.417969 619.960938 207.304688 620.046875 208.183594 620.222656 C 209.066406 620.398438 209.917969 620.65625 210.746094 621 C 211.578125 621.34375 212.363281 621.765625 213.109375 622.265625 C 213.855469 622.761719 214.546875 623.332031 215.179688 623.964844 C 215.816406 624.601562 216.382812 625.292969 216.878906 626.039062 C 217.378906 626.785156 217.796875 627.574219 218.140625 628.402344 C 218.484375 629.230469 218.746094 630.085938 218.917969 630.96875 C 219.09375 631.847656 219.183594 632.738281 219.183594 633.636719 L 219.183594 634.078125 L 184.082031 634.082031 Z M 184.078125 619.960938 " fill-opacity="1" fill-rule="nonzero"/></g><path fill="#ffb6b6" d="M 242.40625 623.519531 L 253.292969 623.515625 L 258.472656 581.488281 L 242.40625 581.488281 Z M 242.40625 623.519531 " fill-opacity="1" fill-rule="nonzero"/><g clip-path="url(#81a38c6b92)"><path fill="#2f2e41" d="M 239.628906 619.960938 L 261.070312 619.960938 C 261.964844 619.960938 262.855469 620.046875 263.734375 620.222656 C 264.613281 620.398438 265.46875 620.65625 266.296875 621 C 267.125 621.34375 267.914062 621.765625 268.660156 622.265625 C 269.40625 622.761719 270.09375 623.332031 270.730469 623.964844 C 271.363281 624.601562 271.929688 625.292969 272.429688 626.039062 C 272.925781 626.785156 273.347656 627.574219 273.691406 628.402344 C 274.035156 629.230469 274.292969 630.085938 274.46875 630.96875 C 274.644531 631.847656 274.730469 632.738281 274.730469 633.636719 L 274.730469 634.078125 L 239.628906 634.082031 Z M 239.628906 619.960938 " fill-opacity="1" fill-rule="nonzero"/></g><path fill="#2f2e41" d="M 249.679688 405.515625 L 255.203125 417.421875 L 265.164062 523.910156 L 257.421875 615.4375 L 239.3125 615.4375 L 217.941406 471.167969 L 207.902344 612.113281 L 183.46875 611.125 L 178.777344 420.035156 Z M 249.679688 405.515625 " fill-opacity="1" fill-rule="nonzero"/><path fill="#ffffff" d="M 161.625 307.246094 L 184.535156 297.917969 L 216.867188 299.734375 L 245.613281 310.21875 L 255.203125 417.421875 C 230.195312 431.089844 204.863281 434.824219 179.089844 425.046875 L 155.171875 355.222656 Z M 161.625 307.246094 " fill-opacity="1" fill-rule="nonzero"/><path fill="#ffffff" d="M 236.667969 313.054688 L 246.835938 310.21875 C 246.835938 310.21875 254.523438 305.214844 257.054688 320.089844 C 259.582031 334.964844 272.601562 358.105469 272.601562 358.105469 L 294.882812 346.21875 L 305.203125 368.769531 L 270.011719 390.109375 L 232.949219 352.730469 Z M 236.667969 313.054688 " fill-opacity="1" fill-rule="nonzero"/><path fill="#ffb6b6" d="M 180.910156 278.054688 C 180.601562 277.355469 180.328125 276.644531 180.089844 275.917969 C 179.851562 275.191406 179.652344 274.457031 179.484375 273.710938 C 179.320312 272.964844 179.191406 272.210938 179.097656 271.453125 C 179.007812 270.695312 178.953125 269.933594 178.933594 269.167969 C 178.917969 268.40625 178.9375 267.640625 178.996094 266.878906 C 179.054688 266.117188 179.148438 265.359375 179.28125 264.609375 C 179.414062 263.855469 179.582031 263.113281 179.789062 262.375 C 179.992188 261.640625 180.234375 260.914062 180.507812 260.203125 C 180.785156 259.492188 181.097656 258.792969 181.441406 258.109375 C 181.785156 257.429688 182.164062 256.765625 182.574219 256.121094 C 182.984375 255.476562 183.421875 254.855469 183.894531 254.253906 C 184.363281 253.652344 184.863281 253.074219 185.390625 252.523438 C 185.917969 251.96875 186.472656 251.445312 187.050781 250.945312 C 187.632812 250.449219 188.234375 249.980469 188.859375 249.542969 C 189.484375 249.101562 190.128906 248.695312 190.792969 248.320312 C 191.457031 247.945312 192.140625 247.601562 192.839844 247.296875 C 193.539062 246.988281 194.25 246.714844 194.976562 246.476562 C 195.699219 246.238281 196.4375 246.035156 197.179688 245.871094 C 197.925781 245.703125 198.679688 245.574219 199.4375 245.484375 C 200.195312 245.390625 200.953125 245.335938 201.71875 245.320312 C 202.480469 245.300781 203.242188 245.324219 204.003906 245.378906 C 204.765625 245.4375 205.523438 245.535156 206.273438 245.664062 C 207.027344 245.796875 207.769531 245.96875 208.503906 246.171875 C 209.242188 246.378906 209.964844 246.617188 210.675781 246.894531 C 211.386719 247.171875 212.085938 247.484375 212.765625 247.828125 C 213.445312 248.171875 214.109375 248.550781 214.753906 248.960938 C 215.398438 249.371094 216.019531 249.8125 216.621094 250.285156 C 217.222656 250.753906 217.796875 251.253906 218.351562 251.78125 C 218.902344 252.3125 219.425781 252.863281 219.921875 253.445312 C 220.421875 254.023438 220.890625 254.625 221.328125 255.253906 C 221.765625 255.878906 222.171875 256.523438 222.546875 257.191406 C 222.921875 257.855469 223.261719 258.539062 223.570312 259.238281 L 223.703125 259.546875 C 224.007812 260.246094 224.273438 260.960938 224.507812 261.691406 C 224.742188 262.417969 224.9375 263.15625 225.097656 263.902344 C 225.257812 264.652344 225.378906 265.402344 225.46875 266.164062 C 225.554688 266.921875 225.601562 267.683594 225.613281 268.449219 C 225.625 269.214844 225.601562 269.976562 225.535156 270.738281 C 225.472656 271.5 225.371094 272.257812 225.234375 273.007812 C 225.097656 273.757812 224.921875 274.503906 224.714844 275.238281 C 224.503906 275.972656 224.257812 276.695312 223.976562 277.40625 C 223.695312 278.117188 223.378906 278.8125 223.027344 279.492188 C 222.679688 280.167969 222.296875 280.832031 221.882812 281.472656 C 221.46875 282.113281 221.023438 282.734375 220.546875 283.332031 C 220.070312 283.929688 219.566406 284.503906 219.035156 285.050781 C 218.503906 285.601562 217.949219 286.121094 217.363281 286.617188 C 216.78125 287.109375 216.175781 287.574219 215.546875 288.007812 C 214.917969 288.441406 214.269531 288.84375 213.605469 289.214844 C 212.9375 289.585938 212.25 289.921875 211.550781 290.226562 C 210.847656 290.527344 210.136719 290.796875 209.40625 291.03125 C 208.679688 291.261719 207.945312 291.460938 207.199219 291.621094 C 206.449219 291.78125 205.699219 291.902344 204.9375 291.992188 C 204.179688 292.078125 203.417969 292.125 202.65625 292.136719 C 201.894531 292.148438 201.128906 292.125 200.371094 292.058594 C 199.609375 291.996094 198.851562 291.894531 198.101562 291.757812 C 197.351562 291.621094 196.609375 291.445312 195.875 291.234375 C 195.140625 291.023438 194.417969 290.777344 193.707031 290.496094 C 193 290.214844 192.304688 289.898438 191.625 289.550781 C 190.945312 289.199219 190.285156 288.816406 189.644531 288.402344 C 189.003906 287.988281 188.382812 287.542969 187.785156 287.066406 C 187.1875 286.589844 186.617188 286.085938 186.070312 285.554688 C 185.519531 285.023438 185 284.464844 184.507812 283.878906 C 184.011719 283.296875 183.550781 282.691406 183.117188 282.0625 C 182.683594 281.433594 182.28125 280.785156 181.910156 280.117188 C 181.539062 279.445312 181.203125 278.761719 180.898438 278.058594 Z M 180.910156 278.054688 " fill-opacity="1" fill-rule="nonzero"/><path fill="#2f2e41" d="M 212.554688 256.703125 C 217.402344 257.582031 224.902344 260.636719 229.066406 257.054688 C 226.984375 254.617188 224.464844 252.773438 221.511719 251.523438 C 220.933594 251.328125 220.414062 251.035156 219.949219 250.636719 C 218.53125 249.203125 219.625 246.726562 218.976562 244.785156 C 218.65625 244.066406 218.195312 243.457031 217.585938 242.957031 C 216.980469 242.457031 216.292969 242.117188 215.527344 241.941406 C 214.082031 241.507812 212.570312 241.4375 211.148438 240.914062 C 207.792969 239.648438 205.402344 236.035156 201.960938 235.050781 C 198.960938 234.183594 195.941406 235.53125 193.351562 237.105469 C 190.765625 238.683594 188.203125 240.550781 185.175781 240.851562 C 182.910156 241.058594 181.480469 244.785156 179.207031 244.890625 C 174.445312 245.125 174.710938 241.984375 174.359375 246.988281 C 174.15625 249.976562 169.890625 255.921875 169.957031 258.9375 C 170.027344 260.910156 169.679688 262.867188 169.734375 264.847656 C 169.800781 266.734375 170.199219 268.546875 170.929688 270.285156 C 171.660156 272.027344 172.679688 273.578125 173.984375 274.941406 C 176.152344 277.171875 178.96875 278.679688 180.792969 281.222656 C 181.742188 282.570312 182.402344 284.148438 183.507812 285.371094 C 184.613281 286.589844 186.480469 287.328125 187.714844 286.453125 C 188.949219 285.582031 188.972656 283.695312 189.582031 282.257812 C 189.769531 281.816406 190.019531 281.417969 190.332031 281.054688 C 190.648438 280.691406 191.007812 280.386719 191.414062 280.136719 C 191.824219 279.890625 192.261719 279.707031 192.726562 279.597656 C 193.191406 279.484375 193.660156 279.445312 194.140625 279.480469 C 194.632812 279.546875 195.109375 279.679688 195.570312 279.875 C 196.027344 280.074219 196.453125 280.332031 196.839844 280.648438 C 197.226562 280.964844 197.5625 281.328125 197.847656 281.738281 C 198.132812 282.148438 198.355469 282.589844 198.519531 283.0625 C 197.941406 279.886719 196.421875 276.914062 195.84375 273.734375 C 195.265625 270.558594 196.015625 266.765625 198.75 265.523438 C 199.921875 264.976562 201.507812 264.832031 201.980469 263.570312 C 202.269531 262.8125 202.003906 261.917969 202.117188 261.097656 C 202.71875 257.074219 209.394531 256.082031 212.554688 256.703125 Z M 212.554688 256.703125 " fill-opacity="1" fill-rule="nonzero"/><path fill="#ffb6b6" d="M 181.839844 423.808594 C 181.785156 423.457031 181.714844 423.105469 181.625 422.761719 C 181.535156 422.414062 181.425781 422.074219 181.296875 421.742188 C 181.171875 421.40625 181.027344 421.082031 180.863281 420.761719 C 180.699219 420.445312 180.519531 420.136719 180.324219 419.839844 C 180.125 419.539062 179.914062 419.253906 179.6875 418.980469 C 179.457031 418.703125 179.214844 418.441406 178.960938 418.195312 C 178.703125 417.945312 178.433594 417.710938 178.152344 417.492188 C 177.871094 417.273438 177.578125 417.070312 177.273438 416.882812 C 176.96875 416.695312 176.65625 416.527344 176.332031 416.375 C 176.007812 416.222656 175.679688 416.085938 175.34375 415.96875 C 175.003906 415.851562 174.660156 415.753906 174.3125 415.675781 C 173.964844 415.597656 173.613281 415.539062 173.257812 415.496094 C 172.90625 415.457031 172.550781 415.433594 172.191406 415.433594 C 171.835938 415.429688 171.480469 415.449219 171.125 415.488281 C 170.769531 415.523438 170.417969 415.582031 170.066406 415.65625 C 169.71875 415.730469 169.375 415.828125 169.039062 415.941406 L 147.777344 388.34375 L 141.898438 405.472656 L 162.988281 429.050781 C 163.214844 429.605469 163.492188 430.132812 163.8125 430.636719 C 164.136719 431.140625 164.503906 431.609375 164.910156 432.046875 C 165.320312 432.484375 165.765625 432.878906 166.246094 433.234375 C 166.726562 433.59375 167.234375 433.902344 167.769531 434.164062 C 168.308594 434.429688 168.863281 434.640625 169.441406 434.800781 C 170.015625 434.964844 170.601562 435.074219 171.195312 435.128906 C 171.792969 435.183594 172.386719 435.183594 172.980469 435.128906 C 173.578125 435.078125 174.164062 434.96875 174.738281 434.808594 C 175.316406 434.648438 175.871094 434.4375 176.410156 434.175781 C 176.949219 433.914062 177.457031 433.605469 177.9375 433.253906 C 178.421875 432.898438 178.867188 432.503906 179.277344 432.066406 C 179.683594 431.632812 180.050781 431.160156 180.375 430.660156 C 180.703125 430.15625 180.976562 429.628906 181.207031 429.074219 C 181.433594 428.523438 181.609375 427.953125 181.734375 427.367188 C 181.859375 426.78125 181.929688 426.191406 181.949219 425.59375 C 181.964844 424.996094 181.929688 424.398438 181.839844 423.808594 Z M 181.839844 423.808594 " fill-opacity="1" fill-rule="nonzero"/><path fill="#ffffff" d="M 168.96875 312.453125 L 161.625 307.246094 C 161.625 307.246094 144.828125 306.285156 142.382812 320.089844 L 111.578125 370.8125 L 149.773438 423.554688 L 168.289062 404.046875 L 144.925781 376.714844 L 164.542969 340.660156 Z M 168.96875 312.453125 " fill-opacity="1" fill-rule="nonzero"/><path fill="#3f3d56" d="M 347.875 320.488281 L 347.492188 320.488281 L 347.492188 309.925781 C 347.492188 309.523438 347.453125 309.125 347.375 308.734375 C 347.296875 308.339844 347.179688 307.957031 347.027344 307.585938 C 346.871094 307.214844 346.683594 306.863281 346.460938 306.527344 C 346.238281 306.195312 345.984375 305.886719 345.703125 305.601562 C 345.417969 305.320312 345.109375 305.066406 344.777344 304.84375 C 344.441406 304.617188 344.089844 304.429688 343.71875 304.277344 C 343.351562 304.125 342.96875 304.007812 342.574219 303.929688 C 342.179688 303.851562 341.785156 303.8125 341.382812 303.8125 L 319.023438 303.8125 C 318.621094 303.8125 318.226562 303.851562 317.832031 303.929688 C 317.4375 304.007812 317.058594 304.125 316.6875 304.277344 C 316.316406 304.429688 315.964844 304.617188 315.628906 304.84375 C 315.296875 305.066406 314.988281 305.320312 314.703125 305.601562 C 314.421875 305.886719 314.167969 306.195312 313.945312 306.527344 C 313.722656 306.863281 313.535156 307.214844 313.378906 307.585938 C 313.226562 307.957031 313.109375 308.339844 313.03125 308.734375 C 312.953125 309.125 312.914062 309.523438 312.914062 309.925781 L 312.914062 367.878906 C 312.914062 368.28125 312.953125 368.679688 313.03125 369.074219 C 313.109375 369.464844 313.226562 369.847656 313.378906 370.21875 C 313.535156 370.589844 313.722656 370.941406 313.945312 371.277344 C 314.167969 371.609375 314.421875 371.917969 314.703125 372.203125 C 314.988281 372.488281 315.296875 372.742188 315.628906 372.964844 C 315.964844 373.1875 316.316406 373.375 316.6875 373.527344 C 317.058594 373.683594 317.4375 373.796875 317.832031 373.875 C 318.226562 373.953125 318.621094 373.992188 319.023438 373.992188 L 341.382812 373.992188 C 341.785156 373.992188 342.179688 373.953125 342.574219 373.875 C 342.96875 373.796875 343.351562 373.683594 343.71875 373.527344 C 344.089844 373.375 344.441406 373.1875 344.777344 372.964844 C 345.109375 372.742188 345.417969 372.488281 345.703125 372.203125 C 345.984375 371.917969 346.238281 371.609375 346.460938 371.277344 C 346.683594 370.941406 346.871094 370.589844 347.027344 370.21875 C 347.179688 369.847656 347.296875 369.464844 347.375 369.074219 C 347.453125 368.679688 347.492188 368.28125 347.492188 367.878906 L 347.492188 328.007812 L 347.875 328.007812 Z M 347.875 320.488281 " fill-opacity="1" fill-rule="nonzero"/><path fill="#0048ff" d="M 341.628906 305.402344 L 338.710938 305.402344 C 338.777344 305.566406 338.824219 305.738281 338.847656 305.914062 C 338.875 306.089844 338.878906 306.265625 338.859375 306.441406 C 338.84375 306.621094 338.800781 306.792969 338.742188 306.960938 C 338.683594 307.125 338.601562 307.285156 338.503906 307.429688 C 338.402344 307.578125 338.289062 307.710938 338.15625 307.832031 C 338.023438 307.949219 337.878906 308.050781 337.722656 308.136719 C 337.566406 308.21875 337.402344 308.28125 337.230469 308.324219 C 337.058594 308.371094 336.882812 308.390625 336.703125 308.390625 L 323.894531 308.390625 C 323.71875 308.390625 323.542969 308.371094 323.371094 308.324219 C 323.199219 308.28125 323.03125 308.21875 322.875 308.136719 C 322.71875 308.050781 322.574219 307.949219 322.441406 307.832031 C 322.3125 307.710938 322.195312 307.578125 322.097656 307.429688 C 321.996094 307.285156 321.917969 307.125 321.855469 306.960938 C 321.796875 306.792969 321.757812 306.621094 321.738281 306.441406 C 321.722656 306.265625 321.726562 306.089844 321.75 305.914062 C 321.773438 305.738281 321.820312 305.566406 321.886719 305.402344 L 319.164062 305.402344 C 318.863281 305.402344 318.566406 305.429688 318.273438 305.488281 C 317.980469 305.546875 317.695312 305.636719 317.417969 305.75 C 317.140625 305.863281 316.878906 306.003906 316.628906 306.171875 C 316.378906 306.339844 316.148438 306.527344 315.9375 306.738281 C 315.726562 306.953125 315.535156 307.183594 315.371094 307.429688 C 315.203125 307.679688 315.0625 307.945312 314.949219 308.222656 C 314.832031 308.496094 314.746094 308.785156 314.6875 309.078125 C 314.628906 309.371094 314.601562 309.667969 314.601562 309.96875 L 314.601562 367.835938 C 314.601562 368.136719 314.628906 368.433594 314.6875 368.726562 C 314.746094 369.023438 314.832031 369.308594 314.949219 369.585938 C 315.0625 369.863281 315.203125 370.125 315.371094 370.375 C 315.535156 370.625 315.726562 370.855469 315.9375 371.066406 C 316.148438 371.277344 316.378906 371.46875 316.628906 371.632812 C 316.878906 371.800781 317.140625 371.941406 317.417969 372.054688 C 317.695312 372.171875 317.980469 372.257812 318.273438 372.316406 C 318.566406 372.375 318.863281 372.402344 319.164062 372.402344 L 341.628906 372.402344 C 341.929688 372.402344 342.226562 372.375 342.519531 372.316406 C 342.8125 372.257812 343.097656 372.171875 343.375 372.054688 C 343.652344 371.941406 343.914062 371.800781 344.164062 371.632812 C 344.414062 371.46875 344.644531 371.277344 344.855469 371.066406 C 345.066406 370.855469 345.253906 370.625 345.421875 370.375 C 345.589844 370.125 345.730469 369.863281 345.84375 369.585938 C 345.957031 369.308594 346.042969 369.023438 346.101562 368.726562 C 346.160156 368.433594 346.191406 368.136719 346.191406 367.835938 L 346.191406 309.96875 C 346.191406 309.667969 346.160156 309.371094 346.101562 309.078125 C 346.042969 308.785156 345.957031 308.496094 345.84375 308.222656 C 345.730469 307.945312 345.589844 307.679688 345.421875 307.429688 C 345.253906 307.183594 345.066406 306.953125 344.855469 306.738281 C 344.644531 306.527344 344.414062 306.339844 344.164062 306.171875 C 343.914062 306.003906 343.652344 305.863281 343.375 305.75 C 343.097656 305.636719 342.8125 305.546875 342.519531 305.488281 C 342.226562 305.429688 341.929688 305.402344 341.628906 305.402344 Z M 341.628906 305.402344 " fill-opacity="1" fill-rule="nonzero"/><g clip-path="url(#52d63230ef)"><path fill="#ffffff" d="M 543.3125 284.792969 L 379.34375 284.792969 C 378.839844 284.792969 378.351562 284.695312 377.886719 284.503906 C 377.417969 284.308594 377.007812 284.03125 376.648438 283.675781 C 376.292969 283.316406 376.015625 282.90625 375.824219 282.4375 C 375.628906 281.96875 375.53125 281.484375 375.53125 280.976562 L 375.53125 179.449219 C 375.53125 178.941406 375.628906 178.457031 375.824219 177.988281 C 376.015625 177.523438 376.292969 177.109375 376.648438 176.75 C 377.007812 176.394531 377.417969 176.117188 377.886719 175.921875 C 378.351562 175.730469 378.839844 175.632812 379.34375 175.632812 L 543.3125 175.632812 C 543.816406 175.632812 544.300781 175.730469 544.769531 175.921875 C 545.238281 176.117188 545.648438 176.394531 546.007812 176.75 C 546.363281 177.109375 546.640625 177.523438 546.832031 177.988281 C 547.027344 178.457031 547.125 178.941406 547.125 179.449219 L 547.125 280.976562 C 547.125 281.484375 547.027344 281.96875 546.832031 282.4375 C 546.640625 282.90625 546.363281 283.316406 546.007812 283.675781 C 545.648438 284.03125 545.238281 284.308594 544.769531 284.503906 C 544.300781 284.695312 543.816406 284.792969 543.3125 284.792969 Z M 543.3125 284.792969 " fill-opacity="1" fill-rule="nonzero"/><path fill="#3f3d56" d="M 543.3125 284.792969 L 379.34375 284.792969 C 378.839844 284.792969 378.351562 284.695312 377.886719 284.503906 C 377.417969 284.308594 377.007812 284.03125 376.648438 283.675781 C 376.292969 283.316406 376.015625 282.90625 375.824219 282.4375 C 375.628906 281.96875 375.53125 281.484375 375.53125 280.976562 L 375.53125 179.449219 C 375.53125 178.941406 375.628906 178.457031 375.824219 177.988281 C 376.015625 177.523438 376.292969 177.109375 376.648438 176.75 C 377.007812 176.394531 377.417969 176.117188 377.886719 175.921875 C 378.351562 175.730469 378.839844 175.632812 379.34375 175.632812 L 543.3125 175.632812 C 543.816406 175.632812 544.300781 175.730469 544.769531 175.921875 C 545.238281 176.117188 545.648438 176.394531 546.007812 176.75 C 546.363281 177.109375 546.640625 177.523438 546.832031 177.988281 C 547.027344 178.457031 547.125 178.941406 547.125 179.449219 L 547.125 280.976562 C 547.125 281.484375 547.027344 281.96875 546.832031 282.4375 C 546.640625 282.90625 546.363281 283.316406 546.007812 283.675781 C 545.648438 284.03125 545.238281 284.308594 544.769531 284.503906 C 544.300781 284.695312 543.816406 284.792969 543.3125 284.792969 Z M 379.34375 177.160156 C 379.042969 177.160156 378.75 177.21875 378.46875 177.332031 C 378.1875 177.449219 377.941406 177.617188 377.726562 177.832031 C 377.511719 178.042969 377.347656 178.292969 377.230469 178.574219 C 377.117188 178.851562 377.058594 179.144531 377.058594 179.449219 L 377.058594 280.976562 C 377.058594 281.28125 377.117188 281.574219 377.230469 281.851562 C 377.347656 282.132812 377.511719 282.382812 377.726562 282.597656 C 377.941406 282.8125 378.1875 282.976562 378.46875 283.09375 C 378.75 283.207031 379.042969 283.265625 379.34375 283.269531 L 543.3125 283.269531 C 543.613281 283.265625 543.90625 283.207031 544.1875 283.09375 C 544.464844 282.976562 544.714844 282.8125 544.929688 282.597656 C 545.140625 282.382812 545.308594 282.132812 545.425781 281.851562 C 545.539062 281.574219 545.597656 281.28125 545.597656 280.976562 L 545.597656 179.449219 C 545.597656 179.144531 545.539062 178.851562 545.425781 178.574219 C 545.308594 178.292969 545.140625 178.042969 544.929688 177.832031 C 544.714844 177.617188 544.464844 177.449219 544.1875 177.332031 C 543.90625 177.21875 543.613281 177.160156 543.3125 177.160156 Z M 379.34375 177.160156 " fill-opacity="1" fill-rule="nonzero"/></g><path fill="#cccccc" d="M 510.898438 209.539062 L 411.757812 209.539062 C 411.300781 209.539062 410.863281 209.453125 410.441406 209.277344 C 410.023438 209.105469 409.652344 208.855469 409.328125 208.535156 C 409.007812 208.210938 408.761719 207.839844 408.585938 207.417969 C 408.410156 207 408.324219 206.558594 408.324219 206.105469 C 408.324219 205.648438 408.410156 205.210938 408.585938 204.789062 C 408.761719 204.367188 409.007812 203.996094 409.328125 203.675781 C 409.652344 203.351562 410.023438 203.105469 410.441406 202.929688 C 410.863281 202.757812 411.300781 202.667969 411.757812 202.667969 L 510.898438 202.667969 C 511.355469 202.667969 511.792969 202.757812 512.210938 202.929688 C 512.632812 203.105469 513.003906 203.351562 513.324219 203.675781 C 513.648438 203.996094 513.894531 204.367188 514.070312 204.789062 C 514.242188 205.210938 514.332031 205.648438 514.332031 206.105469 C 514.332031 206.558594 514.242188 207 514.070312 207.417969 C 513.894531 207.839844 513.648438 208.210938 513.324219 208.535156 C 513.003906 208.855469 512.632812 209.105469 512.210938 209.277344 C 511.792969 209.453125 511.355469 209.539062 510.898438 209.539062 Z M 510.898438 209.539062 " fill-opacity="1" fill-rule="nonzero"/><path fill="#cccccc" d="M 510.898438 233.203125 L 411.757812 233.203125 C 411.300781 233.207031 410.863281 233.117188 410.441406 232.945312 C 410.019531 232.769531 409.648438 232.523438 409.324219 232.199219 C 409.003906 231.878906 408.753906 231.507812 408.578125 231.085938 C 408.40625 230.664062 408.316406 230.226562 408.316406 229.769531 C 408.316406 229.3125 408.40625 228.875 408.578125 228.453125 C 408.753906 228.03125 409.003906 227.660156 409.324219 227.335938 C 409.648438 227.015625 410.019531 226.765625 410.441406 226.59375 C 410.863281 226.417969 411.300781 226.332031 411.757812 226.332031 L 510.898438 226.332031 C 511.355469 226.335938 511.789062 226.421875 512.210938 226.597656 C 512.628906 226.773438 513 227.019531 513.320312 227.34375 C 513.640625 227.664062 513.890625 228.035156 514.0625 228.457031 C 514.238281 228.875 514.324219 229.3125 514.324219 229.769531 C 514.324219 230.222656 514.238281 230.660156 514.0625 231.082031 C 513.890625 231.503906 513.640625 231.875 513.320312 232.195312 C 513 232.519531 512.628906 232.765625 512.210938 232.941406 C 511.789062 233.117188 511.355469 233.203125 510.898438 233.203125 Z M 510.898438 233.203125 " fill-opacity="1" fill-rule="nonzero"/><path fill="#0048ff" d="M 514.332031 258.449219 C 514.332031 259.253906 514.253906 260.054688 514.09375 260.84375 C 513.9375 261.632812 513.707031 262.402344 513.398438 263.144531 C 513.089844 263.890625 512.710938 264.597656 512.265625 265.269531 C 511.816406 265.9375 511.308594 266.558594 510.738281 267.128906 C 510.167969 267.699219 509.550781 268.207031 508.878906 268.65625 C 508.210938 269.105469 507.503906 269.480469 506.761719 269.789062 C 506.015625 270.097656 505.25 270.332031 504.460938 270.488281 C 503.667969 270.644531 502.871094 270.726562 502.066406 270.726562 C 501.261719 270.726562 500.464844 270.644531 499.675781 270.488281 C 498.882812 270.332031 498.117188 270.097656 497.375 269.789062 C 496.628906 269.480469 495.921875 269.105469 495.253906 268.65625 C 494.582031 268.207031 493.964844 267.699219 493.394531 267.128906 C 492.824219 266.558594 492.316406 265.9375 491.867188 265.269531 C 491.421875 264.597656 491.042969 263.890625 490.734375 263.144531 C 490.425781 262.402344 490.195312 261.632812 490.039062 260.84375 C 489.878906 260.054688 489.800781 259.253906 489.800781 258.449219 C 489.800781 257.640625 489.878906 256.84375 490.039062 256.054688 C 490.195312 255.261719 490.425781 254.496094 490.734375 253.75 C 491.042969 253.003906 491.421875 252.296875 491.867188 251.628906 C 492.316406 250.957031 492.824219 250.335938 493.394531 249.769531 C 493.964844 249.199219 494.582031 248.6875 495.253906 248.242188 C 495.921875 247.792969 496.628906 247.414062 497.375 247.105469 C 498.117188 246.796875 498.882812 246.566406 499.675781 246.40625 C 500.464844 246.25 501.261719 246.171875 502.066406 246.171875 C 502.871094 246.171875 503.667969 246.25 504.460938 246.40625 C 505.25 246.566406 506.015625 246.796875 506.761719 247.105469 C 507.503906 247.414062 508.210938 247.792969 508.878906 248.242188 C 509.550781 248.6875 510.167969 249.199219 510.738281 249.769531 C 511.308594 250.335938 511.816406 250.957031 512.265625 251.628906 C 512.710938 252.296875 513.089844 253.003906 513.398438 253.75 C 513.707031 254.496094 513.9375 255.261719 514.09375 256.054688 C 514.253906 256.84375 514.332031 257.640625 514.332031 258.449219 Z M 514.332031 258.449219 " fill-opacity="1" fill-rule="nonzero"/><path fill="#ffffff" d="M 502.402344 252.664062 L 502.402344 251.496094 L 502.75 251.496094 L 502.75 252.664062 C 503.242188 252.6875 503.714844 252.800781 504.164062 253.011719 C 504.492188 253.164062 504.761719 253.390625 504.972656 253.683594 C 505.167969 253.960938 505.265625 254.265625 505.261719 254.605469 C 505.269531 254.855469 505.195312 255.074219 505.035156 255.265625 C 504.894531 255.449219 504.707031 255.539062 504.480469 255.535156 C 504.308594 255.539062 504.167969 255.480469 504.046875 255.359375 C 503.925781 255.238281 503.867188 255.089844 503.871094 254.917969 C 503.871094 254.804688 503.894531 254.695312 503.941406 254.589844 L 504.078125 254.296875 C 504.128906 254.171875 504.152344 254.042969 504.148438 253.910156 C 504.152344 253.703125 504.089844 253.511719 503.964844 253.347656 C 503.824219 253.171875 503.652344 253.050781 503.441406 252.980469 C 503.214844 252.90625 502.984375 252.859375 502.75 252.84375 L 502.75 257.050781 L 502.824219 257.097656 C 503.554688 257.484375 504.203125 257.972656 504.769531 258.566406 C 505.023438 258.867188 505.21875 259.199219 505.359375 259.5625 C 505.5 259.917969 505.570312 260.285156 505.570312 260.667969 C 505.578125 261.167969 505.453125 261.628906 505.203125 262.0625 C 504.953125 262.480469 504.613281 262.800781 504.179688 263.023438 C 503.726562 263.246094 503.25 263.382812 502.75 263.4375 L 502.75 264.691406 L 502.402344 264.691406 L 502.402344 263.460938 C 501.898438 263.457031 501.410156 263.355469 500.941406 263.160156 C 500.472656 262.984375 500.078125 262.703125 499.761719 262.316406 C 499.480469 261.960938 499.339844 261.558594 499.34375 261.105469 C 499.332031 260.789062 499.421875 260.503906 499.613281 260.25 C 499.769531 260.019531 499.988281 259.902344 500.265625 259.898438 C 500.429688 259.894531 500.570312 259.949219 500.683594 260.0625 C 500.800781 260.179688 500.855469 260.320312 500.851562 260.480469 C 500.824219 260.726562 500.730469 260.9375 500.566406 261.121094 C 500.484375 261.230469 500.414062 261.347656 500.355469 261.472656 C 500.316406 261.570312 500.296875 261.671875 500.296875 261.78125 C 500.296875 262.066406 500.390625 262.324219 500.570312 262.550781 C 500.765625 262.800781 501.007812 262.984375 501.304688 263.101562 C 501.636719 263.230469 501.984375 263.292969 502.339844 263.285156 L 502.402344 263.285156 L 502.402344 258.257812 L 501.964844 258.003906 C 501.550781 257.765625 501.234375 257.5625 501.015625 257.40625 C 500.800781 257.25 500.605469 257.074219 500.425781 256.882812 C 499.96875 256.394531 499.742188 255.8125 499.742188 255.144531 C 499.742188 254.734375 499.839844 254.351562 500.035156 253.992188 C 500.230469 253.636719 500.496094 253.347656 500.84375 253.132812 C 501.324219 252.84375 501.84375 252.6875 502.402344 252.664062 Z M 502.402344 252.835938 C 502.101562 252.84375 501.816406 252.90625 501.539062 253.027344 C 501.257812 253.164062 501.042969 253.371094 500.894531 253.648438 C 500.726562 253.945312 500.644531 254.265625 500.652344 254.609375 C 500.648438 255.027344 500.765625 255.410156 501.011719 255.753906 C 501.136719 255.9375 501.285156 256.097656 501.457031 256.238281 C 501.734375 256.445312 502.027344 256.632812 502.328125 256.804688 L 502.402344 256.851562 Z M 502.75 263.269531 C 502.949219 263.253906 503.140625 263.210938 503.332031 263.144531 C 503.484375 263.085938 503.625 263.003906 503.75 262.898438 C 503.992188 262.695312 504.171875 262.445312 504.289062 262.148438 C 504.421875 261.824219 504.488281 261.488281 504.488281 261.136719 C 504.457031 260.570312 504.285156 260.046875 503.972656 259.574219 C 503.664062 259.097656 503.253906 258.730469 502.75 258.476562 Z M 502.75 263.269531 " fill-opacity="1" fill-rule="nonzero"/><g clip-path="url(#0439531817)"><path fill="#cacaca" d="M 371.65625 634.632812 L 37.886719 634.632812 C 37.644531 634.632812 37.4375 634.546875 37.269531 634.375 C 37.097656 634.203125 37.011719 633.996094 37.011719 633.753906 C 37.011719 633.511719 37.097656 633.304688 37.269531 633.136719 C 37.4375 632.964844 37.644531 632.878906 37.886719 632.878906 L 371.65625 632.878906 C 371.898438 632.878906 372.105469 632.964844 372.277344 633.136719 C 372.449219 633.304688 372.53125 633.511719 372.53125 633.753906 C 372.53125 633.996094 372.449219 634.203125 372.277344 634.375 C 372.105469 634.546875 371.898438 634.632812 371.65625 634.632812 Z M 371.65625 634.632812 " fill-opacity="1" fill-rule="nonzero"/></g></svg>