<svg xmlns="http://www.w3.org/2000/svg" xmlns:xlink="http://www.w3.org/1999/xlink" width="1080" zoomAndPan="magnify" viewBox="0 0 810 809.999993" height="1080" preserveAspectRatio="xMidYMid meet" version="1.0"><defs><filter x="0%" y="0%" width="100%" height="100%" id="82a073034e"><feColorMatrix values="0 0 0 0 1 0 0 0 0 1 0 0 0 0 1 0 0 0 1 0" color-interpolation-filters="sRGB"/></filter><mask id="1a0bfce827"><g filter="url(#82a073034e)"><rect x="-81" width="972" fill="#000000" y="-80.999999" height="971.999992" fill-opacity="0.098"/></g></mask><clipPath id="8c4b71bb2f"><path d="M 0.320312 1 L 603 1 L 603 589 L 0.320312 589 Z M 0.320312 1 " clip-rule="nonzero"/></clipPath><clipPath id="75c28a9c89"><rect x="0" width="604" y="0" height="591"/></clipPath><clipPath id="ef1847f87b"><path d="M 500 635 L 530 635 L 530 673.695312 L 500 673.695312 Z M 500 635 " clip-rule="nonzero"/></clipPath><clipPath id="9aa30aeeb9"><path d="M 472 632 L 503 632 L 503 673.695312 L 472 673.695312 Z M 472 632 " clip-rule="nonzero"/></clipPath><clipPath id="5577a22297"><path d="M 180.074219 671 L 630.074219 671 L 630.074219 673.695312 L 180.074219 673.695312 Z M 180.074219 671 " clip-rule="nonzero"/></clipPath><clipPath id="fd9a003115"><path d="M 258 135.945312 L 509 135.945312 L 509 673.695312 L 258 673.695312 Z M 258 135.945312 " clip-rule="nonzero"/></clipPath></defs><g mask="url(#1a0bfce827)"><g transform="matrix(1, 0, 0, 1, 106, 114)"><g clip-path="url(#75c28a9c89)"><g clip-path="url(#8c4b71bb2f)"><path fill="#0048ff" d="M 45.59375 486.105469 C 78.753906 527.148438 131.25 546.523438 181.566406 562.402344 C 223.980469 575.777344 267.386719 588.078125 311.855469 588.867188 C 356.320312 589.652344 402.542969 577.769531 435.546875 547.957031 C 488.308594 500.296875 495.25 421.773438 519.496094 354.9375 C 534.699219 313.023438 557.59375 274.371094 575.546875 233.5625 C 593.5 192.75 606.636719 148.085938 600.570312 103.921875 C 594.5 59.75 565.382812 16.535156 522.363281 4.808594 C 475.109375 -8.066406 426.972656 18.320312 385.089844 43.703125 C 344.390625 68.371094 303.691406 93.039062 262.992188 117.707031 C 237.640625 133.070312 211.425781 148.757812 182.109375 153.144531 C 110.90625 163.792969 27.140625 119.546875 9.730469 217.339844 C -4.710938 298.429688 -8.835938 418.738281 45.59375 486.105469 " fill-opacity="1" fill-rule="nonzero"/></g></g></g></g><path fill="#2f2e41" d="M 540.992188 321.75 L 496.597656 321.75 L 496.597656 307.148438 C 496.597656 282.667969 516.488281 262.796875 540.992188 262.796875 Z M 540.992188 321.75 " fill-opacity="1" fill-rule="nonzero"/><path fill="#a0616a" d="M 531.152344 294.488281 L 538.785156 328.789062 L 494.054688 321.367188 L 512.285156 288.929688 Z M 531.152344 294.488281 " fill-opacity="1" fill-rule="nonzero"/><path fill="#000000" d="M 531.152344 294.488281 L 538.785156 328.789062 L 494.054688 321.367188 L 512.285156 288.929688 Z M 531.152344 294.488281 " fill-opacity="0.098" fill-rule="nonzero"/><path fill="#a0616a" d="M 531.152344 431.164062 L 488.269531 431.164062 L 488.269531 367.757812 L 531.152344 367.757812 Z M 531.152344 431.164062 " fill-opacity="1" fill-rule="nonzero"/><path fill="#2f2e41" d="M 559.027344 483.003906 L 549.59375 533.554688 C 549.59375 533.554688 555.597656 568.6875 537.585938 604.671875 L 525.578125 641.515625 L 507.566406 638.945312 C 507.566406 638.945312 518.714844 611.527344 518.714844 599.53125 C 518.714844 587.535156 521.289062 541.265625 521.289062 541.265625 L 520.003906 488.472656 Z M 559.027344 483.003906 " fill-opacity="1" fill-rule="nonzero"/><g clip-path="url(#ef1847f87b)"><path fill="#2f2e41" d="M 504.992188 638.089844 C 504.992188 638.089844 525.578125 630.378906 527.292969 641.515625 L 526.433594 646.65625 C 526.433594 646.65625 534.152344 669.792969 523.003906 671.507812 C 511.855469 673.21875 501.5625 675.789062 500.703125 670.648438 C 499.847656 665.507812 499.859375 659.089844 501.996094 654.589844 C 504.136719 650.085938 504.992188 638.089844 504.992188 638.089844 Z M 504.992188 638.089844 " fill-opacity="1" fill-rule="nonzero"/></g><path fill="#2f2e41" d="M 494.101562 475.160156 L 489.089844 526.339844 C 489.089844 526.339844 473.542969 558.417969 480.824219 597.988281 L 482.101562 636.714844 L 500.117188 639.25 C 500.117188 639.25 497.042969 609.816406 500.378906 598.292969 C 503.71875 586.769531 514.128906 541.613281 514.128906 541.613281 L 530.0625 491.257812 Z M 494.101562 475.160156 " fill-opacity="1" fill-rule="nonzero"/><g clip-path="url(#9aa30aeeb9)"><path fill="#2f2e41" d="M 502.828125 639.140625 C 502.828125 639.140625 485.203125 626.015625 480.453125 636.238281 L 479.847656 641.414062 C 479.847656 641.414062 465.992188 661.492188 476.226562 666.234375 C 486.457031 670.980469 495.628906 676.308594 497.882812 671.609375 C 500.136719 666.910156 501.914062 660.742188 501.113281 655.820312 C 500.3125 650.902344 502.828125 639.140625 502.828125 639.140625 Z M 502.828125 639.140625 " fill-opacity="1" fill-rule="nonzero"/></g><path fill="#2f2e41" d="M 548.734375 402.03125 C 568.90625 420.835938 570.402344 450.59375 558.597656 486 C 558.597656 486 520.859375 511.707031 493.414062 479.148438 L 479.691406 413.171875 Z M 548.734375 402.03125 " fill-opacity="1" fill-rule="nonzero"/><path fill="#0048ff" d="M 514.855469 310.351562 L 536.296875 313.777344 L 534.582031 367.757812 L 558.597656 415.742188 L 527.722656 431.164062 C 527.722656 431.164062 503.707031 385.753906 499.417969 357.476562 C 495.128906 329.203125 497.703125 308.636719 497.703125 308.636719 Z M 514.855469 310.351562 " fill-opacity="1" fill-rule="nonzero"/><path fill="#0048ff" d="M 498.558594 312.066406 L 477.117188 315.492188 L 478.832031 369.472656 L 473.6875 419.167969 L 485.695312 432.878906 C 485.695312 432.878906 509.710938 387.464844 514 359.191406 C 518.289062 330.914062 515.714844 310.351562 515.714844 310.351562 Z M 498.558594 312.066406 " fill-opacity="1" fill-rule="nonzero"/><path fill="#0048ff" d="M 524.289062 313.351562 L 529.007812 312.066406 C 529.007812 312.066406 545.734375 309.921875 548.304688 316.777344 C 550.878906 323.632812 550.019531 363.902344 550.019531 363.902344 C 550.019531 363.902344 554.445312 413.328125 537.226562 413.894531 C 520.003906 414.457031 523.433594 373.328125 523.433594 373.328125 Z M 524.289062 313.351562 " fill-opacity="1" fill-rule="nonzero"/><path fill="#a0616a" d="M 545.863281 281.726562 C 545.863281 282.453125 545.828125 283.175781 545.757812 283.902344 C 545.6875 284.625 545.582031 285.339844 545.4375 286.054688 C 545.296875 286.765625 545.121094 287.46875 544.910156 288.164062 C 544.699219 288.859375 544.453125 289.542969 544.175781 290.214844 C 543.898438 290.882812 543.585938 291.539062 543.242188 292.179688 C 542.902344 292.820312 542.527344 293.441406 542.125 294.046875 C 541.71875 294.652344 541.289062 295.234375 540.828125 295.796875 C 540.363281 296.355469 539.878906 296.894531 539.363281 297.40625 C 538.847656 297.921875 538.3125 298.40625 537.75 298.867188 C 537.1875 299.328125 536.605469 299.761719 536 300.164062 C 535.394531 300.570312 534.773438 300.941406 534.132812 301.285156 C 533.488281 301.625 532.832031 301.9375 532.160156 302.214844 C 531.492188 302.492188 530.808594 302.738281 530.109375 302.949219 C 529.414062 303.160156 528.710938 303.335938 527.996094 303.476562 C 527.285156 303.617188 526.566406 303.722656 525.84375 303.796875 C 525.121094 303.867188 524.394531 303.902344 523.667969 303.902344 C 522.941406 303.902344 522.214844 303.867188 521.492188 303.796875 C 520.769531 303.722656 520.050781 303.617188 519.335938 303.476562 C 518.625 303.335938 517.917969 303.160156 517.222656 302.949219 C 516.527344 302.738281 515.84375 302.492188 515.171875 302.214844 C 514.5 301.9375 513.84375 301.625 513.203125 301.285156 C 512.5625 300.941406 511.9375 300.570312 511.335938 300.164062 C 510.730469 299.761719 510.148438 299.328125 509.585938 298.867188 C 509.023438 298.40625 508.484375 297.921875 507.972656 297.40625 C 507.457031 296.894531 506.96875 296.355469 506.507812 295.796875 C 506.046875 295.234375 505.613281 294.652344 505.210938 294.046875 C 504.808594 293.441406 504.433594 292.820312 504.089844 292.179688 C 503.746094 291.539062 503.4375 290.882812 503.160156 290.214844 C 502.882812 289.542969 502.636719 288.859375 502.425781 288.164062 C 502.214844 287.46875 502.039062 286.765625 501.894531 286.054688 C 501.753906 285.339844 501.648438 284.625 501.578125 283.902344 C 501.503906 283.175781 501.46875 282.453125 501.46875 281.726562 C 501.46875 281 501.503906 280.277344 501.578125 279.554688 C 501.648438 278.832031 501.753906 278.113281 501.894531 277.402344 C 502.039062 276.6875 502.214844 275.984375 502.425781 275.289062 C 502.636719 274.59375 502.882812 273.910156 503.160156 273.242188 C 503.4375 272.570312 503.746094 271.914062 504.089844 271.273438 C 504.433594 270.632812 504.808594 270.011719 505.210938 269.40625 C 505.613281 268.804688 506.046875 268.21875 506.507812 267.660156 C 506.96875 267.097656 507.457031 266.558594 507.972656 266.046875 C 508.484375 265.53125 509.023438 265.046875 509.585938 264.585938 C 510.148438 264.125 510.730469 263.691406 511.335938 263.289062 C 511.9375 262.886719 512.5625 262.511719 513.203125 262.167969 C 513.84375 261.828125 514.5 261.515625 515.171875 261.238281 C 515.84375 260.960938 516.527344 260.71875 517.222656 260.507812 C 517.917969 260.296875 518.625 260.117188 519.335938 259.976562 C 520.050781 259.835938 520.769531 259.730469 521.492188 259.65625 C 522.214844 259.585938 522.941406 259.550781 523.667969 259.550781 C 524.394531 259.550781 525.121094 259.585938 525.84375 259.65625 C 526.566406 259.730469 527.285156 259.835938 527.996094 259.976562 C 528.710938 260.117188 529.414062 260.296875 530.109375 260.507812 C 530.808594 260.71875 531.492188 260.960938 532.160156 261.238281 C 532.832031 261.515625 533.488281 261.828125 534.132812 262.167969 C 534.773438 262.511719 535.394531 262.886719 536 263.289062 C 536.605469 263.691406 537.1875 264.125 537.75 264.585938 C 538.3125 265.046875 538.847656 265.53125 539.363281 266.046875 C 539.878906 266.558594 540.363281 267.097656 540.828125 267.660156 C 541.289062 268.21875 541.71875 268.804688 542.125 269.40625 C 542.527344 270.011719 542.902344 270.632812 543.242188 271.273438 C 543.585938 271.914062 543.898438 272.570312 544.175781 273.242188 C 544.453125 273.910156 544.699219 274.59375 544.910156 275.289062 C 545.121094 275.984375 545.296875 276.6875 545.4375 277.402344 C 545.582031 278.113281 545.6875 278.832031 545.757812 279.554688 C 545.828125 280.277344 545.863281 281 545.863281 281.726562 Z M 545.863281 281.726562 " fill-opacity="1" fill-rule="nonzero"/><path fill="#0048ff" d="M 495.988281 315.0625 L 491.269531 313.777344 C 491.269531 313.777344 474.546875 311.636719 471.972656 318.492188 C 469.398438 325.347656 470.257812 365.617188 470.257812 365.617188 C 470.257812 365.617188 465.832031 415.042969 483.054688 415.605469 C 500.277344 416.171875 496.84375 375.042969 496.84375 375.042969 Z M 495.988281 315.0625 " fill-opacity="1" fill-rule="nonzero"/><path fill="#a0616a" d="M 510.84375 312.246094 C 506.082031 311.039062 500.683594 316.121094 498.785156 323.597656 C 497.984375 326.574219 497.910156 329.699219 498.566406 332.710938 L 496.519531 341.210938 L 496.371094 341.203125 L 480.230469 379.203125 C 476.476562 388.039062 476.875 398.179688 481.660156 406.503906 C 484.507812 411.453125 488.246094 414.78125 492.636719 411.382812 C 499.917969 405.746094 504.675781 373.46875 506.847656 354.929688 L 511.867188 336.082031 C 513.882812 333.75 515.308594 330.964844 516.027344 327.964844 C 517.929688 320.492188 515.605469 313.453125 510.84375 312.246094 Z M 510.84375 312.246094 " fill-opacity="1" fill-rule="nonzero"/><path fill="#2f2e41" d="M 481.171875 299.667969 C 482.300781 296.238281 484.527344 293.234375 485.527344 289.765625 C 486.851562 285.15625 489.667969 295.378906 489.945312 290.59375 C 490.46875 281.496094 504.363281 258.097656 512.296875 253.601562 C 520.230469 249.105469 524.789062 250.460938 532.871094 254.683594 C 532.871094 254.683594 536.796875 254.933594 541.679688 257.34375 C 546.566406 259.75 550.960938 263.609375 552.859375 268.710938 C 554.367188 272.753906 554.199219 277.191406 554.703125 281.476562 C 556.105469 293.414062 562.800781 304.765625 561.363281 316.695312 C 560.917969 320.417969 559.5 324.265625 556.453125 326.457031 C 553.40625 328.644531 548.484375 328.40625 546.480469 325.238281 C 545.796875 324.15625 545.503906 322.875 544.917969 321.738281 C 544.332031 320.597656 543.273438 319.539062 541.992188 319.574219 C 540.070312 319.628906 539.089844 322.207031 539.847656 323.972656 C 540.605469 325.742188 542.390625 326.808594 544.0625 327.757812 C 540.078125 329.550781 535.128906 328.992188 531.644531 326.355469 C 528.15625 323.722656 526.273438 319.117188 526.914062 314.796875 C 527.820312 308.707031 536.699219 309.96875 537.746094 303.902344 C 538.503906 299.488281 541.179688 292.097656 540.453125 287.675781 C 539.722656 283.253906 536.226562 288.609375 539.910156 286.054688 C 535.855469 288.007812 527.183594 274.648438 522.941406 273.152344 C 518.695312 271.65625 515.097656 268.417969 513.167969 264.355469 C 508.667969 270.875 504.707031 269.105469 503.09375 276.859375 C 501.480469 284.613281 502.972656 302.230469 509.609375 306.558594 C 506.953125 308.371094 504.835938 310.960938 503.589844 313.921875 C 502.882812 315.597656 502.425781 317.433594 501.253906 318.828125 C 499.015625 321.488281 494.882812 321.652344 491.585938 320.53125 C 487.503906 319.144531 484.011719 316.097656 482.085938 312.238281 C 480.160156 308.382812 479.824219 303.761719 481.171875 299.667969 Z M 481.171875 299.667969 " fill-opacity="1" fill-rule="nonzero"/><g clip-path="url(#5577a22297)"><path fill="#3f3d56" d="M 180.074219 672.445312 C 180.074219 673.011719 180.527344 673.464844 181.09375 673.464844 L 629.050781 673.464844 C 629.617188 673.464844 630.074219 673.011719 630.074219 672.445312 C 630.074219 671.878906 629.617188 671.425781 629.050781 671.425781 L 181.09375 671.425781 C 180.527344 671.425781 180.074219 671.878906 180.074219 672.445312 Z M 180.074219 672.445312 " fill-opacity="1" fill-rule="nonzero"/></g><path fill="#ffffff" d="M 471.71875 136.808594 L 295.320312 136.808594 C 275.316406 136.808594 259.097656 153.011719 259.097656 172.992188 L 259.097656 636.054688 C 259.097656 656.039062 275.316406 672.238281 295.320312 672.238281 L 471.71875 672.238281 C 491.722656 672.238281 507.9375 656.039062 507.9375 636.054688 L 507.9375 172.992188 C 507.9375 153.011719 491.722656 136.808594 471.71875 136.808594 Z M 471.71875 136.808594 " fill-opacity="1" fill-rule="nonzero"/><g clip-path="url(#fd9a003115)"><path fill="#3f3d56" d="M 471.71875 673.09375 L 295.320312 673.09375 C 274.875 673.09375 258.242188 656.476562 258.242188 636.054688 L 258.242188 172.992188 C 258.242188 152.570312 274.875 135.953125 295.320312 135.953125 L 471.71875 135.953125 C 492.160156 135.953125 508.796875 152.570312 508.796875 172.992188 L 508.796875 636.054688 C 508.796875 656.476562 492.160156 673.09375 471.71875 673.09375 Z M 295.320312 137.667969 C 275.820312 137.667969 259.957031 153.515625 259.957031 172.992188 L 259.957031 636.054688 C 259.957031 655.535156 275.820312 671.378906 295.320312 671.378906 L 471.71875 671.378906 C 491.214844 671.378906 507.078125 655.535156 507.078125 636.054688 L 507.078125 172.992188 C 507.078125 153.515625 491.214844 137.667969 471.71875 137.667969 Z M 295.320312 137.667969 " fill-opacity="1" fill-rule="nonzero"/></g><path fill="#3f3d56" d="M 244.523438 216.980469 C 242.972656 216.980469 241.714844 218.238281 241.714844 219.785156 L 241.714844 242.226562 C 241.714844 243.773438 242.972656 245.03125 244.523438 245.03125 C 246.070312 245.03125 247.332031 243.773438 247.332031 242.226562 L 247.332031 219.785156 C 247.332031 218.238281 246.070312 216.980469 244.523438 216.980469 Z M 244.523438 216.980469 " fill-opacity="1" fill-rule="nonzero"/><path fill="#e6e6e6" d="M 484.496094 210.894531 L 413.59375 210.894531 C 410.585938 210.894531 408.136719 208.449219 408.136719 205.445312 C 408.136719 202.441406 410.585938 199.996094 413.59375 199.996094 L 484.496094 199.996094 C 487.503906 199.996094 489.949219 202.441406 489.949219 205.445312 C 489.949219 208.449219 487.503906 210.894531 484.496094 210.894531 Z M 484.496094 210.894531 " fill-opacity="1" fill-rule="nonzero"/><path fill="#0048ff" d="M 417.980469 253.742188 L 349.058594 253.742188 C 347.320312 253.742188 345.90625 252.328125 345.90625 250.59375 C 345.90625 248.855469 347.320312 247.445312 349.058594 247.445312 L 417.980469 247.445312 C 419.714844 247.445312 421.128906 248.855469 421.128906 250.59375 C 421.128906 252.328125 419.714844 253.742188 417.980469 253.742188 Z M 417.980469 253.742188 " fill-opacity="1" fill-rule="nonzero"/><path fill="#0048ff" d="M 302.910156 214.839844 C 302.910156 216.625 302.820312 218.402344 302.644531 220.175781 C 302.464844 221.953125 302.199219 223.714844 301.839844 225.460938 C 301.484375 227.210938 301.042969 228.9375 300.515625 230.644531 C 299.984375 232.351562 299.371094 234.027344 298.675781 235.671875 C 297.976562 237.320312 297.199219 238.929688 296.339844 240.503906 C 295.480469 242.074219 294.542969 243.601562 293.53125 245.085938 C 292.515625 246.566406 291.433594 247.996094 290.277344 249.375 C 289.121094 250.753906 287.898438 252.074219 286.609375 253.332031 C 285.320312 254.59375 283.96875 255.789062 282.558594 256.921875 C 281.152344 258.050781 279.6875 259.113281 278.171875 260.105469 C 276.65625 261.09375 275.09375 262.011719 273.488281 262.851562 C 271.878906 263.691406 270.234375 264.453125 268.550781 265.132812 C 266.867188 265.816406 265.152344 266.417969 263.40625 266.933594 C 261.660156 267.453125 259.894531 267.882812 258.109375 268.230469 C 256.320312 268.578125 254.519531 268.839844 252.703125 269.015625 C 250.890625 269.191406 249.070312 269.277344 247.25 269.277344 C 245.425781 269.277344 243.605469 269.191406 241.792969 269.015625 C 239.976562 268.839844 238.175781 268.578125 236.390625 268.230469 C 234.601562 267.882812 232.835938 267.453125 231.089844 266.933594 C 229.347656 266.417969 227.632812 265.816406 225.949219 265.132812 C 224.261719 264.453125 222.617188 263.691406 221.007812 262.851562 C 219.402344 262.011719 217.839844 261.09375 216.324219 260.105469 C 214.808594 259.113281 213.34375 258.050781 211.9375 256.921875 C 210.527344 255.789062 209.179688 254.59375 207.890625 253.332031 C 206.601562 252.074219 205.378906 250.753906 204.21875 249.375 C 203.0625 247.996094 201.980469 246.566406 200.964844 245.085938 C 199.953125 243.601562 199.019531 242.074219 198.160156 240.503906 C 197.300781 238.929688 196.519531 237.320312 195.824219 235.671875 C 195.125 234.027344 194.511719 232.351562 193.984375 230.644531 C 193.453125 228.9375 193.011719 227.210938 192.65625 225.460938 C 192.300781 223.714844 192.03125 221.953125 191.855469 220.175781 C 191.675781 218.402344 191.585938 216.625 191.585938 214.839844 C 191.585938 213.058594 191.675781 211.28125 191.855469 209.507812 C 192.03125 207.730469 192.300781 205.96875 192.65625 204.222656 C 193.011719 202.472656 193.453125 200.746094 193.984375 199.039062 C 194.511719 197.332031 195.125 195.65625 195.824219 194.011719 C 196.519531 192.363281 197.300781 190.753906 198.160156 189.179688 C 199.019531 187.609375 199.953125 186.082031 200.964844 184.597656 C 201.980469 183.117188 203.0625 181.6875 204.21875 180.308594 C 205.378906 178.929688 206.601562 177.609375 207.890625 176.347656 C 209.179688 175.089844 210.527344 173.894531 211.9375 172.761719 C 213.34375 171.632812 214.808594 170.570312 216.324219 169.578125 C 217.839844 168.589844 219.402344 167.671875 221.007812 166.832031 C 222.617188 165.992188 224.261719 165.230469 225.949219 164.550781 C 227.632812 163.867188 229.347656 163.265625 231.089844 162.75 C 232.835938 162.230469 234.601562 161.800781 236.390625 161.453125 C 238.175781 161.105469 239.976562 160.84375 241.792969 160.667969 C 243.605469 160.492188 245.425781 160.40625 247.25 160.40625 C 249.070312 160.40625 250.890625 160.492188 252.703125 160.667969 C 254.519531 160.84375 256.320312 161.105469 258.109375 161.453125 C 259.894531 161.800781 261.660156 162.230469 263.40625 162.75 C 265.152344 163.265625 266.867188 163.867188 268.550781 164.550781 C 270.234375 165.230469 271.878906 165.992188 273.488281 166.832031 C 275.09375 167.671875 276.65625 168.589844 278.171875 169.578125 C 279.6875 170.570312 281.152344 171.632812 282.558594 172.761719 C 283.96875 173.894531 285.320312 175.089844 286.609375 176.347656 C 287.898438 177.609375 289.121094 178.929688 290.277344 180.308594 C 291.433594 181.6875 292.515625 183.117188 293.53125 184.597656 C 294.542969 186.082031 295.480469 187.609375 296.339844 189.179688 C 297.199219 190.753906 297.976562 192.363281 298.675781 194.011719 C 299.371094 195.65625 299.984375 197.332031 300.515625 199.039062 C 301.042969 200.746094 301.484375 202.472656 301.839844 204.222656 C 302.199219 205.96875 302.464844 207.730469 302.644531 209.507812 C 302.820312 211.28125 302.910156 213.058594 302.910156 214.839844 Z M 302.910156 214.839844 " fill-opacity="1" fill-rule="nonzero"/><path fill="#ffffff" d="M 266.140625 187.382812 C 258.730469 200.863281 251.320312 214.34375 243.910156 227.824219 C 239.1875 219.488281 234.488281 211.136719 229.753906 202.808594 C 228.121094 199.929688 223.671875 202.519531 225.3125 205.402344 C 230.800781 215.058594 236.230469 224.746094 241.71875 234.402344 C 242.65625 236.054688 245.234375 236.09375 246.164062 234.402344 C 254.304688 219.59375 262.445312 204.785156 270.585938 189.980469 C 272.179688 187.078125 267.738281 184.480469 266.140625 187.382812 Z M 266.140625 187.382812 " fill-opacity="1" fill-rule="nonzero"/><path fill="#e6e6e6" d="M 281.21875 148.511719 L 320.566406 148.511719 C 320.640625 148.511719 320.703125 148.539062 320.753906 148.589844 C 320.804688 148.640625 320.832031 148.703125 320.832031 148.777344 L 320.832031 153.355469 C 320.832031 153.429688 320.804688 153.492188 320.753906 153.542969 C 320.703125 153.59375 320.640625 153.621094 320.566406 153.621094 L 281.21875 153.621094 C 281.144531 153.621094 281.082031 153.59375 281.03125 153.542969 C 280.976562 153.492188 280.953125 153.429688 280.953125 153.355469 L 280.953125 148.777344 C 280.953125 148.703125 280.976562 148.640625 281.03125 148.589844 C 281.082031 148.539062 281.144531 148.511719 281.21875 148.511719 Z M 281.21875 148.511719 " fill-opacity="1" fill-rule="nonzero"/><path fill="#e6e6e6" d="M 457.195312 149.535156 C 457.195312 149.800781 457.167969 150.066406 457.117188 150.332031 C 457.0625 150.59375 456.984375 150.851562 456.882812 151.097656 C 456.78125 151.34375 456.652344 151.582031 456.503906 151.804688 C 456.355469 152.027344 456.1875 152.234375 455.996094 152.421875 C 455.804688 152.613281 455.601562 152.78125 455.375 152.929688 C 455.152344 153.082031 454.917969 153.207031 454.667969 153.308594 C 454.421875 153.410156 454.164062 153.488281 453.902344 153.542969 C 453.640625 153.59375 453.371094 153.621094 453.105469 153.621094 C 452.835938 153.621094 452.570312 153.59375 452.304688 153.542969 C 452.042969 153.488281 451.785156 153.410156 451.539062 153.308594 C 451.289062 153.207031 451.054688 153.082031 450.832031 152.933594 C 450.609375 152.78125 450.402344 152.613281 450.210938 152.421875 C 450.023438 152.234375 449.851562 152.027344 449.703125 151.804688 C 449.554688 151.582031 449.429688 151.34375 449.324219 151.097656 C 449.222656 150.851562 449.144531 150.59375 449.09375 150.332031 C 449.039062 150.066406 449.015625 149.800781 449.015625 149.535156 C 449.015625 149.265625 449.039062 149 449.09375 148.738281 C 449.144531 148.472656 449.222656 148.21875 449.324219 147.96875 C 449.429688 147.722656 449.554688 147.488281 449.703125 147.265625 C 449.851562 147.039062 450.023438 146.835938 450.210938 146.644531 C 450.402344 146.453125 450.609375 146.285156 450.832031 146.136719 C 451.054688 145.988281 451.289062 145.863281 451.539062 145.757812 C 451.785156 145.65625 452.042969 145.578125 452.304688 145.527344 C 452.570312 145.472656 452.835938 145.449219 453.105469 145.449219 C 453.371094 145.449219 453.640625 145.472656 453.902344 145.527344 C 454.164062 145.578125 454.421875 145.65625 454.667969 145.757812 C 454.917969 145.863281 455.152344 145.988281 455.375 146.136719 C 455.601562 146.285156 455.804688 146.453125 455.996094 146.644531 C 456.1875 146.835938 456.355469 147.039062 456.503906 147.265625 C 456.652344 147.488281 456.78125 147.722656 456.882812 147.96875 C 456.984375 148.21875 457.0625 148.472656 457.117188 148.738281 C 457.167969 149 457.195312 149.265625 457.195312 149.535156 Z M 457.195312 149.535156 " fill-opacity="1" fill-rule="nonzero"/><path fill="#e6e6e6" d="M 468.441406 149.535156 C 468.441406 149.800781 468.417969 150.066406 468.363281 150.332031 C 468.3125 150.59375 468.234375 150.851562 468.132812 151.097656 C 468.027344 151.34375 467.902344 151.582031 467.753906 151.804688 C 467.605469 152.027344 467.433594 152.234375 467.246094 152.421875 C 467.054688 152.613281 466.847656 152.78125 466.625 152.929688 C 466.402344 153.082031 466.167969 153.207031 465.917969 153.308594 C 465.667969 153.410156 465.414062 153.488281 465.152344 153.542969 C 464.886719 153.59375 464.621094 153.621094 464.351562 153.621094 C 464.085938 153.621094 463.816406 153.59375 463.554688 153.542969 C 463.292969 153.488281 463.035156 153.410156 462.789062 153.308594 C 462.539062 153.207031 462.304688 153.082031 462.082031 152.933594 C 461.855469 152.78125 461.648438 152.613281 461.460938 152.421875 C 461.269531 152.234375 461.101562 152.027344 460.953125 151.804688 C 460.800781 151.582031 460.675781 151.34375 460.574219 151.097656 C 460.472656 150.851562 460.394531 150.59375 460.339844 150.332031 C 460.289062 150.066406 460.261719 149.800781 460.261719 149.535156 C 460.261719 149.265625 460.289062 149 460.339844 148.738281 C 460.394531 148.472656 460.472656 148.21875 460.574219 147.96875 C 460.675781 147.722656 460.800781 147.488281 460.953125 147.265625 C 461.101562 147.039062 461.269531 146.835938 461.460938 146.644531 C 461.648438 146.453125 461.855469 146.285156 462.082031 146.136719 C 462.304688 145.988281 462.539062 145.863281 462.789062 145.757812 C 463.035156 145.65625 463.292969 145.578125 463.554688 145.527344 C 463.816406 145.472656 464.085938 145.449219 464.351562 145.449219 C 464.621094 145.449219 464.886719 145.472656 465.152344 145.527344 C 465.414062 145.578125 465.667969 145.65625 465.917969 145.757812 C 466.167969 145.863281 466.402344 145.988281 466.625 146.136719 C 466.847656 146.285156 467.054688 146.453125 467.246094 146.644531 C 467.433594 146.835938 467.605469 147.039062 467.753906 147.265625 C 467.902344 147.488281 468.027344 147.722656 468.132812 147.96875 C 468.234375 148.21875 468.3125 148.472656 468.363281 148.738281 C 468.417969 149 468.441406 149.265625 468.441406 149.535156 Z M 468.441406 149.535156 " fill-opacity="1" fill-rule="nonzero"/><path fill="#e6e6e6" d="M 479.691406 149.535156 C 479.691406 149.800781 479.664062 150.066406 479.613281 150.332031 C 479.558594 150.59375 479.484375 150.851562 479.378906 151.097656 C 479.277344 151.34375 479.152344 151.582031 479.003906 151.804688 C 478.851562 152.027344 478.683594 152.234375 478.492188 152.421875 C 478.304688 152.613281 478.097656 152.78125 477.875 152.929688 C 477.648438 153.082031 477.414062 153.207031 477.167969 153.308594 C 476.917969 153.410156 476.664062 153.488281 476.398438 153.542969 C 476.136719 153.59375 475.871094 153.621094 475.601562 153.621094 C 475.332031 153.621094 475.066406 153.59375 474.804688 153.542969 C 474.539062 153.488281 474.285156 153.410156 474.035156 153.308594 C 473.789062 153.207031 473.550781 153.082031 473.328125 152.933594 C 473.105469 152.78125 472.898438 152.613281 472.707031 152.421875 C 472.519531 152.234375 472.347656 152.027344 472.199219 151.804688 C 472.050781 151.582031 471.925781 151.34375 471.820312 151.097656 C 471.71875 150.851562 471.640625 150.59375 471.589844 150.332031 C 471.535156 150.066406 471.511719 149.800781 471.511719 149.535156 C 471.511719 149.265625 471.535156 149 471.589844 148.738281 C 471.640625 148.472656 471.71875 148.21875 471.820312 147.96875 C 471.925781 147.722656 472.050781 147.488281 472.199219 147.265625 C 472.347656 147.039062 472.519531 146.835938 472.707031 146.644531 C 472.898438 146.453125 473.105469 146.285156 473.328125 146.136719 C 473.550781 145.988281 473.789062 145.863281 474.035156 145.757812 C 474.285156 145.65625 474.539062 145.578125 474.804688 145.527344 C 475.066406 145.472656 475.332031 145.449219 475.601562 145.449219 C 475.871094 145.449219 476.136719 145.472656 476.398438 145.527344 C 476.664062 145.578125 476.917969 145.65625 477.167969 145.757812 C 477.414062 145.863281 477.648438 145.988281 477.875 146.136719 C 478.097656 146.285156 478.304688 146.453125 478.492188 146.644531 C 478.683594 146.835938 478.851562 147.039062 479.003906 147.265625 C 479.152344 147.488281 479.277344 147.722656 479.378906 147.96875 C 479.484375 148.21875 479.558594 148.472656 479.613281 148.738281 C 479.664062 149 479.691406 149.265625 479.691406 149.535156 Z M 479.691406 149.535156 " fill-opacity="1" fill-rule="nonzero"/><path fill="#3f3d56" d="M 294.890625 270.59375 C 294.890625 271.15625 295.34375 271.613281 295.910156 271.613281 L 471.125 271.613281 C 471.691406 271.613281 472.148438 271.15625 472.148438 270.59375 C 472.148438 270.027344 471.691406 269.574219 471.125 269.574219 L 295.910156 269.574219 C 295.34375 269.574219 294.890625 270.027344 294.890625 270.59375 Z M 294.890625 270.59375 " fill-opacity="1" fill-rule="nonzero"/><path fill="#0048ff" d="M 454.324219 350.730469 L 349.171875 350.730469 C 347.4375 350.730469 346.023438 349.320312 346.023438 347.585938 C 346.023438 345.847656 347.4375 344.4375 349.171875 344.4375 L 454.324219 344.4375 C 456.0625 344.4375 457.472656 345.847656 457.472656 347.585938 C 457.472656 349.320312 456.0625 350.730469 454.324219 350.730469 Z M 454.324219 350.730469 " fill-opacity="1" fill-rule="nonzero"/><path fill="#0048ff" d="M 454.324219 396.144531 L 349.171875 396.144531 C 347.4375 396.144531 346.023438 394.730469 346.023438 392.996094 C 346.023438 391.261719 347.4375 389.847656 349.171875 389.847656 L 454.324219 389.847656 C 456.0625 389.847656 457.472656 391.261719 457.472656 392.996094 C 457.472656 394.730469 456.0625 396.144531 454.324219 396.144531 Z M 454.324219 396.144531 " fill-opacity="1" fill-rule="nonzero"/><path fill="#0048ff" d="M 454.324219 441.554688 L 349.171875 441.554688 C 347.4375 441.554688 346.023438 440.144531 346.023438 438.40625 C 346.023438 436.671875 347.4375 435.261719 349.171875 435.261719 L 454.324219 435.261719 C 456.0625 435.261719 457.472656 436.671875 457.472656 438.40625 C 457.472656 440.144531 456.0625 441.554688 454.324219 441.554688 Z M 454.324219 441.554688 " fill-opacity="1" fill-rule="nonzero"/><path fill="#0048ff" d="M 325 347.195312 C 325 347.699219 324.949219 348.203125 324.851562 348.699219 C 324.753906 349.195312 324.605469 349.679688 324.414062 350.144531 C 324.21875 350.613281 323.980469 351.058594 323.699219 351.480469 C 323.417969 351.898438 323.097656 352.289062 322.738281 352.648438 C 322.378906 353.003906 321.992188 353.324219 321.570312 353.605469 C 321.148438 353.886719 320.703125 354.125 320.234375 354.320312 C 319.765625 354.511719 319.285156 354.660156 318.785156 354.757812 C 318.289062 354.855469 317.789062 354.90625 317.28125 354.90625 C 316.773438 354.90625 316.273438 354.855469 315.773438 354.757812 C 315.277344 354.660156 314.796875 354.511719 314.328125 354.320312 C 313.859375 354.125 313.414062 353.886719 312.992188 353.605469 C 312.570312 353.324219 312.179688 353.003906 311.824219 352.648438 C 311.464844 352.289062 311.144531 351.898438 310.863281 351.480469 C 310.582031 351.058594 310.34375 350.613281 310.148438 350.144531 C 309.957031 349.679688 309.808594 349.195312 309.710938 348.699219 C 309.609375 348.203125 309.5625 347.699219 309.5625 347.195312 C 309.5625 346.6875 309.609375 346.1875 309.710938 345.691406 C 309.808594 345.195312 309.957031 344.710938 310.148438 344.242188 C 310.34375 343.777344 310.582031 343.332031 310.863281 342.910156 C 311.144531 342.488281 311.464844 342.101562 311.824219 341.742188 C 312.179688 341.382812 312.570312 341.0625 312.992188 340.78125 C 313.414062 340.5 313.859375 340.265625 314.328125 340.070312 C 314.796875 339.875 315.277344 339.730469 315.773438 339.632812 C 316.273438 339.53125 316.773438 339.484375 317.28125 339.484375 C 317.789062 339.484375 318.289062 339.53125 318.785156 339.632812 C 319.285156 339.730469 319.765625 339.875 320.234375 340.070312 C 320.703125 340.265625 321.148438 340.5 321.570312 340.78125 C 321.992188 341.0625 322.378906 341.382812 322.738281 341.742188 C 323.097656 342.101562 323.417969 342.488281 323.699219 342.910156 C 323.980469 343.332031 324.21875 343.777344 324.414062 344.242188 C 324.605469 344.710938 324.753906 345.195312 324.851562 345.691406 C 324.949219 346.1875 325 346.6875 325 347.195312 Z M 325 347.195312 " fill-opacity="1" fill-rule="nonzero"/><path fill="#3f3d56" d="M 316.421875 360.046875 L 316.421875 358.335938 C 322.808594 358.335938 328.003906 353.144531 328.003906 346.765625 C 328.003906 340.386719 322.808594 335.199219 316.421875 335.199219 L 316.421875 333.484375 C 323.753906 333.484375 329.71875 339.445312 329.71875 346.765625 C 329.71875 354.089844 323.753906 360.046875 316.421875 360.046875 Z M 316.421875 360.046875 " fill-opacity="1" fill-rule="nonzero"/><path fill="#0048ff" d="M 325 392.605469 C 325 393.113281 324.949219 393.613281 324.851562 394.109375 C 324.753906 394.609375 324.605469 395.089844 324.414062 395.558594 C 324.21875 396.027344 323.980469 396.46875 323.699219 396.890625 C 323.417969 397.3125 323.097656 397.703125 322.738281 398.058594 C 322.378906 398.417969 321.992188 398.738281 321.570312 399.019531 C 321.148438 399.300781 320.703125 399.539062 320.234375 399.730469 C 319.765625 399.925781 319.285156 400.070312 318.785156 400.171875 C 318.289062 400.269531 317.789062 400.316406 317.28125 400.316406 C 316.773438 400.316406 316.273438 400.269531 315.773438 400.171875 C 315.277344 400.070312 314.796875 399.925781 314.328125 399.730469 C 313.859375 399.539062 313.414062 399.300781 312.992188 399.019531 C 312.570312 398.738281 312.179688 398.417969 311.824219 398.058594 C 311.464844 397.703125 311.144531 397.3125 310.863281 396.890625 C 310.582031 396.46875 310.34375 396.027344 310.148438 395.558594 C 309.957031 395.089844 309.808594 394.609375 309.710938 394.109375 C 309.609375 393.613281 309.5625 393.113281 309.5625 392.605469 C 309.5625 392.101562 309.609375 391.597656 309.710938 391.101562 C 309.808594 390.605469 309.957031 390.125 310.148438 389.65625 C 310.34375 389.1875 310.582031 388.742188 310.863281 388.324219 C 311.144531 387.902344 311.464844 387.511719 311.824219 387.152344 C 312.179688 386.796875 312.570312 386.476562 312.992188 386.195312 C 313.414062 385.914062 313.859375 385.675781 314.328125 385.480469 C 314.796875 385.289062 315.277344 385.140625 315.773438 385.042969 C 316.273438 384.945312 316.773438 384.894531 317.28125 384.894531 C 317.789062 384.894531 318.289062 384.945312 318.785156 385.042969 C 319.285156 385.140625 319.765625 385.289062 320.234375 385.480469 C 320.703125 385.675781 321.148438 385.914062 321.570312 386.195312 C 321.992188 386.476562 322.378906 386.796875 322.738281 387.152344 C 323.097656 387.511719 323.417969 387.902344 323.699219 388.324219 C 323.980469 388.742188 324.21875 389.1875 324.414062 389.65625 C 324.605469 390.125 324.753906 390.605469 324.851562 391.101562 C 324.949219 391.597656 325 392.101562 325 392.605469 Z M 325 392.605469 " fill-opacity="1" fill-rule="nonzero"/><path fill="#3f3d56" d="M 316.421875 405.460938 L 316.421875 403.746094 C 322.808594 403.746094 328.003906 398.558594 328.003906 392.179688 C 328.003906 385.800781 322.808594 380.613281 316.421875 380.613281 L 316.421875 378.898438 C 323.753906 378.898438 329.71875 384.855469 329.71875 392.179688 C 329.71875 399.503906 323.753906 405.460938 316.421875 405.460938 Z M 316.421875 405.460938 " fill-opacity="1" fill-rule="nonzero"/><path fill="#0048ff" d="M 325 438.019531 C 325 438.523438 324.949219 439.027344 324.851562 439.523438 C 324.753906 440.019531 324.605469 440.503906 324.414062 440.96875 C 324.21875 441.4375 323.980469 441.882812 323.699219 442.304688 C 323.417969 442.722656 323.097656 443.113281 322.738281 443.472656 C 322.378906 443.828125 321.992188 444.148438 321.570312 444.429688 C 321.148438 444.710938 320.703125 444.949219 320.234375 445.144531 C 319.765625 445.335938 319.285156 445.484375 318.785156 445.582031 C 318.289062 445.679688 317.789062 445.730469 317.28125 445.730469 C 316.773438 445.730469 316.273438 445.679688 315.773438 445.582031 C 315.277344 445.484375 314.796875 445.335938 314.328125 445.144531 C 313.859375 444.949219 313.414062 444.710938 312.992188 444.429688 C 312.570312 444.148438 312.179688 443.828125 311.824219 443.472656 C 311.464844 443.113281 311.144531 442.722656 310.863281 442.304688 C 310.582031 441.882812 310.34375 441.4375 310.148438 440.96875 C 309.957031 440.503906 309.808594 440.019531 309.710938 439.523438 C 309.609375 439.027344 309.5625 438.523438 309.5625 438.019531 C 309.5625 437.511719 309.609375 437.011719 309.710938 436.515625 C 309.808594 436.019531 309.957031 435.535156 310.148438 435.066406 C 310.34375 434.601562 310.582031 434.15625 310.863281 433.734375 C 311.144531 433.3125 311.464844 432.925781 311.824219 432.566406 C 312.179688 432.207031 312.570312 431.886719 312.992188 431.605469 C 313.414062 431.324219 313.859375 431.089844 314.328125 430.894531 C 314.796875 430.699219 315.277344 430.554688 315.773438 430.457031 C 316.273438 430.355469 316.773438 430.308594 317.28125 430.308594 C 317.789062 430.308594 318.289062 430.355469 318.785156 430.457031 C 319.285156 430.554688 319.765625 430.699219 320.234375 430.894531 C 320.703125 431.089844 321.148438 431.324219 321.570312 431.605469 C 321.992188 431.886719 322.378906 432.207031 322.738281 432.566406 C 323.097656 432.925781 323.417969 433.3125 323.699219 433.734375 C 323.980469 434.15625 324.21875 434.601562 324.414062 435.066406 C 324.605469 435.535156 324.753906 436.019531 324.851562 436.515625 C 324.949219 437.011719 325 437.511719 325 438.019531 Z M 325 438.019531 " fill-opacity="1" fill-rule="nonzero"/><path fill="#3f3d56" d="M 316.421875 450.871094 L 316.421875 449.15625 C 322.808594 449.15625 328.003906 443.96875 328.003906 437.589844 C 328.003906 431.210938 322.808594 426.023438 316.421875 426.023438 L 316.421875 424.308594 C 323.753906 424.308594 329.71875 430.269531 329.71875 437.589844 C 329.71875 444.914062 323.753906 450.871094 316.421875 450.871094 Z M 316.421875 450.871094 " fill-opacity="1" fill-rule="nonzero"/><path fill="#a0616a" d="M 509.433594 310.53125 C 514.195312 309.324219 519.59375 314.40625 521.492188 321.886719 C 522.292969 324.863281 522.367188 327.984375 521.710938 330.996094 L 523.757812 339.496094 L 523.90625 339.488281 L 540.046875 377.488281 C 543.800781 386.324219 543.402344 396.46875 538.617188 404.789062 C 535.769531 409.738281 532.03125 413.066406 527.644531 409.671875 C 520.359375 404.035156 515.605469 371.757812 513.433594 353.214844 L 508.410156 334.367188 C 506.394531 332.035156 504.96875 329.25 504.25 326.253906 C 502.351562 318.777344 504.671875 311.738281 509.433594 310.53125 Z M 509.433594 310.53125 " fill-opacity="1" fill-rule="nonzero"/><path fill="#0048ff" d="M 527.769531 331.355469 L 509.710938 344.179688 L 518.738281 400.980469 L 530.0625 415.613281 L 543.253906 411.054688 L 547.109375 384.203125 L 542.570312 358.234375 Z M 527.769531 331.355469 " fill-opacity="1" fill-rule="nonzero"/></svg>