<svg xmlns="http://www.w3.org/2000/svg" xmlns:xlink="http://www.w3.org/1999/xlink" width="1080" zoomAndPan="magnify" viewBox="0 0 810 809.999993" height="1080" preserveAspectRatio="xMidYMid meet" version="1.0"><defs><filter x="0%" y="0%" width="100%" height="100%" id="0006d4e7cf"><feColorMatrix values="0 0 0 0 1 0 0 0 0 1 0 0 0 0 1 0 0 0 1 0" color-interpolation-filters="sRGB"/></filter><mask id="89b9a98d25"><g filter="url(#0006d4e7cf)"><rect x="-81" width="972" fill="#000000" y="-80.999999" height="971.999992" fill-opacity="0.098"/></g></mask><clipPath id="05b2bc0339"><path d="M 2 2 L 737.453125 2 L 737.453125 547.664062 L 2 547.664062 Z M 2 2 " clip-rule="nonzero"/></clipPath><clipPath id="76cfa00507"><rect x="0" width="739" y="0" height="548"/></clipPath><clipPath id="9c92741f19"><path d="M 90.449219 477 L 127 477 L 127 519 L 90.449219 519 Z M 90.449219 477 " clip-rule="nonzero"/></clipPath><clipPath id="f22cd27156"><path d="M 412 58.78125 L 478 58.78125 L 478 234 L 412 234 Z M 412 58.78125 " clip-rule="nonzero"/></clipPath><clipPath id="4adb9c2483"><path d="M 445 369 L 719.699219 369 L 719.699219 496 L 445 496 Z M 445 369 " clip-rule="nonzero"/></clipPath><clipPath id="07d03426f5"><path d="M 169 689 L 582 689 L 582 692.53125 L 169 692.53125 Z M 169 689 " clip-rule="nonzero"/></clipPath></defs><g mask="url(#89b9a98d25)"><g transform="matrix(1, 0, 0, 1, 39, 145)"><g clip-path="url(#76cfa00507)"><path fill="#0048ff" d="M 330.769531 497.074219 C 316.949219 511.511719 295.40625 517.816406 276.097656 512.9375 C 263.292969 509.683594 251.707031 502.15625 238.699219 499.308594 C 212.074219 493.414062 186.0625 508.257812 161.671875 520.460938 C 135.453125 533.882812 107 545.273438 77.734375 544.050781 C 48.46875 542.832031 17.980469 525.953125 8.632812 498.089844 C -0.105469 471.652344 11.882812 441.960938 31.191406 422.03125 C 46.027344 406.574219 65.945312 393.152344 68.996094 372 C 71.027344 357.765625 64.320312 343.9375 60.253906 330.109375 C 49.078125 292.078125 58.425781 248.558594 84.238281 218.460938 C 98.261719 202.191406 116.351562 189.988281 135.046875 179.414062 C 177.320312 155.617188 224.269531 139.753906 272.234375 132.839844 C 300.890625 128.773438 330.160156 127.757812 358.613281 122.265625 C 402.105469 113.722656 443.160156 94.40625 477.507812 66.542969 C 496.207031 51.289062 513.277344 33.394531 534.617188 21.800781 C 574.453125 0.449219 622.621094 4.71875 667.335938 10.820312 C 688.269531 13.667969 711.4375 18.140625 724.242188 35.222656 C 735.214844 49.867188 735.214844 69.796875 734.605469 88.304688 C 734.199219 99.691406 733.589844 111.488281 728.507812 121.65625 C 724.242188 129.789062 717.332031 136.296875 710.625 142.398438 C 694.160156 157.449219 677.699219 172.496094 661.441406 187.546875 C 655.34375 193.242188 648.839844 199.34375 646.402344 207.273438 C 644.773438 212.96875 645.179688 218.867188 645.789062 224.761719 C 651.074219 265.84375 671.601562 305.296875 667.742188 346.582031 C 663.472656 391.933594 629.328125 430.570312 588.476562 450.5 C 547.421875 470.433594 500.675781 474.5 455.152344 474.09375 C 430.152344 473.890625 404.949219 472.261719 380.359375 476.328125 C 355.765625 480.398438 345.808594 477.144531 330.769531 497.074219 " fill-opacity="1" fill-rule="nonzero"/><g clip-path="url(#05b2bc0339)"><path fill="#0048ff" d="M 328.734375 494.835938 C 317.355469 506.429688 301.09375 512.527344 284.835938 511.308594 C 267.355469 509.886719 252.925781 498.292969 235.652344 495.851562 C 217.5625 493.007812 199.882812 498.902344 183.824219 506.226562 C 166.753906 513.953125 150.699219 523.511719 133.21875 530.222656 C 101.917969 542.425781 65.945312 547.101562 36.273438 527.984375 C 24.078125 520.054688 14.324219 508.257812 10.664062 494.023438 C 6.398438 477.957031 10.054688 460.671875 17.574219 446.027344 C 25.09375 431.589844 36.273438 421.011719 47.859375 410.03125 C 58.222656 400.066406 68.792969 388.882812 71.433594 374.238281 C 74.683594 356.140625 65.132812 339.667969 61.273438 322.582031 C 57.613281 306.925781 57.410156 290.453125 60.457031 274.792969 C 63.507812 258.726562 69.808594 243.269531 78.953125 229.644531 C 88.710938 215.410156 101.917969 203.816406 116.148438 194.054688 C 146.632812 173.3125 181.183594 158.261719 216.546875 147.890625 C 234.230469 142.601562 252.113281 138.535156 270.40625 135.890625 C 290.527344 132.839844 310.648438 131.621094 330.769531 129.179688 C 366.539062 124.910156 400.886719 115.757812 433 99.082031 C 448.445312 90.949219 463.078125 81.59375 476.695312 70.8125 C 490.515625 59.832031 503.117188 47.222656 517.34375 36.445312 C 531.773438 25.460938 547.625 17.53125 565.105469 13.261719 C 582.175781 9.195312 599.65625 8.175781 617.132812 8.785156 C 635.019531 9.398438 652.902344 11.429688 670.585938 14.074219 C 685.21875 16.3125 700.664062 19.160156 712.859375 28.105469 C 726.679688 38.273438 730.746094 54.746094 731.355469 71.015625 C 731.558594 79.558594 731.355469 88.304688 730.746094 96.84375 C 730.136719 105.996094 728.507812 115.148438 723.632812 122.875 C 718.957031 130.199219 712.25 136.09375 705.949219 141.789062 C 698.632812 148.5 691.316406 155.210938 684 161.921875 C 676.480469 168.835938 668.960938 175.75 661.441406 182.667969 C 655.34375 188.15625 648.839844 193.851562 644.976562 201.171875 C 640.914062 209.105469 641.320312 217.847656 642.539062 226.390625 C 643.757812 235.339844 645.585938 244.285156 647.824219 253.234375 C 652.292969 271.132812 657.984375 288.621094 661.441406 306.925781 C 664.691406 324.210938 665.910156 341.902344 661.847656 359.191406 C 658.390625 373.832031 651.886719 387.457031 643.351562 399.863281 C 624.855469 426.300781 597.011719 445.011719 566.933594 455.789062 C 532.179688 468.195312 494.988281 471.042969 458.402344 470.839844 C 438.6875 470.636719 418.972656 469.617188 399.464844 470.839844 C 390.113281 471.449219 380.96875 473.074219 371.621094 474.296875 C 365.726562 475.109375 359.832031 475.515625 354.140625 476.738281 C 342.757812 479.175781 334.628906 486.089844 327.71875 495.242188 C 325.28125 498.292969 330.566406 501.34375 333.003906 498.292969 C 336.867188 493.210938 341.335938 488.328125 347.230469 485.277344 C 351.90625 482.835938 357.394531 482.023438 362.675781 481.210938 C 380.359375 478.769531 397.835938 476.125 415.722656 475.921875 C 435.640625 475.71875 455.558594 476.738281 475.273438 476.328125 C 493.765625 475.921875 512.464844 474.296875 530.757812 471.042969 C 564.902344 464.941406 597.824219 452.128906 624.246094 429.148438 C 647.417969 409.015625 665.300781 381.558594 669.570312 350.648438 C 674.652344 313.433594 659.40625 277.84375 651.480469 242.050781 C 649.449219 232.898438 647.214844 223.136719 647.621094 213.578125 C 648.027344 204.019531 653.71875 197.308594 660.425781 191.003906 C 675.464844 176.972656 690.707031 163.144531 705.949219 149.3125 C 712.65625 143.210938 719.566406 137.316406 725.257812 130.199219 C 730.746094 123.28125 733.996094 115.554688 735.417969 107.011719 C 737.046875 98.269531 737.046875 89.117188 737.25 80.167969 C 737.453125 71.832031 737.25 63.289062 735.621094 54.949219 C 732.777344 39.496094 724.242188 26.480469 710.421875 18.75 C 696.601562 11.023438 680.542969 8.582031 665.097656 6.550781 C 630.34375 2.6875 593.558594 -0.976562 558.804688 8.785156 C 541.527344 13.667969 526.285156 22.207031 512.261719 32.988281 C 497.832031 44.171875 484.824219 57.1875 470.191406 68.375 C 441.535156 90.335938 408.40625 106.605469 373.449219 115.554688 C 334.832031 125.519531 294.792969 125.113281 255.773438 132.230469 C 218.578125 139.144531 182.199219 151.347656 148.257812 168.429688 C 117.164062 184.496094 86.066406 204.222656 68.589844 235.542969 C 52.734375 263.808594 48.0625 298.585938 57.003906 329.90625 C 61.882812 347.394531 71.230469 365.289062 62.289062 382.984375 C 55.378906 396.8125 42.371094 406.574219 31.597656 417.351562 C 9.242188 439.722656 -5.796875 474.296875 8.023438 505.003906 C 20.421875 532.867188 52.53125 547.304688 81.59375 547.304688 C 100.292969 547.304688 118.789062 542.628906 136.0625 535.714844 C 153.949219 528.59375 170.613281 518.832031 188.09375 510.902344 C 205.164062 503.175781 224.066406 497.886719 242.765625 503.582031 C 251.503906 506.226562 259.632812 510.699219 268.171875 513.75 C 276.097656 516.597656 284.226562 518.019531 292.558594 517.410156 C 307.800781 516.597656 322.433594 510.089844 333.003906 499.105469 C 335.847656 496.464844 331.378906 492.191406 328.734375 494.835938 Z M 328.734375 494.835938 " fill-opacity="1" fill-rule="nonzero"/></g></g></g></g><path fill="#f2f2f2" d="M 249.179688 666.929688 C 248.832031 666.945312 248.488281 666.910156 248.152344 666.820312 C 247.816406 666.730469 247.503906 666.59375 247.210938 666.410156 C 246.917969 666.222656 246.65625 665.996094 246.433594 665.730469 C 246.207031 665.464844 246.03125 665.171875 245.894531 664.851562 C 245.761719 664.53125 245.679688 664.199219 245.648438 663.851562 C 245.617188 663.507812 245.636719 663.164062 245.710938 662.824219 C 245.785156 662.484375 245.90625 662.164062 246.082031 661.863281 C 246.253906 661.5625 246.46875 661.292969 246.722656 661.058594 C 246.808594 660.71875 246.867188 660.472656 246.953125 660.132812 C 246.621094 659.289062 246.171875 658.511719 245.609375 657.804688 C 245.046875 657.09375 244.390625 656.480469 243.640625 655.96875 C 242.894531 655.453125 242.089844 655.058594 241.222656 654.789062 C 240.359375 654.515625 239.472656 654.375 238.566406 654.363281 C 237.660156 654.355469 236.769531 654.480469 235.902344 654.738281 C 235.03125 654.992188 234.21875 655.371094 233.460938 655.871094 C 232.703125 656.371094 232.035156 656.972656 231.457031 657.671875 C 230.882812 658.367188 230.417969 659.136719 230.070312 659.976562 C 226.050781 669.375 220.851562 679.109375 223.4375 689.460938 C 206.359375 653.273438 212.167969 608.257812 237.410156 577.308594 C 244.386719 573.464844 250.042969 566.640625 251.515625 558.710938 C 248.0625 559.882812 243.757812 557.074219 246.351562 553.4375 C 247.476562 552.046875 248.613281 550.667969 249.738281 549.28125 C 236.621094 535.3125 220.992188 557.261719 235.429688 576.113281 C 230.695312 582.046875 226.625 588.410156 223.222656 595.199219 C 223.617188 591.605469 223.582031 588.015625 223.121094 584.429688 C 222.660156 580.84375 221.785156 577.359375 220.496094 573.980469 C 217.882812 567.683594 212.988281 562.378906 208.679688 556.933594 C 203.4375 550.300781 192.652344 553.359375 191.949219 561.78125 C 196.785156 563.367188 197.414062 570.351562 191.878906 571.308594 C 193.328125 586.96875 203.5625 601.363281 217.660156 608.230469 C 215.058594 615.53125 213.253906 623.023438 212.246094 630.710938 C 211.242188 638.394531 211.058594 646.097656 211.695312 653.824219 C 209.207031 635.769531 189.824219 631.386719 176.273438 624.210938 C 175.839844 623.933594 175.378906 623.726562 174.886719 623.582031 C 174.394531 623.441406 173.894531 623.371094 173.382812 623.378906 C 172.867188 623.382812 172.367188 623.457031 171.878906 623.609375 C 171.386719 623.757812 170.929688 623.972656 170.503906 624.257812 C 170.078125 624.542969 169.699219 624.878906 169.371094 625.273438 C 169.042969 625.664062 168.777344 626.097656 168.574219 626.566406 C 168.371094 627.039062 168.242188 627.527344 168.179688 628.035156 C 168.121094 628.546875 168.136719 629.050781 168.222656 629.554688 C 170.097656 630.320312 171.878906 631.257812 173.566406 632.375 C 173.960938 632.640625 174.304688 632.957031 174.601562 633.328125 C 174.898438 633.703125 175.128906 634.109375 175.300781 634.554688 C 175.46875 634.996094 175.566406 635.457031 175.597656 635.929688 C 175.625 636.40625 175.578125 636.871094 175.460938 637.332031 C 175.34375 637.792969 175.160156 638.226562 174.910156 638.628906 C 174.65625 639.03125 174.351562 639.390625 173.992188 639.699219 C 173.628906 640.007812 173.230469 640.253906 172.792969 640.4375 C 172.355469 640.625 171.898438 640.738281 171.425781 640.785156 C 178.257812 657.683594 195.914062 669.03125 214.050781 668.964844 C 215.796875 676.558594 218.308594 683.890625 221.585938 690.957031 L 248.503906 690.957031 C 248.601562 690.660156 248.6875 690.351562 248.773438 690.050781 C 246.273438 690.207031 243.789062 690.058594 241.324219 689.605469 C 247.917969 681.804688 253.015625 677.824219 249.179688 666.929688 Z M 249.179688 666.929688 " fill-opacity="1" fill-rule="nonzero"/><path fill="#f2f2f2" d="M 489.160156 666.929688 C 489.503906 666.945312 489.847656 666.910156 490.183594 666.820312 C 490.519531 666.730469 490.832031 666.59375 491.128906 666.410156 C 491.421875 666.222656 491.679688 665.996094 491.902344 665.730469 C 492.128906 665.464844 492.308594 665.171875 492.441406 664.851562 C 492.574219 664.53125 492.660156 664.199219 492.691406 663.851562 C 492.722656 663.507812 492.699219 663.164062 492.625 662.824219 C 492.550781 662.484375 492.429688 662.164062 492.257812 661.863281 C 492.085938 661.5625 491.871094 661.292969 491.613281 661.058594 C 491.53125 660.71875 491.46875 660.472656 491.382812 660.132812 C 491.714844 659.289062 492.164062 658.511719 492.726562 657.804688 C 493.292969 657.09375 493.949219 656.480469 494.695312 655.96875 C 495.441406 655.453125 496.25 655.058594 497.113281 654.789062 C 497.976562 654.515625 498.863281 654.371094 499.769531 654.363281 C 500.679688 654.355469 501.566406 654.480469 502.4375 654.738281 C 503.304688 654.992188 504.121094 655.371094 504.875 655.871094 C 505.632812 656.371094 506.300781 656.972656 506.878906 657.671875 C 507.457031 658.367188 507.917969 659.136719 508.265625 659.976562 C 512.285156 669.375 517.484375 679.109375 514.898438 689.460938 C 531.980469 653.273438 526.171875 608.257812 500.929688 577.308594 C 493.949219 573.464844 488.296875 566.640625 486.824219 558.710938 C 490.277344 559.882812 494.582031 557.074219 491.984375 553.4375 C 490.859375 552.046875 489.722656 550.667969 488.597656 549.28125 C 501.714844 535.3125 517.34375 557.261719 502.90625 576.113281 C 507.640625 582.046875 511.710938 588.410156 515.113281 595.199219 C 514.722656 591.605469 514.757812 588.015625 515.21875 584.429688 C 515.679688 580.84375 516.554688 577.359375 517.839844 573.980469 C 520.453125 567.683594 525.347656 562.378906 529.65625 556.933594 C 534.898438 550.300781 545.683594 553.359375 546.390625 561.78125 C 541.554688 563.367188 540.925781 570.351562 546.457031 571.308594 C 545.007812 586.96875 534.773438 601.363281 520.679688 608.230469 C 523.28125 615.53125 525.085938 623.023438 526.089844 630.710938 C 527.09375 638.394531 527.277344 646.097656 526.640625 653.824219 C 529.128906 635.769531 548.515625 631.386719 562.066406 624.210938 C 562.496094 623.933594 562.957031 623.726562 563.449219 623.582031 C 563.941406 623.441406 564.445312 623.371094 564.957031 623.378906 C 565.46875 623.382812 565.96875 623.457031 566.460938 623.609375 C 566.949219 623.757812 567.40625 623.972656 567.835938 624.257812 C 568.261719 624.542969 568.636719 624.878906 568.964844 625.273438 C 569.292969 625.664062 569.558594 626.097656 569.761719 626.566406 C 569.964844 627.039062 570.097656 627.527344 570.15625 628.035156 C 570.214844 628.546875 570.203125 629.050781 570.113281 629.554688 C 568.238281 630.320312 566.457031 631.257812 564.769531 632.375 C 564.375 632.640625 564.03125 632.957031 563.734375 633.328125 C 563.441406 633.703125 563.207031 634.109375 563.039062 634.554688 C 562.867188 634.996094 562.769531 635.457031 562.742188 635.929688 C 562.714844 636.40625 562.757812 636.871094 562.875 637.332031 C 562.992188 637.792969 563.175781 638.226562 563.429688 638.628906 C 563.679688 639.03125 563.984375 639.390625 564.347656 639.699219 C 564.707031 640.007812 565.105469 640.253906 565.546875 640.4375 C 565.984375 640.625 566.4375 640.738281 566.910156 640.785156 C 560.082031 657.683594 542.421875 669.03125 524.285156 668.964844 C 522.539062 676.558594 520.027344 683.890625 516.75 690.957031 L 489.832031 690.957031 C 489.738281 690.660156 489.648438 690.351562 489.5625 690.050781 C 492.0625 690.207031 494.546875 690.058594 497.011719 689.605469 C 490.417969 681.804688 485.320312 677.824219 489.15625 666.929688 Z M 489.160156 666.929688 " fill-opacity="1" fill-rule="nonzero"/><path fill="#ffb6b6" d="M 499.140625 670.925781 L 487.546875 673.5625 L 471.855469 630.117188 L 488.96875 626.226562 Z M 499.140625 670.925781 " fill-opacity="1" fill-rule="nonzero"/><path fill="#2f2e41" d="M 502.300781 682.921875 L 466.652344 691.03125 L 466.550781 690.582031 C 466.339844 689.667969 466.226562 688.746094 466.199219 687.8125 C 466.175781 686.878906 466.238281 685.953125 466.398438 685.03125 C 466.554688 684.113281 466.800781 683.214844 467.132812 682.34375 C 467.46875 681.46875 467.882812 680.640625 468.378906 679.847656 C 468.878906 679.058594 469.449219 678.324219 470.089844 677.644531 C 470.734375 676.964844 471.433594 676.355469 472.195312 675.816406 C 472.960938 675.277344 473.765625 674.816406 474.621094 674.4375 C 475.472656 674.054688 476.355469 673.761719 477.265625 673.554688 L 482.65625 667.132812 L 495.929688 669.308594 L 499.039062 668.601562 Z M 502.300781 682.921875 " fill-opacity="1" fill-rule="nonzero"/><path fill="#ffb6b6" d="M 686.144531 459.15625 L 692.515625 469.191406 L 656.839844 498.542969 L 647.433594 483.734375 Z M 686.144531 459.15625 " fill-opacity="1" fill-rule="nonzero"/><path fill="#2f2e41" d="M 696.386719 452.15625 L 715.984375 483.007812 L 715.597656 483.257812 C 714.808594 483.757812 713.976562 484.175781 713.105469 484.515625 C 712.234375 484.851562 711.339844 485.101562 710.417969 485.261719 C 709.5 485.421875 708.570312 485.492188 707.636719 485.46875 C 706.703125 485.449219 705.78125 485.335938 704.867188 485.132812 C 703.957031 484.929688 703.074219 484.636719 702.21875 484.261719 C 701.363281 483.882812 700.554688 483.425781 699.789062 482.890625 C 699.023438 482.351562 698.320312 481.746094 697.675781 481.070312 C 697.027344 480.394531 696.457031 479.664062 695.957031 478.875 L 695.953125 478.875 L 688.097656 475.953125 L 685.695312 462.722656 L 683.984375 460.03125 Z M 696.386719 452.15625 " fill-opacity="1" fill-rule="nonzero"/><path fill="#a0616a" d="M 316.621094 351.890625 L 313.757812 335.300781 L 357.285156 315.652344 L 366.6875 299.011719 C 366.585938 298.527344 366.53125 298.039062 366.519531 297.542969 C 366.507812 297.046875 366.542969 296.554688 366.621094 296.066406 C 366.703125 295.578125 366.824219 295.097656 366.992188 294.632812 C 367.160156 294.167969 367.367188 293.71875 367.617188 293.292969 C 367.867188 292.863281 368.152344 292.460938 368.476562 292.085938 C 368.800781 291.710938 369.15625 291.367188 369.542969 291.058594 C 369.929688 290.75 370.339844 290.476562 370.777344 290.242188 C 371.210938 290.007812 371.667969 289.8125 372.136719 289.664062 C 372.609375 289.511719 373.089844 289.402344 373.582031 289.339844 C 374.074219 289.277344 374.566406 289.261719 375.0625 289.289062 C 375.558594 289.316406 376.046875 289.390625 376.527344 289.507812 C 377.007812 289.625 377.472656 289.785156 377.925781 289.988281 C 378.378906 290.191406 378.808594 290.433594 379.214844 290.714844 C 379.621094 290.996094 380 291.3125 380.351562 291.664062 C 380.699219 292.015625 381.015625 292.394531 381.292969 292.804688 C 381.574219 293.214844 381.8125 293.644531 382.011719 294.097656 C 382.210938 294.550781 382.371094 295.019531 382.484375 295.5 C 382.597656 295.984375 382.667969 296.472656 382.691406 296.964844 C 382.714844 297.460938 382.695312 297.953125 382.628906 298.445312 C 382.5625 298.9375 382.453125 299.417969 382.296875 299.886719 C 382.144531 300.359375 381.949219 300.8125 381.710938 301.246094 C 381.472656 301.679688 381.199219 302.089844 380.882812 302.472656 C 380.570312 302.859375 380.226562 303.210938 379.847656 303.53125 C 379.472656 303.851562 379.066406 304.136719 378.636719 304.382812 L 363.175781 328.28125 Z M 316.621094 351.890625 " fill-opacity="1" fill-rule="nonzero"/><path fill="#0048ff" d="M 303.386719 338.328125 L 322.992188 328.320312 L 328.179688 347.796875 L 314.5625 357.886719 Z M 303.386719 338.328125 " fill-opacity="1" fill-rule="nonzero"/><path fill="#a0616a" d="M 259.402344 669.417969 L 271.253906 669.417969 L 276.890625 623.714844 L 259.398438 623.714844 Z M 259.402344 669.417969 " fill-opacity="1" fill-rule="nonzero"/><path fill="#2f2e41" d="M 275.195312 670.484375 L 275.195312 662.453125 L 272.082031 662.640625 L 259.398438 663.394531 L 256.460938 663.574219 L 254.21875 690.476562 L 254.097656 691.917969 L 262.511719 691.917969 L 262.785156 690.484375 L 264.007812 683.976562 L 267.160156 690.484375 L 267.851562 691.917969 L 290.164062 691.917969 C 290.496094 691.917969 290.820312 691.882812 291.140625 691.816406 C 291.464844 691.75 291.777344 691.65625 292.078125 691.527344 C 292.382812 691.402344 292.671875 691.246094 292.945312 691.0625 C 293.21875 690.878906 293.46875 690.671875 293.703125 690.4375 C 293.933594 690.207031 294.140625 689.953125 294.324219 689.679688 C 294.507812 689.40625 294.660156 689.117188 294.789062 688.816406 C 294.914062 688.511719 295.011719 688.199219 295.074219 687.875 C 295.140625 687.554688 295.171875 687.230469 295.175781 686.898438 C 296.117188 682.503906 277.5625 673 275.195312 670.484375 Z M 275.195312 670.484375 " fill-opacity="1" fill-rule="nonzero"/><path fill="#a0616a" d="M 118.710938 488.042969 L 115.945312 499.566406 L 159.089844 515.703125 L 163.164062 498.695312 Z M 118.710938 488.042969 " fill-opacity="1" fill-rule="nonzero"/><g clip-path="url(#9c92741f19)"><path fill="#2f2e41" d="M 114.925781 503.148438 L 122.738281 505.023438 L 123.28125 501.949219 L 125.507812 489.441406 L 126.015625 486.546875 L 100.371094 478.09375 L 98.996094 477.640625 L 97.035156 485.820312 L 98.363281 486.417969 L 104.410156 489.125 L 97.34375 490.675781 L 95.789062 491.011719 L 90.585938 512.703125 C 90.511719 513.023438 90.46875 513.347656 90.457031 513.675781 C 90.445312 514.003906 90.46875 514.332031 90.519531 514.65625 C 90.574219 514.980469 90.65625 515.296875 90.769531 515.601562 C 90.886719 515.910156 91.027344 516.207031 91.203125 516.484375 C 91.375 516.765625 91.570312 517.027344 91.792969 517.269531 C 92.015625 517.507812 92.261719 517.726562 92.527344 517.921875 C 92.792969 518.113281 93.074219 518.28125 93.375 518.417969 C 93.671875 518.554688 93.980469 518.664062 94.300781 518.742188 C 98.355469 520.683594 111.929688 504.859375 114.925781 503.148438 Z M 114.925781 503.148438 " fill-opacity="1" fill-rule="nonzero"/></g><path fill="#a0616a" d="M 277.726562 373.628906 L 262.472656 366.5 L 232.046875 403.308594 L 213.515625 407.992188 C 213.074219 407.765625 212.617188 407.585938 212.140625 407.445312 C 211.667969 407.304688 211.183594 407.207031 210.691406 407.15625 C 210.195312 407.101562 209.703125 407.097656 209.210938 407.136719 C 208.714844 407.171875 208.230469 407.257812 207.75 407.386719 C 207.273438 407.511719 206.808594 407.683594 206.363281 407.894531 C 205.914062 408.109375 205.492188 408.359375 205.089844 408.652344 C 204.6875 408.941406 204.316406 409.269531 203.976562 409.628906 C 203.632812 409.984375 203.328125 410.375 203.058594 410.789062 C 202.789062 411.203125 202.558594 411.640625 202.367188 412.097656 C 202.179688 412.554688 202.03125 413.027344 201.929688 413.511719 C 201.824219 413.996094 201.765625 414.484375 201.753906 414.980469 C 201.738281 415.476562 201.769531 415.96875 201.847656 416.457031 C 201.925781 416.945312 202.046875 417.425781 202.210938 417.890625 C 202.375 418.359375 202.582031 418.804688 202.828125 419.234375 C 203.074219 419.664062 203.359375 420.066406 203.679688 420.445312 C 204.003906 420.824219 204.355469 421.167969 204.738281 421.480469 C 205.125 421.792969 205.535156 422.066406 205.96875 422.304688 C 206.40625 422.539062 206.855469 422.734375 207.328125 422.890625 C 207.800781 423.042969 208.28125 423.152344 208.773438 423.21875 C 209.261719 423.285156 209.753906 423.304688 210.25 423.28125 C 210.746094 423.253906 211.234375 423.183594 211.714844 423.070312 C 212.199219 422.957031 212.664062 422.796875 213.117188 422.597656 C 213.570312 422.398438 214.003906 422.15625 214.410156 421.875 C 214.820312 421.597656 215.199219 421.28125 215.550781 420.933594 L 242.6875 412.3125 Z M 277.726562 373.628906 " fill-opacity="1" fill-rule="nonzero"/><path fill="#bbaabb" d="M 494.015625 237.375 C 493.480469 237.375 492.945312 237.351562 492.410156 237.296875 C 491.878906 237.246094 491.351562 237.167969 490.824219 237.0625 C 490.300781 236.957031 489.78125 236.828125 489.269531 236.671875 C 488.753906 236.515625 488.253906 236.335938 487.757812 236.132812 C 487.261719 235.925781 486.777344 235.699219 486.308594 235.445312 C 485.835938 235.195312 485.375 234.917969 484.929688 234.621094 C 484.484375 234.324219 484.054688 234.003906 483.640625 233.664062 C 483.226562 233.324219 482.832031 232.96875 482.453125 232.589844 C 482.074219 232.210938 481.714844 231.8125 481.375 231.398438 C 481.035156 230.984375 480.71875 230.554688 480.417969 230.113281 C 480.121094 229.667969 479.847656 229.207031 479.59375 228.734375 C 479.34375 228.261719 479.113281 227.78125 478.910156 227.285156 C 478.703125 226.789062 478.523438 226.289062 478.367188 225.773438 C 478.210938 225.261719 478.082031 224.746094 477.976562 224.21875 C 477.875 223.695312 477.796875 223.164062 477.742188 222.632812 C 477.691406 222.101562 477.664062 221.566406 477.664062 221.03125 C 477.664062 220.496094 477.691406 219.960938 477.742188 219.429688 C 477.796875 218.894531 477.875 218.367188 477.976562 217.839844 C 478.082031 217.316406 478.210938 216.796875 478.367188 216.285156 C 478.523438 215.773438 478.703125 215.269531 478.910156 214.773438 C 479.113281 214.28125 479.34375 213.796875 479.59375 213.324219 C 479.847656 212.851562 480.121094 212.394531 480.417969 211.949219 C 480.71875 211.503906 481.035156 211.074219 481.375 210.660156 C 481.714844 210.246094 482.074219 209.851562 482.453125 209.472656 C 482.832031 209.09375 483.226562 208.734375 483.640625 208.394531 C 484.054688 208.054688 484.484375 207.738281 484.929688 207.441406 C 485.375 207.140625 485.835938 206.867188 486.308594 206.613281 C 486.777344 206.363281 487.261719 206.132812 487.757812 205.929688 C 488.253906 205.722656 488.753906 205.542969 489.269531 205.386719 C 489.78125 205.234375 490.300781 205.101562 490.824219 205 C 491.351562 204.894531 491.878906 204.816406 492.410156 204.761719 C 492.945312 204.710938 493.480469 204.683594 494.015625 204.683594 C 494.550781 204.683594 495.085938 204.710938 495.617188 204.761719 C 496.148438 204.816406 496.679688 204.894531 497.203125 205 C 497.730469 205.101562 498.25 205.234375 498.761719 205.386719 C 499.273438 205.542969 499.777344 205.722656 500.269531 205.929688 C 500.765625 206.132812 501.25 206.363281 501.722656 206.613281 C 502.195312 206.867188 502.652344 207.140625 503.097656 207.441406 C 503.542969 207.738281 503.972656 208.054688 504.386719 208.394531 C 504.800781 208.734375 505.195312 209.09375 505.574219 209.472656 C 505.953125 209.851562 506.3125 210.246094 506.652344 210.660156 C 506.992188 211.074219 507.3125 211.503906 507.609375 211.949219 C 507.90625 212.394531 508.183594 212.851562 508.433594 213.324219 C 508.6875 213.796875 508.914062 214.28125 509.121094 214.773438 C 509.324219 215.269531 509.503906 215.773438 509.660156 216.285156 C 509.816406 216.796875 509.945312 217.316406 510.050781 217.839844 C 510.15625 218.367188 510.234375 218.894531 510.285156 219.429688 C 510.339844 219.960938 510.363281 220.496094 510.363281 221.03125 C 510.363281 221.566406 510.335938 222.097656 510.285156 222.632812 C 510.230469 223.164062 510.152344 223.691406 510.046875 224.21875 C 509.941406 224.742188 509.8125 225.261719 509.65625 225.773438 C 509.5 226.285156 509.320312 226.789062 509.117188 227.28125 C 508.910156 227.777344 508.679688 228.261719 508.429688 228.730469 C 508.175781 229.203125 507.902344 229.664062 507.605469 230.105469 C 507.304688 230.550781 506.988281 230.980469 506.648438 231.394531 C 506.308594 231.808594 505.949219 232.203125 505.570312 232.582031 C 505.191406 232.960938 504.796875 233.320312 504.382812 233.660156 C 503.96875 234 503.539062 234.316406 503.09375 234.617188 C 502.648438 234.914062 502.191406 235.1875 501.71875 235.441406 C 501.246094 235.691406 500.761719 235.921875 500.269531 236.125 C 499.773438 236.332031 499.269531 236.511719 498.757812 236.667969 C 498.246094 236.824219 497.726562 236.953125 497.203125 237.058594 C 496.679688 237.164062 496.148438 237.242188 495.617188 237.296875 C 495.082031 237.347656 494.550781 237.375 494.015625 237.375 Z M 494.015625 206.5625 C 493.0625 206.5625 492.121094 206.652344 491.191406 206.839844 C 490.257812 207.023438 489.351562 207.296875 488.476562 207.660156 C 487.597656 208.027344 486.761719 208.472656 485.972656 209 C 485.183594 209.527344 484.453125 210.125 483.78125 210.796875 C 483.109375 211.46875 482.507812 212.203125 481.980469 212.992188 C 481.453125 213.78125 481.003906 214.613281 480.640625 215.492188 C 480.277344 216.371094 480.003906 217.277344 479.820312 218.207031 C 479.632812 219.140625 479.539062 220.082031 479.539062 221.03125 C 479.539062 221.980469 479.632812 222.921875 479.820312 223.851562 C 480.003906 224.785156 480.277344 225.691406 480.640625 226.566406 C 481.003906 227.445312 481.453125 228.277344 481.980469 229.070312 C 482.507812 229.859375 483.109375 230.589844 483.78125 231.261719 C 484.453125 231.933594 485.183594 232.535156 485.972656 233.0625 C 486.761719 233.589844 487.597656 234.035156 488.476562 234.398438 C 489.351562 234.761719 490.257812 235.035156 491.191406 235.222656 C 492.121094 235.40625 493.0625 235.5 494.015625 235.5 C 494.964844 235.5 495.90625 235.40625 496.839844 235.222656 C 497.769531 235.035156 498.675781 234.761719 499.554688 234.398438 C 500.429688 234.035156 501.265625 233.589844 502.054688 233.0625 C 502.847656 232.535156 503.578125 231.933594 504.25 231.261719 C 504.921875 230.589844 505.519531 229.859375 506.050781 229.070312 C 506.578125 228.277344 507.023438 227.445312 507.386719 226.566406 C 507.75 225.691406 508.023438 224.785156 508.210938 223.851562 C 508.394531 222.921875 508.488281 221.980469 508.488281 221.03125 C 508.488281 220.082031 508.394531 219.140625 508.207031 218.207031 C 508.019531 217.277344 507.746094 216.371094 507.382812 215.496094 C 507.019531 214.617188 506.570312 213.785156 506.042969 212.996094 C 505.515625 212.207031 504.917969 211.476562 504.246094 210.804688 C 503.574219 210.132812 502.839844 209.53125 502.050781 209.003906 C 501.261719 208.476562 500.429688 208.03125 499.550781 207.667969 C 498.671875 207.300781 497.769531 207.027344 496.835938 206.839844 C 495.90625 206.65625 494.964844 206.5625 494.015625 206.5625 Z M 494.015625 206.5625 " fill-opacity="0.6667" fill-rule="nonzero"/><path fill="#bbaabb" d="M 492.859375 227.1875 C 492.828125 227.1875 492.792969 227.1875 492.761719 227.183594 C 492.144531 227.15625 491.648438 226.898438 491.269531 226.410156 L 488.691406 223.097656 C 488.527344 222.886719 488.410156 222.652344 488.339844 222.394531 C 488.269531 222.136719 488.25 221.875 488.28125 221.613281 C 488.316406 221.347656 488.398438 221.097656 488.53125 220.863281 C 488.664062 220.632812 488.835938 220.433594 489.046875 220.269531 L 489.136719 220.199219 C 489.351562 220.035156 489.585938 219.917969 489.84375 219.84375 C 490.101562 219.773438 490.363281 219.753906 490.628906 219.789062 C 490.890625 219.820312 491.140625 219.902344 491.375 220.035156 C 491.605469 220.167969 491.804688 220.339844 491.96875 220.550781 C 492.101562 220.71875 492.261719 220.855469 492.453125 220.953125 C 492.640625 221.050781 492.84375 221.105469 493.058594 221.117188 C 493.273438 221.128906 493.476562 221.09375 493.675781 221.011719 C 493.875 220.933594 494.050781 220.816406 494.195312 220.660156 L 499.425781 215.140625 C 499.609375 214.945312 499.824219 214.796875 500.066406 214.6875 C 500.3125 214.578125 500.566406 214.519531 500.835938 214.511719 C 501.101562 214.503906 501.359375 214.550781 501.609375 214.644531 C 501.859375 214.738281 502.082031 214.878906 502.277344 215.0625 L 502.363281 215.144531 C 502.558594 215.328125 502.707031 215.542969 502.816406 215.785156 C 502.925781 216.03125 502.984375 216.285156 502.992188 216.554688 C 503 216.820312 502.953125 217.078125 502.859375 217.328125 C 502.761719 217.578125 502.625 217.800781 502.441406 217.996094 L 494.324219 226.558594 C 493.925781 226.976562 493.4375 227.1875 492.859375 227.1875 Z M 492.859375 227.1875 " fill-opacity="0.6667" fill-rule="nonzero"/><path fill="#bbaabb" d="M 412.394531 435.273438 C 411.855469 435.273438 411.324219 435.246094 410.789062 435.195312 C 410.257812 435.140625 409.726562 435.0625 409.203125 434.957031 C 408.675781 434.855469 408.160156 434.722656 407.644531 434.570312 C 407.132812 434.414062 406.628906 434.234375 406.136719 434.027344 C 405.640625 433.824219 405.15625 433.59375 404.683594 433.34375 C 404.214844 433.089844 403.753906 432.816406 403.308594 432.519531 C 402.863281 432.222656 402.433594 431.902344 402.019531 431.5625 C 401.605469 431.222656 401.210938 430.863281 400.832031 430.484375 C 400.453125 430.105469 400.09375 429.710938 399.753906 429.296875 C 399.414062 428.882812 399.09375 428.453125 398.796875 428.007812 C 398.5 427.5625 398.226562 427.105469 397.972656 426.632812 C 397.71875 426.160156 397.492188 425.675781 397.285156 425.183594 C 397.082031 424.6875 396.902344 424.183594 396.746094 423.671875 C 396.589844 423.160156 396.460938 422.640625 396.355469 422.117188 C 396.253906 421.589844 396.171875 421.0625 396.121094 420.53125 C 396.070312 419.996094 396.042969 419.460938 396.042969 418.925781 C 396.042969 418.390625 396.070312 417.859375 396.121094 417.324219 C 396.171875 416.792969 396.253906 416.265625 396.355469 415.738281 C 396.460938 415.214844 396.589844 414.695312 396.746094 414.183594 C 396.902344 413.671875 397.082031 413.167969 397.285156 412.671875 C 397.492188 412.179688 397.71875 411.695312 397.972656 411.222656 C 398.226562 410.75 398.5 410.292969 398.796875 409.847656 C 399.09375 409.402344 399.414062 408.972656 399.753906 408.558594 C 400.09375 408.144531 400.453125 407.746094 400.832031 407.371094 C 401.210938 406.992188 401.605469 406.632812 402.019531 406.292969 C 402.433594 405.953125 402.863281 405.632812 403.308594 405.335938 C 403.753906 405.039062 404.214844 404.765625 404.683594 404.511719 C 405.15625 404.257812 405.640625 404.03125 406.136719 403.828125 C 406.628906 403.621094 407.132812 403.441406 407.644531 403.285156 C 408.160156 403.128906 408.675781 403 409.203125 402.894531 C 409.726562 402.792969 410.257812 402.714844 410.789062 402.660156 C 411.324219 402.609375 411.855469 402.582031 412.394531 402.582031 C 412.929688 402.582031 413.460938 402.609375 413.996094 402.660156 C 414.527344 402.714844 415.058594 402.792969 415.582031 402.894531 C 416.109375 403 416.625 403.128906 417.140625 403.285156 C 417.652344 403.441406 418.15625 403.621094 418.648438 403.828125 C 419.144531 404.03125 419.628906 404.257812 420.101562 404.511719 C 420.574219 404.765625 421.03125 405.039062 421.476562 405.335938 C 421.921875 405.632812 422.351562 405.953125 422.765625 406.292969 C 423.179688 406.632812 423.574219 406.992188 423.953125 407.371094 C 424.332031 407.746094 424.691406 408.144531 425.03125 408.558594 C 425.371094 408.972656 425.691406 409.402344 425.988281 409.847656 C 426.285156 410.292969 426.558594 410.75 426.8125 411.222656 C 427.066406 411.695312 427.292969 412.179688 427.5 412.671875 C 427.703125 413.167969 427.882812 413.671875 428.039062 414.183594 C 428.195312 414.695312 428.324219 415.214844 428.429688 415.738281 C 428.535156 416.265625 428.613281 416.792969 428.664062 417.324219 C 428.71875 417.859375 428.742188 418.390625 428.742188 418.925781 C 428.742188 419.460938 428.714844 419.996094 428.664062 420.527344 C 428.609375 421.0625 428.53125 421.589844 428.425781 422.113281 C 428.320312 422.640625 428.191406 423.160156 428.035156 423.671875 C 427.878906 424.183594 427.699219 424.683594 427.492188 425.179688 C 427.289062 425.675781 427.058594 426.15625 426.808594 426.628906 C 426.554688 427.101562 426.28125 427.558594 425.980469 428.003906 C 425.683594 428.449219 425.367188 428.878906 425.027344 429.292969 C 424.6875 429.707031 424.328125 430.101562 423.949219 430.480469 C 423.570312 430.859375 423.175781 431.21875 422.761719 431.558594 C 422.347656 431.898438 421.917969 432.214844 421.472656 432.511719 C 421.027344 432.808594 420.570312 433.085938 420.097656 433.335938 C 419.625 433.589844 419.140625 433.820312 418.648438 434.023438 C 418.152344 434.230469 417.648438 434.410156 417.136719 434.566406 C 416.625 434.722656 416.105469 434.851562 415.582031 434.957031 C 415.054688 435.0625 414.527344 435.140625 413.996094 435.191406 C 413.460938 435.246094 412.929688 435.273438 412.394531 435.273438 Z M 412.394531 404.457031 C 411.441406 404.457031 410.5 404.550781 409.570312 404.734375 C 408.636719 404.921875 407.730469 405.195312 406.855469 405.558594 C 405.976562 405.921875 405.140625 406.367188 404.351562 406.894531 C 403.5625 407.425781 402.828125 408.023438 402.15625 408.695312 C 401.484375 409.367188 400.886719 410.097656 400.359375 410.886719 C 399.828125 411.679688 399.382812 412.511719 399.019531 413.390625 C 398.65625 414.269531 398.382812 415.171875 398.195312 416.105469 C 398.011719 417.035156 397.917969 417.976562 397.917969 418.925781 C 397.917969 419.878906 398.011719 420.820312 398.195312 421.75 C 398.382812 422.683594 398.65625 423.585938 399.019531 424.464844 C 399.382812 425.34375 399.828125 426.175781 400.359375 426.964844 C 400.886719 427.757812 401.484375 428.488281 402.15625 429.160156 C 402.828125 429.832031 403.5625 430.429688 404.351562 430.957031 C 405.140625 431.488281 405.976562 431.933594 406.855469 432.296875 C 407.730469 432.660156 408.636719 432.933594 409.570312 433.121094 C 410.5 433.304688 411.441406 433.398438 412.394531 433.398438 C 413.34375 433.398438 414.285156 433.304688 415.214844 433.121094 C 416.148438 432.933594 417.054688 432.660156 417.929688 432.296875 C 418.808594 431.933594 419.644531 431.488281 420.433594 430.957031 C 421.222656 430.429688 421.957031 429.832031 422.628906 429.160156 C 423.300781 428.488281 423.898438 427.757812 424.425781 426.964844 C 424.957031 426.175781 425.402344 425.34375 425.765625 424.464844 C 426.128906 423.585938 426.402344 422.683594 426.589844 421.75 C 426.773438 420.820312 426.867188 419.878906 426.867188 418.925781 C 426.867188 417.976562 426.773438 417.039062 426.585938 416.105469 C 426.398438 415.175781 426.125 414.269531 425.761719 413.394531 C 425.394531 412.515625 424.949219 411.683594 424.421875 410.890625 C 423.894531 410.101562 423.292969 409.371094 422.621094 408.699219 C 421.949219 408.027344 421.21875 407.429688 420.429688 406.902344 C 419.640625 406.375 418.808594 405.925781 417.929688 405.5625 C 417.050781 405.199219 416.148438 404.925781 415.214844 404.738281 C 414.285156 404.550781 413.34375 404.457031 412.394531 404.457031 Z M 412.394531 404.457031 " fill-opacity="0.6667" fill-rule="nonzero"/><path fill="#bbaabb" d="M 411.238281 425.085938 C 411.207031 425.085938 411.171875 425.085938 411.140625 425.082031 C 410.523438 425.054688 410.023438 424.792969 409.644531 424.308594 L 407.070312 420.996094 C 406.90625 420.785156 406.789062 420.550781 406.71875 420.292969 C 406.648438 420.035156 406.628906 419.773438 406.660156 419.507812 C 406.695312 419.242188 406.777344 418.996094 406.910156 418.761719 C 407.042969 418.53125 407.214844 418.332031 407.425781 418.167969 L 407.515625 418.09375 C 407.726562 417.929688 407.960938 417.8125 408.21875 417.742188 C 408.476562 417.671875 408.738281 417.652344 409.003906 417.683594 C 409.269531 417.71875 409.519531 417.800781 409.753906 417.933594 C 409.984375 418.066406 410.183594 418.238281 410.347656 418.449219 C 410.480469 418.617188 410.640625 418.75 410.828125 418.851562 C 411.019531 418.949219 411.222656 419.003906 411.4375 419.015625 C 411.648438 419.023438 411.855469 418.988281 412.054688 418.910156 C 412.253906 418.832031 412.425781 418.710938 412.574219 418.558594 L 417.804688 413.039062 C 417.988281 412.84375 418.203125 412.691406 418.445312 412.582031 C 418.691406 412.476562 418.945312 412.417969 419.214844 412.410156 C 419.480469 412.402344 419.738281 412.445312 419.988281 412.542969 C 420.238281 412.636719 420.460938 412.777344 420.65625 412.960938 L 420.742188 413.042969 C 420.933594 413.226562 421.085938 413.441406 421.195312 413.683594 C 421.304688 413.929688 421.363281 414.183594 421.371094 414.453125 C 421.378906 414.71875 421.332031 414.976562 421.238281 415.226562 C 421.140625 415.476562 421 415.699219 420.816406 415.890625 L 412.703125 424.457031 C 412.304688 424.875 411.816406 425.085938 411.238281 425.085938 Z M 411.238281 425.085938 " fill-opacity="0.6667" fill-rule="nonzero"/><path fill="#bbaabb" d="M 233.199219 214.867188 C 232.664062 214.867188 232.128906 214.839844 231.597656 214.789062 C 231.066406 214.734375 230.535156 214.65625 230.011719 214.550781 C 229.484375 214.449219 228.964844 214.316406 228.453125 214.164062 C 227.941406 214.007812 227.4375 213.828125 226.941406 213.621094 C 226.449219 213.417969 225.964844 213.1875 225.492188 212.9375 C 225.019531 212.683594 224.5625 212.410156 224.117188 212.113281 C 223.671875 211.8125 223.242188 211.496094 222.828125 211.15625 C 222.414062 210.816406 222.015625 210.457031 221.640625 210.078125 C 221.261719 209.699219 220.902344 209.304688 220.5625 208.890625 C 220.222656 208.476562 219.902344 208.046875 219.605469 207.601562 C 219.308594 207.15625 219.03125 206.699219 218.78125 206.226562 C 218.527344 205.753906 218.300781 205.269531 218.09375 204.777344 C 217.890625 204.28125 217.710938 203.777344 217.554688 203.265625 C 217.398438 202.753906 217.269531 202.234375 217.164062 201.710938 C 217.058594 201.183594 216.980469 200.65625 216.929688 200.121094 C 216.875 199.589844 216.851562 199.054688 216.851562 198.519531 C 216.851562 197.984375 216.875 197.453125 216.929688 196.917969 C 216.980469 196.386719 217.058594 195.855469 217.164062 195.332031 C 217.269531 194.808594 217.398438 194.289062 217.554688 193.777344 C 217.710938 193.261719 217.890625 192.761719 218.09375 192.265625 C 218.300781 191.769531 218.527344 191.289062 218.78125 190.816406 C 219.03125 190.34375 219.308594 189.882812 219.605469 189.441406 C 219.902344 188.996094 220.222656 188.566406 220.5625 188.152344 C 220.902344 187.738281 221.261719 187.339844 221.640625 186.960938 C 222.015625 186.585938 222.414062 186.226562 222.828125 185.886719 C 223.242188 185.546875 223.671875 185.226562 224.117188 184.929688 C 224.5625 184.632812 225.019531 184.359375 225.492188 184.105469 C 225.964844 183.851562 226.449219 183.625 226.941406 183.417969 C 227.4375 183.214844 227.941406 183.035156 228.453125 182.878906 C 228.964844 182.722656 229.484375 182.59375 230.011719 182.488281 C 230.535156 182.386719 231.066406 182.304688 231.597656 182.253906 C 232.128906 182.203125 232.664062 182.175781 233.199219 182.175781 C 233.734375 182.175781 234.269531 182.203125 234.804688 182.253906 C 235.335938 182.304688 235.863281 182.386719 236.390625 182.488281 C 236.914062 182.59375 237.433594 182.722656 237.945312 182.878906 C 238.457031 183.035156 238.960938 183.214844 239.457031 183.417969 C 239.953125 183.625 240.433594 183.851562 240.90625 184.105469 C 241.378906 184.359375 241.839844 184.632812 242.285156 184.929688 C 242.730469 185.226562 243.160156 185.546875 243.574219 185.886719 C 243.988281 186.226562 244.382812 186.585938 244.761719 186.960938 C 245.140625 187.339844 245.5 187.738281 245.839844 188.152344 C 246.179688 188.566406 246.496094 188.996094 246.796875 189.441406 C 247.09375 189.882812 247.367188 190.34375 247.621094 190.816406 C 247.871094 191.289062 248.101562 191.769531 248.304688 192.265625 C 248.511719 192.761719 248.691406 193.261719 248.847656 193.777344 C 249.003906 194.289062 249.132812 194.808594 249.238281 195.332031 C 249.339844 195.855469 249.417969 196.386719 249.472656 196.917969 C 249.523438 197.453125 249.550781 197.984375 249.550781 198.519531 C 249.550781 199.054688 249.523438 199.589844 249.46875 200.121094 C 249.417969 200.65625 249.339844 201.183594 249.234375 201.707031 C 249.128906 202.234375 249 202.75 248.84375 203.261719 C 248.6875 203.777344 248.507812 204.277344 248.300781 204.773438 C 248.097656 205.265625 247.867188 205.75 247.613281 206.222656 C 247.363281 206.695312 247.085938 207.152344 246.789062 207.597656 C 246.492188 208.042969 246.171875 208.472656 245.832031 208.886719 C 245.492188 209.300781 245.136719 209.695312 244.757812 210.074219 C 244.378906 210.453125 243.980469 210.8125 243.566406 211.148438 C 243.152344 211.488281 242.726562 211.808594 242.28125 212.105469 C 241.835938 212.402344 241.375 212.679688 240.902344 212.929688 C 240.433594 213.183594 239.949219 213.410156 239.453125 213.617188 C 238.960938 213.820312 238.457031 214.003906 237.945312 214.160156 C 237.433594 214.3125 236.914062 214.445312 236.390625 214.550781 C 235.863281 214.652344 235.335938 214.734375 234.800781 214.785156 C 234.269531 214.839844 233.734375 214.867188 233.199219 214.867188 Z M 233.199219 184.050781 C 232.25 184.050781 231.308594 184.144531 230.375 184.328125 C 229.445312 184.515625 228.539062 184.789062 227.660156 185.152344 C 226.78125 185.515625 225.949219 185.960938 225.160156 186.488281 C 224.367188 187.015625 223.636719 187.617188 222.964844 188.289062 C 222.292969 188.960938 221.695312 189.691406 221.164062 190.480469 C 220.636719 191.273438 220.191406 192.105469 219.828125 192.984375 C 219.464844 193.859375 219.191406 194.765625 219.003906 195.699219 C 218.820312 196.628906 218.726562 197.570312 218.726562 198.519531 C 218.726562 199.472656 218.820312 200.410156 219.003906 201.34375 C 219.191406 202.277344 219.464844 203.179688 219.828125 204.058594 C 220.191406 204.9375 220.636719 205.769531 221.164062 206.558594 C 221.695312 207.347656 222.292969 208.082031 222.964844 208.753906 C 223.636719 209.425781 224.367188 210.023438 225.160156 210.550781 C 225.949219 211.078125 226.78125 211.523438 227.660156 211.890625 C 228.539062 212.253906 229.445312 212.527344 230.375 212.710938 C 231.308594 212.898438 232.25 212.992188 233.199219 212.992188 C 234.152344 212.992188 235.09375 212.898438 236.023438 212.710938 C 236.957031 212.527344 237.859375 212.253906 238.738281 211.890625 C 239.617188 211.523438 240.453125 211.078125 241.242188 210.550781 C 242.03125 210.023438 242.761719 209.425781 243.433594 208.753906 C 244.105469 208.082031 244.707031 207.347656 245.234375 206.558594 C 245.761719 205.769531 246.207031 204.9375 246.574219 204.058594 C 246.9375 203.179688 247.210938 202.277344 247.394531 201.34375 C 247.582031 200.410156 247.675781 199.472656 247.675781 198.519531 C 247.671875 197.570312 247.578125 196.628906 247.394531 195.699219 C 247.207031 194.765625 246.933594 193.863281 246.566406 192.984375 C 246.203125 192.109375 245.757812 191.273438 245.230469 190.484375 C 244.703125 189.695312 244.101562 188.964844 243.429688 188.292969 C 242.757812 187.621094 242.027344 187.023438 241.238281 186.496094 C 240.449219 185.964844 239.613281 185.519531 238.738281 185.15625 C 237.859375 184.792969 236.953125 184.519531 236.023438 184.332031 C 235.089844 184.144531 234.148438 184.050781 233.199219 184.050781 Z M 233.199219 184.050781 " fill-opacity="0.6667" fill-rule="nonzero"/><path fill="#bbaabb" d="M 232.046875 204.679688 C 232.011719 204.679688 231.980469 204.675781 231.949219 204.675781 C 231.332031 204.644531 230.832031 204.386719 230.453125 203.898438 L 227.878906 200.589844 C 227.714844 200.378906 227.597656 200.144531 227.523438 199.886719 C 227.453125 199.628906 227.433594 199.367188 227.46875 199.101562 C 227.5 198.835938 227.585938 198.585938 227.714844 198.355469 C 227.847656 198.121094 228.019531 197.925781 228.230469 197.761719 L 228.324219 197.6875 C 228.535156 197.523438 228.769531 197.40625 229.027344 197.335938 C 229.285156 197.265625 229.546875 197.246094 229.8125 197.277344 C 230.078125 197.3125 230.328125 197.394531 230.558594 197.527344 C 230.792969 197.660156 230.992188 197.832031 231.15625 198.042969 C 231.285156 198.210938 231.445312 198.34375 231.636719 198.441406 C 231.828125 198.542969 232.03125 198.597656 232.242188 198.605469 C 232.457031 198.617188 232.664062 198.582031 232.863281 198.503906 C 233.0625 198.421875 233.234375 198.304688 233.382812 198.148438 L 238.613281 192.632812 C 238.796875 192.4375 239.007812 192.285156 239.253906 192.175781 C 239.5 192.066406 239.753906 192.011719 240.019531 192.003906 C 240.289062 191.996094 240.546875 192.039062 240.796875 192.136719 C 241.046875 192.230469 241.269531 192.371094 241.460938 192.554688 L 241.546875 192.636719 C 241.742188 192.820312 241.894531 193.03125 242.003906 193.277344 C 242.113281 193.519531 242.171875 193.777344 242.175781 194.042969 C 242.183594 194.3125 242.140625 194.570312 242.042969 194.820312 C 241.949219 195.070312 241.808594 195.292969 241.625 195.484375 L 233.507812 204.050781 C 233.113281 204.46875 232.625 204.679688 232.046875 204.679688 Z M 232.046875 204.679688 " fill-opacity="0.6667" fill-rule="nonzero"/><path fill="#f2f2f2" d="M 364.101562 496.046875 C 326.1875 496.046875 282.613281 453.984375 244.0625 473.96875 C 127.339844 534.476562 143.40625 433.226562 109.871094 395.574219 L 110.972656 393.363281 C 147.972656 426.53125 194.171875 453.515625 244.570312 471.402344 C 290.113281 487.566406 336 495.054688 377.25 493.082031 L 377.320312 495.734375 C 372.964844 495.945312 368.558594 496.046875 364.101562 496.046875 Z M 364.101562 496.046875 " fill-opacity="1" fill-rule="nonzero"/><path fill="#bbaabb" d="M 320.015625 201.042969 C 320.015625 201.742188 319.964844 202.433594 319.863281 203.117188 C 319.761719 203.800781 319.613281 204.464844 319.414062 205.109375 C 319.214844 205.753906 318.972656 206.367188 318.683594 206.945312 C 318.394531 207.527344 318.0625 208.0625 317.695312 208.554688 C 317.328125 209.050781 316.929688 209.488281 316.496094 209.875 C 316.0625 210.265625 315.605469 210.589844 315.125 210.859375 C 314.644531 211.125 314.148438 211.328125 313.636719 211.464844 C 313.128906 211.597656 312.613281 211.667969 312.09375 211.667969 C 311.570312 211.667969 311.058594 211.597656 310.546875 211.464844 C 310.035156 211.328125 309.539062 211.125 309.058594 210.859375 C 308.578125 210.589844 308.121094 210.265625 307.691406 209.875 C 307.257812 209.488281 306.855469 209.050781 306.488281 208.554688 C 306.121094 208.0625 305.792969 207.527344 305.503906 206.945312 C 305.214844 206.367188 304.96875 205.753906 304.769531 205.109375 C 304.570312 204.464844 304.421875 203.800781 304.320312 203.117188 C 304.21875 202.433594 304.167969 201.742188 304.167969 201.042969 C 304.167969 200.347656 304.21875 199.65625 304.320312 198.972656 C 304.421875 198.285156 304.570312 197.621094 304.769531 196.976562 C 304.96875 196.332031 305.214844 195.722656 305.503906 195.140625 C 305.792969 194.5625 306.121094 194.023438 306.488281 193.53125 C 306.855469 193.039062 307.257812 192.597656 307.691406 192.210938 C 308.121094 191.824219 308.578125 191.496094 309.058594 191.230469 C 309.539062 190.960938 310.035156 190.761719 310.546875 190.625 C 311.058594 190.488281 311.570312 190.421875 312.09375 190.421875 C 312.613281 190.421875 313.128906 190.488281 313.636719 190.625 C 314.148438 190.761719 314.644531 190.960938 315.125 191.230469 C 315.605469 191.496094 316.0625 191.824219 316.496094 192.210938 C 316.929688 192.597656 317.328125 193.039062 317.695312 193.53125 C 318.0625 194.023438 318.394531 194.5625 318.683594 195.140625 C 318.972656 195.722656 319.214844 196.332031 319.414062 196.976562 C 319.613281 197.621094 319.761719 198.285156 319.863281 198.972656 C 319.964844 199.65625 320.015625 200.347656 320.015625 201.042969 Z M 320.015625 201.042969 " fill-opacity="0.6667" fill-rule="nonzero"/><path fill="#bbaabb" d="M 403.628906 377.402344 C 400.003906 379.816406 396.296875 374.074219 399.988281 371.765625 C 403.613281 369.351562 407.320312 375.097656 403.628906 377.402344 Z M 403.628906 377.402344 " fill-opacity="0.6667" fill-rule="nonzero"/><path fill="#ff6584" d="M 393.09375 173.707031 C 393.09375 174.386719 393.027344 175.054688 392.894531 175.71875 C 392.761719 176.382812 392.566406 177.03125 392.304688 177.65625 C 392.046875 178.28125 391.730469 178.875 391.351562 179.4375 C 390.976562 180.003906 390.546875 180.523438 390.070312 181.003906 C 389.589844 181.480469 389.070312 181.910156 388.503906 182.285156 C 387.941406 182.660156 387.347656 182.980469 386.722656 183.238281 C 386.09375 183.5 385.449219 183.695312 384.785156 183.828125 C 384.121094 183.957031 383.449219 184.023438 382.773438 184.023438 C 382.09375 184.023438 381.421875 183.957031 380.757812 183.828125 C 380.09375 183.695312 379.449219 183.5 378.824219 183.238281 C 378.195312 182.980469 377.601562 182.660156 377.039062 182.285156 C 376.476562 181.910156 375.953125 181.480469 375.476562 181.003906 C 374.996094 180.523438 374.566406 180.003906 374.191406 179.4375 C 373.816406 178.875 373.496094 178.28125 373.238281 177.65625 C 372.976562 177.03125 372.78125 176.382812 372.652344 175.71875 C 372.519531 175.054688 372.453125 174.386719 372.453125 173.707031 C 372.453125 173.03125 372.519531 172.359375 372.652344 171.695312 C 372.78125 171.03125 372.976562 170.386719 373.238281 169.757812 C 373.496094 169.132812 373.816406 168.539062 374.191406 167.976562 C 374.566406 167.414062 374.996094 166.890625 375.476562 166.414062 C 375.953125 165.933594 376.476562 165.503906 377.039062 165.128906 C 377.601562 164.753906 378.195312 164.433594 378.824219 164.175781 C 379.449219 163.917969 380.09375 163.722656 380.757812 163.589844 C 381.421875 163.457031 382.09375 163.390625 382.773438 163.390625 C 383.449219 163.390625 384.121094 163.457031 384.785156 163.589844 C 385.449219 163.722656 386.09375 163.917969 386.722656 164.175781 C 387.347656 164.433594 387.941406 164.753906 388.503906 165.128906 C 389.070312 165.503906 389.589844 165.933594 390.070312 166.414062 C 390.546875 166.890625 390.976562 167.414062 391.351562 167.976562 C 391.730469 168.539062 392.046875 169.132812 392.304688 169.757812 C 392.566406 170.386719 392.761719 171.03125 392.894531 171.695312 C 393.027344 172.359375 393.09375 173.03125 393.09375 173.707031 Z M 393.09375 173.707031 " fill-opacity="1" fill-rule="nonzero"/><g clip-path="url(#f22cd27156)"><path fill="#f0f0f0" d="M 418.867188 230.242188 L 477.589844 58.785156 L 413.109375 228.191406 C 412.949219 228.390625 412.816406 228.609375 412.707031 228.839844 C 412.601562 229.074219 412.523438 229.316406 412.472656 229.566406 C 412.421875 229.820312 412.402344 230.074219 412.414062 230.328125 C 412.421875 230.585938 412.464844 230.835938 412.535156 231.085938 C 412.605469 231.332031 412.703125 231.566406 412.832031 231.789062 C 412.957031 232.011719 413.109375 232.21875 413.285156 232.40625 C 413.460938 232.589844 413.65625 232.753906 413.871094 232.894531 C 414.085938 233.035156 414.3125 233.148438 414.554688 233.234375 C 414.796875 233.320312 415.046875 233.378906 415.300781 233.40625 C 415.554688 233.433594 415.808594 233.429688 416.066406 233.394531 C 416.320312 233.363281 416.566406 233.296875 416.804688 233.207031 C 417.042969 233.113281 417.269531 232.992188 417.480469 232.847656 C 417.691406 232.699219 417.882812 232.53125 418.050781 232.339844 C 418.222656 232.148438 418.367188 231.9375 418.488281 231.710938 C 418.609375 231.484375 418.703125 231.25 418.765625 231 C 418.832031 230.75 418.863281 230.5 418.867188 230.242188 Z M 418.867188 230.242188 " fill-opacity="0.298" fill-rule="nonzero"/></g><path fill="#f2f2f2" d="M 369.632812 429.089844 C 369.632812 429.75 369.570312 430.402344 369.441406 431.046875 C 369.3125 431.695312 369.121094 432.320312 368.871094 432.929688 C 368.617188 433.539062 368.308594 434.117188 367.941406 434.667969 C 367.574219 435.214844 367.160156 435.722656 366.691406 436.1875 C 366.226562 436.652344 365.71875 437.070312 365.171875 437.433594 C 364.625 437.800781 364.042969 438.109375 363.4375 438.363281 C 362.828125 438.613281 362.199219 438.804688 361.550781 438.933594 C 360.90625 439.0625 360.253906 439.128906 359.59375 439.128906 C 358.933594 439.128906 358.28125 439.0625 357.632812 438.933594 C 356.988281 438.804688 356.359375 438.613281 355.75 438.363281 C 355.140625 438.109375 354.5625 437.800781 354.015625 437.433594 C 353.46875 437.070312 352.960938 436.652344 352.492188 436.1875 C 352.027344 435.722656 351.613281 435.214844 351.246094 434.667969 C 350.878906 434.117188 350.570312 433.539062 350.316406 432.929688 C 350.066406 432.320312 349.875 431.695312 349.746094 431.046875 C 349.617188 430.402344 349.554688 429.75 349.554688 429.089844 C 349.554688 428.429688 349.617188 427.777344 349.746094 427.132812 C 349.875 426.484375 350.066406 425.855469 350.316406 425.25 C 350.570312 424.640625 350.878906 424.0625 351.246094 423.511719 C 351.613281 422.964844 352.027344 422.457031 352.492188 421.992188 C 352.960938 421.527344 353.46875 421.109375 354.015625 420.742188 C 354.5625 420.378906 355.140625 420.070312 355.75 419.816406 C 356.359375 419.5625 356.988281 419.375 357.632812 419.246094 C 358.28125 419.117188 358.933594 419.050781 359.59375 419.050781 C 360.253906 419.050781 360.90625 419.117188 361.550781 419.246094 C 362.199219 419.375 362.828125 419.5625 363.4375 419.816406 C 364.042969 420.070312 364.625 420.378906 365.171875 420.742188 C 365.71875 421.109375 366.226562 421.527344 366.691406 421.992188 C 367.160156 422.457031 367.574219 422.964844 367.941406 423.511719 C 368.308594 424.0625 368.617188 424.640625 368.871094 425.25 C 369.121094 425.855469 369.3125 426.484375 369.441406 427.132812 C 369.570312 427.777344 369.632812 428.429688 369.632812 429.089844 Z M 369.632812 429.089844 " fill-opacity="1" fill-rule="nonzero"/><path fill="#2f2e41" d="M 262.347656 432.917969 C 262.347656 432.917969 237.316406 449.210938 243.933594 460.039062 C 244.164062 460.414062 214.035156 500.191406 214.035156 500.191406 L 157.160156 496.582031 L 155.15625 515.613281 L 205.789062 530.273438 C 205.789062 530.273438 218.175781 539.371094 227.746094 529.347656 C 237.316406 519.324219 269.1875 488.628906 269.1875 488.628906 L 270.726562 550.601562 L 254.726562 636.480469 L 278.617188 634.964844 L 301.871094 548.808594 L 310.453125 451.214844 Z M 262.347656 432.917969 " fill-opacity="1" fill-rule="nonzero"/><path fill="#0048ff" d="M 280.175781 335.125 L 269.648438 343.097656 L 257.652344 368.699219 L 269.1875 384.363281 C 269.1875 384.363281 278.894531 401.175781 263.359375 417.457031 C 247.828125 433.742188 235.898438 451.132812 248.332031 450.511719 C 260.765625 449.890625 311.121094 475.492188 311.449219 454.515625 C 311.78125 433.539062 312.453125 417.457031 312.453125 417.457031 L 325.65625 383.984375 C 325.65625 383.984375 333.519531 364.011719 328 358.035156 C 322.476562 352.058594 315.082031 344.417969 315.082031 344.417969 L 301.636719 330.976562 L 289.496094 330.976562 Z M 280.175781 335.125 " fill-opacity="1" fill-rule="nonzero"/><path fill="#a0616a" d="M 299.824219 285.9375 C 323.441406 299.371094 304.054688 334.816406 280 322.195312 C 256.386719 308.761719 275.773438 273.320312 299.824219 285.9375 Z M 299.824219 285.9375 " fill-opacity="1" fill-rule="nonzero"/><path fill="#2f2e41" d="M 312.453125 293.386719 C 310.796875 295.539062 307.339844 294.53125 300.570312 296.066406 C 300.585938 293.761719 300.324219 291.492188 299.78125 289.253906 C 299.273438 292.050781 298.195312 294.605469 296.546875 296.917969 C 290.671875 297.570312 297.875 315.425781 294.867188 328.550781 C 290.988281 300.859375 282.832031 308.113281 286.953125 313.605469 C 289.589844 317.121094 287.832031 327.671875 279.917969 322.398438 C 266.859375 328.601562 248.261719 297.78125 268.875 283.332031 C 268.507812 275.519531 277.203125 274.285156 282.554688 276.6875 C 295.550781 267.007812 310.398438 279.410156 312.453125 293.386719 Z M 312.453125 293.386719 " fill-opacity="1" fill-rule="nonzero"/><path fill="#2f2e41" d="M 251.863281 273.183594 C 246.605469 305.496094 218.425781 267.238281 205.175781 299.039062 C 201.011719 310.554688 208.160156 318.792969 212.679688 328.355469 C 213.710938 336.210938 203.488281 340.195312 202.417969 347.425781 C 202.121094 364.003906 228.875 362.992188 236.355469 352.53125 C 244.039062 341.582031 234.863281 326.890625 239.480469 315.140625 C 245.972656 298.820312 272.378906 298.699219 274.675781 279.71875 C 270.222656 273.375 258.242188 266.113281 251.863281 273.183594 Z M 251.863281 273.183594 " fill-opacity="1" fill-rule="nonzero"/><path fill="#2f2e41" d="M 273.160156 276.339844 C 272.988281 276.410156 272.816406 276.484375 272.664062 276.566406 L 272.65625 276.566406 C 272.511719 276.636719 272.363281 276.710938 272.21875 276.792969 C 272.203125 276.800781 272.191406 276.808594 272.175781 276.820312 C 271.984375 276.636719 271.792969 276.457031 271.59375 276.277344 C 271.542969 276.574219 271.554688 276.871094 271.632812 277.164062 L 271.660156 277.273438 C 271.839844 277.460938 272.03125 277.640625 272.230469 277.832031 C 272.410156 277.695312 272.582031 277.550781 272.761719 277.417969 C 272.871094 277.324219 272.980469 277.234375 273.097656 277.144531 C 273.117188 276.910156 273.144531 276.636719 273.171875 276.339844 Z M 278.609375 266.277344 C 274.574219 265.351562 273.269531 270.628906 272.882812 273.171875 C 271.414062 263.941406 265.3125 266.847656 267.421875 273.144531 C 268.101562 275.03125 269.136719 276.695312 270.527344 278.140625 C 270.71875 278.359375 270.925781 278.574219 271.144531 278.792969 C 270.898438 280.058594 272.128906 279.734375 273.796875 278.566406 C 275.027344 277.6875 276.160156 276.695312 277.191406 275.589844 C 280.511719 272.105469 283.101562 267.445312 278.609375 266.277344 Z M 278.738281 271.472656 C 277.488281 273.082031 276.097656 274.554688 274.566406 275.894531 C 274.085938 276.332031 273.597656 276.746094 273.097656 277.144531 C 273.089844 277.226562 273.089844 277.296875 273.082031 277.363281 C 273.046875 277.449219 273.003906 277.535156 272.953125 277.617188 C 272.445312 278.53125 271.875 278.03125 271.660156 277.273438 C 271.640625 277.246094 271.613281 277.21875 271.59375 277.191406 C 270.871094 276.441406 270.246094 275.613281 269.722656 274.710938 C 265.984375 268.230469 272.003906 263.824219 271.703125 275.921875 C 271.648438 276.035156 271.613281 276.152344 271.59375 276.277344 C 271.542969 276.574219 271.554688 276.871094 271.632812 277.164062 L 271.660156 277.273438 C 271.839844 277.460938 272.03125 277.644531 272.230469 277.832031 C 272.410156 277.695312 272.582031 277.550781 272.761719 277.417969 C 272.871094 277.324219 272.980469 277.234375 273.097656 277.144531 C 273.117188 276.910156 273.144531 276.636719 273.171875 276.339844 L 273.171875 276.332031 C 273.40625 273.90625 274.046875 269.542969 275.234375 268.359375 C 277.839844 266.359375 281.21875 268.519531 278.738281 271.472656 Z M 273.160156 276.339844 C 272.988281 276.410156 272.816406 276.484375 272.664062 276.566406 L 272.65625 276.566406 C 272.511719 276.636719 272.363281 276.710938 272.21875 276.792969 C 272.203125 276.800781 272.191406 276.808594 272.175781 276.820312 C 271.984375 276.636719 271.792969 276.457031 271.59375 276.277344 C 271.542969 276.574219 271.554688 276.871094 271.632812 277.164062 L 271.660156 277.273438 C 271.839844 277.460938 272.03125 277.640625 272.230469 277.832031 C 272.410156 277.695312 272.582031 277.550781 272.761719 277.417969 C 272.871094 277.324219 272.980469 277.234375 273.097656 277.144531 C 273.117188 276.910156 273.144531 276.636719 273.171875 276.339844 Z M 273.160156 276.339844 " fill-opacity="1" fill-rule="nonzero"/><path fill="#2f2e41" d="M 491.421875 454.503906 L 482.703125 477.242188 L 441.789062 557.917969 L 477.738281 651.773438 L 496.292969 646.875 L 481 557.917969 L 524.871094 504.628906 L 576.976562 539.957031 C 576.976562 539.957031 600.082031 557.988281 608.875 540.894531 C 617.664062 523.796875 674.546875 487.433594 674.546875 487.433594 L 660.472656 472.425781 L 594.972656 503.070312 L 549.761719 439.457031 Z M 491.421875 454.503906 " fill-opacity="1" fill-rule="nonzero"/><path fill="#0048ff" d="M 535.429688 347.25 L 521.074219 331.828125 L 496.445312 328.441406 L 466.269531 349.5625 L 466.574219 372.9375 L 481.492188 428.019531 C 481.492188 428.019531 475.808594 467.59375 491.679688 467.195312 C 507.550781 466.800781 516.199219 458.890625 522.664062 460.5 C 529.128906 462.109375 556.605469 468.960938 558.347656 461.785156 C 560.089844 454.605469 569.34375 459.746094 568.9375 452.957031 C 568.53125 446.164062 543.878906 397.21875 543.878906 397.21875 L 550.007812 348.269531 Z M 535.429688 347.25 " fill-opacity="1" fill-rule="nonzero"/><path fill="#ffb6b6" d="M 626.332031 276.269531 C 626.394531 276.910156 626.390625 277.546875 626.3125 278.183594 C 626.238281 278.824219 626.09375 279.445312 625.882812 280.050781 C 625.667969 280.660156 625.394531 281.234375 625.054688 281.78125 C 624.714844 282.328125 624.320312 282.828125 623.871094 283.289062 C 623.421875 283.75 622.929688 284.15625 622.390625 284.507812 C 621.855469 284.859375 621.285156 285.148438 620.683594 285.375 C 620.082031 285.601562 619.460938 285.757812 618.824219 285.851562 C 618.1875 285.941406 617.550781 285.960938 616.910156 285.914062 L 583.894531 348.683594 L 575.03125 335.082031 L 608.777344 275.839844 C 608.851562 275.308594 608.976562 274.789062 609.148438 274.28125 C 609.316406 273.769531 609.535156 273.28125 609.792969 272.8125 C 610.054688 272.34375 610.355469 271.902344 610.695312 271.488281 C 611.035156 271.070312 611.410156 270.691406 611.820312 270.34375 C 612.230469 270 612.667969 269.691406 613.132812 269.425781 C 613.597656 269.160156 614.085938 268.9375 614.589844 268.757812 C 615.097656 268.582031 615.617188 268.449219 616.144531 268.363281 C 616.675781 268.28125 617.207031 268.246094 617.746094 268.257812 C 618.28125 268.273438 618.8125 268.332031 619.335938 268.441406 C 619.863281 268.554688 620.375 268.710938 620.871094 268.914062 C 621.367188 269.113281 621.84375 269.359375 622.292969 269.648438 C 622.746094 269.9375 623.167969 270.265625 623.558594 270.632812 C 623.953125 271 624.308594 271.398438 624.628906 271.828125 C 624.949219 272.257812 625.226562 272.714844 625.464844 273.195312 C 625.699219 273.679688 625.890625 274.175781 626.039062 274.691406 C 626.183594 275.210938 626.28125 275.734375 626.332031 276.269531 Z M 626.332031 276.269531 " fill-opacity="1" fill-rule="nonzero"/><path fill="#0048ff" d="M 522.394531 358.921875 C 522.394531 358.921875 521.085938 370.085938 533.660156 372.851562 C 546.234375 375.613281 581.070312 355.714844 586.777344 352.675781 C 588.566406 351.726562 590.992188 347.058594 593.484375 341.101562 C 594.601562 338.425781 595.730469 335.488281 596.824219 332.511719 C 597.453125 330.789062 600.476562 330.316406 601.074219 328.609375 C 601.664062 326.910156 599.828125 323.96875 600.363281 322.367188 C 602.90625 314.761719 604.710938 308.730469 604.710938 308.730469 L 596.375 293.082031 C 584.722656 299.242188 578.742188 312.808594 574.347656 328.441406 Z M 522.394531 358.921875 " fill-opacity="1" fill-rule="nonzero"/><path fill="#ffb6b6" d="M 375.550781 290.683594 C 375.648438 291.320312 375.816406 291.9375 376.046875 292.535156 C 376.28125 293.132812 376.578125 293.699219 376.933594 294.234375 C 377.292969 294.769531 377.703125 295.257812 378.167969 295.699219 C 378.632812 296.144531 379.140625 296.535156 379.6875 296.867188 C 380.238281 297.199219 380.820312 297.46875 381.425781 297.671875 C 382.035156 297.878906 382.660156 298.015625 383.300781 298.085938 C 383.9375 298.15625 384.578125 298.152344 385.214844 298.082031 C 385.855469 298.011719 386.480469 297.871094 387.085938 297.664062 L 434.765625 350.175781 L 439.941406 334.789062 L 392.441406 285.875 C 392.234375 285.378906 391.984375 284.90625 391.691406 284.457031 C 391.398438 284.007812 391.066406 283.589844 390.699219 283.199219 C 390.328125 282.8125 389.925781 282.457031 389.492188 282.140625 C 389.058594 281.824219 388.601562 281.550781 388.117188 281.316406 C 387.632812 281.085938 387.132812 280.898438 386.617188 280.757812 C 386.097656 280.613281 385.574219 280.519531 385.039062 280.476562 C 384.503906 280.429688 383.96875 280.429688 383.433594 280.484375 C 382.902344 280.535156 382.375 280.632812 381.859375 280.78125 C 381.34375 280.925781 380.84375 281.121094 380.363281 281.355469 C 379.882812 281.59375 379.425781 281.875 378.996094 282.195312 C 378.566406 282.515625 378.167969 282.871094 377.804688 283.265625 C 377.4375 283.660156 377.109375 284.082031 376.824219 284.535156 C 376.535156 284.984375 376.289062 285.460938 376.089844 285.957031 C 375.886719 286.457031 375.730469 286.964844 375.621094 287.492188 C 375.515625 288.015625 375.453125 288.546875 375.441406 289.085938 C 375.429688 289.621094 375.464844 290.152344 375.550781 290.683594 Z M 375.550781 290.683594 " fill-opacity="1" fill-rule="nonzero"/><path fill="#0048ff" d="M 496.871094 344.703125 C 496.871094 344.703125 500.933594 355.183594 489.453125 361.007812 C 477.96875 366.828125 439.261719 356.277344 432.972656 354.765625 C 431.003906 354.292969 427.484375 350.382812 423.582031 345.234375 C 421.832031 342.925781 420 340.363281 418.199219 337.753906 C 417.15625 336.242188 414.113281 336.542969 413.109375 335.039062 C 412.109375 333.539062 413.152344 330.234375 412.230469 328.820312 C 407.867188 322.09375 404.609375 316.703125 404.609375 316.703125 L 408.761719 299.464844 C 421.585938 302.515625 430.773438 314.15625 438.941406 328.191406 Z M 496.871094 344.703125 " fill-opacity="1" fill-rule="nonzero"/><path fill="#ffb6b6" d="M 532.683594 301.097656 C 532.683594 301.863281 532.644531 302.628906 532.570312 303.390625 C 532.496094 304.15625 532.382812 304.914062 532.234375 305.667969 C 532.082031 306.417969 531.898438 307.160156 531.675781 307.894531 C 531.453125 308.628906 531.191406 309.351562 530.898438 310.058594 C 530.605469 310.769531 530.277344 311.460938 529.917969 312.136719 C 529.554688 312.816406 529.160156 313.472656 528.734375 314.109375 C 528.308594 314.75 527.851562 315.363281 527.363281 315.957031 C 526.878906 316.550781 526.363281 317.117188 525.820312 317.660156 C 525.277344 318.203125 524.710938 318.71875 524.117188 319.203125 C 523.523438 319.691406 522.90625 320.148438 522.269531 320.574219 C 521.632812 321 520.972656 321.394531 520.296875 321.753906 C 519.621094 322.117188 518.925781 322.445312 518.21875 322.738281 C 517.507812 323.03125 516.789062 323.289062 516.054688 323.511719 C 515.320312 323.734375 514.574219 323.921875 513.824219 324.070312 C 513.070312 324.21875 512.3125 324.332031 511.546875 324.410156 C 510.785156 324.484375 510.019531 324.519531 509.25 324.519531 C 508.484375 324.519531 507.71875 324.484375 506.953125 324.410156 C 506.191406 324.332031 505.433594 324.21875 504.679688 324.070312 C 503.925781 323.921875 503.183594 323.734375 502.449219 323.511719 C 501.714844 323.289062 500.992188 323.03125 500.285156 322.738281 C 499.574219 322.445312 498.882812 322.117188 498.207031 321.753906 C 497.527344 321.394531 496.871094 321 496.234375 320.574219 C 495.59375 320.148438 494.980469 319.691406 494.386719 319.203125 C 493.792969 318.71875 493.226562 318.203125 492.683594 317.660156 C 492.140625 317.117188 491.625 316.550781 491.136719 315.957031 C 490.652344 315.363281 490.195312 314.75 489.769531 314.109375 C 489.339844 313.472656 488.949219 312.816406 488.585938 312.136719 C 488.222656 311.460938 487.894531 310.769531 487.601562 310.058594 C 487.308594 309.351562 487.050781 308.628906 486.828125 307.894531 C 486.605469 307.160156 486.417969 306.417969 486.269531 305.667969 C 486.121094 304.914062 486.007812 304.15625 485.933594 303.390625 C 485.855469 302.628906 485.820312 301.863281 485.820312 301.097656 C 485.820312 300.328125 485.855469 299.5625 485.933594 298.800781 C 486.007812 298.035156 486.121094 297.277344 486.269531 296.527344 C 486.417969 295.773438 486.605469 295.03125 486.828125 294.296875 C 487.050781 293.5625 487.308594 292.839844 487.601562 292.132812 C 487.894531 291.421875 488.222656 290.730469 488.585938 290.054688 C 488.949219 289.378906 489.34375 288.71875 489.769531 288.082031 C 490.195312 287.445312 490.652344 286.828125 491.136719 286.234375 C 491.625 285.640625 492.140625 285.074219 492.683594 284.53125 C 493.226562 283.988281 493.792969 283.476562 494.386719 282.988281 C 494.980469 282.5 495.59375 282.046875 496.234375 281.617188 C 496.871094 281.191406 497.527344 280.796875 498.207031 280.4375 C 498.882812 280.074219 499.574219 279.746094 500.285156 279.453125 C 500.992188 279.160156 501.714844 278.902344 502.449219 278.679688 C 503.183594 278.457031 503.925781 278.269531 504.679688 278.121094 C 505.433594 277.972656 506.191406 277.859375 506.953125 277.785156 C 507.71875 277.707031 508.484375 277.671875 509.25 277.671875 C 510.019531 277.671875 510.785156 277.707031 511.546875 277.785156 C 512.3125 277.859375 513.070312 277.972656 513.824219 278.121094 C 514.574219 278.269531 515.320312 278.457031 516.054688 278.679688 C 516.789062 278.902344 517.507812 279.160156 518.21875 279.453125 C 518.925781 279.746094 519.621094 280.074219 520.296875 280.4375 C 520.972656 280.796875 521.632812 281.191406 522.269531 281.617188 C 522.90625 282.046875 523.523438 282.5 524.117188 282.988281 C 524.710938 283.476562 525.277344 283.988281 525.820312 284.53125 C 526.363281 285.074219 526.878906 285.640625 527.363281 286.234375 C 527.851562 286.828125 528.308594 287.445312 528.734375 288.082031 C 529.160156 288.71875 529.554688 289.378906 529.917969 290.054688 C 530.277344 290.730469 530.605469 291.421875 530.898438 292.132812 C 531.191406 292.839844 531.453125 293.5625 531.675781 294.296875 C 531.898438 295.03125 532.082031 295.773438 532.234375 296.527344 C 532.382812 297.277344 532.496094 298.035156 532.570312 298.800781 C 532.644531 299.5625 532.683594 300.328125 532.683594 301.097656 Z M 532.683594 301.097656 " fill-opacity="1" fill-rule="nonzero"/><path fill="#2f2e41" d="M 536 287.683594 C 533.535156 283.871094 528.910156 281.328125 524.425781 282.042969 C 524.214844 280.613281 523.816406 279.238281 523.230469 277.917969 C 522.644531 276.59375 521.890625 275.375 520.972656 274.261719 C 520.050781 273.148438 518.996094 272.175781 517.808594 271.351562 C 516.621094 270.527344 515.347656 269.875 513.980469 269.402344 C 512.613281 268.925781 511.210938 268.644531 509.765625 268.554688 C 508.324219 268.464844 506.894531 268.570312 505.480469 268.871094 C 504.066406 269.175781 502.71875 269.660156 501.441406 270.332031 C 500.160156 271.003906 498.992188 271.835938 497.941406 272.828125 C 497.238281 272.332031 496.457031 272.042969 495.601562 271.957031 C 494.746094 271.871094 493.921875 272 493.136719 272.347656 C 491.566406 273.058594 490.265625 274.105469 489.230469 275.480469 C 488.589844 276.277344 488.007812 277.117188 487.480469 277.992188 C 486.953125 278.871094 486.484375 279.777344 486.082031 280.71875 C 485.675781 281.660156 485.335938 282.621094 485.0625 283.605469 C 484.789062 284.59375 484.582031 285.59375 484.441406 286.605469 C 484.300781 287.621094 484.230469 288.636719 484.230469 289.660156 C 484.226562 290.683594 484.292969 291.703125 484.429688 292.71875 C 484.566406 293.730469 484.769531 294.730469 485.039062 295.71875 C 485.3125 296.707031 485.648438 297.671875 486.046875 298.613281 C 485.5 296.621094 487.496094 294.746094 489.511719 294.300781 C 491.53125 293.851562 493.644531 294.273438 495.691406 293.984375 C 498.3125 293.609375 500.671875 292.089844 503.296875 291.75 C 505.542969 291.601562 507.738281 291.882812 509.875 292.59375 C 512.011719 293.300781 514.203125 293.597656 516.449219 293.476562 C 518.660156 293.214844 521.507812 301.585938 521.46875 307.484375 C 521.460938 308.601562 521.691406 310.039062 522.785156 310.273438 C 524.128906 310.566406 524.910156 308.710938 526.191406 308.203125 C 526.484375 308.121094 526.785156 308.09375 527.089844 308.125 C 527.398438 308.15625 527.683594 308.246094 527.957031 308.390625 C 528.226562 308.535156 528.460938 308.722656 528.660156 308.957031 C 528.855469 309.195312 529 309.457031 529.097656 309.75 C 529.261719 310.351562 529.277344 310.957031 529.148438 311.566406 C 529.015625 312.175781 528.753906 312.722656 528.359375 313.207031 C 527.566406 314.15625 526.644531 314.957031 525.59375 315.605469 L 526.121094 316.046875 C 526.371094 316.308594 526.65625 316.523438 526.980469 316.6875 C 527.308594 316.851562 527.652344 316.957031 528.011719 317.003906 C 528.375 317.046875 528.730469 317.03125 529.085938 316.949219 C 529.441406 316.871094 529.773438 316.734375 530.082031 316.539062 C 531.308594 315.707031 532.257812 314.625 532.925781 313.300781 C 535.417969 309.449219 537.15625 305.28125 538.144531 300.800781 C 538.96875 296.339844 538.464844 291.496094 536 287.683594 Z M 536 287.683594 " fill-opacity="1" fill-rule="nonzero"/><g clip-path="url(#4adb9c2483)"><path fill="#f2f2f2" d="M 709.347656 380.070312 C 679.125 402.957031 618.988281 395.726562 600.324219 434.925781 C 543.820312 553.613281 495.480469 463.203125 446.003906 453.425781 L 445.550781 451 C 495.078125 455.109375 548.199219 448.738281 599.179688 432.574219 C 645.246094 417.96875 686.347656 396.246094 718.039062 369.769531 L 719.699219 371.84375 C 716.351562 374.640625 712.902344 377.382812 709.347656 380.070312 Z M 709.347656 380.070312 " fill-opacity="1" fill-rule="nonzero"/></g><g clip-path="url(#07d03426f5)"><path fill="#cccccc" d="M 581.5625 690.929688 C 580.84375 693.058594 169.851562 693.058594 169.074219 690.933594 C 169.792969 688.796875 580.785156 688.796875 581.5625 690.929688 Z M 581.5625 690.929688 " fill-opacity="1" fill-rule="nonzero"/></g></svg>