<svg xmlns="http://www.w3.org/2000/svg" xmlns:xlink="http://www.w3.org/1999/xlink" width="1080" zoomAndPan="magnify" viewBox="0 0 810 809.999993" height="1080" preserveAspectRatio="xMidYMid meet" version="1.0"><defs><filter x="0%" y="0%" width="100%" height="100%" id="fd8dbc6598"><feColorMatrix values="0 0 0 0 1 0 0 0 0 1 0 0 0 0 1 0 0 0 1 0" color-interpolation-filters="sRGB"/></filter><mask id="ab7ce8ef5d"><g filter="url(#fd8dbc6598)"><rect x="-81" width="972" fill="#000000" y="-80.999999" height="971.999992" fill-opacity="0.098"/></g></mask><clipPath id="5ad9dcfac1"><path d="M 0.441406 0.640625 L 641.480469 0.640625 L 641.480469 631.839844 L 0.441406 631.839844 Z M 0.441406 0.640625 " clip-rule="nonzero"/></clipPath><clipPath id="9a4f6fba7b"><rect x="0" width="642" y="0" height="632"/></clipPath><clipPath id="38b5c6a5b0"><path d="M 203.863281 602 L 258 602 L 258 699 L 203.863281 699 Z M 203.863281 602 " clip-rule="nonzero"/></clipPath><clipPath id="4d1df1cabc"><path d="M 204 697 L 451 697 L 451 700.328125 L 204 700.328125 Z M 204 697 " clip-rule="nonzero"/></clipPath><clipPath id="0488611d99"><path d="M 477 126 L 605.863281 126 L 605.863281 351 L 477 351 Z M 477 126 " clip-rule="nonzero"/></clipPath><clipPath id="d5647e5e59"><path d="M 568 109.328125 L 590 109.328125 L 590 131 L 568 131 Z M 568 109.328125 " clip-rule="nonzero"/></clipPath></defs><g mask="url(#ab7ce8ef5d)"><g transform="matrix(1, 0, 0, 1, 97, 74)"><g clip-path="url(#9a4f6fba7b)"><g clip-path="url(#5ad9dcfac1)"><path fill="#0048ff" d="M 486.621094 541.609375 C 529.820312 509.003906 567.164062 468.871094 597.855469 424.289062 C 628.324219 380.03125 652.925781 324.453125 635.3125 273.691406 C 624.664062 243.027344 600.175781 219.28125 585.46875 190.351562 C 562.910156 145.988281 563.421875 89.894531 530.121094 52.90625 C 505.875 25.96875 468.707031 15.222656 433.183594 7.992188 C 384.882812 -1.839844 329.570312 -5.851562 291.285156 25.191406 C 255.796875 53.960938 246.542969 103.253906 226.042969 144.082031 C 200.753906 194.4375 162.179688 198.253906 114.65625 211.34375 C -152.597656 284.929688 82.453125 846.613281 486.621094 541.609375 " fill-opacity="1" fill-rule="nonzero"/></g></g></g></g><path fill="#3f3d56" d="M 481.753906 224.71875 L 482.15625 221.855469 C 467.703125 219.824219 457.84375 210.371094 452.855469 193.757812 C 450.925781 187.035156 449.785156 180.175781 449.433594 173.191406 L 446.546875 173.367188 C 446.914062 180.578125 448.09375 187.652344 450.085938 194.589844 C 455.429688 212.382812 466.085938 222.515625 481.753906 224.71875 Z M 481.753906 224.71875 " fill-opacity="1" fill-rule="nonzero"/><path fill="#ffb6b6" d="M 473.105469 634.832031 L 487.957031 627.984375 L 468.609375 567.4375 L 446.695312 577.546875 Z M 473.105469 634.832031 " fill-opacity="1" fill-rule="nonzero"/><path fill="#2f2e41" d="M 479.726562 650.566406 L 525.394531 629.507812 L 525.125 628.929688 C 524.859375 628.347656 524.5625 627.78125 524.238281 627.226562 C 523.914062 626.671875 523.5625 626.136719 523.1875 625.617188 C 522.808594 625.101562 522.40625 624.601562 521.980469 624.121094 C 521.554688 623.644531 521.109375 623.1875 520.636719 622.75 C 520.167969 622.316406 519.675781 621.90625 519.164062 621.515625 C 518.652344 621.128906 518.125 620.769531 517.578125 620.433594 C 517.03125 620.101562 516.46875 619.792969 515.894531 619.511719 C 515.316406 619.234375 514.726562 618.980469 514.125 618.761719 C 513.523438 618.539062 512.914062 618.347656 512.292969 618.183594 C 511.671875 618.023438 511.046875 617.890625 510.414062 617.792969 C 509.78125 617.691406 509.144531 617.621094 508.503906 617.585938 C 507.863281 617.546875 507.222656 617.539062 506.582031 617.566406 C 505.941406 617.589844 505.304688 617.648438 504.667969 617.734375 C 504.035156 617.824219 503.40625 617.941406 502.78125 618.089844 C 502.160156 618.242188 501.542969 618.421875 500.9375 618.632812 C 500.332031 618.839844 499.738281 619.082031 499.15625 619.347656 L 487.894531 616.867188 L 475.25 630.371094 L 471.265625 632.210938 Z M 479.726562 650.566406 " fill-opacity="1" fill-rule="nonzero"/><path fill="#ffb6b6" d="M 287.042969 667.734375 L 302.613281 672.730469 L 329.308594 615.050781 L 306.328125 607.671875 Z M 287.042969 667.734375 " fill-opacity="1" fill-rule="nonzero"/><path fill="#2f2e41" d="M 281.277344 683.800781 L 329.15625 699.175781 L 329.351562 698.570312 C 329.546875 697.960938 329.710938 697.34375 329.847656 696.714844 C 329.984375 696.089844 330.085938 695.457031 330.160156 694.820312 C 330.234375 694.183594 330.273438 693.542969 330.285156 692.902344 C 330.296875 692.261719 330.273438 691.621094 330.222656 690.984375 C 330.167969 690.34375 330.085938 689.710938 329.972656 689.078125 C 329.855469 688.449219 329.710938 687.824219 329.535156 687.207031 C 329.359375 686.589844 329.152344 685.984375 328.917969 685.390625 C 328.679688 684.792969 328.417969 684.210938 328.125 683.640625 C 327.832031 683.070312 327.511719 682.515625 327.164062 681.976562 C 326.816406 681.4375 326.441406 680.917969 326.042969 680.414062 C 325.644531 679.914062 325.222656 679.429688 324.777344 678.96875 C 324.332031 678.511719 323.863281 678.070312 323.375 677.65625 C 322.886719 677.242188 322.378906 676.851562 321.851562 676.488281 C 321.324219 676.125 320.78125 675.785156 320.222656 675.472656 C 319.660156 675.164062 319.085938 674.878906 318.496094 674.625 C 317.910156 674.371094 317.308594 674.144531 316.699219 673.949219 L 310.085938 664.503906 L 291.636719 665.898438 L 287.457031 664.554688 Z M 281.277344 683.800781 " fill-opacity="1" fill-rule="nonzero"/><g clip-path="url(#38b5c6a5b0)"><path fill="#f2f2f2" d="M 256.160156 683.363281 C 255.703125 683.382812 255.277344 683.273438 254.890625 683.027344 C 254.503906 682.78125 254.21875 682.445312 254.042969 682.023438 C 253.863281 681.597656 253.824219 681.160156 253.921875 680.710938 C 254.019531 680.265625 254.238281 679.882812 254.574219 679.570312 L 254.726562 678.976562 C 254.707031 678.929688 254.6875 678.878906 254.664062 678.832031 C 254.441406 678.300781 254.140625 677.808594 253.773438 677.367188 C 253.402344 676.921875 252.976562 676.539062 252.492188 676.21875 C 252.007812 675.902344 251.488281 675.660156 250.933594 675.492188 C 250.378906 675.328125 249.8125 675.246094 249.234375 675.25 C 248.65625 675.25 248.089844 675.335938 247.535156 675.507812 C 246.984375 675.675781 246.464844 675.921875 245.984375 676.242188 C 245.503906 676.566406 245.082031 676.953125 244.714844 677.398438 C 244.347656 677.847656 244.054688 678.339844 243.832031 678.871094 C 242.058594 683.140625 239.804688 687.417969 239.246094 691.929688 C 239 693.941406 239.101562 695.933594 239.550781 697.90625 C 237.472656 693.367188 235.898438 688.65625 234.828125 683.777344 C 233.761719 678.898438 233.222656 673.964844 233.214844 668.96875 C 233.214844 666.460938 233.351562 663.960938 233.632812 661.46875 C 233.863281 659.425781 234.183594 657.398438 234.589844 655.382812 C 235.707031 649.921875 237.445312 644.667969 239.808594 639.621094 C 242.167969 634.570312 245.089844 629.867188 248.566406 625.511719 C 250.25 624.59375 251.757812 623.445312 253.085938 622.0625 C 254.417969 620.683594 255.511719 619.136719 256.367188 617.417969 C 256.988281 616.179688 257.421875 614.875 257.667969 613.507812 C 257.289062 613.558594 256.234375 607.777344 256.523438 607.421875 C 255.992188 606.617188 255.046875 606.21875 254.46875 605.433594 C 251.59375 601.539062 247.632812 602.21875 245.566406 607.515625 C 241.148438 609.742188 241.105469 613.441406 243.816406 616.996094 C 245.539062 619.257812 245.777344 622.320312 247.289062 624.742188 C 247.132812 624.941406 246.972656 625.132812 246.816406 625.332031 C 243.964844 629 241.496094 632.910156 239.414062 637.0625 C 239.925781 632.355469 239.339844 627.789062 237.652344 623.363281 C 235.96875 619.300781 232.8125 615.875 230.03125 612.363281 C 229.660156 611.890625 229.234375 611.480469 228.746094 611.136719 C 228.253906 610.792969 227.726562 610.523438 227.160156 610.335938 C 226.589844 610.148438 226.007812 610.046875 225.410156 610.03125 C 224.8125 610.015625 224.222656 610.089844 223.648438 610.246094 C 223.070312 610.40625 222.527344 610.644531 222.023438 610.964844 C 221.515625 611.285156 221.070312 611.671875 220.675781 612.125 C 220.285156 612.578125 219.96875 613.078125 219.726562 613.625 C 219.484375 614.171875 219.324219 614.742188 219.25 615.335938 C 219.246094 615.386719 219.238281 615.4375 219.234375 615.488281 C 219.648438 615.722656 220.050781 615.96875 220.445312 616.230469 C 220.957031 616.570312 221.324219 617.023438 221.550781 617.59375 C 221.78125 618.160156 221.828125 618.742188 221.695312 619.339844 C 221.5625 619.9375 221.273438 620.445312 220.828125 620.863281 C 220.378906 621.28125 219.855469 621.539062 219.25 621.632812 L 219.191406 621.640625 C 219.335938 623.132812 219.597656 624.601562 219.96875 626.054688 C 216.398438 639.855469 224.101562 644.878906 235.101562 645.105469 C 235.34375 645.230469 235.582031 645.355469 235.824219 645.472656 C 233.726562 651.417969 232.425781 657.53125 231.925781 663.8125 C 231.644531 667.511719 231.660156 671.207031 231.976562 674.902344 L 231.957031 674.773438 C 231.558594 672.722656 230.828125 670.796875 229.765625 668.996094 C 228.703125 667.199219 227.367188 665.632812 225.761719 664.292969 C 220.996094 660.378906 214.261719 658.933594 209.121094 655.789062 C 208.5625 655.429688 207.953125 655.25 207.289062 655.246094 C 206.625 655.246094 206.015625 655.421875 205.453125 655.777344 C 204.894531 656.132812 204.476562 656.613281 204.195312 657.214844 C 203.914062 657.8125 203.816406 658.445312 203.90625 659.101562 L 203.925781 659.238281 C 204.691406 659.550781 205.4375 659.910156 206.160156 660.316406 C 206.574219 660.546875 206.976562 660.796875 207.375 661.058594 C 207.882812 661.398438 208.25 661.851562 208.476562 662.417969 C 208.707031 662.988281 208.753906 663.570312 208.621094 664.167969 C 208.488281 664.765625 208.199219 665.273438 207.753906 665.691406 C 207.308594 666.109375 206.78125 666.363281 206.175781 666.457031 L 206.117188 666.464844 C 206.074219 666.472656 206.035156 666.480469 205.992188 666.484375 C 207.3125 669.636719 209.125 672.472656 211.425781 674.996094 C 213.65625 687.042969 223.238281 688.183594 233.488281 684.675781 L 233.496094 684.675781 C 234.621094 689.578125 236.242188 694.308594 238.355469 698.871094 L 255.726562 698.871094 C 255.789062 698.679688 255.84375 698.480469 255.898438 698.285156 C 254.285156 698.386719 252.683594 698.292969 251.09375 698 C 252.382812 696.417969 253.671875 694.824219 254.960938 693.242188 C 254.988281 693.214844 255.015625 693.183594 255.039062 693.148438 C 255.695312 692.339844 256.355469 691.539062 257.007812 690.726562 C 257.042969 688.234375 256.761719 685.78125 256.160156 683.363281 Z M 256.160156 683.363281 " fill-opacity="1" fill-rule="nonzero"/></g><g clip-path="url(#4d1df1cabc)"><path fill="#cccccc" d="M 450.421875 698.921875 C 450.421875 699.074219 450.394531 699.222656 450.335938 699.363281 C 450.277344 699.503906 450.195312 699.628906 450.085938 699.734375 C 449.976562 699.84375 449.855469 699.925781 449.714844 699.984375 C 449.574219 700.042969 449.425781 700.070312 449.273438 700.070312 L 205.148438 700.070312 C 204.996094 700.070312 204.847656 700.042969 204.707031 699.984375 C 204.566406 699.925781 204.441406 699.84375 204.335938 699.734375 C 204.226562 699.625 204.144531 699.503906 204.085938 699.363281 C 204.027344 699.222656 204 699.074219 204 698.921875 C 204 698.769531 204.027344 698.625 204.085938 698.484375 C 204.144531 698.34375 204.226562 698.21875 204.335938 698.113281 C 204.441406 698.003906 204.566406 697.921875 204.707031 697.863281 C 204.847656 697.804688 204.996094 697.777344 205.148438 697.777344 L 449.273438 697.777344 C 449.425781 697.777344 449.574219 697.804688 449.714844 697.863281 C 449.855469 697.921875 449.980469 698.003906 450.085938 698.109375 C 450.195312 698.21875 450.277344 698.34375 450.335938 698.484375 C 450.394531 698.625 450.421875 698.769531 450.421875 698.921875 Z M 450.421875 698.921875 " fill-opacity="1" fill-rule="nonzero"/></g><g clip-path="url(#0488611d99)"><path fill="#3f3d56" d="M 578.652344 350.15625 L 580.046875 347.621094 C 510.714844 309.390625 479.164062 283.625 480.753906 266.53125 C 482.050781 252.640625 506.15625 244.703125 531.679688 236.300781 C 562.402344 226.183594 597.226562 214.71875 604.484375 189.582031 C 609.324219 172.808594 601.46875 152.304688 580.464844 126.890625 L 578.234375 128.734375 C 598.585938 153.355469 606.261719 172.996094 601.707031 188.78125 C 594.875 212.449219 560.820312 223.664062 530.773438 233.554688 C 503.179688 242.636719 479.347656 250.484375 477.875 266.265625 C 476.140625 284.894531 507.222656 310.765625 578.652344 350.15625 Z M 578.652344 350.15625 " fill-opacity="1" fill-rule="nonzero"/></g><path fill="#2f2e41" d="M 455.980469 603.105469 L 479.113281 595.394531 L 453.6875 483.464844 L 382.601562 412.210938 L 343.089844 392.875 L 280.210938 392.875 C 280.210938 392.875 258.898438 415.535156 264.003906 428.585938 C 265.558594 432.550781 268.078125 458.207031 273.839844 460.773438 C 279.601562 463.339844 272.25 468.390625 276.40625 469.71875 C 280.5625 471.050781 278.300781 476.363281 279.261719 479.757812 C 288.507812 512.40625 308.515625 550.09375 308.515625 550.09375 L 300.804688 621.421875 L 328.753906 638.773438 L 346.933594 548.222656 L 336.445312 456.84375 C 336.445312 456.84375 388.046875 482.03125 386.832031 487.625 C 385.621094 493.222656 396.3125 489.113281 395.785156 493.09375 C 395.257812 497.078125 404.429688 498.375 404.429688 498.375 L 412.699219 503.429688 Z M 455.980469 603.105469 " fill-opacity="1" fill-rule="nonzero"/><path fill="#ffb6b6" d="M 452.179688 179.660156 C 452.070312 180.371094 451.886719 181.0625 451.628906 181.730469 C 451.371094 182.402344 451.042969 183.039062 450.644531 183.636719 C 450.25 184.238281 449.792969 184.789062 449.277344 185.289062 C 448.757812 185.789062 448.195312 186.226562 447.585938 186.605469 C 446.972656 186.984375 446.328125 187.292969 445.648438 187.53125 C 444.972656 187.765625 444.273438 187.929688 443.5625 188.015625 C 442.847656 188.101562 442.132812 188.113281 441.417969 188.042969 C 440.703125 187.972656 440 187.828125 439.316406 187.609375 L 406.871094 224.96875 L 394.332031 218.53125 L 433.195312 174.441406 C 433.421875 173.886719 433.695312 173.351562 434.019531 172.84375 C 434.34375 172.339844 434.710938 171.863281 435.121094 171.425781 C 435.53125 170.984375 435.976562 170.582031 436.457031 170.222656 C 436.941406 169.863281 437.453125 169.550781 437.992188 169.285156 C 438.53125 169.019531 439.089844 168.804688 439.671875 168.640625 C 440.25 168.476562 440.835938 168.367188 441.4375 168.308594 C 442.035156 168.25 442.632812 168.25 443.234375 168.300781 C 443.832031 168.351562 444.421875 168.457031 445.003906 168.617188 C 445.582031 168.777344 446.144531 168.988281 446.6875 169.25 C 447.230469 169.511719 447.742188 169.820312 448.226562 170.175781 C 448.714844 170.53125 449.164062 170.925781 449.578125 171.363281 C 449.992188 171.800781 450.359375 172.269531 450.6875 172.777344 C 451.015625 173.28125 451.296875 173.808594 451.527344 174.367188 C 451.757812 174.921875 451.9375 175.492188 452.066406 176.082031 C 452.191406 176.667969 452.265625 177.265625 452.285156 177.867188 C 452.304688 178.464844 452.269531 179.066406 452.179688 179.660156 Z M 452.179688 179.660156 " fill-opacity="1" fill-rule="nonzero"/><path fill="#0048fc" d="M 281.691406 272.191406 L 288.234375 297.089844 C 288.390625 297.667969 288.601562 298.226562 288.871094 298.765625 C 289.140625 299.300781 289.460938 299.804688 289.835938 300.273438 C 290.210938 300.742188 290.628906 301.167969 291.09375 301.550781 C 291.558594 301.929688 292.054688 302.261719 292.585938 302.539062 C 293.121094 302.816406 293.675781 303.035156 294.253906 303.195312 C 294.832031 303.355469 295.421875 303.457031 296.019531 303.496094 C 296.621094 303.53125 297.214844 303.507812 297.808594 303.421875 C 298.40625 303.335938 298.984375 303.1875 299.546875 302.980469 L 371.082031 276.597656 L 431.886719 199.226562 L 417.328125 188.953125 L 357.160156 243.722656 C 340.277344 239.980469 309.589844 258.320312 281.691406 272.191406 Z M 281.691406 272.191406 " fill-opacity="1" fill-rule="nonzero"/><path fill="#0048fc" d="M 298.695312 231.78125 L 318.152344 230.070312 L 347.066406 258.988281 L 351.886719 269.59375 C 362.007812 274.984375 352.613281 270.679688 351.886719 282.121094 L 349.960938 356.34375 C 349.960938 356.34375 372.550781 380.316406 364.601562 386.792969 C 356.65625 393.273438 370.746094 409.316406 353.769531 401.242188 C 336.789062 393.167969 256.46875 430.566406 256.46875 430.566406 C 256.46875 430.566406 253.519531 409.269531 261.261719 408.351562 C 269 407.433594 271.890625 408.484375 263.214844 399.28125 C 254.539062 390.082031 267.070312 381.40625 267.070312 381.40625 L 267.4375 314.125 L 266.152344 277.421875 C 266.09375 275.71875 266.171875 274.023438 266.390625 272.332031 C 266.609375 270.640625 266.964844 268.980469 267.457031 267.351562 C 267.949219 265.71875 268.574219 264.136719 269.324219 262.609375 C 270.078125 261.078125 270.949219 259.621094 271.941406 258.238281 C 272.933594 256.851562 274.03125 255.554688 275.234375 254.351562 C 276.4375 253.144531 277.734375 252.046875 279.121094 251.054688 C 280.503906 250.0625 281.960938 249.1875 283.492188 248.4375 C 285.019531 247.683594 286.597656 247.0625 288.230469 246.566406 L 289.863281 246.074219 Z M 298.695312 231.78125 " fill-opacity="1" fill-rule="nonzero"/><path fill="#ffb6b6" d="M 338.375 195.75 C 338.375 196.699219 338.328125 197.648438 338.234375 198.59375 C 338.140625 199.539062 338.003906 200.476562 337.816406 201.410156 C 337.632812 202.34375 337.402344 203.261719 337.125 204.171875 C 336.851562 205.082031 336.53125 205.976562 336.167969 206.855469 C 335.804688 207.730469 335.398438 208.589844 334.949219 209.429688 C 334.5 210.265625 334.011719 211.082031 333.484375 211.871094 C 332.957031 212.660156 332.390625 213.425781 331.789062 214.160156 C 331.1875 214.894531 330.546875 215.597656 329.875 216.269531 C 329.203125 216.941406 328.5 217.578125 327.765625 218.183594 C 327.03125 218.785156 326.269531 219.351562 325.480469 219.878906 C 324.6875 220.40625 323.875 220.894531 323.035156 221.34375 C 322.199219 221.789062 321.339844 222.195312 320.460938 222.558594 C 319.585938 222.925781 318.691406 223.242188 317.78125 223.519531 C 316.871094 223.796875 315.949219 224.027344 315.019531 224.210938 C 314.085938 224.398438 313.148438 224.535156 312.203125 224.628906 C 311.257812 224.722656 310.308594 224.769531 309.359375 224.769531 C 308.40625 224.769531 307.460938 224.722656 306.511719 224.628906 C 305.566406 224.535156 304.628906 224.398438 303.695312 224.210938 C 302.765625 224.027344 301.84375 223.796875 300.933594 223.519531 C 300.023438 223.242188 299.128906 222.925781 298.253906 222.558594 C 297.375 222.195312 296.515625 221.789062 295.679688 221.34375 C 294.839844 220.894531 294.027344 220.40625 293.234375 219.878906 C 292.445312 219.351562 291.683594 218.785156 290.949219 218.183594 C 290.214844 217.578125 289.511719 216.941406 288.839844 216.269531 C 288.167969 215.597656 287.527344 214.894531 286.925781 214.160156 C 286.324219 213.425781 285.757812 212.660156 285.230469 211.871094 C 284.703125 211.082031 284.214844 210.265625 283.765625 209.429688 C 283.316406 208.589844 282.910156 207.730469 282.546875 206.855469 C 282.183594 205.976562 281.863281 205.082031 281.589844 204.171875 C 281.3125 203.261719 281.082031 202.34375 280.898438 201.410156 C 280.710938 200.476562 280.574219 199.539062 280.480469 198.59375 C 280.386719 197.648438 280.339844 196.699219 280.339844 195.75 C 280.339844 194.796875 280.386719 193.851562 280.480469 192.902344 C 280.574219 191.957031 280.710938 191.019531 280.898438 190.085938 C 281.082031 189.15625 281.3125 188.234375 281.589844 187.324219 C 281.863281 186.414062 282.183594 185.519531 282.546875 184.644531 C 282.910156 183.765625 283.316406 182.90625 283.765625 182.066406 C 284.214844 181.230469 284.703125 180.414062 285.230469 179.625 C 285.757812 178.835938 286.324219 178.074219 286.925781 177.339844 C 287.527344 176.601562 288.167969 175.898438 288.839844 175.226562 C 289.511719 174.554688 290.214844 173.917969 290.949219 173.316406 C 291.683594 172.710938 292.445312 172.148438 293.234375 171.617188 C 294.027344 171.089844 294.839844 170.601562 295.679688 170.15625 C 296.515625 169.707031 297.375 169.300781 298.253906 168.9375 C 299.128906 168.574219 300.023438 168.253906 300.933594 167.976562 C 301.84375 167.703125 302.765625 167.472656 303.695312 167.285156 C 304.628906 167.101562 305.566406 166.960938 306.511719 166.867188 C 307.460938 166.773438 308.40625 166.726562 309.359375 166.726562 C 310.308594 166.726562 311.257812 166.773438 312.203125 166.867188 C 313.148438 166.960938 314.085938 167.101562 315.019531 167.285156 C 315.949219 167.472656 316.871094 167.703125 317.78125 167.976562 C 318.691406 168.253906 319.585938 168.574219 320.460938 168.9375 C 321.339844 169.300781 322.199219 169.707031 323.035156 170.15625 C 323.875 170.601562 324.6875 171.089844 325.480469 171.617188 C 326.269531 172.148438 327.03125 172.710938 327.765625 173.316406 C 328.5 173.917969 329.203125 174.554688 329.875 175.226562 C 330.546875 175.898438 331.1875 176.601562 331.789062 177.339844 C 332.390625 178.074219 332.957031 178.835938 333.484375 179.625 C 334.011719 180.414062 334.5 181.230469 334.949219 182.066406 C 335.398438 182.90625 335.804688 183.765625 336.167969 184.644531 C 336.53125 185.519531 336.851562 186.414062 337.125 187.324219 C 337.402344 188.234375 337.632812 189.15625 337.816406 190.085938 C 338.003906 191.019531 338.140625 191.957031 338.234375 192.902344 C 338.328125 193.851562 338.375 194.796875 338.375 195.75 Z M 338.375 195.75 " fill-opacity="1" fill-rule="nonzero"/><path fill="#2f2e41" d="M 274.785156 192.566406 C 274.625 201.410156 282.179688 225.628906 302.996094 224.601562 C 307.824219 224.351562 293.902344 206.765625 303.785156 204.324219 C 303.996094 204.273438 304.222656 204.230469 304.464844 204.195312 C 304.726562 204.164062 304.980469 204.101562 305.230469 204.011719 C 309.679688 202.417969 303.398438 193.375 306.984375 190.761719 C 312.894531 189.0625 318.902344 187.859375 325.011719 187.160156 C 325.152344 185.640625 325.566406 184.199219 326.253906 182.835938 C 326.238281 184.34375 326.625 185.738281 327.414062 187.023438 C 330.207031 186.964844 332.550781 187.277344 333.851562 188.242188 C 339.832031 192.667969 337.136719 181.019531 342.25 175.648438 C 341.417969 174.976562 336.496094 176.351562 334.96875 177.050781 C 335.46875 176.238281 335.8125 175.363281 336.003906 174.429688 C 336.121094 173.921875 336.164062 173.40625 336.125 172.886719 C 336.085938 172.367188 335.972656 171.863281 335.78125 171.378906 C 335.589844 170.890625 335.332031 170.445312 335.003906 170.039062 C 334.675781 169.632812 334.296875 169.285156 333.859375 168.996094 C 331.980469 167.953125 329.585938 168.59375 327.582031 167.835938 C 327.035156 167.578125 326.722656 167.148438 326.640625 166.550781 C 326.566406 166.226562 326.453125 165.917969 326.3125 165.617188 C 326.167969 165.316406 325.992188 165.035156 325.785156 164.777344 C 325.578125 164.515625 325.347656 164.277344 325.089844 164.070312 C 324.832031 163.859375 324.554688 163.679688 324.257812 163.53125 C 323.960938 163.382812 323.648438 163.265625 323.328125 163.1875 C 323.003906 163.105469 322.675781 163.0625 322.34375 163.054688 C 322.011719 163.046875 321.683594 163.074219 321.355469 163.140625 C 321.03125 163.203125 320.714844 163.304688 320.410156 163.4375 C 320.171875 163.570312 319.917969 163.640625 319.644531 163.648438 C 318.242188 163.558594 316.871094 163.304688 315.53125 162.882812 C 317.035156 162.183594 318.476562 161.371094 319.855469 160.449219 C 320.132812 160.253906 320.417969 160.0625 320.695312 159.859375 C 318.34375 157.71875 314.851562 157.097656 311.6875 157.542969 C 308.351562 158.011719 305.261719 159.5 302.222656 160.960938 C 300.46875 161.816406 298.714844 162.671875 296.96875 163.519531 C 293.257812 165.308594 289.914062 171.574219 286.269531 169.652344 C 280.117188 166.410156 274.941406 183.734375 274.785156 192.566406 Z M 274.785156 192.566406 " fill-opacity="1" fill-rule="nonzero"/><path fill="#0048fc" d="M 459.835938 183.804688 C 459.835938 184.5 459.769531 185.1875 459.632812 185.871094 C 459.496094 186.554688 459.296875 187.21875 459.027344 187.859375 C 458.761719 188.503906 458.4375 189.117188 458.046875 189.695312 C 457.660156 190.273438 457.222656 190.808594 456.730469 191.300781 C 456.238281 191.792969 455.703125 192.234375 455.125 192.621094 C 454.542969 193.007812 453.933594 193.332031 453.289062 193.601562 C 452.648438 193.867188 451.984375 194.066406 451.300781 194.203125 C 450.617188 194.339844 449.929688 194.40625 449.234375 194.40625 C 448.539062 194.40625 447.847656 194.339844 447.164062 194.203125 C 446.480469 194.066406 445.820312 193.867188 445.175781 193.601562 C 444.53125 193.332031 443.921875 193.007812 443.34375 192.621094 C 442.765625 192.234375 442.230469 191.792969 441.738281 191.300781 C 441.246094 190.808594 440.804688 190.273438 440.417969 189.695312 C 440.03125 189.117188 439.703125 188.503906 439.4375 187.859375 C 439.171875 187.21875 438.972656 186.554688 438.835938 185.871094 C 438.699219 185.1875 438.632812 184.5 438.632812 183.804688 C 438.632812 183.109375 438.699219 182.417969 438.835938 181.734375 C 438.972656 181.050781 439.171875 180.390625 439.4375 179.746094 C 439.703125 179.101562 440.03125 178.492188 440.417969 177.914062 C 440.804688 177.335938 441.246094 176.796875 441.738281 176.304688 C 442.230469 175.8125 442.765625 175.375 443.34375 174.988281 C 443.921875 174.601562 444.53125 174.273438 445.175781 174.007812 C 445.820312 173.742188 446.480469 173.539062 447.164062 173.40625 C 447.847656 173.269531 448.539062 173.199219 449.234375 173.199219 C 449.929688 173.199219 450.617188 173.269531 451.300781 173.40625 C 451.984375 173.539062 452.648438 173.742188 453.289062 174.007812 C 453.933594 174.273438 454.542969 174.601562 455.125 174.988281 C 455.703125 175.375 456.238281 175.8125 456.730469 176.304688 C 457.222656 176.796875 457.660156 177.335938 458.046875 177.914062 C 458.4375 178.492188 458.761719 179.101562 459.027344 179.746094 C 459.296875 180.390625 459.496094 181.050781 459.632812 181.734375 C 459.769531 182.417969 459.835938 183.109375 459.835938 183.804688 Z M 459.835938 183.804688 " fill-opacity="1" fill-rule="nonzero"/><path fill="#ffb6b6" d="M 486.921875 276.226562 C 486.519531 276.820312 486.054688 277.367188 485.535156 277.859375 C 485.011719 278.355469 484.445312 278.789062 483.828125 279.160156 C 483.210938 279.53125 482.5625 279.832031 481.882812 280.058594 C 481.203125 280.289062 480.503906 280.445312 479.789062 280.523438 C 479.074219 280.601562 478.359375 280.601562 477.644531 280.527344 C 476.929688 280.449219 476.230469 280.296875 475.550781 280.070312 C 474.867188 279.839844 474.21875 279.542969 473.601562 279.171875 C 472.984375 278.800781 472.417969 278.371094 471.894531 277.878906 L 426.542969 297.671875 L 417.984375 286.472656 L 472.019531 263.355469 C 472.464844 262.949219 472.941406 262.589844 473.449219 262.269531 C 473.960938 261.949219 474.496094 261.679688 475.054688 261.457031 C 475.613281 261.238281 476.1875 261.066406 476.78125 260.949219 C 477.371094 260.832031 477.964844 260.769531 478.566406 260.761719 C 479.167969 260.753906 479.765625 260.800781 480.359375 260.898438 C 480.953125 261 481.53125 261.152344 482.097656 261.359375 C 482.664062 261.566406 483.207031 261.820312 483.722656 262.125 C 484.242188 262.429688 484.730469 262.777344 485.1875 263.171875 C 485.640625 263.566406 486.058594 263.996094 486.433594 264.464844 C 486.8125 264.933594 487.144531 265.433594 487.429688 265.960938 C 487.714844 266.492188 487.949219 267.042969 488.136719 267.613281 C 488.320312 268.1875 488.453125 268.773438 488.535156 269.367188 C 488.613281 269.964844 488.636719 270.5625 488.609375 271.164062 C 488.578125 271.765625 488.496094 272.359375 488.355469 272.945312 C 488.21875 273.53125 488.03125 274.097656 487.789062 274.652344 C 487.546875 275.203125 487.257812 275.726562 486.921875 276.226562 Z M 486.921875 276.226562 " fill-opacity="1" fill-rule="nonzero"/><path fill="#0048fc" d="M 293.21875 286.53125 L 288.4375 311.828125 C 288.324219 312.417969 288.273438 313.011719 288.289062 313.613281 C 288.300781 314.214844 288.375 314.804688 288.511719 315.390625 C 288.648438 315.976562 288.84375 316.539062 289.097656 317.082031 C 289.355469 317.625 289.664062 318.136719 290.023438 318.617188 C 290.386719 319.097656 290.792969 319.535156 291.246094 319.929688 C 291.699219 320.320312 292.1875 320.664062 292.710938 320.957031 C 293.238281 321.25 293.785156 321.484375 294.359375 321.660156 C 294.933594 321.835938 295.519531 321.953125 296.117188 322.007812 L 372.046875 328.917969 L 458.871094 285.980469 L 451.457031 269.640625 L 373.601562 293.25 C 360.734375 282.429688 324.5625 285.96875 293.21875 286.53125 Z M 293.21875 286.53125 " fill-opacity="1" fill-rule="nonzero"/><path fill="#0048fc" d="M 491.515625 226.4375 L 491.488281 242.261719 C 491.480469 242.546875 491.371094 242.789062 491.167969 242.988281 C 490.960938 243.1875 490.714844 243.285156 490.429688 243.285156 C 490.144531 243.285156 489.898438 243.1875 489.691406 242.988281 C 489.488281 242.789062 489.378906 242.546875 489.371094 242.261719 L 489.394531 226.4375 C 489.402344 226.152344 489.511719 225.910156 489.71875 225.710938 C 489.921875 225.511719 490.167969 225.414062 490.453125 225.414062 C 490.742188 225.414062 490.984375 225.511719 491.191406 225.710938 C 491.398438 225.910156 491.503906 226.152344 491.515625 226.4375 Z M 491.515625 226.4375 " fill-opacity="1" fill-rule="nonzero"/><path fill="#0048fc" d="M 498.90625 234.949219 L 483.484375 234.988281 C 483.199219 234.976562 482.957031 234.871094 482.757812 234.664062 C 482.558594 234.460938 482.460938 234.214844 482.460938 233.929688 C 482.460938 233.640625 482.558594 233.394531 482.757812 233.191406 C 482.957031 232.984375 483.199219 232.878906 483.484375 232.867188 L 498.90625 232.828125 C 499.191406 232.839844 499.433594 232.949219 499.632812 233.152344 C 499.832031 233.359375 499.929688 233.605469 499.929688 233.890625 C 499.929688 234.175781 499.832031 234.421875 499.632812 234.625 C 499.433594 234.832031 499.191406 234.941406 498.90625 234.949219 Z M 498.90625 234.949219 " fill-opacity="1" fill-rule="nonzero"/><path fill="#0048fc" d="M 476.222656 233.925781 C 476.222656 232.976562 476.3125 232.039062 476.5 231.105469 C 476.683594 230.175781 476.957031 229.269531 477.320312 228.394531 C 477.683594 227.515625 478.128906 226.683594 478.65625 225.894531 C 479.183594 225.105469 479.785156 224.375 480.457031 223.703125 C 481.125 223.03125 481.855469 222.433594 482.644531 221.90625 C 483.433594 221.378906 484.269531 220.933594 485.144531 220.570312 C 486.023438 220.207031 486.925781 219.929688 487.859375 219.746094 C 488.789062 219.5625 489.730469 219.46875 490.679688 219.46875 C 491.628906 219.46875 492.566406 219.5625 493.5 219.746094 C 494.429688 219.929688 495.332031 220.207031 496.210938 220.570312 C 497.085938 220.933594 497.921875 221.378906 498.710938 221.90625 C 499.5 222.433594 500.230469 223.03125 500.902344 223.703125 C 501.574219 224.375 502.171875 225.105469 502.699219 225.894531 C 503.226562 226.683594 503.671875 227.515625 504.035156 228.394531 C 504.398438 229.269531 504.671875 230.175781 504.859375 231.105469 C 505.042969 232.039062 505.136719 232.976562 505.136719 233.925781 C 505.136719 234.875 505.042969 235.816406 504.859375 236.746094 C 504.671875 237.679688 504.398438 238.582031 504.035156 239.460938 C 503.671875 240.335938 503.226562 241.171875 502.699219 241.960938 C 502.171875 242.75 501.574219 243.480469 500.902344 244.152344 C 500.230469 244.820312 499.5 245.421875 498.710938 245.949219 C 497.921875 246.476562 497.085938 246.921875 496.210938 247.285156 C 495.332031 247.648438 494.429688 247.921875 493.5 248.109375 C 492.566406 248.292969 491.628906 248.386719 490.679688 248.386719 C 489.730469 248.382812 488.789062 248.292969 487.859375 248.105469 C 486.929688 247.917969 486.023438 247.644531 485.148438 247.28125 C 484.273438 246.917969 483.4375 246.472656 482.648438 245.945312 C 481.859375 245.417969 481.132812 244.816406 480.460938 244.144531 C 479.789062 243.476562 479.191406 242.746094 478.664062 241.957031 C 478.132812 241.167969 477.6875 240.335938 477.324219 239.457031 C 476.960938 238.582031 476.6875 237.675781 476.5 236.746094 C 476.316406 235.816406 476.222656 234.875 476.222656 233.925781 Z M 478.285156 233.925781 C 478.285156 234.742188 478.367188 235.546875 478.523438 236.34375 C 478.683594 237.144531 478.917969 237.917969 479.230469 238.667969 C 479.539062 239.421875 479.921875 240.136719 480.375 240.8125 C 480.828125 241.488281 481.339844 242.113281 481.914062 242.691406 C 482.492188 243.265625 483.117188 243.78125 483.792969 244.230469 C 484.46875 244.683594 485.183594 245.066406 485.9375 245.375 C 486.6875 245.6875 487.460938 245.921875 488.261719 246.082031 C 489.058594 246.242188 489.863281 246.320312 490.679688 246.320312 C 491.492188 246.320312 492.296875 246.242188 493.09375 246.082031 C 493.894531 245.921875 494.667969 245.6875 495.421875 245.375 C 496.171875 245.066406 496.886719 244.683594 497.5625 244.230469 C 498.238281 243.78125 498.867188 243.265625 499.441406 242.691406 C 500.015625 242.113281 500.53125 241.488281 500.980469 240.8125 C 501.433594 240.136719 501.816406 239.421875 502.125 238.667969 C 502.4375 237.917969 502.671875 237.144531 502.832031 236.34375 C 502.992188 235.546875 503.070312 234.742188 503.070312 233.925781 C 503.070312 233.113281 502.992188 232.308594 502.832031 231.507812 C 502.671875 230.710938 502.4375 229.9375 502.125 229.183594 C 501.816406 228.433594 501.433594 227.71875 500.980469 227.042969 C 500.53125 226.363281 500.015625 225.738281 499.441406 225.164062 C 498.867188 224.589844 498.238281 224.074219 497.5625 223.621094 C 496.886719 223.171875 496.171875 222.789062 495.421875 222.476562 C 494.667969 222.164062 493.894531 221.929688 493.09375 221.773438 C 492.296875 221.613281 491.492188 221.535156 490.679688 221.535156 C 489.863281 221.535156 489.058594 221.613281 488.261719 221.773438 C 487.464844 221.933594 486.691406 222.167969 485.9375 222.480469 C 485.1875 222.792969 484.472656 223.175781 483.796875 223.625 C 483.121094 224.078125 482.496094 224.59375 481.917969 225.167969 C 481.34375 225.742188 480.832031 226.367188 480.378906 227.046875 C 479.925781 227.722656 479.546875 228.433594 479.234375 229.1875 C 478.921875 229.9375 478.6875 230.710938 478.527344 231.511719 C 478.367188 232.308594 478.289062 233.113281 478.285156 233.925781 Z M 478.285156 233.925781 " fill-opacity="1" fill-rule="nonzero"/><path fill="#3f3d56" d="M 590.914062 357.308594 C 590.914062 358.003906 590.847656 358.695312 590.710938 359.378906 C 590.578125 360.058594 590.375 360.722656 590.109375 361.367188 C 589.84375 362.007812 589.515625 362.621094 589.128906 363.199219 C 588.742188 363.777344 588.304688 364.3125 587.808594 364.804688 C 587.316406 365.296875 586.78125 365.738281 586.203125 366.125 C 585.625 366.511719 585.015625 366.839844 584.371094 367.105469 C 583.726562 367.371094 583.066406 367.574219 582.382812 367.707031 C 581.699219 367.84375 581.011719 367.910156 580.3125 367.910156 C 579.617188 367.910156 578.929688 367.84375 578.246094 367.707031 C 577.5625 367.574219 576.898438 367.371094 576.257812 367.105469 C 575.613281 366.839844 575.003906 366.511719 574.421875 366.125 C 573.84375 365.738281 573.308594 365.296875 572.816406 364.804688 C 572.324219 364.3125 571.886719 363.777344 571.5 363.199219 C 571.113281 362.621094 570.785156 362.007812 570.519531 361.367188 C 570.253906 360.722656 570.050781 360.058594 569.914062 359.378906 C 569.78125 358.695312 569.710938 358.003906 569.710938 357.308594 C 569.710938 356.613281 569.78125 355.921875 569.914062 355.238281 C 570.050781 354.558594 570.253906 353.894531 570.519531 353.25 C 570.785156 352.609375 571.113281 351.996094 571.5 351.417969 C 571.886719 350.839844 572.324219 350.304688 572.816406 349.8125 C 573.308594 349.320312 573.84375 348.878906 574.421875 348.492188 C 575.003906 348.105469 575.613281 347.777344 576.257812 347.511719 C 576.898438 347.246094 577.5625 347.046875 578.246094 346.910156 C 578.929688 346.773438 579.617188 346.707031 580.3125 346.707031 C 581.011719 346.707031 581.699219 346.773438 582.382812 346.910156 C 583.066406 347.046875 583.726562 347.246094 584.371094 347.511719 C 585.015625 347.777344 585.625 348.105469 586.203125 348.492188 C 586.78125 348.878906 587.316406 349.320312 587.808594 349.8125 C 588.304688 350.304688 588.742188 350.839844 589.128906 351.417969 C 589.515625 351.996094 589.84375 352.609375 590.109375 353.25 C 590.375 353.894531 590.578125 354.558594 590.710938 355.238281 C 590.847656 355.921875 590.914062 356.613281 590.914062 357.308594 Z M 590.914062 357.308594 " fill-opacity="1" fill-rule="nonzero"/><g clip-path="url(#d5647e5e59)"><path fill="#3f3d56" d="M 589.953125 120.183594 C 589.953125 120.882812 589.882812 121.570312 589.75 122.253906 C 589.613281 122.9375 589.410156 123.597656 589.144531 124.242188 C 588.878906 124.886719 588.550781 125.496094 588.164062 126.074219 C 587.777344 126.65625 587.339844 127.191406 586.847656 127.683594 C 586.355469 128.175781 585.820312 128.613281 585.238281 129 C 584.660156 129.386719 584.050781 129.714844 583.40625 129.980469 C 582.765625 130.246094 582.101562 130.449219 581.417969 130.585938 C 580.734375 130.71875 580.046875 130.789062 579.351562 130.789062 C 578.652344 130.789062 577.964844 130.71875 577.28125 130.585938 C 576.597656 130.449219 575.9375 130.246094 575.292969 129.980469 C 574.648438 129.714844 574.039062 129.386719 573.460938 129 C 572.882812 128.613281 572.34375 128.175781 571.851562 127.683594 C 571.359375 127.191406 570.921875 126.65625 570.535156 126.074219 C 570.148438 125.496094 569.820312 124.886719 569.554688 124.242188 C 569.289062 123.597656 569.085938 122.9375 568.953125 122.253906 C 568.816406 121.570312 568.746094 120.882812 568.746094 120.183594 C 568.746094 119.488281 568.816406 118.800781 568.953125 118.117188 C 569.085938 117.433594 569.289062 116.769531 569.554688 116.128906 C 569.820312 115.484375 570.148438 114.875 570.535156 114.292969 C 570.921875 113.714844 571.359375 113.179688 571.851562 112.6875 C 572.34375 112.195312 572.882812 111.753906 573.460938 111.367188 C 574.039062 110.980469 574.648438 110.65625 575.292969 110.390625 C 575.9375 110.121094 576.597656 109.921875 577.28125 109.785156 C 577.964844 109.648438 578.652344 109.582031 579.351562 109.582031 C 580.046875 109.582031 580.734375 109.648438 581.417969 109.785156 C 582.101562 109.921875 582.765625 110.121094 583.40625 110.390625 C 584.050781 110.65625 584.660156 110.980469 585.238281 111.367188 C 585.820312 111.753906 586.355469 112.195312 586.847656 112.6875 C 587.339844 113.179688 587.777344 113.714844 588.164062 114.292969 C 588.550781 114.875 588.878906 115.484375 589.144531 116.128906 C 589.410156 116.769531 589.613281 117.433594 589.75 118.117188 C 589.882812 118.800781 589.953125 119.488281 589.953125 120.183594 Z M 589.953125 120.183594 " fill-opacity="1" fill-rule="nonzero"/></g></svg>