<svg xmlns="http://www.w3.org/2000/svg" xmlns:xlink="http://www.w3.org/1999/xlink" width="1080" zoomAndPan="magnify" viewBox="0 0 810 809.999993" height="1080" preserveAspectRatio="xMidYMid meet" version="1.0"><path fill="#caddff" d="M 111.925781 665.558594 C 144.628906 709.125 197.210938 726.445312 229.816406 737.1875 C 370.769531 783.617188 542.125 734.023438 646.445312 648.710938 C 749.40625 564.503906 789.203125 380.449219 717.289062 223.855469 C 645.097656 66.648438 498.453125 26.382812 371.402344 30.488281 C 169.664062 37.007812 46.109375 105.597656 27.492188 242.765625 C 25.558594 257.019531 30.226562 269.320312 30.226562 269.320312 C 39.660156 301.191406 70.195312 315.6875 90.039062 388.628906 C 126.558594 522.835938 54.574219 589.140625 111.925781 665.558594 " fill-opacity="1" fill-rule="nonzero"/><path fill="#000000" d="M 559.652344 77.378906 C 559.40625 77.378906 559.152344 77.3125 558.929688 77.164062 C 558.328125 76.765625 558.15625 75.949219 558.550781 75.347656 L 562.269531 69.65625 C 562.667969 69.050781 563.480469 68.882812 564.085938 69.277344 C 564.695312 69.675781 564.867188 70.488281 564.46875 71.097656 L 560.75 76.78125 C 560.5 77.167969 560.082031 77.378906 559.652344 77.378906 " fill-opacity="1" fill-rule="nonzero"/><path fill="#000000" d="M 550.992188 90.625 C 550.738281 90.625 550.496094 90.554688 550.273438 90.410156 C 549.664062 90.015625 549.496094 89.199219 549.894531 88.59375 L 553.613281 82.90625 C 554.007812 82.296875 554.820312 82.128906 555.429688 82.523438 C 556.039062 82.921875 556.207031 83.738281 555.808594 84.34375 L 552.089844 90.03125 C 551.839844 90.417969 551.417969 90.625 550.992188 90.625 " fill-opacity="1" fill-rule="nonzero"/><path fill="#000000" d="M 553.398438 78.683594 C 553.15625 78.683594 552.902344 78.617188 552.683594 78.46875 L 547 74.753906 C 546.390625 74.359375 546.222656 73.539062 546.617188 72.933594 C 547.011719 72.328125 547.832031 72.15625 548.4375 72.550781 L 554.117188 76.273438 C 554.722656 76.671875 554.898438 77.488281 554.496094 78.09375 C 554.246094 78.476562 553.832031 78.683594 553.398438 78.683594 " fill-opacity="1" fill-rule="nonzero"/><path fill="#000000" d="M 566.648438 87.34375 C 566.402344 87.34375 566.152344 87.277344 565.933594 87.132812 L 560.25 83.410156 C 559.636719 83.015625 559.46875 82.199219 559.867188 81.59375 C 560.261719 80.984375 561.078125 80.816406 561.683594 81.210938 L 567.367188 84.933594 C 567.976562 85.332031 568.144531 86.144531 567.75 86.75 C 567.5 87.136719 567.078125 87.34375 566.648438 87.34375 " fill-opacity="1" fill-rule="nonzero"/><path fill="#000000" d="M 79.347656 205.054688 C 79.101562 205.054688 78.851562 204.984375 78.632812 204.839844 C 78.023438 204.445312 77.855469 203.628906 78.25 203.019531 L 81.972656 197.335938 C 82.367188 196.726562 83.179688 196.558594 83.789062 196.957031 C 84.394531 197.351562 84.566406 198.164062 84.167969 198.773438 L 80.449219 204.460938 C 80.199219 204.84375 79.777344 205.054688 79.347656 205.054688 " fill-opacity="1" fill-rule="nonzero"/><path fill="#000000" d="M 70.6875 218.304688 C 70.441406 218.304688 70.191406 218.234375 69.96875 218.085938 C 69.363281 217.691406 69.191406 216.878906 69.589844 216.269531 L 73.308594 210.582031 C 73.707031 209.976562 74.519531 209.804688 75.125 210.207031 C 75.734375 210.601562 75.90625 211.414062 75.507812 212.023438 L 71.789062 217.707031 C 71.535156 218.09375 71.117188 218.304688 70.6875 218.304688 " fill-opacity="1" fill-rule="nonzero"/><path fill="#000000" d="M 73.101562 206.359375 C 72.851562 206.359375 72.605469 206.292969 72.378906 206.144531 L 66.695312 202.425781 C 66.089844 202.03125 65.917969 201.214844 66.316406 200.609375 C 66.710938 200 67.527344 199.832031 68.132812 200.230469 L 73.820312 203.949219 C 74.425781 204.347656 74.597656 205.160156 74.199219 205.769531 C 73.949219 206.148438 73.527344 206.359375 73.101562 206.359375 " fill-opacity="1" fill-rule="nonzero"/><path fill="#000000" d="M 86.34375 215.027344 C 86.09375 215.027344 85.847656 214.957031 85.625 214.8125 L 79.941406 211.09375 C 79.332031 210.695312 79.160156 209.878906 79.558594 209.273438 C 79.957031 208.667969 80.769531 208.496094 81.378906 208.894531 L 87.0625 212.613281 C 87.671875 213.007812 87.839844 213.824219 87.441406 214.433594 C 87.191406 214.820312 86.769531 215.027344 86.34375 215.027344 " fill-opacity="1" fill-rule="nonzero"/><path fill="#000000" d="M 729.105469 429.3125 C 728.863281 429.3125 728.609375 429.242188 728.390625 429.097656 C 727.78125 428.699219 727.609375 427.886719 728.007812 427.28125 L 731.726562 421.589844 C 732.121094 420.984375 732.9375 420.816406 733.542969 421.210938 C 734.152344 421.605469 734.320312 422.425781 733.925781 423.03125 L 730.207031 428.71875 C 729.957031 429.101562 729.535156 429.3125 729.105469 429.3125 " fill-opacity="1" fill-rule="nonzero"/><path fill="#000000" d="M 720.445312 442.5625 C 720.195312 442.5625 719.945312 442.492188 719.726562 442.34375 C 719.121094 441.953125 718.945312 441.132812 719.34375 440.527344 L 723.066406 434.839844 C 723.460938 434.234375 724.273438 434.0625 724.878906 434.460938 C 725.488281 434.855469 725.660156 435.671875 725.261719 436.277344 L 721.542969 441.96875 C 721.292969 442.351562 720.875 442.5625 720.445312 442.5625 " fill-opacity="1" fill-rule="nonzero"/><path fill="#000000" d="M 722.855469 430.617188 C 722.613281 430.617188 722.355469 430.550781 722.136719 430.402344 L 716.453125 426.683594 C 715.847656 426.285156 715.675781 425.472656 716.074219 424.867188 C 716.46875 424.257812 717.285156 424.085938 717.890625 424.484375 L 723.574219 428.203125 C 724.179688 428.601562 724.351562 429.417969 723.957031 430.023438 C 723.707031 430.410156 723.285156 430.617188 722.855469 430.617188 " fill-opacity="1" fill-rule="nonzero"/><path fill="#000000" d="M 736.101562 439.285156 C 735.851562 439.285156 735.605469 439.214844 735.382812 439.070312 L 729.695312 435.351562 C 729.085938 434.953125 728.917969 434.140625 729.316406 433.535156 C 729.710938 432.925781 730.527344 432.753906 731.132812 433.152344 L 736.820312 436.871094 C 737.425781 437.269531 737.59375 438.085938 737.195312 438.691406 C 736.949219 439.078125 736.523438 439.285156 736.101562 439.285156 " fill-opacity="1" fill-rule="nonzero"/><path fill="#000000" d="M 67.515625 245.414062 L 67.523438 245.414062 Z M 70.613281 246.0625 C 69.742188 246.0625 68.875 246.246094 68.054688 246.617188 C 64.824219 248.0625 63.355469 251.933594 64.78125 255.242188 C 65.476562 256.855469 66.746094 258.085938 68.351562 258.710938 C 69.921875 259.324219 71.636719 259.28125 73.175781 258.585938 C 76.40625 257.136719 77.875 253.265625 76.449219 249.957031 C 75.753906 248.347656 74.484375 247.113281 72.875 246.488281 C 72.144531 246.203125 71.378906 246.0625 70.613281 246.0625 Z M 70.617188 261.769531 C 69.53125 261.769531 68.445312 261.566406 67.402344 261.160156 C 65.132812 260.28125 63.347656 258.546875 62.371094 256.28125 C 60.378906 251.664062 62.445312 246.253906 66.980469 244.214844 C 69.167969 243.234375 71.597656 243.171875 73.828125 244.039062 C 76.097656 244.921875 77.882812 246.652344 78.859375 248.917969 C 80.851562 253.535156 78.785156 258.945312 74.25 260.984375 C 73.089844 261.507812 71.855469 261.769531 70.617188 261.769531 " fill-opacity="1" fill-rule="nonzero"/><path fill="#ffffff" d="M 177.414062 118.105469 C 177.414062 150.6875 151.007812 177.101562 118.4375 177.101562 C 85.863281 177.101562 59.457031 150.6875 59.457031 118.105469 C 59.457031 85.515625 85.863281 59.101562 118.4375 59.101562 C 151.007812 59.101562 177.414062 85.515625 177.414062 118.105469 " fill-opacity="1" fill-rule="nonzero"/><path fill="#000000" d="M 118.4375 60.417969 C 86.636719 60.417969 60.769531 86.296875 60.769531 118.105469 C 60.769531 149.914062 86.636719 175.792969 118.4375 175.792969 C 150.234375 175.792969 176.101562 149.914062 176.101562 118.105469 C 176.101562 86.296875 150.234375 60.417969 118.4375 60.417969 Z M 118.4375 178.421875 C 85.191406 178.421875 58.144531 151.363281 58.144531 118.105469 C 58.144531 84.84375 85.191406 57.789062 118.4375 57.789062 C 151.683594 57.789062 178.730469 84.84375 178.730469 118.105469 C 178.730469 151.363281 151.683594 178.421875 118.4375 178.421875 " fill-opacity="1" fill-rule="nonzero"/><path fill="#5479f7" d="M 109.722656 146.886719 C 109.722656 144.695312 110.464844 142.890625 111.957031 141.464844 C 113.449219 140.046875 115.359375 139.332031 117.6875 139.332031 C 120.015625 139.332031 121.925781 140.046875 123.417969 141.464844 C 124.910156 142.890625 125.65625 144.695312 125.65625 146.886719 C 125.65625 149.046875 124.925781 150.824219 123.46875 152.230469 C 122.007812 153.636719 120.082031 154.34375 117.6875 154.34375 C 115.292969 154.34375 113.367188 153.636719 111.910156 152.230469 C 110.449219 150.824219 109.722656 149.046875 109.722656 146.886719 Z M 111.148438 131.808594 C 111.148438 127.210938 111.703125 123.550781 112.820312 120.828125 C 113.933594 118.097656 115.976562 115.417969 118.941406 112.773438 C 121.910156 110.128906 123.886719 107.980469 124.867188 106.320312 C 125.851562 104.664062 126.34375 102.914062 126.34375 101.070312 C 126.34375 95.523438 123.785156 92.746094 118.671875 92.746094 C 116.246094 92.746094 114.304688 93.492188 112.84375 94.984375 C 111.386719 96.484375 110.621094 98.546875 110.558594 101.175781 L 96.292969 101.175781 C 96.359375 94.90625 98.382812 89.996094 102.367188 86.449219 C 106.351562 82.910156 111.785156 81.132812 118.671875 81.132812 C 125.621094 81.132812 131.015625 82.8125 134.851562 86.183594 C 138.6875 89.542969 140.605469 94.296875 140.605469 100.4375 C 140.605469 103.230469 139.984375 105.863281 138.738281 108.34375 C 137.492188 110.816406 135.3125 113.570312 132.195312 116.589844 L 128.210938 120.378906 C 125.722656 122.78125 124.296875 125.585938 123.933594 128.804688 L 123.738281 131.808594 L 111.148438 131.808594 " fill-opacity="1" fill-rule="nonzero"/><path fill="#5479f7" d="M 350.171875 62.527344 L 315.347656 116.816406 L 383.625 114.6875 L 350.171875 62.527344 " fill-opacity="1" fill-rule="nonzero"/><path fill="#5479f7" d="M 669.546875 270.65625 L 637.597656 324.183594 L 705.914062 324.285156 L 669.546875 270.65625 " fill-opacity="1" fill-rule="nonzero"/><path fill="#5479f7" d="M 513.675781 659.164062 C 513.613281 659.164062 513.558594 659.164062 513.492188 659.164062 C 505.03125 659.0625 498.25 652.117188 498.351562 643.652344 L 503.609375 196.890625 C 503.707031 188.488281 510.546875 181.742188 518.929688 181.742188 C 518.984375 181.742188 519.042969 181.742188 519.109375 181.742188 C 527.570312 181.84375 534.351562 188.785156 534.253906 197.253906 L 528.996094 644.015625 C 528.894531 652.414062 522.058594 659.164062 513.675781 659.164062 " fill-opacity="1" fill-rule="nonzero"/><path fill="#5479f7" d="M 481.332031 205.183594 L 556.207031 205.722656 L 520.941406 144.386719 L 481.332031 205.183594 " fill-opacity="1" fill-rule="nonzero"/><path fill="#5479f7" d="M 325.414062 753.773438 C 319.6875 753.773438 314.195312 750.546875 311.570312 745.027344 C 307.929688 737.382812 311.175781 728.238281 318.816406 724.597656 L 584.621094 598.019531 L 590.917969 465.277344 C 591.128906 460.808594 593.28125 456.660156 596.804688 453.914062 L 652.300781 410.636719 L 655.546875 313.066406 C 655.828125 304.605469 662.914062 297.96875 671.371094 298.253906 C 679.832031 298.535156 686.460938 305.625 686.179688 314.085938 L 682.691406 418.824219 C 682.542969 423.367188 680.386719 427.609375 676.800781 430.402344 L 621.199219 473.765625 L 614.800781 608.640625 C 614.535156 614.289062 611.179688 619.324219 606.078125 621.753906 L 331.988281 752.28125 C 329.867188 753.296875 327.625 753.773438 325.414062 753.773438 " fill-opacity="1" fill-rule="nonzero"/><path fill="#5479f7" d="M 509.890625 579.449219 C 506.21875 579.449219 502.539062 578.132812 499.601562 575.472656 L 426.210938 508.898438 C 423.039062 506.019531 421.210938 501.945312 421.183594 497.664062 L 419.429688 280.136719 L 347.058594 272.769531 C 339.21875 271.96875 333.261719 265.355469 333.285156 257.476562 L 333.722656 103.296875 C 333.746094 94.847656 340.601562 88.011719 349.046875 88.011719 C 349.058594 88.011719 349.074219 88.011719 349.089844 88.011719 C 357.550781 88.039062 364.394531 94.917969 364.371094 103.386719 L 363.972656 243.671875 L 436.191406 251.03125 C 443.972656 251.820312 449.90625 258.335938 449.972656 266.15625 L 451.773438 490.695312 L 520.191406 552.757812 C 526.457031 558.449219 526.9375 568.144531 521.246094 574.414062 C 518.222656 577.753906 514.066406 579.449219 509.890625 579.449219 " fill-opacity="1" fill-rule="nonzero"/><path fill="#99b9ff" d="M 644.558594 194.875 C 630.519531 198.726562 616.015625 190.449219 612.167969 176.394531 C 608.324219 162.332031 616.589844 147.8125 630.636719 143.964844 C 644.679688 140.113281 659.183594 148.390625 663.027344 162.449219 C 666.875 176.507812 658.605469 191.023438 644.558594 194.875 Z M 690.050781 160.355469 L 687.347656 150.46875 L 676.175781 150.976562 C 675.136719 148.796875 673.941406 146.734375 672.582031 144.804688 L 678.5 135.316406 L 671.21875 128.105469 L 661.792969 134.140625 C 659.832031 132.792969 657.757812 131.613281 655.597656 130.609375 L 655.988281 119.410156 L 646.082031 116.816406 L 640.9375 126.742188 C 638.589844 126.5625 636.203125 126.578125 633.800781 126.796875 L 628.546875 116.90625 L 618.667969 119.617188 L 619.175781 130.804688 C 617 131.84375 614.941406 133.042969 613.011719 134.398438 L 603.535156 128.476562 L 596.328125 135.765625 L 602.359375 145.199219 C 601.011719 147.167969 599.832031 149.238281 598.832031 151.398438 L 587.644531 151.011719 L 585.046875 160.933594 L 594.96875 166.078125 C 594.785156 168.433594 594.800781 170.820312 595.019531 173.21875 L 585.144531 178.480469 L 587.855469 188.371094 L 599.027344 187.863281 C 600.058594 190.039062 601.261719 192.105469 602.617188 194.035156 L 596.699219 203.523438 L 603.980469 210.734375 L 613.410156 204.699219 C 615.371094 206.046875 617.4375 207.230469 619.601562 208.234375 L 619.210938 219.425781 L 629.125 222.027344 L 634.261719 212.09375 C 636.613281 212.28125 639 212.261719 641.398438 212.046875 L 646.652344 221.929688 L 656.53125 219.222656 L 656.019531 208.035156 C 658.199219 207 660.261719 205.800781 662.191406 204.441406 L 671.667969 210.363281 L 678.867188 203.074219 L 672.835938 193.636719 C 674.183594 191.675781 675.363281 189.597656 676.371094 187.441406 L 687.550781 187.828125 L 690.148438 177.910156 L 680.230469 172.761719 C 680.410156 170.410156 680.394531 168.023438 680.175781 165.617188 L 690.050781 160.355469 " fill-opacity="1" fill-rule="nonzero"/><path fill="#99b9ff" d="M 356.816406 652.125 C 341.859375 656.222656 326.421875 647.414062 322.328125 632.445312 C 318.234375 617.476562 327.035156 602.019531 341.988281 597.921875 C 356.941406 593.824219 372.382812 602.636719 376.472656 617.601562 C 380.570312 632.570312 371.765625 648.027344 356.816406 652.125 Z M 405.25 615.375 L 402.367188 604.847656 L 390.46875 605.386719 C 389.371094 603.070312 388.089844 600.871094 386.644531 598.816406 L 392.945312 588.714844 L 385.191406 581.039062 L 375.15625 587.464844 C 373.070312 586.03125 370.867188 584.769531 368.566406 583.703125 L 368.976562 571.785156 L 358.429688 569.015625 L 352.953125 579.585938 C 350.453125 579.390625 347.914062 579.410156 345.355469 579.640625 L 339.765625 569.117188 L 329.246094 572.003906 L 329.785156 583.910156 C 327.46875 585.011719 325.273438 586.292969 323.222656 587.738281 L 313.132812 581.433594 L 305.464844 589.195312 L 311.882812 599.238281 C 310.449219 601.332031 309.191406 603.539062 308.125 605.839844 L 296.214844 605.425781 L 293.457031 615.988281 L 304.011719 621.464844 C 303.816406 623.972656 303.839844 626.511719 304.066406 629.070312 L 293.554688 634.671875 L 296.433594 645.199219 L 308.332031 644.660156 C 309.433594 646.976562 310.710938 649.175781 312.15625 651.230469 L 305.859375 661.332031 L 313.609375 669.007812 L 323.644531 662.582031 C 325.734375 664.015625 327.9375 665.277344 330.234375 666.347656 L 329.824219 678.265625 L 340.371094 681.03125 L 345.847656 670.460938 C 348.347656 670.65625 350.890625 670.636719 353.445312 670.40625 L 359.039062 680.929688 L 369.554688 678.046875 L 369.015625 666.136719 C 371.332031 665.035156 373.527344 663.753906 375.582031 662.308594 L 385.671875 668.617188 L 393.339844 660.851562 L 386.917969 650.808594 C 388.351562 648.714844 389.613281 646.507812 390.679688 644.207031 L 402.585938 644.621094 L 405.347656 634.058594 L 394.785156 628.582031 C 394.984375 626.074219 394.964844 623.535156 394.734375 620.976562 L 405.25 615.375 " fill-opacity="1" fill-rule="nonzero"/><path fill="#ffffff" d="M 680.738281 522.03125 C 671.484375 524.566406 661.933594 519.113281 659.394531 509.851562 C 656.863281 500.59375 662.308594 491.027344 671.558594 488.488281 C 680.8125 485.953125 690.371094 491.40625 692.902344 500.667969 C 695.433594 509.929688 689.988281 519.496094 680.738281 522.03125 Z M 710.699219 499.289062 L 708.917969 492.773438 L 701.5625 493.109375 C 700.882812 491.675781 700.089844 490.316406 699.199219 489.046875 L 703.09375 482.792969 L 698.296875 478.042969 L 692.085938 482.019531 C 690.796875 481.132812 689.429688 480.355469 688.007812 479.691406 L 688.261719 472.316406 L 681.734375 470.601562 L 678.347656 477.144531 C 676.800781 477.023438 675.226562 477.039062 673.648438 477.183594 L 670.183594 470.667969 L 663.679688 472.453125 L 664.011719 479.820312 C 662.582031 480.503906 661.222656 481.296875 659.953125 482.1875 L 653.710938 478.285156 L 648.960938 483.089844 L 652.933594 489.308594 C 652.042969 490.601562 651.265625 491.964844 650.605469 493.390625 L 643.242188 493.136719 L 641.53125 499.667969 L 648.0625 503.054688 C 647.945312 504.609375 647.957031 506.183594 648.101562 507.761719 L 641.597656 511.230469 L 643.378906 517.742188 L 650.742188 517.410156 C 651.417969 518.84375 652.214844 520.207031 653.105469 521.476562 L 649.207031 527.726562 L 654 532.476562 L 660.214844 528.5 C 661.503906 529.386719 662.871094 530.167969 664.292969 530.832031 L 664.035156 538.203125 L 670.5625 539.914062 L 673.953125 533.375 C 675.5 533.492188 677.070312 533.484375 678.652344 533.339844 L 682.113281 539.851562 L 688.617188 538.066406 L 688.289062 530.699219 C 689.71875 530.015625 691.074219 529.226562 692.347656 528.328125 L 698.589844 532.230469 L 703.339844 527.429688 L 699.363281 521.214844 C 700.253906 519.921875 701.03125 518.554688 701.691406 517.132812 L 709.054688 517.386719 L 710.765625 510.851562 L 704.234375 507.460938 C 704.355469 505.910156 704.339844 504.339844 704.199219 502.753906 L 710.699219 499.289062 " fill-opacity="1" fill-rule="nonzero"/><path fill="#99b9ff" d="M 82.820312 624.277344 C 78.304688 639.722656 71.222656 661.09375 79.0625 671.355469 C 93.308594 690.003906 119.550781 683.824219 137.132812 677.414062 C 172.300781 664.585938 214 647.511719 230.382812 658.777344 L 231.109375 624.277344 L 82.820312 624.277344 " fill-opacity="1" fill-rule="nonzero"/><path fill="#000000" d="M 83.800781 625.59375 C 83.59375 626.296875 83.378906 627.015625 83.164062 627.742188 C 78.71875 642.78125 73.183594 661.496094 80.105469 670.558594 C 90.515625 684.183594 109.550781 686.074219 136.683594 676.179688 C 139.78125 675.046875 142.929688 673.882812 146.105469 672.714844 C 178.878906 660.605469 212.722656 648.105469 229.121094 656.496094 L 229.769531 625.59375 Z M 106.746094 685.050781 C 94.195312 685.050781 84.582031 680.75 78.019531 672.15625 C 70.285156 662.03125 76.03125 642.609375 80.648438 626.996094 C 80.957031 625.945312 81.265625 624.914062 81.558594 623.90625 C 81.722656 623.347656 82.234375 622.964844 82.816406 622.964844 L 231.109375 622.964844 C 231.464844 622.964844 231.804688 623.101562 232.046875 623.355469 C 232.296875 623.609375 232.429688 623.949219 232.425781 624.304688 L 231.699219 658.800781 C 231.6875 659.285156 231.414062 659.71875 230.984375 659.945312 C 230.554688 660.160156 230.039062 660.128906 229.640625 659.855469 C 215.261719 649.972656 179.003906 663.363281 147.015625 675.175781 C 143.835938 676.351562 140.683594 677.515625 137.582031 678.644531 C 125.875 682.917969 115.582031 685.050781 106.746094 685.050781 " fill-opacity="1" fill-rule="nonzero"/><path fill="#000000" d="M 330.949219 754.5 C 335.003906 705.40625 329.09375 606.5 329.09375 606.5 L 124.921875 571.023438 L 104.546875 628.855469 C 98.445312 646.367188 97.632812 648.757812 89.84375 680.625 C 88.695312 685.328125 220.03125 772.019531 330.949219 754.5 " fill-opacity="1" fill-rule="nonzero"/><path fill="#ffffff" d="M 284.488281 293.441406 C 313.699219 293.304688 340.382812 309.828125 353.164062 335.925781 C 367.96875 366.164062 388.863281 445.300781 389.683594 479.863281 C 391.109375 540.269531 338.207031 543.675781 336.636719 543.765625 C 336.617188 543.765625 336.601562 543.78125 336.605469 543.800781 C 336.769531 545.546875 342.949219 611.1875 343.441406 622.839844 C 344.332031 644.152344 304.820312 677.40625 259.4375 661.023438 C 214.28125 644.722656 90.921875 612.25 78.390625 639.894531 C 78.371094 639.941406 78.320312 639.921875 78.332031 639.875 L 130.082031 447.820312 C 130.089844 447.796875 130.070312 447.769531 130.046875 447.777344 L 87.566406 449.828125 C 87.558594 449.828125 87.550781 449.824219 87.542969 449.820312 L 52.949219 429.808594 C 52.933594 429.796875 52.929688 429.78125 52.929688 429.769531 L 61.691406 390.949219 C 78.332031 324.625 122.859375 294.191406 180.324219 293.925781 L 284.488281 293.441406 " fill-opacity="1" fill-rule="nonzero"/><path fill="#000000" d="M 111.058594 627.839844 C 155.34375 627.839844 229.5 648.820312 259.882812 659.789062 C 281.835938 667.714844 305.855469 664.433594 324.117188 651.019531 C 335.425781 642.71875 342.496094 631.679688 342.125 622.894531 C 341.65625 611.726562 335.953125 550.898438 335.304688 544.003906 C 335.304688 544 335.296875 543.917969 335.296875 543.910156 C 335.238281 543.171875 335.789062 542.519531 336.53125 542.457031 C 338.738281 542.332031 389.757812 538.8125 388.367188 479.894531 C 387.542969 444.855469 366.304688 365.753906 351.984375 336.503906 C 339.550781 311.113281 313.21875 294.757812 284.835938 294.757812 C 284.722656 294.757812 284.609375 294.757812 284.492188 294.757812 L 284.488281 293.441406 L 284.492188 294.757812 L 180.332031 295.242188 C 120.113281 295.519531 78.433594 329.625 62.964844 391.269531 L 54.417969 429.144531 L 87.882812 448.5 L 129.980469 446.460938 C 130.398438 446.433594 130.847656 446.640625 131.109375 446.976562 C 131.371094 447.3125 131.460938 447.777344 131.34375 448.179688 L 81.164062 634.414062 C 87.066406 629.75 97.707031 627.839844 111.058594 627.839844 Z M 284.027344 666.667969 C 275.652344 666.667969 267.1875 665.214844 258.992188 662.257812 C 235.726562 653.859375 193.714844 641.835938 156.453125 635.273438 C 111.945312 627.4375 84.648438 629.273438 79.589844 640.441406 C 79.304688 641.066406 78.542969 641.394531 77.898438 641.152344 C 77.253906 640.917969 76.882812 640.1875 77.066406 639.523438 L 128.359375 449.171875 L 87.628906 451.136719 C 87.390625 451.152344 87.113281 451.085938 86.894531 450.964844 L 52.289062 430.945312 C 51.792969 430.660156 51.523438 430.042969 51.648438 429.484375 L 60.410156 390.660156 C 68.546875 358.230469 83.511719 333.332031 104.890625 316.628906 C 125.117188 300.832031 150.492188 292.75 180.320312 292.613281 L 284.484375 292.128906 C 284.597656 292.128906 284.71875 292.128906 284.835938 292.128906 C 314.222656 292.128906 341.472656 309.0625 354.34375 335.347656 C 368.769531 364.816406 390.164062 444.511719 390.996094 479.832031 C 392.332031 536.679688 346.667969 544.078125 338.035156 544.964844 C 339.078125 556.089844 344.300781 612.058594 344.753906 622.789062 C 345.160156 632.566406 337.851562 644.195312 325.671875 653.140625 C 313.523438 662.0625 298.929688 666.667969 284.027344 666.667969 " fill-opacity="1" fill-rule="nonzero"/><path fill="#ffffff" d="M 148.257812 441.605469 C 140.316406 440.136719 142.488281 430.933594 114.589844 429.269531 C 34.085938 424.46875 73.101562 383.578125 119.21875 391.367188 C 134.503906 393.953125 140.515625 403.84375 146.269531 406.351562 C 194.519531 427.414062 164.085938 444.535156 148.257812 441.605469 " fill-opacity="1" fill-rule="nonzero"/><path fill="#000000" d="M 148.496094 440.316406 C 156.578125 441.804688 168.675781 437.679688 170.75 430.90625 C 172.003906 426.808594 170.421875 418.328125 145.742188 407.554688 C 143.71875 406.675781 141.753906 405.03125 139.484375 403.128906 C 134.820312 399.21875 129.011719 394.359375 119.003906 392.667969 C 97.84375 389.089844 78.316406 395.914062 71.667969 404.574219 C 70.046875 406.683594 68.457031 409.9375 70.066406 413.46875 C 71.734375 417.125 79.421875 425.855469 114.671875 427.953125 C 133.832031 429.101562 139.207031 433.78125 143.132812 437.195312 C 144.933594 438.761719 146.238281 439.898438 148.496094 440.316406 Z M 152.144531 443.261719 C 150.71875 443.261719 149.332031 443.140625 148.019531 442.898438 C 145.054688 442.351562 143.28125 440.8125 141.410156 439.179688 C 137.769531 436.011719 132.785156 431.667969 114.511719 430.582031 C 88.3125 429.019531 71.679688 423.332031 67.679688 414.558594 C 65.972656 410.824219 66.632812 406.816406 69.585938 402.96875 C 76.707031 393.695312 97.304688 386.332031 119.4375 390.074219 C 130.152344 391.882812 136.519531 397.21875 141.171875 401.109375 C 143.285156 402.882812 145.113281 404.414062 146.792969 405.148438 C 172.011719 416.15625 175.105469 425.648438 173.261719 431.675781 C 171.066406 438.839844 160.894531 443.261719 152.144531 443.261719 " fill-opacity="1" fill-rule="nonzero"/><path fill="#ffffff" d="M 249.609375 304.75 C 252.292969 302.453125 250.875 298.0625 247.359375 297.636719 L 241.898438 296.980469 C 236.035156 296.273438 231.140625 292.367188 229.234375 286.972656 L 220.242188 220.539062 L 201.804688 227.136719 L 177.398438 215.066406 L 179.582031 286.050781 C 179.40625 292.238281 175.371094 297.703125 169.40625 299.84375 L 162.273438 302.390625 C 158.523438 303.738281 158.34375 308.824219 161.984375 310.410156 C 176.503906 316.746094 235.535156 316.789062 249.609375 304.75 " fill-opacity="1" fill-rule="nonzero"/><path fill="#000000" d="M 178.78125 217.210938 L 180.894531 286.007812 C 180.703125 292.863281 176.367188 298.746094 169.851562 301.078125 L 162.71875 303.625 C 161.257812 304.152344 160.703125 305.378906 160.671875 306.363281 C 160.636719 307.339844 161.105469 308.589844 162.507812 309.207031 C 169.476562 312.242188 187.324219 313.875 205.914062 313.15625 C 226.792969 312.359375 242.808594 308.839844 248.757812 303.746094 C 249.585938 303.039062 249.890625 301.984375 249.570312 300.925781 C 249.3125 300.070312 248.554688 299.097656 247.203125 298.9375 L 241.742188 298.28125 C 235.363281 297.515625 230.097656 293.34375 228 287.402344 C 227.96875 287.320312 227.949219 287.234375 227.9375 287.144531 L 219.160156 222.320312 L 202.246094 228.371094 C 201.910156 228.488281 201.542969 228.46875 201.222656 228.3125 Z M 197.382812 315.945312 C 181.710938 315.945312 167.632812 314.308594 161.460938 311.617188 C 159.273438 310.664062 157.964844 308.617188 158.046875 306.273438 C 158.125 303.921875 159.578125 301.960938 161.832031 301.15625 L 168.964844 298.601562 C 174.453125 296.636719 178.109375 291.695312 178.269531 286.011719 L 176.089844 215.101562 C 176.074219 214.640625 176.300781 214.207031 176.691406 213.957031 C 177.078125 213.707031 177.570312 213.679688 177.984375 213.882812 L 201.886719 225.707031 L 219.804688 219.300781 C 220.175781 219.167969 220.589844 219.207031 220.925781 219.417969 C 221.265625 219.621094 221.492188 219.96875 221.546875 220.363281 L 230.519531 286.652344 C 232.316406 291.582031 236.722656 295.027344 242.058594 295.671875 L 247.515625 296.328125 C 249.699219 296.589844 251.449219 298.0625 252.085938 300.164062 C 252.707031 302.214844 252.085938 304.355469 250.464844 305.746094 C 241.261719 313.621094 216.316406 315.386719 206.015625 315.78125 C 203.113281 315.894531 200.21875 315.945312 197.382812 315.945312 " fill-opacity="1" fill-rule="nonzero"/><path fill="#ffffff" d="M 228.421875 167.71875 C 259.847656 179.292969 254.445312 199.640625 254.445312 199.640625 C 254.050781 205.234375 253.828125 215.480469 254.871094 219.191406 C 255.730469 222.261719 260.75 228.023438 260.992188 229.726562 C 261.230469 231.429688 258.511719 234.925781 253.070312 236.164062 C 253.070312 236.164062 251.007812 263.351562 243.882812 267.804688 C 236.757812 272.257812 209.320312 263.707031 209.320312 263.707031 L 204.707031 261.859375 C 189.839844 255.894531 180.753906 243.492188 176.425781 228.148438 C 176.425781 228.148438 156.414062 141.199219 228.421875 167.71875 " fill-opacity="1" fill-rule="nonzero"/><path fill="#000000" d="M 209.761719 262.46875 C 217.273438 264.804688 237.773438 270.078125 243.1875 266.6875 C 248.566406 263.328125 251.199219 243.445312 251.761719 236.0625 C 251.804688 235.488281 252.214844 235.007812 252.78125 234.878906 C 257.855469 233.726562 259.800781 230.675781 259.691406 229.910156 C 259.585938 229.371094 258.3125 227.511719 257.382812 226.152344 C 255.78125 223.820312 254.125 221.40625 253.605469 219.546875 C 252.375 215.164062 252.847656 203.621094 253.132812 199.542969 C 253.140625 199.464844 253.15625 199.378906 253.175781 199.300781 C 253.378906 198.515625 257.804688 179.941406 227.96875 168.953125 C 209.058594 161.988281 195.023438 162.378906 186.242188 170.113281 C 168.316406 185.90625 177.609375 227.4375 177.707031 227.851562 C 182.226562 243.882812 191.738281 255.242188 205.195312 260.636719 Z M 237.164062 270.394531 C 226.742188 270.394531 211.140625 265.652344 208.929688 264.96875 C 208.898438 264.953125 208.863281 264.945312 208.832031 264.933594 L 204.214844 263.082031 C 189.972656 257.367188 179.925781 245.410156 175.160156 228.5 C 174.738281 226.675781 165.40625 184.972656 184.503906 168.144531 C 194.0625 159.71875 208.992188 159.164062 228.875 166.484375 C 259.644531 177.820312 256.164062 197.898438 255.75 199.828125 C 255.339844 205.730469 255.191406 215.472656 256.132812 218.839844 C 256.535156 220.273438 258.207031 222.710938 259.546875 224.671875 C 261.203125 227.082031 262.144531 228.5 262.292969 229.542969 C 262.652344 232.082031 259.484375 235.703125 254.304688 237.199219 C 253.832031 242.605469 251.515625 264.582031 244.578125 268.917969 C 242.882812 269.976562 240.25 270.394531 237.164062 270.394531 " fill-opacity="1" fill-rule="nonzero"/><path fill="#000000" d="M 218.074219 152.992188 C 226.335938 155.011719 234.414062 160.171875 238.683594 160.628906 C 245.566406 161.363281 250.535156 152.523438 259.234375 155.734375 C 266.878906 158.554688 271.171875 165.0625 272.265625 172.398438 C 272.449219 173.625 272.5 174.914062 272.378906 176.304688 C 270.765625 194.855469 259.15625 198.796875 254.445312 199.632812 C 254.445312 199.632812 227.160156 197.109375 221.835938 198.402344 C 216.859375 199.609375 209.164062 207.359375 206.84375 218.375 C 206.546875 219.792969 205.308594 220.832031 203.851562 220.941406 C 202.144531 221.070312 200.601562 219.898438 200.308594 218.222656 C 199.398438 212.929688 196.90625 202.355469 191.539062 202.042969 C 185.277344 201.683594 177.300781 214.0625 185.488281 221.824219 C 188.007812 224.214844 187.171875 228.5625 183.941406 229.863281 C 181.261719 230.945312 177.90625 231.007812 174.269531 228.0625 C 174.269531 228.0625 158.117188 199.734375 165.824219 175.824219 C 173.53125 151.910156 207.082031 150.308594 218.074219 152.992188 " fill-opacity="1" fill-rule="nonzero"/><path fill="#000000" d="M 261.953125 229 C 261.601562 229 261.25 228.863281 260.992188 228.578125 C 260.5 228.050781 260.53125 227.21875 261.0625 226.722656 C 262.992188 224.9375 264.382812 220.929688 264.613281 216.519531 C 264.777344 213.347656 264.339844 210.359375 263.386719 208.101562 C 262.574219 206.179688 261.488281 205.046875 260.398438 204.992188 C 258.441406 204.886719 256.269531 208.238281 255.40625 212.777344 C 255.269531 213.488281 254.578125 213.953125 253.871094 213.824219 C 253.15625 213.6875 252.691406 213 252.824219 212.289062 C 253.988281 206.175781 257.066406 202.1875 260.535156 202.367188 C 262.695312 202.476562 264.566406 204.152344 265.804688 207.078125 C 266.914062 209.695312 267.421875 213.09375 267.238281 216.652344 C 266.96875 221.789062 265.289062 226.386719 262.847656 228.652344 C 262.597656 228.886719 262.277344 229 261.953125 229 " fill-opacity="1" fill-rule="nonzero"/><path fill="#000000" d="M 234.121094 216.046875 C 233.953125 219.300781 234.570312 222.386719 235.859375 224.722656 C 237.039062 226.863281 238.621094 228.085938 240.320312 228.175781 C 244.003906 228.339844 247.414062 223.128906 247.742188 216.742188 C 247.914062 213.484375 247.296875 210.402344 246.003906 208.0625 C 244.824219 205.921875 243.242188 204.699219 241.542969 204.609375 C 237.886719 204.414062 234.449219 209.65625 234.121094 216.046875 Z M 240.527344 230.808594 C 240.414062 230.808594 240.300781 230.804688 240.1875 230.800781 C 237.546875 230.664062 235.195312 228.957031 233.558594 225.992188 C 232.035156 223.230469 231.304688 219.652344 231.496094 215.910156 C 231.914062 207.828125 236.390625 201.714844 241.675781 201.984375 C 244.316406 202.121094 246.671875 203.828125 248.308594 206.792969 C 249.828125 209.554688 250.5625 213.140625 250.367188 216.878906 C 249.957031 224.78125 245.667969 230.808594 240.527344 230.808594 " fill-opacity="1" fill-rule="nonzero"/><path fill="#000000" d="M 233.777344 211.53125 C 233.738281 211.53125 233.699219 211.523438 233.660156 211.523438 L 203.675781 208.835938 C 202.953125 208.773438 202.417969 208.136719 202.480469 207.410156 C 202.546875 206.691406 203.179688 206.152344 203.910156 206.222656 L 233.894531 208.90625 C 234.617188 208.972656 235.148438 209.609375 235.085938 210.332031 C 235.023438 211.015625 234.449219 211.53125 233.777344 211.53125 " fill-opacity="1" fill-rule="nonzero"/><path fill="#ffffff" d="M 185.976562 341.382812 C 185.976562 341.382812 197.652344 359.703125 208.167969 356.472656 C 213.695312 354.773438 219.089844 336.699219 221.292969 336.058594 C 228.339844 334.003906 241.765625 330.65625 250.011719 315.921875 C 257.710938 302.160156 256.035156 294.8125 254.046875 291.433594 C 253.132812 289.875 253.148438 287.945312 254.160156 286.449219 C 255.632812 284.277344 257.0625 280.992188 255.574219 277.601562 C 255.054688 276.410156 255.101562 275.050781 255.613281 273.859375 C 257.570312 269.300781 261.195312 258.816406 254.148438 256.75 C 252.242188 256.191406 250.179688 256.902344 249.019531 258.507812 C 246.78125 261.59375 242.117188 267.402344 236.347656 271.078125 C 228.1875 276.269531 223.300781 279.820312 219.203125 282.152344 C 215.6875 284.160156 213.839844 266.628906 205.398438 260.042969 C 197.910156 254.199219 195.359375 257.152344 194.609375 259.898438 C 193.863281 262.652344 198.5 263.738281 201.144531 276.804688 C 204.238281 292.09375 201 304.964844 200.0625 311.847656 C 198.960938 319.921875 185.976562 341.382812 185.976562 341.382812 " fill-opacity="1" fill-rule="nonzero"/><path fill="#000000" d="M 187.53125 341.34375 C 189.710938 344.515625 199.410156 357.789062 207.78125 355.214844 C 210.605469 354.347656 214.015625 347.007812 216.273438 342.152344 C 218.566406 337.214844 219.550781 335.199219 220.925781 334.796875 L 221.816406 334.539062 C 229.074219 332.449219 241.21875 328.945312 248.867188 315.277344 C 256.367188 301.878906 254.621094 295.007812 252.914062 292.101562 C 251.71875 290.066406 251.78125 287.621094 253.074219 285.714844 C 254.355469 283.820312 255.617188 280.96875 254.371094 278.128906 C 253.722656 276.652344 253.734375 274.90625 254.40625 273.339844 C 256.894531 267.546875 257.628906 262.746094 256.417969 260.171875 C 255.910156 259.089844 255.046875 258.382812 253.78125 258.011719 C 252.40625 257.609375 250.921875 258.117188 250.082031 259.28125 C 247.765625 262.476562 242.988281 268.40625 237.050781 272.1875 C 233.503906 274.445312 230.605469 276.367188 228.050781 278.070312 C 224.78125 280.238281 222.199219 281.960938 219.851562 283.296875 C 219.21875 283.65625 218.535156 283.726562 217.878906 283.496094 C 216.082031 282.859375 215.003906 280.101562 213.367188 275.929688 C 211.460938 271.0625 208.851562 264.40625 204.589844 261.078125 C 200.421875 257.824219 198.371094 257.816406 197.519531 258.097656 C 196.558594 258.417969 196.097656 259.441406 195.878906 260.25 C 195.75 260.722656 196.019531 261.1875 196.890625 262.503906 C 198.347656 264.707031 200.78125 268.390625 202.429688 276.542969 C 205.074219 289.601562 203.199219 300.839844 201.957031 308.273438 C 201.722656 309.667969 201.515625 310.921875 201.363281 312.027344 C 200.34375 319.519531 189.84375 337.464844 187.53125 341.34375 Z M 205.601562 358.167969 C 195.242188 358.167969 185.324219 342.804688 184.871094 342.089844 C 184.601562 341.671875 184.59375 341.128906 184.851562 340.703125 C 184.980469 340.492188 197.710938 319.382812 198.761719 311.667969 C 198.914062 310.546875 199.128906 309.265625 199.367188 307.839844 C 200.574219 300.597656 202.402344 289.644531 199.855469 277.0625 C 198.308594 269.417969 196.046875 265.996094 194.699219 263.949219 C 193.6875 262.425781 192.890625 261.21875 193.34375 259.558594 C 193.894531 257.542969 195.082031 256.140625 196.691406 255.601562 C 199.125 254.792969 202.238281 255.90625 206.207031 259.003906 C 211.035156 262.773438 213.796875 269.820312 215.8125 274.96875 C 216.710938 277.257812 217.925781 280.355469 218.660156 280.949219 C 220.910156 279.660156 223.425781 277.988281 226.597656 275.878906 C 229.164062 274.175781 232.070312 272.242188 235.640625 269.96875 C 241.210938 266.425781 245.746094 260.78125 247.953125 257.734375 C 249.449219 255.679688 252.085938 254.777344 254.519531 255.488281 C 256.519531 256.074219 257.960938 257.273438 258.796875 259.054688 C 260.890625 263.507812 258.457031 270.566406 256.820312 274.375 C 256.433594 275.273438 256.417969 276.257812 256.777344 277.070312 C 258.148438 280.191406 257.617188 283.691406 255.25 287.1875 C 254.53125 288.25 254.503906 289.617188 255.179688 290.769531 C 257.613281 294.910156 258.890625 302.742188 251.15625 316.5625 C 242.984375 331.171875 229.6875 335.003906 222.542969 337.066406 L 221.789062 337.285156 C 221.15625 337.875 219.773438 340.851562 218.652344 343.261719 C 215.164062 350.769531 212.207031 356.605469 208.554688 357.726562 C 207.574219 358.027344 206.585938 358.167969 205.601562 358.167969 " fill-opacity="1" fill-rule="nonzero"/><path fill="#ffffff" d="M 224.449219 349.488281 L 189.089844 326.953125 C 189.089844 326.953125 141.289062 404.265625 105.089844 430.507812 C 87.46875 443.285156 53.277344 428.265625 53.277344 428.265625 C 53.277344 428.265625 20.453125 554.457031 83.808594 572.5 C 189.351562 602.546875 224.449219 349.488281 224.449219 349.488281 " fill-opacity="1" fill-rule="nonzero"/><path fill="#000000" d="M 330.800781 546.597656 C 313.179688 546.597656 291.277344 540.492188 265.542969 528.394531 C 234.753906 513.917969 208.308594 495.480469 195.289062 485.777344 C 194.707031 485.34375 194.585938 484.519531 195.019531 483.9375 C 195.453125 483.355469 196.277344 483.234375 196.855469 483.667969 C 237.519531 513.96875 298.871094 547.84375 337.9375 543.59375 C 338.648438 543.523438 339.308594 544.039062 339.382812 544.761719 C 339.460938 545.480469 338.945312 546.128906 338.222656 546.207031 C 335.839844 546.46875 333.367188 546.597656 330.800781 546.597656 " fill-opacity="1" fill-rule="nonzero"/><path fill="#000000" d="M 277.261719 449.363281 C 255.226562 449.363281 214.539062 430.304688 212.648438 429.414062 C 211.992188 429.105469 211.710938 428.320312 212.019531 427.667969 C 212.332031 427.007812 213.109375 426.726562 213.769531 427.039062 C 214.269531 427.273438 264.269531 450.699219 282.777344 446.167969 C 295.789062 442.980469 303.738281 434.015625 306.40625 419.523438 C 308.429688 408.523438 306.496094 398.308594 306.476562 398.210938 C 306.335938 397.496094 306.800781 396.804688 307.515625 396.667969 C 308.226562 396.523438 308.917969 396.996094 309.058594 397.707031 C 309.140625 398.132812 316.980469 440.496094 283.402344 448.71875 C 281.59375 449.160156 279.523438 449.363281 277.261719 449.363281 " fill-opacity="1" fill-rule="nonzero"/><path fill="#000000" d="M 101.992188 435.5 C 101.589844 435.5 101.195312 435.316406 100.9375 434.972656 C 100.503906 434.386719 100.625 433.566406 101.203125 433.132812 C 139.324219 404.628906 186.554688 326.4375 187.027344 325.652344 C 187.398438 325.03125 188.210938 324.828125 188.828125 325.203125 C 189.449219 325.578125 189.652344 326.386719 189.277344 327.007812 C 188.804688 327.796875 141.304688 406.429688 102.777344 435.238281 C 102.542969 435.410156 102.265625 435.5 101.992188 435.5 " fill-opacity="1" fill-rule="nonzero"/><path fill="#000000" d="M 98.929688 577.523438 C 97.570312 577.523438 96.210938 577.460938 94.84375 577.34375 C 94.121094 577.277344 93.589844 576.644531 93.648438 575.921875 C 93.714844 575.199219 94.355469 574.664062 95.070312 574.726562 C 114.183594 576.367188 132.808594 565.691406 150.394531 542.972656 C 164.617188 524.597656 178.171875 498.402344 190.6875 465.109375 C 210.613281 412.09375 221.535156 357.613281 222.992188 350.121094 L 208.328125 340.78125 C 207.714844 340.386719 207.539062 339.578125 207.925781 338.964844 C 208.316406 338.351562 209.128906 338.175781 209.738281 338.5625 L 225.15625 348.378906 C 225.609375 348.671875 225.839844 349.203125 225.742188 349.730469 C 225.628906 350.316406 214.582031 408.996094 193.15625 466.007812 C 180.550781 499.550781 166.867188 525.984375 152.480469 544.570312 C 135.546875 566.457031 117.550781 577.523438 98.929688 577.523438 " fill-opacity="1" fill-rule="nonzero"/><path fill="#000000" d="M 94.960938 577.347656 C 94.894531 577.347656 94.828125 577.34375 94.761719 577.332031 C 76.878906 574.582031 63.414062 566.761719 54.742188 554.089844 C 38.726562 530.679688 37.878906 491.785156 51.996094 427.980469 C 52.152344 427.273438 52.851562 426.828125 53.5625 426.984375 C 54.269531 427.136719 54.71875 427.839844 54.558594 428.550781 C 40.804688 490.734375 41.550781 530.148438 56.910156 552.601562 C 65.273438 564.820312 77.78125 572.0625 95.160156 574.734375 C 95.875 574.84375 96.367188 575.515625 96.257812 576.234375 C 96.15625 576.882812 95.597656 577.347656 94.960938 577.347656 " fill-opacity="1" fill-rule="nonzero"/></svg>