<svg xmlns="http://www.w3.org/2000/svg" xmlns:xlink="http://www.w3.org/1999/xlink" width="1080" zoomAndPan="magnify" viewBox="0 0 810 809.999993" height="1080" preserveAspectRatio="xMidYMid meet" version="1.0"><defs><filter x="0%" y="0%" width="100%" height="100%" id="1d9d3212bb"><feColorMatrix values="0 0 0 0 1 0 0 0 0 1 0 0 0 0 1 0 0 0 1 0" color-interpolation-filters="sRGB"/></filter><mask id="86fc2c86de"><g filter="url(#1d9d3212bb)"><rect x="-81" width="972" fill="#000000" y="-80.999999" height="971.999992" fill-opacity="0.298"/></g></mask><clipPath id="eff119020f"><path d="M 90 136 L 774 136 L 774 654 L 90 654 Z M 90 136 " clip-rule="nonzero"/></clipPath><clipPath id="5fcc36ee86"><path d="M -51.078125 356.164062 L 414.738281 -145.730469 L 861.113281 268.554688 L 395.296875 770.449219 Z M -51.078125 356.164062 " clip-rule="nonzero"/></clipPath><clipPath id="7e4a93b739"><path d="M 414.792969 -145.789062 L -51.019531 356.105469 L 395.351562 770.390625 L 861.167969 268.496094 Z M 414.792969 -145.789062 " clip-rule="nonzero"/></clipPath><clipPath id="9b42c7fbc6"><rect x="0" width="810" y="0" height="756"/></clipPath><clipPath id="e883bb336f"><path d="M 98.371094 541 L 519 541 L 519 544 L 98.371094 544 Z M 98.371094 541 " clip-rule="nonzero"/></clipPath><clipPath id="2a5316502a"><path d="M 279 545 L 300 545 L 300 589.765625 L 279 589.765625 Z M 279 545 " clip-rule="nonzero"/></clipPath><clipPath id="cac4ce614f"><path d="M 690 308 L 711.871094 308 L 711.871094 331 L 690 331 Z M 690 308 " clip-rule="nonzero"/></clipPath><clipPath id="8f629bfdc7"><path d="M 507 220.015625 L 528 220.015625 L 528 234 L 507 234 Z M 507 220.015625 " clip-rule="nonzero"/></clipPath><clipPath id="a24586a733"><path d="M 322 220.015625 L 343 220.015625 L 343 234 L 322 234 Z M 322 220.015625 " clip-rule="nonzero"/></clipPath><clipPath id="c9cb80264a"><path d="M 390 220.015625 L 411 220.015625 L 411 234 L 390 234 Z M 390 220.015625 " clip-rule="nonzero"/></clipPath></defs><g mask="url(#86fc2c86de)"><g transform="matrix(1, 0, 0, 1, 0, 0.000000000000039746)"><g clip-path="url(#9b42c7fbc6)"><g clip-path="url(#eff119020f)"><g clip-path="url(#5fcc36ee86)"><g clip-path="url(#7e4a93b739)"><path fill="#0048fc" d="M 136.148438 161.957031 C 156.679688 147.246094 170.914062 139.339844 191.992188 137.804688 C 257.894531 131.417969 290.808594 156.335938 361.128906 169.554688 C 451.6875 187.457031 473.984375 177.199219 556.9375 168.355469 C 567.304688 166.714844 576.277344 166.59375 585.929688 165.722656 C 663.425781 157.441406 771.578125 186.042969 773.160156 277.566406 C 773.011719 295.734375 770.59375 313.175781 764.644531 334.402344 C 758.886719 354.378906 754.875 374.585938 731.359375 389.34375 C 715.03125 399.53125 694.117188 404.035156 676.554688 410.257812 C 657.757812 416.746094 638.4375 422.722656 620.535156 435.652344 C 603.335938 447.824219 581.398438 468.292969 569.839844 487.105469 C 546.007812 525.503906 544.410156 609.851562 463.613281 641.816406 C 351.910156 685.898438 323.609375 593.488281 235.488281 562.359375 C 203.121094 550.621094 147.382812 539.695312 127.265625 495.683594 C 113.859375 467.753906 120.140625 448.265625 120.464844 433.078125 C 120.445312 424.617188 113.613281 435.167969 119.554688 413.933594 C 121.996094 404.9375 121.230469 371.871094 117.335938 356.992188 C 115.035156 347.820312 110.800781 339.664062 105.6875 329.285156 C 84.875 290.257812 88.503906 259.863281 99.15625 217.679688 C 105.429688 193.960938 113.492188 178.917969 136.136719 161.945312 Z M 136.148438 161.957031 " fill-opacity="1" fill-rule="evenodd"/></g></g></g></g></g></g><path fill="#e4e4e4" d="M 452.480469 517.023438 C 452.007812 517.023438 451.535156 517.070312 451.070312 517.164062 C 450.601562 517.257812 450.148438 517.394531 449.710938 517.574219 C 449.269531 517.757812 448.855469 517.980469 448.457031 518.242188 C 448.0625 518.507812 447.699219 518.808594 447.359375 519.144531 C 447.023438 519.480469 446.726562 519.84375 446.460938 520.238281 C 446.195312 520.636719 445.972656 521.050781 445.792969 521.492188 C 445.609375 521.929688 445.472656 522.382812 445.378906 522.847656 C 445.285156 523.3125 445.242188 523.785156 445.242188 524.257812 C 445.242188 524.734375 445.285156 525.203125 445.378906 525.671875 C 445.472656 526.136719 445.609375 526.589844 445.792969 527.027344 C 445.972656 527.464844 446.195312 527.882812 446.460938 528.277344 C 446.726562 528.671875 447.023438 529.039062 447.359375 529.375 C 447.699219 529.710938 448.0625 530.011719 448.457031 530.273438 C 448.855469 530.539062 449.269531 530.761719 449.710938 530.941406 C 450.148438 531.125 450.601562 531.261719 451.070312 531.355469 C 451.535156 531.445312 452.007812 531.492188 452.480469 531.492188 C 452.957031 531.492188 453.429688 531.445312 453.894531 531.355469 C 454.359375 531.261719 454.8125 531.125 455.253906 530.941406 C 455.691406 530.761719 456.109375 530.539062 456.503906 530.273438 C 456.898438 530.011719 457.265625 529.710938 457.601562 529.375 C 457.9375 529.039062 458.238281 528.671875 458.503906 528.277344 C 458.765625 527.882812 458.988281 527.464844 459.171875 527.027344 C 459.355469 526.589844 459.492188 526.136719 459.582031 525.671875 C 459.675781 525.203125 459.722656 524.734375 459.722656 524.257812 C 459.722656 523.785156 459.675781 523.3125 459.582031 522.847656 C 459.492188 522.382812 459.355469 521.929688 459.171875 521.492188 C 458.988281 521.050781 458.765625 520.636719 458.503906 520.238281 C 458.238281 519.84375 457.9375 519.480469 457.601562 519.144531 C 457.265625 518.808594 456.898438 518.507812 456.503906 518.246094 C 456.109375 517.980469 455.691406 517.757812 455.253906 517.574219 C 454.8125 517.394531 454.359375 517.257812 453.894531 517.164062 C 453.429688 517.070312 452.957031 517.023438 452.480469 517.023438 Z M 452.480469 528.710938 C 452.1875 528.710938 451.898438 528.683594 451.613281 528.625 C 451.324219 528.570312 451.046875 528.484375 450.777344 528.371094 C 450.507812 528.261719 450.25 528.125 450.007812 527.960938 C 449.761719 527.796875 449.539062 527.613281 449.332031 527.40625 C 449.125 527.199219 448.9375 526.976562 448.777344 526.734375 C 448.613281 526.488281 448.476562 526.234375 448.363281 525.960938 C 448.253906 525.691406 448.167969 525.414062 448.109375 525.128906 C 448.054688 524.839844 448.023438 524.550781 448.023438 524.257812 C 448.023438 523.96875 448.054688 523.675781 448.109375 523.390625 C 448.167969 523.105469 448.253906 522.824219 448.363281 522.554688 C 448.476562 522.285156 448.613281 522.027344 448.777344 521.785156 C 448.9375 521.542969 449.125 521.316406 449.332031 521.109375 C 449.539062 520.90625 449.761719 520.71875 450.007812 520.558594 C 450.25 520.394531 450.507812 520.257812 450.777344 520.144531 C 451.046875 520.035156 451.324219 519.949219 451.613281 519.894531 C 451.898438 519.835938 452.1875 519.808594 452.480469 519.808594 C 452.773438 519.808594 453.0625 519.835938 453.351562 519.894531 C 453.636719 519.949219 453.917969 520.035156 454.1875 520.144531 C 454.457031 520.257812 454.714844 520.394531 454.957031 520.558594 C 455.199219 520.71875 455.425781 520.90625 455.632812 521.109375 C 455.839844 521.316406 456.023438 521.542969 456.1875 521.785156 C 456.347656 522.027344 456.488281 522.285156 456.597656 522.554688 C 456.710938 522.824219 456.796875 523.105469 456.851562 523.390625 C 456.910156 523.675781 456.9375 523.96875 456.9375 524.257812 C 456.9375 524.550781 456.910156 524.839844 456.851562 525.128906 C 456.796875 525.414062 456.710938 525.691406 456.597656 525.960938 C 456.488281 526.234375 456.347656 526.488281 456.1875 526.734375 C 456.023438 526.976562 455.839844 527.199219 455.632812 527.40625 C 455.425781 527.613281 455.199219 527.796875 454.957031 527.960938 C 454.714844 528.125 454.457031 528.261719 454.1875 528.371094 C 453.917969 528.484375 453.636719 528.570312 453.351562 528.625 C 453.0625 528.683594 452.773438 528.710938 452.480469 528.710938 Z M 452.480469 528.710938 " fill-opacity="1" fill-rule="nonzero"/><path fill="#e4e4e4" d="M 424.628906 511.460938 L 452.480469 511.460938 L 452.480469 539 C 452.480469 539.480469 452.390625 539.941406 452.207031 540.386719 C 452.019531 540.828125 451.757812 541.222656 451.417969 541.5625 C 451.078125 541.902344 450.6875 542.164062 450.242188 542.347656 C 449.796875 542.53125 449.335938 542.625 448.851562 542.625 L 428.257812 542.625 C 427.777344 542.625 427.3125 542.53125 426.871094 542.347656 C 426.425781 542.164062 426.03125 541.902344 425.691406 541.5625 C 425.351562 541.222656 425.089844 540.828125 424.90625 540.386719 C 424.722656 539.941406 424.628906 539.480469 424.628906 539 Z M 424.628906 511.460938 " fill-opacity="1" fill-rule="nonzero"/><g clip-path="url(#e883bb336f)"><path fill="#cacaca" d="M 517.554688 543.253906 L 98.9375 543.253906 C 98.777344 543.234375 98.640625 543.167969 98.535156 543.046875 C 98.425781 542.925781 98.371094 542.785156 98.371094 542.625 C 98.371094 542.460938 98.425781 542.320312 98.535156 542.199219 C 98.640625 542.082031 98.777344 542.011719 98.9375 541.992188 L 517.554688 541.992188 C 517.71875 542.011719 517.851562 542.082031 517.960938 542.199219 C 518.066406 542.320312 518.121094 542.460938 518.121094 542.625 C 518.121094 542.785156 518.066406 542.925781 517.960938 543.046875 C 517.851562 543.167969 517.71875 543.234375 517.554688 543.253906 Z M 517.554688 543.253906 " fill-opacity="1" fill-rule="nonzero"/></g><path fill="#ffb6b6" d="M 154.722656 531.359375 L 152.132812 544.148438 L 200.277344 560.214844 L 204.097656 541.335938 Z M 154.722656 531.359375 " fill-opacity="1" fill-rule="nonzero"/><path fill="#2f2e41" d="M 159.5625 528.941406 L 154.460938 554.128906 C 154.355469 554.65625 154.222656 555.175781 154.066406 555.6875 C 153.90625 556.199219 153.726562 556.703125 153.519531 557.199219 C 153.3125 557.695312 153.082031 558.175781 152.824219 558.648438 C 152.570312 559.121094 152.292969 559.578125 151.996094 560.023438 C 151.695312 560.46875 151.375 560.898438 151.03125 561.3125 C 150.691406 561.726562 150.328125 562.121094 149.949219 562.5 C 149.566406 562.878906 149.167969 563.234375 148.753906 563.574219 C 148.335938 563.914062 147.90625 564.230469 147.457031 564.527344 C 147.011719 564.824219 146.550781 565.097656 146.074219 565.351562 C 145.601562 565.601562 145.117188 565.828125 144.617188 566.03125 C 144.121094 566.234375 143.617188 566.414062 143.101562 566.570312 C 142.589844 566.722656 142.066406 566.851562 141.539062 566.953125 C 141.015625 567.058594 140.484375 567.132812 139.949219 567.183594 C 139.414062 567.234375 138.878906 567.261719 138.34375 567.257812 C 137.804688 567.257812 137.269531 567.230469 136.734375 567.175781 C 136.203125 567.121094 135.671875 567.039062 135.144531 566.933594 L 134.625 566.828125 L 142.972656 525.589844 Z M 159.5625 528.941406 " fill-opacity="1" fill-rule="nonzero"/><path fill="#feb8b8" d="M 241.96875 322.535156 C 241.96875 323.605469 241.917969 324.671875 241.8125 325.738281 C 241.707031 326.800781 241.550781 327.859375 241.339844 328.910156 C 241.132812 329.957031 240.871094 330.992188 240.5625 332.015625 C 240.25 333.039062 239.890625 334.046875 239.480469 335.035156 C 239.070312 336.023438 238.613281 336.988281 238.109375 337.933594 C 237.605469 338.875 237.054688 339.792969 236.460938 340.679688 C 235.867188 341.570312 235.226562 342.429688 234.550781 343.253906 C 233.871094 344.082031 233.152344 344.875 232.394531 345.628906 C 231.636719 346.386719 230.84375 347.105469 230.019531 347.78125 C 229.191406 348.460938 228.332031 349.097656 227.441406 349.691406 C 226.550781 350.285156 225.632812 350.835938 224.6875 351.339844 C 223.746094 351.84375 222.777344 352.300781 221.789062 352.710938 C 220.800781 353.117188 219.792969 353.480469 218.769531 353.789062 C 217.742188 354.101562 216.707031 354.359375 215.65625 354.566406 C 214.605469 354.777344 213.546875 354.933594 212.484375 355.039062 C 211.417969 355.144531 210.351562 355.195312 209.277344 355.195312 C 208.207031 355.195312 207.140625 355.144531 206.074219 355.039062 C 205.007812 354.933594 203.953125 354.777344 202.902344 354.566406 C 201.851562 354.359375 200.8125 354.101562 199.789062 353.789062 C 198.765625 353.480469 197.757812 353.117188 196.769531 352.710938 C 195.78125 352.300781 194.8125 351.84375 193.867188 351.339844 C 192.925781 350.835938 192.007812 350.285156 191.117188 349.691406 C 190.226562 349.097656 189.367188 348.460938 188.539062 347.78125 C 187.710938 347.105469 186.921875 346.386719 186.164062 345.628906 C 185.40625 344.875 184.6875 344.082031 184.007812 343.253906 C 183.328125 342.429688 182.691406 341.570312 182.097656 340.679688 C 181.503906 339.792969 180.953125 338.875 180.449219 337.933594 C 179.945312 336.988281 179.488281 336.023438 179.078125 335.035156 C 178.667969 334.046875 178.308594 333.039062 177.996094 332.015625 C 177.683594 330.992188 177.425781 329.957031 177.214844 328.910156 C 177.007812 327.859375 176.851562 326.800781 176.746094 325.738281 C 176.640625 324.671875 176.589844 323.605469 176.589844 322.535156 C 176.589844 321.46875 176.640625 320.398438 176.746094 319.335938 C 176.851562 318.269531 177.007812 317.214844 177.214844 316.164062 C 177.425781 315.117188 177.683594 314.082031 177.996094 313.058594 C 178.308594 312.03125 178.667969 311.027344 179.078125 310.039062 C 179.488281 309.050781 179.945312 308.085938 180.449219 307.140625 C 180.953125 306.199219 181.503906 305.28125 182.097656 304.394531 C 182.691406 303.503906 183.328125 302.644531 184.007812 301.820312 C 184.6875 300.992188 185.40625 300.199219 186.164062 299.445312 C 186.921875 298.6875 187.710938 297.96875 188.539062 297.292969 C 189.367188 296.613281 190.226562 295.976562 191.117188 295.382812 C 192.007812 294.789062 192.925781 294.238281 193.867188 293.734375 C 194.8125 293.230469 195.78125 292.773438 196.769531 292.363281 C 197.757812 291.953125 198.765625 291.59375 199.789062 291.285156 C 200.8125 290.972656 201.851562 290.714844 202.902344 290.503906 C 203.953125 290.296875 205.007812 290.140625 206.074219 290.035156 C 207.140625 289.929688 208.207031 289.878906 209.277344 289.878906 C 210.351562 289.878906 211.417969 289.929688 212.484375 290.035156 C 213.546875 290.140625 214.605469 290.296875 215.65625 290.503906 C 216.707031 290.714844 217.742188 290.972656 218.769531 291.285156 C 219.792969 291.59375 220.800781 291.953125 221.789062 292.363281 C 222.777344 292.773438 223.746094 293.230469 224.6875 293.734375 C 225.632812 294.238281 226.550781 294.789062 227.441406 295.382812 C 228.332031 295.976562 229.191406 296.613281 230.019531 297.292969 C 230.84375 297.96875 231.636719 298.6875 232.394531 299.445312 C 233.152344 300.199219 233.871094 300.992188 234.550781 301.820312 C 235.226562 302.644531 235.867188 303.503906 236.460938 304.394531 C 237.054688 305.28125 237.605469 306.199219 238.109375 307.140625 C 238.613281 308.085938 239.070312 309.050781 239.480469 310.039062 C 239.890625 311.027344 240.25 312.03125 240.5625 313.058594 C 240.871094 314.082031 241.132812 315.117188 241.339844 316.164062 C 241.550781 317.214844 241.707031 318.269531 241.8125 319.335938 C 241.917969 320.398438 241.96875 321.46875 241.96875 322.535156 Z M 241.96875 322.535156 " fill-opacity="1" fill-rule="nonzero"/><path fill="#2f2e41" d="M 239.8125 294.363281 C 238.601562 292.398438 237.21875 290.558594 235.671875 288.84375 C 234.121094 287.132812 232.429688 285.574219 230.59375 284.175781 C 228.757812 282.773438 226.808594 281.550781 224.75 280.503906 C 222.6875 279.460938 220.550781 278.613281 218.332031 277.960938 L 214.320312 280.886719 L 214.320312 277.085938 C 212.167969 276.757812 210.003906 276.632812 207.828125 276.707031 L 204.367188 279.839844 L 204.367188 276.96875 C 201.804688 277.285156 199.300781 277.863281 196.855469 278.699219 C 194.414062 279.535156 192.082031 280.613281 189.859375 281.933594 C 187.640625 283.253906 185.578125 284.785156 183.679688 286.53125 C 181.777344 288.277344 180.074219 290.199219 178.570312 292.296875 C 171.050781 303.125 169.78125 318.191406 177.175781 329.109375 C 179.207031 322.875 181.671875 317.027344 183.703125 310.796875 C 185.304688 311.011719 186.90625 311.019531 188.511719 310.816406 L 190.980469 305.058594 L 191.671875 310.574219 C 199.328125 309.910156 210.683594 308.445312 217.941406 307.105469 L 217.234375 302.875 L 221.457031 306.390625 C 223.679688 305.878906 225 305.414062 224.894531 305.058594 C 230.289062 313.753906 236.898438 319.304688 242.292969 328 C 244.34375 315.742188 246.703125 305.546875 239.8125 294.363281 Z M 239.8125 294.363281 " fill-opacity="1" fill-rule="nonzero"/><path fill="#2f2e41" d="M 304.089844 512.726562 C 304.089844 513.496094 303.953125 514.265625 303.683594 515.03125 C 303.414062 515.800781 303.007812 516.558594 302.472656 517.316406 C 301.933594 518.070312 301.265625 518.816406 300.464844 519.554688 C 299.664062 520.292969 298.734375 521.015625 297.679688 521.726562 C 296.625 522.441406 295.449219 523.136719 294.148438 523.816406 C 292.851562 524.496094 291.433594 525.152344 289.902344 525.792969 C 288.371094 526.433594 286.730469 527.054688 284.980469 527.648438 C 283.234375 528.246094 281.382812 528.816406 279.433594 529.359375 C 277.484375 529.902344 275.445312 530.421875 273.3125 530.910156 C 271.183594 531.398438 268.972656 531.855469 266.679688 532.285156 C 264.386719 532.710938 262.027344 533.109375 259.59375 533.472656 C 257.164062 533.835938 254.675781 534.164062 252.125 534.457031 C 249.578125 534.753906 246.988281 535.011719 244.347656 535.234375 C 241.710938 535.460938 239.039062 535.644531 236.335938 535.796875 C 233.632812 535.945312 230.910156 536.058594 228.164062 536.136719 C 225.421875 536.210938 222.671875 536.25 219.914062 536.25 C 217.160156 536.25 214.410156 536.210938 211.664062 536.136719 C 208.921875 536.058594 206.199219 535.945312 203.492188 535.796875 C 200.789062 535.644531 198.121094 535.460938 195.480469 535.234375 C 192.84375 535.011719 190.25 534.753906 187.703125 534.457031 C 185.15625 534.164062 182.667969 533.835938 180.238281 533.472656 C 177.804688 533.109375 175.445312 532.710938 173.152344 532.285156 C 170.859375 531.855469 168.648438 531.398438 166.515625 530.910156 C 164.386719 530.421875 162.34375 529.902344 160.394531 529.359375 C 158.445312 528.816406 156.597656 528.246094 154.847656 527.648438 C 153.101562 527.054688 151.460938 526.433594 149.929688 525.792969 C 148.398438 525.152344 146.980469 524.496094 145.679688 523.816406 C 144.382812 523.136719 143.203125 522.441406 142.148438 521.726562 C 141.09375 521.015625 140.167969 520.292969 139.367188 519.554688 C 138.566406 518.816406 137.898438 518.070312 137.359375 517.316406 C 136.820312 516.558594 136.417969 515.800781 136.148438 515.03125 C 135.878906 514.265625 135.742188 513.496094 135.742188 512.726562 C 135.742188 511.957031 135.878906 511.1875 136.148438 510.421875 C 136.417969 509.65625 136.820312 508.894531 137.359375 508.136719 C 137.898438 507.382812 138.566406 506.636719 139.367188 505.898438 C 140.167969 505.160156 141.09375 504.4375 142.148438 503.726562 C 143.203125 503.015625 144.382812 502.316406 145.679688 501.640625 C 146.980469 500.960938 148.398438 500.300781 149.929688 499.660156 C 151.460938 499.019531 153.101562 498.398438 154.847656 497.804688 C 156.597656 497.210938 158.445312 496.640625 160.394531 496.09375 C 162.34375 495.550781 164.386719 495.03125 166.515625 494.542969 C 168.648438 494.054688 170.859375 493.597656 173.152344 493.167969 C 175.445312 492.742188 177.804688 492.34375 180.238281 491.984375 C 182.667969 491.621094 185.15625 491.289062 187.703125 490.996094 C 190.25 490.699219 192.84375 490.441406 195.480469 490.21875 C 198.121094 489.996094 200.789062 489.808594 203.492188 489.65625 C 206.199219 489.507812 208.921875 489.394531 211.664062 489.320312 C 214.410156 489.242188 217.160156 489.207031 219.914062 489.207031 C 222.671875 489.207031 225.421875 489.242188 228.164062 489.320312 C 230.910156 489.394531 233.632812 489.507812 236.335938 489.65625 C 239.039062 489.808594 241.710938 489.996094 244.347656 490.21875 C 246.988281 490.441406 249.578125 490.699219 252.125 490.996094 C 254.675781 491.289062 257.164062 491.621094 259.59375 491.984375 C 262.027344 492.34375 264.386719 492.742188 266.679688 493.167969 C 268.972656 493.597656 271.183594 494.054688 273.3125 494.542969 C 275.445312 495.03125 277.484375 495.550781 279.433594 496.09375 C 281.382812 496.640625 283.234375 497.210938 284.980469 497.804688 C 286.730469 498.398438 288.371094 499.019531 289.902344 499.660156 C 291.433594 500.300781 292.851562 500.960938 294.148438 501.640625 C 295.449219 502.316406 296.625 503.015625 297.679688 503.726562 C 298.734375 504.4375 299.664062 505.160156 300.464844 505.898438 C 301.265625 506.636719 301.933594 507.382812 302.472656 508.136719 C 303.007812 508.894531 303.414062 509.65625 303.683594 510.421875 C 303.953125 511.1875 304.089844 511.957031 304.089844 512.726562 Z M 304.089844 512.726562 " fill-opacity="1" fill-rule="nonzero"/><path fill="#225FFD" d="M 279.585938 406.519531 C 278.460938 399.765625 277.304688 392.878906 274.160156 386.792969 C 272.09375 382.804688 268.816406 379.003906 264.394531 378.21875 C 263.519531 378.140625 262.671875 377.941406 261.851562 377.628906 C 260.554688 377.003906 243.152344 367.078125 240.382812 365.351562 C 238.007812 363.867188 234.257812 361.117188 232.367188 361.117188 C 230.464844 361.078125 223.171875 362.773438 194.707031 360.550781 C 189.910156 362.472656 185.289062 364.742188 180.835938 367.363281 C 180.742188 367.300781 151.289062 383.105469 150.183594 383.0625 C 148.085938 382.972656 146.136719 384.3125 144.9375 386.003906 C 143.734375 387.691406 143.171875 389.78125 142.582031 391.800781 C 149.015625 406.113281 154.902344 420.445312 161.335938 434.757812 C 161.640625 435.304688 161.796875 435.894531 161.800781 436.519531 C 161.671875 437.167969 161.402344 437.757812 161 438.285156 C 157.847656 443.347656 157.945312 449.714844 158.292969 455.667969 C 158.636719 461.617188 159.0625 467.902344 156.398438 473.238281 C 155.675781 474.703125 154.734375 476.042969 154.046875 477.507812 C 152.433594 480.824219 151.851562 491.433594 152.792969 494.996094 L 270.8125 498.375 C 268.273438 491.40625 279.585938 406.519531 279.585938 406.519531 Z M 279.585938 406.519531 " fill-opacity="1" fill-rule="nonzero"/><path fill="#fbbebe" d="M 132.382812 435.390625 C 132.144531 437.101562 132.121094 438.8125 132.3125 440.527344 L 134.003906 464.796875 C 134.160156 467.082031 134.316406 469.363281 134.53125 471.644531 C 134.9375 476.074219 135.542969 480.46875 136.296875 484.851562 C 136.304688 485.164062 136.375 485.460938 136.5 485.746094 C 136.628906 486.03125 136.804688 486.28125 137.03125 486.496094 C 137.257812 486.710938 137.515625 486.875 137.804688 486.984375 C 138.097656 487.097656 138.398438 487.148438 138.710938 487.140625 C 146.15625 488.714844 153.847656 488.652344 161.449219 488.222656 C 173.042969 487.578125 202.710938 486.351562 204.523438 484 C 206.335938 481.648438 205.28125 477.84375 202.917969 475.941406 C 200.554688 474.039062 161.402344 469.402344 161.402344 469.402344 C 161.785156 466.375 162.941406 463.523438 164.035156 460.648438 C 166 455.546875 167.835938 450.28125 167.871094 444.816406 C 167.910156 439.351562 165.847656 433.609375 161.367188 430.480469 C 157.683594 427.910156 152.9375 427.433594 148.449219 427.539062 C 145.183594 427.632812 139.535156 426.851562 136.550781 428.128906 C 134.191406 429.167969 132.824219 433.082031 132.382812 435.390625 Z M 132.382812 435.390625 " fill-opacity="1" fill-rule="nonzero"/><path fill="#2f2e41" d="M 279.796875 490.253906 C 281.757812 489.503906 283.917969 489.777344 286.019531 490.058594 C 292.78125 490.980469 299.644531 491.929688 305.914062 494.628906 C 308.855469 495.886719 311.660156 497.566406 313.648438 500.042969 C 315.414062 502.269531 316.445312 505 317.421875 507.6875 L 319.683594 513.875 C 320.648438 516.207031 321.304688 518.625 321.652344 521.125 C 322.359375 528.527344 317.292969 535.507812 310.917969 539.355469 C 304.542969 543.199219 297.039062 544.570312 289.726562 546.003906 C 282.414062 547.441406 275.074219 549.027344 267.792969 550.710938 C 264.394531 551.589844 260.957031 552.265625 257.476562 552.738281 C 249.683594 553.621094 241.535156 552.320312 234.132812 554.894531 C 231.1875 555.925781 228.296875 557.453125 225.246094 558.164062 C 223.214844 558.59375 221.164062 558.902344 219.101562 559.101562 L 205.085938 560.699219 C 202.234375 561.082031 199.367188 561.300781 196.492188 561.359375 C 190.371094 561.359375 184.347656 559.910156 178.402344 558.460938 C 177.765625 558.351562 177.175781 558.113281 176.640625 557.75 C 175.699219 557.011719 175.492188 555.699219 175.355469 554.511719 C 174.753906 549.253906 174.230469 543.992188 173.78125 538.722656 C 173.640625 537.011719 173.53125 535.160156 174.46875 533.71875 C 175.644531 531.953125 177.941406 531.402344 180.039062 531.058594 C 188.941406 529.605469 197.90625 528.984375 206.925781 529.195312 C 210.347656 525.777344 215.984375 525.761719 220.464844 523.902344 C 222.113281 523.144531 223.707031 522.28125 225.238281 521.308594 C 229.246094 518.972656 233.460938 517.109375 237.882812 515.710938 C 242.304688 514.316406 246.828125 513.425781 251.449219 513.035156 C 253.265625 512.980469 255.054688 512.726562 256.8125 512.269531 C 260.277344 511.195312 263.441406 508.265625 267 508.984375 C 267.441406 507.765625 267.75 506.136719 268.765625 505.304688 C 269.269531 504.875 269.894531 504.585938 270.359375 504.125 C 271.34375 503.132812 271.433594 501.570312 271.285156 500.179688 C 271.136719 498.792969 270.808594 497.371094 271.167969 496.015625 C 271.316406 495.503906 271.535156 495.019531 271.820312 494.566406 C 273.582031 491.523438 276.246094 489.957031 279.796875 490.253906 Z M 279.796875 490.253906 " fill-opacity="1" fill-rule="nonzero"/><path fill="#225FFD" d="M 142.242188 392.234375 C 141.664062 392.84375 141.226562 393.539062 140.9375 394.324219 C 136.140625 405.121094 133.375 416.417969 132.636719 428.207031 C 132.648438 428.785156 132.523438 429.332031 132.253906 429.847656 C 131.992188 430.183594 131.703125 430.496094 131.386719 430.78125 C 131.109375 431.113281 130.90625 431.480469 130.777344 431.890625 C 130.644531 432.300781 130.597656 432.722656 130.632812 433.152344 C 130.671875 433.578125 130.789062 433.984375 130.984375 434.367188 C 131.183594 434.75 131.449219 435.078125 131.777344 435.359375 C 131.832031 435.402344 131.886719 435.445312 131.941406 435.488281 C 132.914062 433.660156 135.238281 433.066406 137.304688 432.90625 C 147.199219 432.125 156.863281 436.722656 166.789062 436.375 C 166.089844 433.957031 165.082031 431.636719 164.511719 429.191406 C 161.984375 418.328125 168.285156 406.503906 164.421875 396.042969 C 163.652344 393.949219 162.363281 391.890625 160.332031 390.972656 C 159.488281 390.632812 158.613281 390.402344 157.710938 390.28125 C 155.203125 389.828125 150.210938 387.890625 147.789062 388.667969 C 146.894531 388.957031 146.539062 389.796875 145.796875 390.304688 C 144.671875 391.023438 143.175781 391.289062 142.242188 392.234375 Z M 142.242188 392.234375 " fill-opacity="1" fill-rule="nonzero"/><path fill="#fbbebe" d="M 279.65625 428.128906 C 276.671875 426.851562 271.027344 427.632812 267.761719 427.539062 C 263.269531 427.433594 258.527344 427.910156 254.839844 430.480469 C 250.363281 433.609375 248.300781 439.351562 248.335938 444.816406 C 248.371094 450.28125 250.207031 455.546875 252.175781 460.648438 C 253.269531 463.523438 254.421875 466.375 254.804688 469.402344 C 254.804688 469.402344 215.65625 474.039062 213.292969 475.941406 C 210.929688 477.84375 209.875 481.648438 211.6875 484 C 213.5 486.351562 270.054688 488.714844 277.5 487.140625 C 277.8125 487.148438 278.113281 487.097656 278.402344 486.984375 C 278.695312 486.875 278.953125 486.710938 279.179688 486.496094 C 279.40625 486.28125 279.582031 486.03125 279.710938 485.746094 C 279.835938 485.464844 279.90625 485.164062 279.914062 484.855469 C 280.664062 480.46875 281.273438 476.074219 281.679688 471.644531 C 281.894531 469.363281 282.050781 467.082031 282.207031 464.796875 L 283.898438 440.527344 C 284.089844 438.8125 284.066406 437.101562 283.828125 435.390625 C 283.386719 433.082031 282.019531 429.167969 279.65625 428.128906 Z M 279.65625 428.128906 " fill-opacity="1" fill-rule="nonzero"/><path fill="#225FFD" d="M 270.410156 390.304688 C 269.671875 389.796875 269.316406 388.957031 268.421875 388.667969 C 265.996094 387.890625 261.003906 389.828125 258.5 390.28125 C 257.597656 390.402344 256.722656 390.632812 255.878906 390.972656 C 253.847656 391.890625 252.558594 393.949219 251.789062 396.042969 C 247.925781 406.503906 254.226562 418.328125 251.699219 429.191406 C 251.128906 431.636719 250.121094 433.957031 249.421875 436.375 C 259.347656 436.722656 269.011719 432.125 278.90625 432.90625 C 280.972656 433.066406 283.296875 433.660156 284.269531 435.488281 C 284.324219 435.445312 284.378906 435.402344 284.433594 435.359375 C 284.761719 435.078125 285.027344 434.75 285.222656 434.367188 C 285.421875 433.984375 285.539062 433.578125 285.574219 433.152344 C 285.613281 432.722656 285.566406 432.300781 285.433594 431.890625 C 285.304688 431.480469 285.097656 431.113281 284.820312 430.78125 C 284.503906 430.496094 284.214844 430.183594 283.957031 429.847656 C 283.6875 429.332031 283.558594 428.785156 283.574219 428.207031 C 282.835938 416.417969 280.070312 405.121094 275.273438 394.324219 C 274.984375 393.539062 274.546875 392.84375 273.96875 392.234375 C 273.035156 391.289062 271.539062 391.023438 270.410156 390.304688 Z M 270.410156 390.304688 " fill-opacity="1" fill-rule="nonzero"/><path fill="#ffb6b6" d="M 286.964844 549.617188 L 285.242188 562.550781 L 234.484375 562.074219 L 237.023438 542.984375 Z M 286.964844 549.617188 " fill-opacity="1" fill-rule="nonzero"/><g clip-path="url(#2a5316502a)"><path fill="#2f2e41" d="M 299.953125 547.984375 L 294.402344 589.691406 L 293.875 589.621094 C 293.34375 589.550781 292.816406 589.453125 292.292969 589.332031 C 291.769531 589.207031 291.253906 589.058594 290.746094 588.886719 C 290.238281 588.714844 289.742188 588.515625 289.25 588.292969 C 288.761719 588.074219 288.285156 587.828125 287.820312 587.558594 C 287.355469 587.289062 286.90625 587 286.472656 586.6875 C 286.035156 586.375 285.617188 586.039062 285.210938 585.6875 C 284.808594 585.332031 284.425781 584.957031 284.058594 584.566406 C 283.691406 584.175781 283.34375 583.765625 283.019531 583.339844 C 282.691406 582.914062 282.386719 582.472656 282.105469 582.015625 C 281.820312 581.5625 281.5625 581.09375 281.324219 580.613281 C 281.089844 580.128906 280.875 579.640625 280.6875 579.136719 C 280.5 578.632812 280.335938 578.125 280.195312 577.605469 C 280.058594 577.085938 279.945312 576.5625 279.859375 576.035156 C 279.773438 575.503906 279.710938 574.972656 279.675781 574.4375 C 279.640625 573.902344 279.632812 573.367188 279.652344 572.832031 C 279.671875 572.296875 279.714844 571.761719 279.785156 571.230469 L 283.175781 545.757812 Z M 299.953125 547.984375 " fill-opacity="1" fill-rule="nonzero"/></g><path fill="#2f2e41" d="M 167.550781 496.796875 C 167.550781 497.386719 166.628906 496.796875 166.542969 496.167969 C 165.894531 491.410156 162.117188 487.488281 157.714844 485.582031 C 153.3125 483.679688 148.296875 483.578125 143.527344 484.03125 C 136.316406 484.710938 128.222656 487.472656 125.585938 494.203125 C 124.960938 495.777344 119.117188 509.792969 119.6875 512.945312 C 121.226562 521.355469 126.980469 528.546875 133.957031 533.527344 C 140.933594 538.507812 149.082031 541.484375 157.210938 544.167969 C 178.746094 551.261719 200.71875 556.503906 223.136719 559.898438 C 226.765625 560.445312 230.425781 560.949219 233.898438 562.113281 C 237.003906 563.15625 239.914062 564.714844 242.949219 565.9375 C 250.015625 568.769531 257.613281 569.78125 265.140625 570.777344 C 266.425781 570.941406 267.898438 571.058594 268.84375 570.1875 C 270.070312 569.054688 269.664062 567.078125 269.316406 565.449219 C 269 563.914062 268.824219 562.363281 268.792969 560.796875 C 268.765625 559.226562 268.878906 557.671875 269.136719 556.125 C 269.390625 554.578125 269.789062 553.070312 270.324219 551.597656 C 270.859375 550.125 271.527344 548.710938 272.324219 547.359375 C 273.582031 545.246094 275.222656 543.074219 274.984375 540.625 C 274.703125 537.765625 271.851562 535.742188 269.015625 535.285156 C 266.179688 534.824219 263.292969 535.503906 260.445312 535.871094 C 259.441406 536.101562 258.46875 536.007812 257.53125 535.585938 C 257.105469 535.296875 256.726562 534.960938 256.390625 534.574219 C 255.902344 534.101562 255.378906 533.675781 254.824219 533.285156 C 254.269531 532.898438 253.6875 532.554688 253.078125 532.257812 C 252.46875 531.964844 251.839844 531.714844 251.191406 531.519531 C 250.542969 531.320312 249.882812 531.175781 249.214844 531.082031 C 248.542969 530.988281 247.867188 530.949219 247.191406 530.960938 C 246.511719 530.972656 245.839844 531.039062 245.175781 531.15625 C 244.507812 531.273438 243.851562 531.445312 243.210938 531.664062 C 242.574219 531.886719 241.953125 532.15625 241.355469 532.472656 C 240.300781 533.0625 238.707031 531.75 237.613281 531.257812 L 225.234375 525.65625 C 211.011719 519.230469 196.71875 512.773438 181.675781 508.703125 C 180.460938 508.464844 179.34375 508 178.320312 507.3125 C 177.570312 506.722656 177.035156 505.925781 176.347656 505.269531 C 174.847656 503.851562 172.753906 503.289062 170.957031 502.28125 C 169.15625 501.277344 167.140625 498.816406 167.550781 496.796875 Z M 167.550781 496.796875 " fill-opacity="1" fill-rule="nonzero"/><path fill="#fbbebe" d="M 208.421875 479.484375 C 208.421875 480.0625 208.363281 480.636719 208.25 481.203125 C 208.136719 481.773438 207.972656 482.324219 207.75 482.859375 C 207.527344 483.394531 207.253906 483.902344 206.933594 484.382812 C 206.613281 484.863281 206.246094 485.308594 205.835938 485.71875 C 205.425781 486.128906 204.980469 486.492188 204.5 486.8125 C 204.019531 487.136719 203.507812 487.40625 202.972656 487.628906 C 202.4375 487.851562 201.886719 488.015625 201.320312 488.128906 C 200.75 488.242188 200.175781 488.300781 199.597656 488.300781 C 199.019531 488.300781 198.445312 488.242188 197.875 488.128906 C 197.308594 488.015625 196.757812 487.851562 196.222656 487.628906 C 195.6875 487.40625 195.175781 487.136719 194.695312 486.8125 C 194.214844 486.492188 193.769531 486.128906 193.359375 485.71875 C 192.949219 485.308594 192.582031 484.863281 192.261719 484.382812 C 191.941406 483.902344 191.667969 483.394531 191.445312 482.859375 C 191.222656 482.324219 191.058594 481.773438 190.945312 481.203125 C 190.832031 480.636719 190.773438 480.0625 190.773438 479.484375 C 190.773438 478.90625 190.832031 478.332031 190.945312 477.765625 C 191.058594 477.199219 191.222656 476.648438 191.445312 476.113281 C 191.667969 475.578125 191.941406 475.070312 192.261719 474.589844 C 192.582031 474.105469 192.949219 473.660156 193.359375 473.253906 C 193.769531 472.84375 194.214844 472.476562 194.695312 472.15625 C 195.175781 471.835938 195.6875 471.5625 196.222656 471.339844 C 196.757812 471.121094 197.308594 470.953125 197.875 470.839844 C 198.445312 470.726562 199.019531 470.671875 199.597656 470.671875 C 200.175781 470.671875 200.75 470.726562 201.320312 470.839844 C 201.886719 470.953125 202.4375 471.121094 202.972656 471.339844 C 203.507812 471.5625 204.019531 471.835938 204.5 472.15625 C 204.980469 472.476562 205.425781 472.84375 205.835938 473.253906 C 206.246094 473.660156 206.613281 474.105469 206.933594 474.589844 C 207.253906 475.070312 207.527344 475.578125 207.75 476.113281 C 207.972656 476.648438 208.136719 477.199219 208.25 477.765625 C 208.363281 478.332031 208.421875 478.90625 208.421875 479.484375 Z M 208.421875 479.484375 " fill-opacity="1" fill-rule="nonzero"/><path fill="#fbbebe" d="M 227.957031 479.484375 C 227.957031 480.0625 227.902344 480.636719 227.789062 481.203125 C 227.675781 481.773438 227.507812 482.324219 227.285156 482.859375 C 227.0625 483.394531 226.792969 483.902344 226.46875 484.382812 C 226.148438 484.863281 225.78125 485.308594 225.375 485.71875 C 224.964844 486.128906 224.519531 486.492188 224.035156 486.8125 C 223.554688 487.136719 223.046875 487.40625 222.511719 487.628906 C 221.976562 487.851562 221.425781 488.015625 220.855469 488.128906 C 220.289062 488.242188 219.714844 488.300781 219.132812 488.300781 C 218.554688 488.300781 217.980469 488.242188 217.414062 488.128906 C 216.84375 488.015625 216.292969 487.851562 215.757812 487.628906 C 215.222656 487.40625 214.714844 487.136719 214.234375 486.8125 C 213.75 486.492188 213.304688 486.128906 212.894531 485.71875 C 212.484375 485.308594 212.121094 484.863281 211.796875 484.382812 C 211.476562 483.902344 211.203125 483.394531 210.984375 482.859375 C 210.761719 482.324219 210.59375 481.773438 210.480469 481.203125 C 210.367188 480.636719 210.3125 480.0625 210.3125 479.484375 C 210.3125 478.90625 210.367188 478.332031 210.480469 477.765625 C 210.59375 477.199219 210.761719 476.648438 210.984375 476.113281 C 211.203125 475.578125 211.476562 475.070312 211.796875 474.589844 C 212.121094 474.105469 212.484375 473.660156 212.894531 473.253906 C 213.304688 472.84375 213.75 472.476562 214.234375 472.15625 C 214.714844 471.835938 215.222656 471.5625 215.757812 471.339844 C 216.292969 471.121094 216.84375 470.953125 217.414062 470.839844 C 217.980469 470.726562 218.554688 470.671875 219.132812 470.671875 C 219.714844 470.671875 220.289062 470.726562 220.855469 470.839844 C 221.425781 470.953125 221.976562 471.121094 222.511719 471.339844 C 223.046875 471.5625 223.554688 471.835938 224.035156 472.15625 C 224.519531 472.476562 224.964844 472.84375 225.375 473.253906 C 225.78125 473.660156 226.148438 474.105469 226.46875 474.589844 C 226.792969 475.070312 227.0625 475.578125 227.285156 476.113281 C 227.507812 476.648438 227.675781 477.199219 227.789062 477.765625 C 227.902344 478.332031 227.957031 478.90625 227.957031 479.484375 Z M 227.957031 479.484375 " fill-opacity="1" fill-rule="nonzero"/><path fill="#3f3d56" d="M 273.597656 499.347656 L 152.378906 499.347656 C 152.03125 499.347656 151.683594 499.3125 151.339844 499.246094 C 150.996094 499.175781 150.664062 499.074219 150.339844 498.941406 C 150.015625 498.804688 149.707031 498.640625 149.417969 498.449219 C 149.125 498.253906 148.855469 498.03125 148.609375 497.785156 C 148.359375 497.535156 148.136719 497.265625 147.945312 496.976562 C 147.75 496.683594 147.585938 496.378906 147.449219 496.054688 C 147.316406 495.730469 147.214844 495.398438 147.144531 495.054688 C 147.078125 494.710938 147.042969 494.367188 147.042969 494.015625 L 147.042969 420.546875 C 147.042969 420.199219 147.078125 419.851562 147.144531 419.507812 C 147.214844 419.164062 147.316406 418.832031 147.449219 418.507812 C 147.585938 418.183594 147.75 417.878906 147.945312 417.585938 C 148.136719 417.296875 148.359375 417.027344 148.609375 416.777344 C 148.855469 416.53125 149.125 416.308594 149.417969 416.117188 C 149.707031 415.921875 150.015625 415.757812 150.339844 415.621094 C 150.660156 415.488281 150.996094 415.386719 151.339844 415.320312 C 151.683594 415.25 152.03125 415.214844 152.378906 415.214844 L 273.597656 415.214844 C 273.949219 415.214844 274.292969 415.25 274.636719 415.320312 C 274.980469 415.386719 275.316406 415.488281 275.640625 415.621094 C 275.960938 415.757812 276.269531 415.921875 276.5625 416.117188 C 276.851562 416.308594 277.121094 416.53125 277.371094 416.777344 C 277.617188 417.027344 277.839844 417.296875 278.035156 417.585938 C 278.226562 417.878906 278.394531 418.183594 278.527344 418.507812 C 278.660156 418.832031 278.761719 419.164062 278.832031 419.507812 C 278.898438 419.851562 278.933594 420.199219 278.933594 420.546875 L 278.933594 494.015625 C 278.933594 494.367188 278.898438 494.710938 278.832031 495.054688 C 278.761719 495.398438 278.660156 495.730469 278.527344 496.054688 C 278.394531 496.378906 278.226562 496.683594 278.035156 496.976562 C 277.839844 497.265625 277.617188 497.535156 277.371094 497.785156 C 277.121094 498.03125 276.851562 498.253906 276.5625 498.449219 C 276.269531 498.640625 275.960938 498.804688 275.640625 498.941406 C 275.316406 499.074219 274.980469 499.175781 274.636719 499.246094 C 274.292969 499.3125 273.949219 499.347656 273.597656 499.347656 Z M 273.597656 499.347656 " fill-opacity="1" fill-rule="nonzero"/><path fill="#ffffff" d="M 216.226562 457.28125 C 216.226562 457.75 216.136719 458.199219 215.957031 458.632812 C 215.777344 459.0625 215.523438 459.445312 215.191406 459.777344 C 214.859375 460.105469 214.480469 460.363281 214.046875 460.539062 C 213.613281 460.71875 213.164062 460.808594 212.695312 460.808594 C 212.226562 460.808594 211.777344 460.71875 211.34375 460.539062 C 210.910156 460.363281 210.527344 460.105469 210.199219 459.777344 C 209.867188 459.445312 209.609375 459.0625 209.433594 458.632812 C 209.253906 458.199219 209.164062 457.75 209.164062 457.28125 C 209.164062 456.8125 209.253906 456.363281 209.433594 455.929688 C 209.609375 455.5 209.867188 455.117188 210.199219 454.785156 C 210.527344 454.457031 210.910156 454.199219 211.34375 454.019531 C 211.777344 453.84375 212.226562 453.753906 212.695312 453.753906 C 213.164062 453.753906 213.613281 453.84375 214.046875 454.019531 C 214.480469 454.199219 214.859375 454.457031 215.191406 454.785156 C 215.523438 455.117188 215.777344 455.5 215.957031 455.929688 C 216.136719 456.363281 216.226562 456.8125 216.226562 457.28125 Z M 216.226562 457.28125 " fill-opacity="1" fill-rule="nonzero"/><path fill="#3f3d56" d="M 645.425781 352.59375 L 487.9375 352.59375 C 487.519531 352.59375 487.117188 352.515625 486.730469 352.355469 C 486.347656 352.195312 486.003906 351.964844 485.710938 351.671875 C 485.414062 351.375 485.1875 351.035156 485.027344 350.652344 C 484.867188 350.265625 484.785156 349.863281 484.785156 349.445312 L 484.785156 319.792969 L 486.046875 319.792969 L 486.046875 349.445312 C 486.046875 349.695312 486.09375 349.9375 486.191406 350.167969 C 486.289062 350.398438 486.425781 350.605469 486.601562 350.78125 C 486.777344 350.957031 486.984375 351.09375 487.214844 351.191406 C 487.445312 351.285156 487.6875 351.335938 487.9375 351.335938 L 645.425781 351.335938 C 645.675781 351.335938 645.917969 351.285156 646.148438 351.191406 C 646.382812 351.09375 646.585938 350.957031 646.761719 350.78125 C 646.941406 350.605469 647.078125 350.398438 647.171875 350.167969 C 647.269531 349.9375 647.316406 349.695312 647.316406 349.445312 L 647.316406 319.585938 L 648.578125 319.585938 L 648.578125 349.445312 C 648.578125 349.863281 648.496094 350.265625 648.335938 350.652344 C 648.175781 351.035156 647.949219 351.375 647.652344 351.671875 C 647.359375 351.964844 647.019531 352.195312 646.632812 352.355469 C 646.246094 352.515625 645.84375 352.59375 645.425781 352.59375 Z M 645.425781 352.59375 " fill-opacity="1" fill-rule="nonzero"/><path fill="#3f3d56" d="M 332.4375 319.160156 L 702.515625 319.160156 L 702.515625 320.421875 L 332.4375 320.421875 Z M 332.4375 319.160156 " fill-opacity="1" fill-rule="nonzero"/><path fill="#05FF96" d="M 343.304688 319.691406 C 343.304688 320.402344 343.234375 321.109375 343.097656 321.804688 C 342.957031 322.503906 342.75 323.179688 342.480469 323.835938 C 342.207031 324.496094 341.871094 325.117188 341.476562 325.710938 C 341.082031 326.300781 340.632812 326.847656 340.128906 327.351562 C 339.625 327.855469 339.078125 328.304688 338.484375 328.699219 C 337.894531 329.09375 337.269531 329.425781 336.613281 329.699219 C 335.953125 329.972656 335.277344 330.175781 334.578125 330.316406 C 333.878906 330.453125 333.175781 330.523438 332.464844 330.523438 C 331.75 330.523438 331.046875 330.453125 330.347656 330.316406 C 329.648438 330.175781 328.972656 329.972656 328.3125 329.699219 C 327.65625 329.425781 327.03125 329.09375 326.441406 328.699219 C 325.847656 328.304688 325.300781 327.855469 324.796875 327.351562 C 324.292969 326.847656 323.84375 326.300781 323.449219 325.710938 C 323.054688 325.117188 322.71875 324.496094 322.445312 323.835938 C 322.175781 323.179688 321.96875 322.503906 321.832031 321.804688 C 321.691406 321.109375 321.621094 320.402344 321.621094 319.691406 C 321.621094 318.980469 321.691406 318.277344 321.832031 317.578125 C 321.96875 316.882812 322.175781 316.207031 322.445312 315.546875 C 322.71875 314.890625 323.054688 314.265625 323.449219 313.675781 C 323.84375 313.085938 324.292969 312.539062 324.796875 312.035156 C 325.300781 311.53125 325.847656 311.082031 326.441406 310.6875 C 327.03125 310.292969 327.65625 309.960938 328.3125 309.6875 C 328.972656 309.414062 329.648438 309.210938 330.347656 309.070312 C 331.046875 308.933594 331.75 308.863281 332.464844 308.863281 C 333.175781 308.863281 333.878906 308.933594 334.578125 309.070312 C 335.277344 309.210938 335.953125 309.414062 336.613281 309.6875 C 337.269531 309.960938 337.894531 310.292969 338.484375 310.6875 C 339.078125 311.082031 339.625 311.53125 340.128906 312.035156 C 340.632812 312.539062 341.082031 313.085938 341.476562 313.675781 C 341.871094 314.265625 342.207031 314.890625 342.480469 315.546875 C 342.75 316.207031 342.957031 316.882812 343.097656 317.578125 C 343.234375 318.277344 343.304688 318.980469 343.304688 319.691406 Z M 343.304688 319.691406 " fill-opacity="1" fill-rule="nonzero"/><path fill="#225FFD" d="M 453.46875 319.691406 C 453.46875 320.402344 453.402344 321.109375 453.261719 321.804688 C 453.125 322.503906 452.917969 323.179688 452.644531 323.835938 C 452.371094 324.496094 452.039062 325.117188 451.644531 325.710938 C 451.25 326.300781 450.796875 326.847656 450.296875 327.351562 C 449.792969 327.855469 449.246094 328.304688 448.652344 328.699219 C 448.0625 329.09375 447.4375 329.425781 446.777344 329.699219 C 446.121094 329.972656 445.441406 330.175781 444.746094 330.316406 C 444.046875 330.453125 443.339844 330.523438 442.628906 330.523438 C 441.917969 330.523438 441.210938 330.453125 440.515625 330.316406 C 439.816406 330.175781 439.136719 329.972656 438.480469 329.699219 C 437.824219 329.425781 437.199219 329.09375 436.605469 328.699219 C 436.015625 328.304688 435.46875 327.855469 434.964844 327.351562 C 434.460938 326.847656 434.011719 326.300781 433.617188 325.710938 C 433.21875 325.117188 432.886719 324.496094 432.613281 323.835938 C 432.339844 323.179688 432.136719 322.503906 431.996094 321.804688 C 431.859375 321.109375 431.789062 320.402344 431.789062 319.691406 C 431.789062 318.980469 431.859375 318.277344 431.996094 317.578125 C 432.136719 316.882812 432.339844 316.207031 432.613281 315.546875 C 432.886719 314.890625 433.21875 314.265625 433.617188 313.675781 C 434.011719 313.085938 434.460938 312.539062 434.964844 312.035156 C 435.46875 311.53125 436.015625 311.082031 436.605469 310.6875 C 437.199219 310.292969 437.824219 309.960938 438.480469 309.6875 C 439.136719 309.414062 439.816406 309.210938 440.515625 309.070312 C 441.210938 308.933594 441.917969 308.863281 442.628906 308.863281 C 443.339844 308.863281 444.046875 308.933594 444.746094 309.070312 C 445.441406 309.210938 446.121094 309.414062 446.777344 309.6875 C 447.4375 309.960938 448.0625 310.292969 448.652344 310.6875 C 449.246094 311.082031 449.792969 311.53125 450.296875 312.035156 C 450.796875 312.539062 451.25 313.085938 451.644531 313.675781 C 452.039062 314.265625 452.371094 314.890625 452.644531 315.546875 C 452.917969 316.207031 453.125 316.882812 453.261719 317.578125 C 453.402344 318.277344 453.46875 318.980469 453.46875 319.691406 Z M 453.46875 319.691406 " fill-opacity="1" fill-rule="nonzero"/><path fill="#3f3d56" d="M 528.234375 351.527344 C 528.234375 352.238281 528.167969 352.941406 528.027344 353.640625 C 527.886719 354.335938 527.683594 355.015625 527.410156 355.671875 C 527.136719 356.328125 526.804688 356.953125 526.410156 357.542969 C 526.011719 358.136719 525.5625 358.683594 525.058594 359.183594 C 524.558594 359.6875 524.007812 360.136719 523.417969 360.53125 C 522.824219 360.925781 522.199219 361.261719 521.542969 361.53125 C 520.886719 361.804688 520.207031 362.011719 519.507812 362.148438 C 518.8125 362.289062 518.105469 362.359375 517.394531 362.359375 C 516.683594 362.359375 515.976562 362.289062 515.28125 362.148438 C 514.582031 362.011719 513.902344 361.804688 513.246094 361.53125 C 512.589844 361.261719 511.964844 360.925781 511.371094 360.53125 C 510.78125 360.136719 510.230469 359.6875 509.726562 359.183594 C 509.226562 358.683594 508.777344 358.136719 508.378906 357.542969 C 507.984375 356.953125 507.652344 356.328125 507.378906 355.671875 C 507.105469 355.015625 506.898438 354.335938 506.761719 353.640625 C 506.621094 352.941406 506.554688 352.238281 506.554688 351.527344 C 506.554688 350.816406 506.621094 350.113281 506.761719 349.414062 C 506.902344 348.714844 507.105469 348.039062 507.378906 347.382812 C 507.652344 346.726562 507.984375 346.101562 508.378906 345.507812 C 508.777344 344.917969 509.226562 344.371094 509.730469 343.867188 C 510.230469 343.367188 510.78125 342.917969 511.371094 342.523438 C 511.964844 342.125 512.589844 341.792969 513.246094 341.519531 C 513.902344 341.25 514.582031 341.042969 515.28125 340.90625 C 515.976562 340.765625 516.683594 340.695312 517.394531 340.695312 C 518.105469 340.695312 518.8125 340.765625 519.507812 340.90625 C 520.207031 341.042969 520.886719 341.25 521.542969 341.519531 C 522.199219 341.792969 522.824219 342.125 523.417969 342.523438 C 524.007812 342.917969 524.558594 343.367188 525.058594 343.867188 C 525.5625 344.371094 526.011719 344.917969 526.410156 345.507812 C 526.804688 346.101562 527.136719 346.726562 527.410156 347.382812 C 527.683594 348.039062 527.886719 348.714844 528.027344 349.414062 C 528.167969 350.113281 528.234375 350.816406 528.234375 351.527344 Z M 528.234375 351.527344 " fill-opacity="1" fill-rule="nonzero"/><path fill="#cccccc" d="M 585.074219 351.527344 C 585.074219 352.238281 585.003906 352.941406 584.867188 353.640625 C 584.726562 354.335938 584.519531 355.015625 584.25 355.671875 C 583.976562 356.328125 583.640625 356.953125 583.246094 357.542969 C 582.851562 358.136719 582.402344 358.683594 581.898438 359.183594 C 581.394531 359.6875 580.847656 360.136719 580.253906 360.53125 C 579.664062 360.925781 579.039062 361.261719 578.382812 361.53125 C 577.722656 361.804688 577.046875 362.011719 576.347656 362.148438 C 575.648438 362.289062 574.945312 362.359375 574.234375 362.359375 C 573.519531 362.359375 572.816406 362.289062 572.117188 362.148438 C 571.417969 362.011719 570.742188 361.804688 570.082031 361.53125 C 569.425781 361.261719 568.800781 360.925781 568.210938 360.53125 C 567.617188 360.136719 567.070312 359.6875 566.566406 359.183594 C 566.0625 358.683594 565.613281 358.136719 565.21875 357.542969 C 564.824219 356.953125 564.488281 356.328125 564.214844 355.671875 C 563.945312 355.015625 563.738281 354.335938 563.601562 353.640625 C 563.460938 352.941406 563.390625 352.238281 563.390625 351.527344 C 563.390625 350.816406 563.460938 350.113281 563.601562 349.414062 C 563.738281 348.714844 563.945312 348.039062 564.214844 347.382812 C 564.488281 346.726562 564.824219 346.101562 565.21875 345.507812 C 565.613281 344.917969 566.0625 344.371094 566.566406 343.867188 C 567.070312 343.367188 567.617188 342.917969 568.210938 342.523438 C 568.800781 342.125 569.425781 341.792969 570.082031 341.519531 C 570.742188 341.25 571.417969 341.042969 572.117188 340.90625 C 572.816406 340.765625 573.519531 340.695312 574.234375 340.695312 C 574.945312 340.695312 575.648438 340.765625 576.347656 340.90625 C 577.046875 341.042969 577.722656 341.25 578.382812 341.519531 C 579.039062 341.792969 579.664062 342.125 580.253906 342.523438 C 580.847656 342.917969 581.394531 343.367188 581.898438 343.867188 C 582.402344 344.371094 582.851562 344.917969 583.246094 345.507812 C 583.640625 346.101562 583.976562 346.726562 584.25 347.382812 C 584.519531 348.039062 584.726562 348.714844 584.867188 349.414062 C 585.003906 350.113281 585.074219 350.816406 585.074219 351.527344 Z M 585.074219 351.527344 " fill-opacity="1" fill-rule="nonzero"/><path fill="#05FF96" d="M 557.53125 319.691406 C 557.53125 320.402344 557.460938 321.109375 557.324219 321.804688 C 557.183594 322.503906 556.976562 323.179688 556.707031 323.835938 C 556.433594 324.496094 556.097656 325.117188 555.703125 325.710938 C 555.308594 326.300781 554.859375 326.847656 554.355469 327.351562 C 553.851562 327.855469 553.304688 328.304688 552.710938 328.699219 C 552.121094 329.09375 551.496094 329.425781 550.839844 329.699219 C 550.179688 329.972656 549.503906 330.175781 548.804688 330.316406 C 548.105469 330.453125 547.402344 330.523438 546.691406 330.523438 C 545.976562 330.523438 545.273438 330.453125 544.574219 330.316406 C 543.875 330.175781 543.199219 329.972656 542.542969 329.699219 C 541.882812 329.425781 541.257812 329.09375 540.667969 328.699219 C 540.074219 328.304688 539.527344 327.855469 539.023438 327.351562 C 538.519531 326.847656 538.070312 326.300781 537.675781 325.710938 C 537.28125 325.117188 536.945312 324.496094 536.671875 323.835938 C 536.402344 323.179688 536.195312 322.503906 536.058594 321.804688 C 535.917969 321.109375 535.847656 320.402344 535.847656 319.691406 C 535.847656 318.980469 535.917969 318.277344 536.058594 317.578125 C 536.195312 316.882812 536.402344 316.207031 536.671875 315.546875 C 536.945312 314.890625 537.28125 314.265625 537.675781 313.675781 C 538.070312 313.085938 538.519531 312.539062 539.023438 312.035156 C 539.527344 311.53125 540.074219 311.082031 540.667969 310.6875 C 541.257812 310.292969 541.882812 309.960938 542.542969 309.6875 C 543.199219 309.414062 543.875 309.210938 544.574219 309.070312 C 545.273438 308.933594 545.976562 308.863281 546.691406 308.863281 C 547.402344 308.863281 548.105469 308.933594 548.804688 309.070312 C 549.503906 309.210938 550.179688 309.414062 550.839844 309.6875 C 551.496094 309.960938 552.121094 310.292969 552.710938 310.6875 C 553.304688 311.082031 553.851562 311.53125 554.355469 312.035156 C 554.859375 312.539062 555.308594 313.085938 555.703125 313.675781 C 556.097656 314.265625 556.433594 314.890625 556.707031 315.546875 C 556.976562 316.207031 557.183594 316.882812 557.324219 317.578125 C 557.460938 318.277344 557.53125 318.980469 557.53125 319.691406 Z M 557.53125 319.691406 " fill-opacity="1" fill-rule="nonzero"/><g clip-path="url(#cac4ce614f)"><path fill="#225FFD" d="M 711.871094 319.691406 C 711.871094 320.402344 711.804688 321.109375 711.664062 321.804688 C 711.523438 322.503906 711.320312 323.179688 711.046875 323.835938 C 710.773438 324.496094 710.441406 325.117188 710.046875 325.710938 C 709.648438 326.300781 709.199219 326.847656 708.695312 327.351562 C 708.195312 327.855469 707.644531 328.304688 707.054688 328.699219 C 706.460938 329.09375 705.835938 329.425781 705.179688 329.699219 C 704.523438 329.972656 703.84375 330.175781 703.144531 330.316406 C 702.449219 330.453125 701.742188 330.523438 701.03125 330.523438 C 700.320312 330.523438 699.613281 330.453125 698.917969 330.316406 C 698.21875 330.175781 697.539062 329.972656 696.882812 329.699219 C 696.226562 329.425781 695.601562 329.09375 695.007812 328.699219 C 694.417969 328.304688 693.867188 327.855469 693.367188 327.351562 C 692.863281 326.847656 692.414062 326.300781 692.015625 325.710938 C 691.621094 325.117188 691.289062 324.496094 691.015625 323.835938 C 690.742188 323.179688 690.539062 322.503906 690.398438 321.804688 C 690.257812 321.109375 690.191406 320.402344 690.191406 319.691406 C 690.191406 318.980469 690.257812 318.277344 690.398438 317.578125 C 690.539062 316.882812 690.742188 316.207031 691.015625 315.546875 C 691.289062 314.890625 691.621094 314.265625 692.015625 313.675781 C 692.414062 313.085938 692.863281 312.539062 693.367188 312.035156 C 693.867188 311.53125 694.417969 311.082031 695.007812 310.6875 C 695.601562 310.292969 696.226562 309.960938 696.882812 309.6875 C 697.539062 309.414062 698.21875 309.210938 698.917969 309.070312 C 699.613281 308.933594 700.320312 308.863281 701.03125 308.863281 C 701.742188 308.863281 702.449219 308.933594 703.144531 309.070312 C 703.84375 309.210938 704.523438 309.414062 705.179688 309.6875 C 705.835938 309.960938 706.460938 310.292969 707.054688 310.6875 C 707.644531 311.082031 708.195312 311.53125 708.695312 312.035156 C 709.199219 312.539062 709.648438 313.085938 710.046875 313.675781 C 710.441406 314.265625 710.773438 314.890625 711.046875 315.546875 C 711.320312 316.207031 711.523438 316.882812 711.664062 317.578125 C 711.804688 318.277344 711.871094 318.980469 711.871094 319.691406 Z M 711.871094 319.691406 " fill-opacity="1" fill-rule="nonzero"/></g><path fill="#05FF96" d="M 658.789062 319.691406 C 658.789062 320.402344 658.71875 321.109375 658.582031 321.804688 C 658.441406 322.503906 658.234375 323.179688 657.964844 323.835938 C 657.691406 324.496094 657.355469 325.117188 656.960938 325.710938 C 656.566406 326.300781 656.117188 326.847656 655.613281 327.351562 C 655.109375 327.855469 654.5625 328.304688 653.96875 328.699219 C 653.378906 329.09375 652.753906 329.425781 652.097656 329.699219 C 651.4375 329.972656 650.761719 330.175781 650.0625 330.316406 C 649.363281 330.453125 648.660156 330.523438 647.949219 330.523438 C 647.234375 330.523438 646.53125 330.453125 645.832031 330.316406 C 645.132812 330.175781 644.457031 329.972656 643.796875 329.699219 C 643.140625 329.425781 642.515625 329.09375 641.925781 328.699219 C 641.332031 328.304688 640.785156 327.855469 640.28125 327.351562 C 639.777344 326.847656 639.328125 326.300781 638.933594 325.710938 C 638.539062 325.117188 638.203125 324.496094 637.929688 323.835938 C 637.660156 323.179688 637.453125 322.503906 637.316406 321.804688 C 637.175781 321.109375 637.105469 320.402344 637.105469 319.691406 C 637.105469 318.980469 637.175781 318.277344 637.316406 317.578125 C 637.453125 316.882812 637.660156 316.207031 637.929688 315.546875 C 638.203125 314.890625 638.539062 314.265625 638.933594 313.675781 C 639.328125 313.085938 639.777344 312.539062 640.28125 312.035156 C 640.785156 311.53125 641.332031 311.082031 641.925781 310.6875 C 642.515625 310.292969 643.140625 309.960938 643.796875 309.6875 C 644.457031 309.414062 645.132812 309.210938 645.832031 309.070312 C 646.53125 308.933594 647.234375 308.863281 647.949219 308.863281 C 648.660156 308.863281 649.363281 308.933594 650.0625 309.070312 C 650.761719 309.210938 651.4375 309.414062 652.097656 309.6875 C 652.753906 309.960938 653.378906 310.292969 653.96875 310.6875 C 654.5625 311.082031 655.109375 311.53125 655.613281 312.035156 C 656.117188 312.539062 656.566406 313.085938 656.960938 313.675781 C 657.355469 314.265625 657.691406 314.890625 657.964844 315.546875 C 658.234375 316.207031 658.441406 316.882812 658.582031 317.578125 C 658.71875 318.277344 658.789062 318.980469 658.789062 319.691406 Z M 658.789062 319.691406 " fill-opacity="1" fill-rule="nonzero"/><g clip-path="url(#8f629bfdc7)"><path fill="#3f3d56" d="M 507.097656 220.089844 L 527.207031 220.089844 L 527.207031 233.9375 L 507.097656 233.9375 Z M 507.097656 220.089844 " fill-opacity="1" fill-rule="nonzero"/></g><g clip-path="url(#a24586a733)"><path fill="#225FFD" d="M 322.488281 220.089844 L 342.597656 220.089844 L 342.597656 233.9375 L 322.488281 233.9375 Z M 322.488281 220.089844 " fill-opacity="1" fill-rule="nonzero"/></g><g clip-path="url(#c9cb80264a)"><path fill="#cccccc" d="M 390.597656 220.089844 L 410.707031 220.089844 L 410.707031 233.9375 L 390.597656 233.9375 Z M 390.597656 220.089844 " fill-opacity="1" fill-rule="nonzero"/></g><path fill="#3f3d56" d="M 366.082031 320.421875 C 365.90625 320.421875 365.757812 320.359375 365.636719 320.238281 C 365.511719 320.113281 365.449219 319.964844 365.449219 319.792969 L 365.449219 288.710938 C 365.449219 288.296875 365.53125 287.894531 365.691406 287.507812 C 365.851562 287.121094 366.078125 286.78125 366.375 286.488281 C 366.667969 286.191406 367.011719 285.964844 367.394531 285.804688 C 367.78125 285.644531 368.183594 285.566406 368.601562 285.5625 L 399.277344 285.5625 C 399.453125 285.5625 399.601562 285.625 399.722656 285.75 C 399.847656 285.871094 399.90625 286.019531 399.90625 286.195312 C 399.90625 286.367188 399.847656 286.515625 399.722656 286.640625 C 399.601562 286.761719 399.453125 286.824219 399.277344 286.824219 L 368.601562 286.824219 C 368.351562 286.824219 368.109375 286.871094 367.878906 286.96875 C 367.648438 287.0625 367.441406 287.199219 367.265625 287.378906 C 367.089844 287.554688 366.953125 287.757812 366.855469 287.988281 C 366.757812 288.222656 366.710938 288.460938 366.710938 288.710938 L 366.710938 319.792969 C 366.710938 319.964844 366.648438 320.113281 366.527344 320.238281 C 366.402344 320.359375 366.253906 320.421875 366.082031 320.421875 Z M 366.082031 320.421875 " fill-opacity="1" fill-rule="nonzero"/><path fill="#e6e6e6" d="M 411.5625 285.957031 C 411.5625 286.667969 411.492188 287.375 411.351562 288.070312 C 411.214844 288.769531 411.007812 289.445312 410.734375 290.101562 C 410.464844 290.761719 410.128906 291.382812 409.734375 291.976562 C 409.339844 292.566406 408.886719 293.113281 408.386719 293.617188 C 407.882812 294.121094 407.335938 294.570312 406.742188 294.964844 C 406.152344 295.359375 405.527344 295.691406 404.867188 295.964844 C 404.210938 296.238281 403.53125 296.441406 402.835938 296.582031 C 402.136719 296.71875 401.429688 296.789062 400.71875 296.789062 C 400.007812 296.789062 399.300781 296.71875 398.605469 296.582031 C 397.90625 296.441406 397.226562 296.238281 396.570312 295.964844 C 395.914062 295.691406 395.289062 295.359375 394.695312 294.964844 C 394.105469 294.570312 393.558594 294.121094 393.054688 293.617188 C 392.550781 293.113281 392.101562 292.566406 391.707031 291.976562 C 391.308594 291.382812 390.976562 290.761719 390.703125 290.101562 C 390.429688 289.445312 390.226562 288.769531 390.085938 288.070312 C 389.949219 287.375 389.878906 286.667969 389.878906 285.957031 C 389.878906 285.246094 389.949219 284.542969 390.085938 283.84375 C 390.226562 283.148438 390.429688 282.46875 390.703125 281.8125 C 390.976562 281.15625 391.308594 280.53125 391.707031 279.941406 C 392.101562 279.351562 392.550781 278.804688 393.054688 278.300781 C 393.558594 277.796875 394.105469 277.347656 394.695312 276.953125 C 395.289062 276.558594 395.914062 276.222656 396.570312 275.953125 C 397.226562 275.679688 397.90625 275.472656 398.605469 275.335938 C 399.300781 275.195312 400.007812 275.128906 400.71875 275.128906 C 401.429688 275.128906 402.136719 275.195312 402.835938 275.335938 C 403.53125 275.472656 404.210938 275.679688 404.867188 275.953125 C 405.527344 276.222656 406.152344 276.558594 406.742188 276.953125 C 407.335938 277.347656 407.882812 277.796875 408.386719 278.300781 C 408.890625 278.804688 409.339844 279.351562 409.734375 279.941406 C 410.128906 280.53125 410.464844 281.15625 410.734375 281.8125 C 411.007812 282.46875 411.214844 283.148438 411.351562 283.84375 C 411.492188 284.542969 411.5625 285.246094 411.5625 285.957031 Z M 411.5625 285.957031 " fill-opacity="1" fill-rule="nonzero"/><path fill="#3f3d56" d="M 608.71875 319.792969 L 607.457031 319.792969 L 607.457031 288.710938 C 607.457031 288.296875 607.539062 287.894531 607.699219 287.507812 C 607.859375 287.121094 608.085938 286.78125 608.382812 286.488281 C 608.675781 286.191406 609.015625 285.964844 609.402344 285.804688 C 609.789062 285.644531 610.191406 285.566406 610.609375 285.5625 L 641.285156 285.5625 L 641.285156 286.824219 L 610.609375 286.824219 C 610.359375 286.824219 610.117188 286.871094 609.886719 286.96875 C 609.652344 287.0625 609.449219 287.199219 609.273438 287.378906 C 609.09375 287.554688 608.957031 287.757812 608.863281 287.988281 C 608.765625 288.222656 608.71875 288.460938 608.71875 288.710938 Z M 608.71875 319.792969 " fill-opacity="1" fill-rule="nonzero"/><path fill="#e6e6e6" d="M 653.566406 285.957031 C 653.566406 286.667969 653.496094 287.375 653.359375 288.070312 C 653.21875 288.769531 653.015625 289.445312 652.742188 290.101562 C 652.46875 290.761719 652.136719 291.382812 651.738281 291.976562 C 651.34375 292.566406 650.894531 293.113281 650.390625 293.617188 C 649.886719 294.121094 649.339844 294.570312 648.75 294.964844 C 648.15625 295.359375 647.53125 295.691406 646.875 295.964844 C 646.21875 296.238281 645.539062 296.441406 644.839844 296.582031 C 644.144531 296.71875 643.4375 296.789062 642.726562 296.789062 C 642.015625 296.789062 641.308594 296.71875 640.609375 296.582031 C 639.914062 296.441406 639.234375 296.238281 638.578125 295.964844 C 637.917969 295.691406 637.292969 295.359375 636.703125 294.964844 C 636.109375 294.570312 635.5625 294.121094 635.058594 293.617188 C 634.558594 293.113281 634.109375 292.566406 633.710938 291.976562 C 633.316406 291.382812 632.984375 290.761719 632.710938 290.101562 C 632.4375 289.445312 632.230469 288.769531 632.09375 288.070312 C 631.953125 287.375 631.886719 286.667969 631.886719 285.957031 C 631.886719 285.246094 631.953125 284.542969 632.09375 283.84375 C 632.230469 283.148438 632.4375 282.46875 632.710938 281.8125 C 632.984375 281.15625 633.316406 280.53125 633.710938 279.941406 C 634.109375 279.351562 634.558594 278.804688 635.058594 278.300781 C 635.5625 277.796875 636.109375 277.347656 636.703125 276.953125 C 637.292969 276.558594 637.917969 276.222656 638.578125 275.953125 C 639.234375 275.679688 639.914062 275.472656 640.609375 275.335938 C 641.308594 275.195312 642.015625 275.128906 642.726562 275.128906 C 643.4375 275.128906 644.144531 275.195312 644.839844 275.335938 C 645.539062 275.472656 646.21875 275.679688 646.875 275.953125 C 647.53125 276.222656 648.15625 276.558594 648.75 276.953125 C 649.339844 277.347656 649.886719 277.796875 650.390625 278.300781 C 650.894531 278.804688 651.34375 279.351562 651.738281 279.941406 C 652.136719 280.53125 652.46875 281.15625 652.742188 281.8125 C 653.015625 282.46875 653.21875 283.148438 653.359375 283.84375 C 653.496094 284.542969 653.566406 285.246094 653.566406 285.957031 Z M 653.566406 285.957031 " fill-opacity="1" fill-rule="nonzero"/></svg>